<svg xmlns="http://www.w3.org/2000/svg" xmlns:xlink="http://www.w3.org/1999/xlink" viewBox="0 0 46.24 37.55"><defs><style>.cls-1{mask:url(#mask);filter:url(#luminosity-noclip-3);}.cls-2,.cls-4{mix-blend-mode:multiply;}.cls-2{fill:url(#linear-gradient);}.cls-3{mask:url(#mask-2);filter:url(#luminosity-noclip-4);}.cls-4{fill:url(#linear-gradient-2);}.cls-5{fill:url(#radial-gradient);}.cls-6{fill:url(#radial-gradient-2);}.cls-7{mask:url(#mask-3);}.cls-33,.cls-42,.cls-8{opacity:0.4;}.cls-8{fill:url(#linear-gradient-3);}.cls-11,.cls-22,.cls-34,.cls-9{opacity:0.3;}.cls-9{fill:url(#radial-gradient-3);}.cls-10{fill:#662d91;}.cls-10,.cls-16,.cls-21,.cls-24,.cls-41{opacity:0.2;}.cls-11{fill:#fdf8ad;}.cls-12{fill:#fbb040;}.cls-13{fill:url(#linear-gradient-4);}.cls-14{fill:#a97c50;}.cls-15,.cls-17{fill:#fff;}.cls-15,.cls-40{opacity:0.5;}.cls-18,.cls-23{opacity:0.1;}.cls-19{opacity:0.05;}.cls-20,.cls-21,.cls-22,.cls-23{fill:#290c03;}.cls-24{fill:#6bfcfc;}.cls-25{fill:#ef712b;}.cls-26{fill:url(#radial-gradient-4);}.cls-27{fill:url(#radial-gradient-5);}.cls-28{fill:url(#radial-gradient-6);}.cls-29{fill:url(#radial-gradient-7);}.cls-30{fill:url(#radial-gradient-8);}.cls-31{fill:url(#radial-gradient-9);}.cls-32{mask:url(#mask-4);}.cls-33{fill:url(#linear-gradient-5);}.cls-34{fill:url(#radial-gradient-10);}.cls-35{fill:url(#radial-gradient-11);}.cls-36{fill:#f5e7b8;}.cls-37{fill:url(#radial-gradient-12);}.cls-38{fill:url(#radial-gradient-13);}.cls-39{fill:url(#radial-gradient-14);}.cls-40,.cls-41{fill:#d7df23;}.cls-43{fill:#f15a29;}.cls-44{filter:url(#luminosity-noclip-2);}.cls-45{filter:url(#luminosity-noclip);}</style><filter id="luminosity-noclip" x="2.32" y="-8090.85" width="27.99" height="32766" filterUnits="userSpaceOnUse" color-interpolation-filters="sRGB"><feFlood flood-color="#fff" result="bg"/><feBlend in="SourceGraphic" in2="bg"/></filter><mask id="mask" x="2.32" y="-8090.85" width="27.99" height="32766" maskUnits="userSpaceOnUse"><g class="cls-45"/></mask><linearGradient id="linear-gradient" x1="13.48" y1="14.01" x2="28.01" y2="25.08" gradientUnits="userSpaceOnUse"><stop offset="0"/><stop offset="0.09" stop-color="#2b2b2b"/><stop offset="0.23" stop-color="#626262"/><stop offset="0.37" stop-color="#929292"/><stop offset="0.5" stop-color="#b9b9b9"/><stop offset="0.63" stop-color="#d8d8d8"/><stop offset="0.76" stop-color="#eee"/><stop offset="0.89" stop-color="#fbfbfb"/><stop offset="1" stop-color="#fff"/></linearGradient><filter id="luminosity-noclip-2" x="25.82" y="-8090.85" width="20.09" height="32766" filterUnits="userSpaceOnUse" color-interpolation-filters="sRGB"><feFlood flood-color="#fff" result="bg"/><feBlend in="SourceGraphic" in2="bg"/></filter><mask id="mask-2" x="25.82" y="-8090.85" width="20.09" height="32766" maskUnits="userSpaceOnUse"><g class="cls-44"/></mask><linearGradient id="linear-gradient-2" x1="33.86" y1="22.57" x2="40.13" y2="42.13" xlink:href="#linear-gradient"/><radialGradient id="radial-gradient" cx="10.57" cy="11.14" r="15.03" gradientUnits="userSpaceOnUse"><stop offset="0" stop-color="#fdd08c"/><stop offset="0.01" stop-color="#fdcf8a"/><stop offset="0.22" stop-color="#fbba64"/><stop offset="0.42" stop-color="#f9a945"/><stop offset="0.63" stop-color="#f89e2f"/><stop offset="0.82" stop-color="#f79622"/><stop offset="1" stop-color="#f7941e"/></radialGradient><radialGradient id="radial-gradient-2" cx="10.57" cy="11.14" r="15.03" gradientUnits="userSpaceOnUse"><stop offset="0" stop-color="#fdd08c"/><stop offset="0.24" stop-color="#fab153"/><stop offset="0.43" stop-color="#f89c2d"/><stop offset="0.53" stop-color="#f7941e"/><stop offset="1" stop-color="#ef712b"/></radialGradient><filter id="luminosity-noclip-3" x="2.32" y="0.87" width="27.99" height="29.53" filterUnits="userSpaceOnUse" color-interpolation-filters="sRGB"><feFlood flood-color="#fff" result="bg"/><feBlend in="SourceGraphic" in2="bg"/></filter><mask id="mask-3" x="2.32" y="0.87" width="27.99" height="29.53" maskUnits="userSpaceOnUse"><g class="cls-1"><path class="cls-2" d="M6,27.09c.17.15.39.14.58.27s.23.32.38.49c.59.67,1.55.69,2.26,1.09a5,5,0,0,0,1.15.64c.37.11.77.19,1.14.31a2.43,2.43,0,0,0,.86.22c.39,0,.77.11,1.15.13a8.11,8.11,0,0,1,1,0c.15,0,.25.18.44.2a2.36,2.36,0,0,0,.53-.1c.35,0,.63.1,1,.06s.65-.17,1-.2.64-.23,1-.27.63.09,1,0a9,9,0,0,1,1-.33c.26,0,.28,0,.51-.12s.22-.24.37-.31c.43-.2.92-.25,1.34-.48s.7-.75,1.11-1.07a11.32,11.32,0,0,0,1.31-.86c.18-.2.29-.49.48-.69.4-.42.92-.77,1.34-1.18a5.36,5.36,0,0,0,.69-1.06c.14-.19.39-.31.54-.49s.16-.39.27-.65a10.89,10.89,0,0,0,.9-2.1,4.38,4.38,0,0,1,.37-1.18c.21-.42.1-.87.22-1.29.07-.23.25-.39.28-.63a2.75,2.75,0,0,0-.08-.65c-.06-.68.2-1.38.2-2.08a3.5,3.5,0,0,0-.23-1c-.08-.34,0-.75-.09-1.09a6.63,6.63,0,0,0-.48-2,7.45,7.45,0,0,1-.46-.74c-.11-.37.05-.64-.18-1-.45-.67-.93-1.35-1.31-2a4.18,4.18,0,0,0-.27-.61c-.15-.18-.42-.2-.57-.39s-.09-.44-.22-.59-.34-.1-.54-.21-.27-.34-.45-.52a8.9,8.9,0,0,0-.84-.7c-.28-.09-.66.19-.92,0-.08-.06,0-.58-.23-.74s-.69,0-.93,0c0-.39.13-1-.29-1.24s-.73.41-1.28.34c-.87-.13-.05-.61-.72-1s-.83.82-1.28-.08c-.71.72-.75-.86-1.62-.07.33.43.07,1.08-.48.72-.74.88-.84-.67-1.56-.49.25,1.23-1,.1-1.42.72-.69.93.85.77,1.33.93-.3.91-1.12.24-1.46,1A.8.8,0,0,0,14.72,5c-.4-.64.51-1.24.56-.48,1-.73,0,1.14.71,1.35.2,0,.83-.83,1-1,0,.12,0,.28,0,.41,1.81-.4-.86,3.06,1,2.4.33-.12.43-.79.87-.76.73,0-.22.65-.3.8-.77,1.51.41,0,.91.57s-.63,1.45-1.1,1.37c-.29-.06-.42-.56-.74-.67s-.74.08-1,0c-.13-.56,0-1.07-.68-1a7.86,7.86,0,0,1-1.07.68c-.43.51-.28.94.38,1.1.36.08.58-.67,1.13.09-.43.4-.15.7.37.72a1.23,1.23,0,0,0-.3,1c.08.48.64.48.64.91,0,1.19-1.76-.28-1.57,1.21a1,1,0,0,1,1.22,1.13c-.11.56-.83.81-1.29,1,.73-.28,2.38,1.42,2,2.22.37.14,1.58-.62,1.25.51-.23.79-1.45.56-1.71,0,0,.93-.77,1.68-.77.43,0-.25.59-.79.33-1.07s-.67,0-.83.17c-.12-.37-.61-1-.89-.36s.71.73.58,1.33c-.24,1.1-1.81.06-1.67-.88-.85.05-.25-1.1-1.31-.79.07.5-.48.54-.48.75,0,.68.07.26.47.57s.49.15.76.53c.1.14-.12.39-.07.46s.3.24.37.34c.17.26.58.21.64.65s-.21.73-.67.53-.62-1.83-1.18-1c-.18-.46-1.56-.74-1.34-.15.1.29.59,0,.74.13s.13.29.29.51c.58.82.38.68-.28.75-.17,0-.25-.37-.56-.29s0,.61.1.68c-1.12.16.8,1.21-.39,1.46s0-1.61-1.07-1.42c-.08-.37-.18-.27-.39-.43-.35.66,1.22,1.82-.24,1.89.14,1.24-1.14,1.12-1.2.12,0-.49.58-.65.56-1s-.56-.26-.61-.74c.53-.05.71-.26.73-.72a4.91,4.91,0,0,1-.48-.86c-1-.38-1,1.14-1.12,1.68-.08.29.24.84-.39.84-.42,0-.51-.54-.48-.88s.81-.54.39-1-.68.27-.79.42-.14,1-.71,1.09-.94-.19-.76-.75c1.14.15.75-1.24-.24-.49.06-.17.49-.64.36-.85s-.71-.15-.92,0c-.4.36-.1,1.29-.09,1.68-.35.25-1.25-.13-1.07.6,0,.22.58.24.73.41s.11.52.27.73.54.15.67.43-.18.54-.11.8C4.2,26,5.22,26.45,6,27.09Z"/></g></mask><linearGradient id="linear-gradient-3" x1="13.48" y1="14.01" x2="28.01" y2="25.08" gradientUnits="userSpaceOnUse"><stop offset="0" stop-color="#f15a29"/><stop offset="0.21" stop-color="#dc5226"/><stop offset="0.48" stop-color="#c64a22"/><stop offset="0.75" stop-color="#b94620"/><stop offset="1" stop-color="#b5441f"/></linearGradient><radialGradient id="radial-gradient-3" cx="28.31" cy="20.38" r="12.54" gradientUnits="userSpaceOnUse"><stop offset="0" stop-color="#d7df23"/><stop offset="0.6" stop-color="#efc036"/><stop offset="1" stop-color="#fbb040"/></radialGradient><linearGradient id="linear-gradient-4" x1="29.54" y1="25.72" x2="7.8" y2="9.86" gradientUnits="userSpaceOnUse"><stop offset="0" stop-color="#754c29"/><stop offset="0.17" stop-color="#855528"/><stop offset="0.5" stop-color="#af6c24"/><stop offset="0.96" stop-color="#f2911e"/><stop offset="1" stop-color="#f7941e"/></linearGradient><radialGradient id="radial-gradient-4" cx="33.36" cy="17.99" r="3.49" gradientUnits="userSpaceOnUse"><stop offset="0" stop-color="#f7941e"/><stop offset="0.33" stop-color="#f68f20"/><stop offset="0.71" stop-color="#f38125"/><stop offset="1" stop-color="#ef712b"/></radialGradient><radialGradient id="radial-gradient-5" cx="35.72" cy="24" r="3.68" xlink:href="#radial-gradient-4"/><radialGradient id="radial-gradient-6" cx="35.87" cy="18.61" r="4.02" xlink:href="#radial-gradient-4"/><radialGradient id="radial-gradient-7" cx="33.79" cy="27.82" r="3.33" xlink:href="#radial-gradient-4"/><radialGradient id="radial-gradient-8" cx="26.61" cy="26.35" r="3.54" xlink:href="#radial-gradient-4"/><radialGradient id="radial-gradient-9" cx="35.86" cy="25.89" r="10.72" xlink:href="#radial-gradient-2"/><filter id="luminosity-noclip-4" x="25.82" y="14.55" width="20.09" height="22.7" filterUnits="userSpaceOnUse" color-interpolation-filters="sRGB"><feFlood flood-color="#fff" result="bg"/><feBlend in="SourceGraphic" in2="bg"/></filter><mask id="mask-4" x="25.82" y="14.55" width="20.09" height="22.7" maskUnits="userSpaceOnUse"><g class="cls-3"><path class="cls-4" d="M45.65,23.34c0-.56-.26-1-.26-1.63a6.27,6.27,0,0,0-.72-2.05c-.21-.6-.74-.85-.85-1.5a2.54,2.54,0,0,0-1-1.27c-.22-.19-.5-.43-.7-.64s-.18-.48-.36-.68a3.26,3.26,0,0,0-.76-.51c-.27-.16-.49-.47-.81-.51a1.6,1.6,0,0,0,.4.7c.21.28.3.74.53,1,.48.49,1.2.08.8,1-.51,1.18.68.25.88,1.09.09.36-.29.38-.07.71s.93.51.47.91-.61-.42-.86-.5c-.56-.17-.22,1-.23,1.26s-.17.27,0,.56.39.21.46.45a4.13,4.13,0,0,1,0,1.07c-.24.08-.33-1.13-.57-.38-.16.52.57.48.18.84-.14.14-.48-.06-.46.28,0,.18.36.27.44.44-.34.19-.88-.89-1,0,0,.41.51.51.56.88.1.76-.61.34-.93.43-.59.17-.06,2.48-.94,1.65a3.07,3.07,0,0,0-.44,1.35c0,.22,0,.42-.18.53-.36.18-.39-.21-.69.22s-.16,1.39-.91,1.67c-.24.08-.27,0-.46.13s-.17.33-.26.43-.33.21-.42.37,0,.35-.11.51c-.26.41-.66.1-1,.4s-.15.69-.69.52c-.07.31-.65.15-.94.38a6.76,6.76,0,0,1-1.19.81c-.42.21-.87.14-1.28.39s-.52.49-.87.56-.64-.16-1-.29c-.55-.23-.25,0-.7.16s-1.17-.3-1.7-.26-.93.18-1.25-.14a8.52,8.52,0,0,0,3.61,1.85c1.17.36,2.18.94,3.49.78a4.44,4.44,0,0,1,1.08-.1,5,5,0,0,0,1.1.11A8.48,8.48,0,0,0,37,36.49c.41-.14.76,0,1.12,0s.56-.47.87-.6.71-.05,1-.23c.58-.32,1.15-.68,1.7-1a5.41,5.41,0,0,0,1.18-1.3c.14-.19.34-.25.5-.42a5.43,5.43,0,0,0,.3-.59,1.56,1.56,0,0,1,.16-.2,2.06,2.06,0,0,0,.29-.37c.1-.17.11-.38.21-.55.19-.35.54-.48.66-.88a5.12,5.12,0,0,1,.15-.56,6.61,6.61,0,0,0,.52-2A6.62,6.62,0,0,0,45.79,25,5.47,5.47,0,0,1,45.65,23.34Z"/></g></mask><linearGradient id="linear-gradient-5" x1="33.86" y1="22.57" x2="40.13" y2="42.13" xlink:href="#linear-gradient-3"/><radialGradient id="radial-gradient-10" cx="43.55" cy="31.02" r="10.72" gradientUnits="userSpaceOnUse"><stop offset="0" stop-color="#d7df23"/><stop offset="0.5" stop-color="#efc036"/><stop offset="0.84" stop-color="#fbb040"/></radialGradient><radialGradient id="radial-gradient-11" cx="28.72" cy="18.85" r="3.01" xlink:href="#radial-gradient-4"/><radialGradient id="radial-gradient-12" cx="27.78" cy="28.84" r="4.06" xlink:href="#radial-gradient-4"/><radialGradient id="radial-gradient-13" cx="26.82" cy="21.62" r="2.81" xlink:href="#radial-gradient-4"/><radialGradient id="radial-gradient-14" cx="33.07" cy="34.95" r="17.69" xlink:href="#linear-gradient-4"/></defs><g id="Capa_2" data-name="Capa 2"><g id="Layer_4" data-name="Layer 4"><path class="cls-5" d="M30.09,13.7c-.08-.34,0-.75-.09-1.09a6.63,6.63,0,0,0-.48-2,7.45,7.45,0,0,1-.46-.74c-.11-.37.05-.64-.18-1-.45-.67-.93-1.35-1.31-2a4.18,4.18,0,0,0-.27-.61c-.15-.18-.42-.2-.57-.39s-.09-.44-.22-.59-.34-.1-.54-.21-.27-.34-.45-.52A3.1,3.1,0,0,0,25,4.24c-.45-.28-.62-.78-1.09-1-.22-.12-.45-.11-.62-.32s-.09-.44-.3-.6-.94-.26-1.35-.55a2,2,0,0,0-1.25-.47A3.25,3.25,0,0,1,19.16.82,8.32,8.32,0,0,0,16.87.44a4.41,4.41,0,0,0-1.09.07.91.91,0,0,1-.44,0A4.32,4.32,0,0,0,14.9.38c-.34-.08-.5.14-.81.2-.68.15-1.24-.2-1.88.22-.26.17-.46.41-.78.44s-.44-.07-.8.1A10.27,10.27,0,0,0,7.92,2.55a3.18,3.18,0,0,1-.53.31,2,2,0,0,0-.46.4,7.83,7.83,0,0,0-.83.59,3.82,3.82,0,0,1-1,.69A7.05,7.05,0,0,0,3.62,6.2c-.26.31-.45.62-.69,1s-.52.44-.7.8-.48.74-.65,1.16-.17.93-.34,1.38A7.37,7.37,0,0,0,.65,12c-.05.28,0,.6-.06.88s-.24.45-.3.7a10.85,10.85,0,0,0,0,1.71,11,11,0,0,0,.3,2.91c.07.42.14.79.21,1.22a4,4,0,0,0,.52,1c.33.64.35,1.43.7,2.07.2.36.52.46.78.73a5,5,0,0,1,.62,1.3,3.68,3.68,0,0,0,.87,1.13c.53.5,1.11,1,1.66,1.44.17.15.39.14.58.27s.23.32.38.49c.59.67,1.55.69,2.26,1.09a5,5,0,0,0,1.15.64c.37.11.77.19,1.14.31a2.43,2.43,0,0,0,.86.22c.39,0,.77.11,1.15.13a8.11,8.11,0,0,1,1,0c.15,0,.25.18.44.2a2.36,2.36,0,0,0,.53-.1c.35,0,.63.1,1,.06s.65-.17,1-.2.64-.23,1-.27.63.09,1,0a9,9,0,0,1,1-.33c.26,0,.28,0,.51-.12s.22-.24.37-.31c.43-.2.92-.25,1.34-.48s.7-.75,1.11-1.07a11.32,11.32,0,0,0,1.31-.86c.18-.2.29-.49.48-.69.4-.42.92-.77,1.34-1.18a5.36,5.36,0,0,0,.69-1.06c.14-.19.39-.31.54-.49s.16-.39.27-.65a10.89,10.89,0,0,0,.9-2.1,4.38,4.38,0,0,1,.37-1.18c.21-.42.1-.87.22-1.29.07-.23.25-.39.28-.63a2.75,2.75,0,0,0-.08-.65c-.06-.68.2-1.38.2-2.08A3.5,3.5,0,0,0,30.09,13.7ZM8.16,5a.1.1,0,0,1,.11-.07.6.6,0,0,1,.49.73,1.45,1.45,0,0,1-.65.92s-.12,0-.12,0A3.65,3.65,0,0,1,8.16,5ZM8,7.32S8,7.25,8,7.24a1.72,1.72,0,0,0,.44-2.86h0C10.05,4.64,9.62,7.42,8,7.32Z"/><path class="cls-6" d="M30.09,13.7c-.08-.34,0-.75-.09-1.09a6.63,6.63,0,0,0-.48-2,7.45,7.45,0,0,1-.46-.74c-.11-.37.05-.64-.18-1-.45-.67-.93-1.35-1.31-2a4.18,4.18,0,0,0-.27-.61c-.15-.18-.42-.2-.57-.39s-.09-.44-.22-.59-.34-.1-.54-.21-.27-.34-.45-.52A3.1,3.1,0,0,0,25,4.24c-.45-.28-.62-.78-1.09-1-.22-.12-.45-.11-.62-.32s-.09-.44-.3-.6-.94-.26-1.35-.55a2,2,0,0,0-1.25-.47A3.25,3.25,0,0,1,19.16.82,8.32,8.32,0,0,0,16.87.44a4.41,4.41,0,0,0-1.09.07.91.91,0,0,1-.44,0A4.32,4.32,0,0,0,14.9.38c-.34-.08-.5.14-.81.2-.68.15-1.24-.2-1.88.22-.26.17-.46.41-.78.44s-.44-.07-.8.1A10.27,10.27,0,0,0,7.92,2.55a3.18,3.18,0,0,1-.53.31,2,2,0,0,0-.46.4,7.83,7.83,0,0,0-.83.59,3.82,3.82,0,0,1-1,.69A7.05,7.05,0,0,0,3.62,6.2c-.26.31-.45.62-.69,1s-.52.44-.7.8-.48.74-.65,1.16-.17.93-.34,1.38A7.37,7.37,0,0,0,.65,12c-.05.28,0,.6-.06.88s-.24.45-.3.7a10.85,10.85,0,0,0,0,1.71,11,11,0,0,0,.3,2.91c.07.42.14.79.21,1.22a4,4,0,0,0,.52,1c.33.64.35,1.43.7,2.07.2.36.52.46.78.73a5,5,0,0,1,.62,1.3,3.68,3.68,0,0,0,.87,1.13c.53.5,1.11,1,1.66,1.44.17.15.39.14.58.27s.23.32.38.49c.59.67,1.55.69,2.26,1.09a5,5,0,0,0,1.15.64c.37.11.77.19,1.14.31a2.43,2.43,0,0,0,.86.22c.39,0,.77.11,1.15.13a8.11,8.11,0,0,1,1,0c.15,0,.25.18.44.2a2.36,2.36,0,0,0,.53-.1c.35,0,.63.1,1,.06s.65-.17,1-.2.64-.23,1-.27.63.09,1,0a9,9,0,0,1,1-.33c.26,0,.28,0,.51-.12s.22-.24.37-.31c.43-.2.92-.25,1.34-.48s.7-.75,1.11-1.07a11.32,11.32,0,0,0,1.31-.86c.18-.2.29-.49.48-.69.4-.42.92-.77,1.34-1.18a5.36,5.36,0,0,0,.69-1.06c.14-.19.39-.31.54-.49s.16-.39.27-.65a10.89,10.89,0,0,0,.9-2.1,4.38,4.38,0,0,1,.37-1.18c.21-.42.1-.87.22-1.29.07-.23.25-.39.28-.63a2.75,2.75,0,0,0-.08-.65c-.06-.68.2-1.38.2-2.08A3.5,3.5,0,0,0,30.09,13.7ZM8.16,5a.1.1,0,0,1,.11-.07.6.6,0,0,1,.49.73,1.45,1.45,0,0,1-.65.92s-.12,0-.12,0A3.65,3.65,0,0,1,8.16,5ZM8,7.32S8,7.25,8,7.24a1.72,1.72,0,0,0,.44-2.86h0C10.05,4.64,9.62,7.42,8,7.32Z"/><g class="cls-7"><path class="cls-8" d="M6,27.09c.17.15.39.14.58.27s.23.32.38.49c.59.67,1.55.69,2.26,1.09a5,5,0,0,0,1.15.64c.37.11.77.19,1.14.31a2.43,2.43,0,0,0,.86.22c.39,0,.77.11,1.15.13a8.11,8.11,0,0,1,1,0c.15,0,.25.18.44.2a2.36,2.36,0,0,0,.53-.1c.35,0,.63.1,1,.06s.65-.17,1-.2.64-.23,1-.27.63.09,1,0a9,9,0,0,1,1-.33c.26,0,.28,0,.51-.12s.22-.24.37-.31c.43-.2.92-.25,1.34-.48s.7-.75,1.11-1.07a11.32,11.32,0,0,0,1.31-.86c.18-.2.29-.49.48-.69.4-.42.92-.77,1.34-1.18a5.36,5.36,0,0,0,.69-1.06c.14-.19.39-.31.54-.49s.16-.39.27-.65a10.89,10.89,0,0,0,.9-2.1,4.38,4.38,0,0,1,.37-1.18c.21-.42.1-.87.22-1.29.07-.23.25-.39.28-.63a2.75,2.75,0,0,0-.08-.65c-.06-.68.2-1.38.2-2.08a3.5,3.5,0,0,0-.23-1c-.08-.34,0-.75-.09-1.09a6.63,6.63,0,0,0-.48-2,7.45,7.45,0,0,1-.46-.74c-.11-.37.05-.64-.18-1-.45-.67-.93-1.35-1.31-2a4.18,4.18,0,0,0-.27-.61c-.15-.18-.42-.2-.57-.39s-.09-.44-.22-.59-.34-.1-.54-.21-.27-.34-.45-.52a8.9,8.9,0,0,0-.84-.7c-.28-.09-.66.19-.92,0-.08-.06,0-.58-.23-.74s-.69,0-.93,0c0-.39.13-1-.29-1.24s-.73.41-1.28.34c-.87-.13-.05-.61-.72-1s-.83.82-1.28-.08c-.71.72-.75-.86-1.62-.07.33.43.07,1.08-.48.72-.74.88-.84-.67-1.56-.49.25,1.23-1,.1-1.42.72-.69.93.85.77,1.33.93-.3.91-1.12.24-1.46,1A.8.8,0,0,0,14.72,5c-.4-.64.51-1.24.56-.48,1-.73,0,1.14.71,1.35.2,0,.83-.83,1-1,0,.12,0,.28,0,.41,1.81-.4-.86,3.06,1,2.4.33-.12.43-.79.87-.76.73,0-.22.65-.3.8-.77,1.51.41,0,.91.57s-.63,1.45-1.1,1.37c-.29-.06-.42-.56-.74-.67s-.74.08-1,0c-.13-.56,0-1.07-.68-1a7.86,7.86,0,0,1-1.07.68c-.43.51-.28.94.38,1.1.36.08.58-.67,1.13.09-.43.4-.15.7.37.72a1.23,1.23,0,0,0-.3,1c.08.48.64.48.64.91,0,1.19-1.76-.28-1.57,1.21a1,1,0,0,1,1.22,1.13c-.11.56-.83.81-1.29,1,.73-.28,2.38,1.42,2,2.22.37.14,1.58-.62,1.25.51-.23.79-1.45.56-1.71,0,0,.93-.77,1.68-.77.43,0-.25.59-.79.33-1.07s-.67,0-.83.17c-.12-.37-.61-1-.89-.36s.71.73.58,1.33c-.24,1.1-1.81.06-1.67-.88-.85.05-.25-1.1-1.31-.79.07.5-.48.54-.48.75,0,.68.07.26.47.57s.49.15.76.53c.1.14-.12.39-.07.46s.3.24.37.34c.17.26.58.21.64.65s-.21.73-.67.53-.62-1.83-1.18-1c-.18-.46-1.56-.74-1.34-.15.1.29.59,0,.74.13s.13.29.29.51c.58.82.38.68-.28.75-.17,0-.25-.37-.56-.29s0,.61.1.68c-1.12.16.8,1.21-.39,1.46s0-1.61-1.07-1.42c-.08-.37-.18-.27-.39-.43-.35.66,1.22,1.82-.24,1.89.14,1.24-1.14,1.12-1.2.12,0-.49.58-.65.56-1s-.56-.26-.61-.74c.53-.05.71-.26.73-.72a4.91,4.91,0,0,1-.48-.86c-1-.38-1,1.14-1.12,1.68-.08.29.24.84-.39.84-.42,0-.51-.54-.48-.88s.81-.54.39-1-.68.27-.79.42-.14,1-.71,1.09-.94-.19-.76-.75c1.14.15.75-1.24-.24-.49.06-.17.49-.64.36-.85s-.71-.15-.92,0c-.4.36-.1,1.29-.09,1.68-.35.25-1.25-.13-1.07.6,0,.22.58.24.73.41s.11.52.27.73.54.15.67.43-.18.54-.11.8C4.2,26,5.22,26.45,6,27.09Z"/></g><path class="cls-9" d="M30.32,14.69a3.5,3.5,0,0,0-.23-1c-.08-.34,0-.75-.09-1.09a6.63,6.63,0,0,0-.48-2,7.45,7.45,0,0,1-.46-.74c-.11-.37.05-.64-.18-1-.45-.67-.93-1.35-1.31-2a4.18,4.18,0,0,0-.27-.61c-.15-.18-.42-.2-.57-.39s-.09-.44-.22-.59-.34-.1-.54-.21-.27-.34-.45-.52a8.9,8.9,0,0,0-.84-.7l-.17,0a17.49,17.49,0,0,1,1.67,2,6.62,6.62,0,0,1,.4,1c.13.27.42.44.53.73s-.07.54.09.68.46-.14.65.13,0,.6,0,.84c1.06-.13.39.85.46,1.28s.44.44.6.68a1.49,1.49,0,0,1,.18,1c-.59-.35-.57.53-.6.87,0,.52.32,1.16.1,1.68-.31.7-.76.25-.65,1.24,0,.26.36.44.32.75s-.51.42-.57.74a10.26,10.26,0,0,0,.14,1.55c0,.52.17,1.58-.12,2-.46.65-1.27.37-1.44,1.38-.1.55.44.47,0,1s-.9.06-1,.71c-1.15-.42-.94.62-1.16,1.27-.39,1.12-.77.24-1.53.75s-.12,1.24-1,1.45c-.24.05-.54-.33-.9-.22a1.27,1.27,0,0,0-.72.83c-1.21.24-1.32-.72-2.18,0-.31.25-.37.77-.78.94-.63.26-.46-.18-.86-.24a5,5,0,0,0-1,0,3,3,0,0,0-.81.27c-1.2.49-2.34-.11-3.51-.32a16.64,16.64,0,0,1-3.91-.94,1,1,0,0,0,.08.11c.59.67,1.55.69,2.26,1.09a5,5,0,0,0,1.15.64c.37.11.77.19,1.14.31a2.43,2.43,0,0,0,.86.22c.39,0,.77.11,1.15.13a8.11,8.11,0,0,1,1,0c.15,0,.25.18.44.2a2.36,2.36,0,0,0,.53-.1c.35,0,.63.1,1,.06s.65-.17,1-.2.64-.23,1-.27.63.09,1,0a9,9,0,0,1,1-.33c.26,0,.28,0,.51-.12s.22-.24.37-.31c.43-.2.92-.25,1.34-.48s.7-.75,1.11-1.07a11.32,11.32,0,0,0,1.31-.86c.18-.2.29-.49.48-.69.4-.42.92-.77,1.34-1.18a5.36,5.36,0,0,0,.69-1.06c.14-.19.39-.31.54-.49s.16-.39.27-.65a10.89,10.89,0,0,0,.9-2.1,4.38,4.38,0,0,1,.37-1.18c.21-.42.1-.87.22-1.29.07-.23.25-.39.28-.63a2.75,2.75,0,0,0-.08-.65C30.06,16.09,30.32,15.39,30.32,14.69Z"/><path class="cls-10" d="M3.75,6.11a.58.58,0,0,0,.42-.62l-.49.64Z"/><path class="cls-11" d="M7.66,2.81a.24.24,0,0,1-.16.07,1.15,1.15,0,0,0-.41.36.25.25,0,0,1-.26.09,5.13,5.13,0,0,0-.73.52,3.82,3.82,0,0,1-1,.69,2.43,2.43,0,0,0-.5.41.87.87,0,0,0,0,.23C4.7,6.31,4,6.52,3.24,6.7l-.31.45a2.68,2.68,0,0,1-.28.3,1.21,1.21,0,0,1-.71,1l0,0a2.56,2.56,0,0,1-.53,1.42,4.39,4.39,0,0,1-.15.6,2.72,2.72,0,0,1-.11.25,1.45,1.45,0,0,1-.5,1.35,4.78,4.78,0,0,1,0,.76c0,.25-.24.45-.3.7a2.06,2.06,0,0,0,0,.66c.32.26.81-.08.88-.44.17-.87-.09-1.78.57-2.49A3.48,3.48,0,0,1,4,10.5a.24.24,0,0,1,.24.24,14.82,14.82,0,0,1-.69,2.46c.17-.16.39-.19.66.07a1.37,1.37,0,0,1,.43.84c0,.16,0,.33,0,.49s.48.73.6.12c.07-.43-.13-1.34.63-1.17a1,1,0,0,1,.76.48c.14.32.18.76.51.86-.21-.65-.37-1.73.58-1.4a2.15,2.15,0,0,1,1,.84c.16.19.61.86.92.48.18-.22.13-.2,0-.5a2.14,2.14,0,0,1-.22-1.13c.05-.35-.43-.31-.55-.52A2.4,2.4,0,0,1,8.71,12c-.16-.76.51-.81,1.12-.85-.42-.41-.91-.91-.88-1.45,0-.34.26-1.05.75-.81s1.29,1.75,1.86.71a1.79,1.79,0,0,0-.71-2.3c-.52-.38-.35-.84,0-1.31a1,1,0,0,1,.61-.29c.56-.11,0-.81-.27-.93-.82-.38-1.92-.52-1.56-1.55A3.09,3.09,0,0,0,7.66,2.81ZM8.16,5a.1.1,0,0,1,.11-.07.6.6,0,0,1,.49.73,1.45,1.45,0,0,1-.65.92s-.12,0-.12,0A3.65,3.65,0,0,1,8.16,5ZM8,7.32S8,7.25,8,7.24a1.72,1.72,0,0,0,.44-2.86h0C10.05,4.64,9.62,7.42,8,7.32Z"/><path class="cls-12" d="M30.51,16.71c0-.22.15-.4.17-.62,0-.39-.14-.79-.13-1.2s-.08-.82-.07-1.25-.18-.79-.2-1.24a2,2,0,0,0,0-.64c-.07-.19-.26-.32-.32-.51s0-.42,0-.62-.28-.32-.38-.53c-.22-.44-.05-.87-.37-1.28a10.56,10.56,0,0,1-.82-1.37c-.1-.18-.07-.36-.15-.51s-.23-.22-.36-.39-.11-.41-.21-.56c-.22-.33-.56-.3-.79-.67-.12-.18-.09-.34-.29-.49s-.34,0-.46-.15-.39-.52-.64-.74-.32-.5-.59-.71-.34-.09-.47-.2-.13-.26-.24-.34c-.29-.22-.59-.17-.88-.43s-.15-.29-.38-.37-.35.07-.52,0-.47-.51-.78-.65-.69-.24-1-.35-.36,0-.53,0c-.36-.11-.5-.35-.9-.43a5.26,5.26,0,0,0-.88,0c-.34,0-.59-.2-.94-.21l-1,0a7.25,7.25,0,0,1-1-.18c-.29,0-.64.1-.94.1s-.67.12-1,.11a1.6,1.6,0,0,0-.79,0c-.3.1-.65.18-.94.31s-.32.28-.54.34-.41,0-.64.06-.35.26-.55.3-.36-.06-.53,0c-.38.08-.57.44-.92.6-.19.09-.33.07-.5.2s-.23.34-.39.46c-.32.22-.68.18-1,.45-.13.11-.22.27-.37.36s-.34.06-.46.13c-.28.17-.46.52-.72.72A2.17,2.17,0,0,0,4.35,5c-.19.37-.59.5-.87.78A9.34,9.34,0,0,0,2.62,7c-.1.15-.31.28-.4.42a17.53,17.53,0,0,0-.94,1.83c-.2.4-.21.84-.39,1.27a12.27,12.27,0,0,0-.47,1.37c-.06.23,0,.47-.1.7s-.22.46-.27.68,0,.46,0,.67c-.12.92.07,1.78,0,2.72a7.14,7.14,0,0,0,.22,2.21,23.69,23.69,0,0,0,1,2.22c.1.29,0,.62.15.89A13.29,13.29,0,0,0,3,24.37c.14.18.13.45.24.6s.32.18.4.29.17.36.26.46a6.52,6.52,0,0,0,.81.71,5.46,5.46,0,0,1,.44.38,4.81,4.81,0,0,0,.9.85,9.35,9.35,0,0,1,1.13.86,5.35,5.35,0,0,0,1.49.75,6.29,6.29,0,0,0,1.71.74,12.62,12.62,0,0,1,1.82.52,9.39,9.39,0,0,0,3.11.21l.32,0c.56-.07,1.1,0,1.67-.07,1.08-.2,2.1-.47,3.17-.71a8,8,0,0,0,.83-.39,5.47,5.47,0,0,0,1.14-.3c.33-.2.68-.52,1-.75s.53-.62.86-.79.39-.12.62-.35.32-.35.52-.53.47-.74.85-1c.19-.12.35-.1.53-.27s.22-.42.36-.59A9,9,0,0,0,28.64,23c.17-.37.45-.73.59-1.1a7.1,7.1,0,0,1,.37-1.16c.21-.38.14-.79.33-1.17a5,5,0,0,0,.46-1.71c0-.23.22-.43.24-.66S30.51,16.9,30.51,16.71Zm-.39.06a2.75,2.75,0,0,1,.08.65c0,.24-.21.4-.28.63-.12.42,0,.87-.22,1.29a4.38,4.38,0,0,0-.37,1.18,10.89,10.89,0,0,1-.9,2.1c-.11.26-.08.42-.27.65s-.4.3-.54.49a5.36,5.36,0,0,1-.69,1.06c-.42.41-.94.76-1.34,1.18-.19.2-.3.49-.48.69a11.32,11.32,0,0,1-1.31.86c-.41.32-.65.81-1.11,1.07s-.91.28-1.34.48c-.15.07-.23.24-.37.31s-.25.08-.51.12a9,9,0,0,0-1,.33c-.39.12-.65,0-1,0s-.61.24-1,.27-.67.17-1,.2-.64-.1-1-.06a2.36,2.36,0,0,1-.53.1c-.19,0-.29-.17-.44-.2a8.11,8.11,0,0,0-1,0c-.38,0-.76-.11-1.15-.13a2.43,2.43,0,0,1-.86-.22c-.37-.12-.77-.2-1.14-.31a5,5,0,0,1-1.15-.64c-.71-.4-1.67-.42-2.26-1.09-.15-.17-.19-.35-.38-.49s-.41-.12-.58-.27c-.55-.48-1.13-.94-1.66-1.44a3.68,3.68,0,0,1-.87-1.13,5,5,0,0,0-.62-1.3c-.26-.27-.58-.37-.78-.73-.35-.64-.37-1.43-.7-2.07a4,4,0,0,1-.52-1c-.07-.43-.14-.8-.21-1.22a11,11,0,0,1-.3-2.91,10.85,10.85,0,0,1,0-1.71c.06-.25.25-.45.3-.7s0-.6.06-.88a7.37,7.37,0,0,1,.59-1.48c.17-.45.16-.94.34-1.38S2,8.34,2.23,8s.47-.5.7-.8.43-.64.69-1A7.05,7.05,0,0,1,5.13,4.54a3.82,3.82,0,0,0,1-.69,7.83,7.83,0,0,1,.83-.59,2,2,0,0,1,.46-.4,3.18,3.18,0,0,0,.53-.31,10.27,10.27,0,0,1,2.71-1.21c.36-.17.43-.07.8-.1S12,1,12.21.8c.64-.42,1.2-.07,1.88-.22.31-.06.47-.28.81-.2a4.32,4.32,0,0,1,.44.13.91.91,0,0,0,.44,0A4.41,4.41,0,0,1,16.87.44a8.32,8.32,0,0,1,2.29.38,3.25,3.25,0,0,0,1.23.45,2,2,0,0,1,1.25.47c.41.29,1,.28,1.35.55s.15.41.3.6.4.2.62.32c.47.25.64.75,1.09,1a3.1,3.1,0,0,1,.52.31c.18.18.21.38.45.52s.37,0,.54.21.09.42.22.59.42.21.57.39a4.18,4.18,0,0,1,.27.61c.38.69.86,1.37,1.31,2,.23.36.07.63.18,1a7.45,7.45,0,0,0,.46.74,6.63,6.63,0,0,1,.48,2c.05.34,0,.75.09,1.09a3.5,3.5,0,0,1,.23,1C30.32,15.39,30.06,16.09,30.12,16.77Z"/><path class="cls-13" d="M30.51,16.71c0-.22.15-.4.17-.62,0-.39-.14-.79-.13-1.2s-.08-.82-.07-1.25-.18-.79-.2-1.24a2,2,0,0,0,0-.64c-.07-.19-.26-.32-.32-.51s0-.42,0-.62-.28-.32-.38-.53c-.22-.44-.05-.87-.37-1.28a10.56,10.56,0,0,1-.82-1.37c-.1-.18-.07-.36-.15-.51s-.23-.22-.36-.39-.11-.41-.21-.56c-.22-.33-.56-.3-.79-.67-.12-.18-.09-.34-.29-.49s-.34,0-.46-.15-.39-.52-.64-.74-.32-.5-.59-.71-.34-.09-.47-.2-.13-.26-.24-.34c-.29-.22-.59-.17-.88-.43s-.15-.29-.38-.37-.35.07-.52,0-.47-.51-.78-.65-.69-.24-1-.35-.36,0-.53,0c-.36-.11-.5-.35-.9-.43a5.26,5.26,0,0,0-.88,0c-.34,0-.59-.2-.94-.21l-1,0a7.25,7.25,0,0,1-1-.18c-.29,0-.64.1-.94.1s-.67.12-1,.11a1.6,1.6,0,0,0-.79,0c-.3.1-.65.18-.94.31s-.32.28-.54.34-.41,0-.64.06-.35.26-.55.3-.36-.06-.53,0c-.38.08-.57.44-.92.6-.19.09-.33.07-.5.2s-.23.34-.39.46c-.32.22-.68.18-1,.45-.13.11-.22.27-.37.36s-.34.06-.46.13c-.28.17-.46.52-.72.72A2.17,2.17,0,0,0,4.35,5c-.19.37-.59.5-.87.78A9.34,9.34,0,0,0,2.62,7c-.1.15-.31.28-.4.42a17.53,17.53,0,0,0-.94,1.83c-.2.4-.21.84-.39,1.27a12.27,12.27,0,0,0-.47,1.37c-.06.23,0,.47-.1.7s-.22.46-.27.68,0,.46,0,.67c-.12.92.07,1.78,0,2.72a7.14,7.14,0,0,0,.22,2.21,23.69,23.69,0,0,0,1,2.22c.1.29,0,.62.15.89A13.29,13.29,0,0,0,3,24.37c.14.18.13.45.24.6s.32.18.4.29.17.36.26.46a6.52,6.52,0,0,0,.81.71,5.46,5.46,0,0,1,.44.38,4.81,4.81,0,0,0,.9.85,9.35,9.35,0,0,1,1.13.86,5.35,5.35,0,0,0,1.49.75,6.29,6.29,0,0,0,1.71.74,12.62,12.62,0,0,1,1.82.52,9.39,9.39,0,0,0,3.11.21l.32,0c.56-.07,1.1,0,1.67-.07,1.08-.2,2.1-.47,3.17-.71a8,8,0,0,0,.83-.39,5.47,5.47,0,0,0,1.14-.3c.33-.2.68-.52,1-.75s.53-.62.86-.79.39-.12.62-.35.32-.35.52-.53.47-.74.85-1c.19-.12.35-.1.53-.27s.22-.42.36-.59A9,9,0,0,0,28.64,23c.17-.37.45-.73.59-1.1a7.1,7.1,0,0,1,.37-1.16c.21-.38.14-.79.33-1.17a5,5,0,0,0,.46-1.71c0-.23.22-.43.24-.66S30.51,16.9,30.51,16.71Zm-.39.06a2.75,2.75,0,0,1,.08.65c0,.24-.21.4-.28.63-.12.42,0,.87-.22,1.29a4.38,4.38,0,0,0-.37,1.18,10.89,10.89,0,0,1-.9,2.1c-.11.26-.08.42-.27.65s-.4.3-.54.49a5.36,5.36,0,0,1-.69,1.06c-.42.41-.94.76-1.34,1.18-.19.2-.3.49-.48.69a11.32,11.32,0,0,1-1.31.86c-.41.32-.65.81-1.11,1.07s-.91.28-1.34.48c-.15.07-.23.24-.37.31s-.25.08-.51.12a9,9,0,0,0-1,.33c-.39.12-.65,0-1,0s-.61.24-1,.27-.67.17-1,.2-.64-.1-1-.06a2.36,2.36,0,0,1-.53.1c-.19,0-.29-.17-.44-.2a8.11,8.11,0,0,0-1,0c-.38,0-.76-.11-1.15-.13a2.43,2.43,0,0,1-.86-.22c-.37-.12-.77-.2-1.14-.31a5,5,0,0,1-1.15-.64c-.71-.4-1.67-.42-2.26-1.09-.15-.17-.19-.35-.38-.49s-.41-.12-.58-.27c-.55-.48-1.13-.94-1.66-1.44a3.68,3.68,0,0,1-.87-1.13,5,5,0,0,0-.62-1.3c-.26-.27-.58-.37-.78-.73-.35-.64-.37-1.43-.7-2.07a4,4,0,0,1-.52-1c-.07-.43-.14-.8-.21-1.22a11,11,0,0,1-.3-2.91,10.85,10.85,0,0,1,0-1.71c.06-.25.25-.45.3-.7s0-.6.06-.88a7.37,7.37,0,0,1,.59-1.48c.17-.45.16-.94.34-1.38S2,8.34,2.23,8s.47-.5.7-.8.43-.64.69-1A7.05,7.05,0,0,1,5.13,4.54a3.82,3.82,0,0,0,1-.69,7.83,7.83,0,0,1,.83-.59,2,2,0,0,1,.46-.4,3.18,3.18,0,0,0,.53-.31,10.27,10.27,0,0,1,2.71-1.21c.36-.17.43-.07.8-.1S12,1,12.21.8c.64-.42,1.2-.07,1.88-.22.31-.06.47-.28.81-.2a4.32,4.32,0,0,1,.44.13.91.91,0,0,0,.44,0A4.41,4.41,0,0,1,16.87.44a8.32,8.32,0,0,1,2.29.38,3.25,3.25,0,0,0,1.23.45,2,2,0,0,1,1.25.47c.41.29,1,.28,1.35.55s.15.41.3.6.4.2.62.32c.47.25.64.75,1.09,1a3.1,3.1,0,0,1,.52.31c.18.18.21.38.45.52s.37,0,.54.21.09.42.22.59.42.21.57.39a4.18,4.18,0,0,1,.27.61c.38.69.86,1.37,1.31,2,.23.36.07.63.18,1a7.45,7.45,0,0,0,.46.74,6.63,6.63,0,0,1,.48,2c.05.34,0,.75.09,1.09a3.5,3.5,0,0,1,.23,1C30.32,15.39,30.06,16.09,30.12,16.77Z"/><path class="cls-12" d="M8.46,4.37h0A1.72,1.72,0,0,1,8,7.24s0,.08,0,.08C9.62,7.42,10.05,4.64,8.46,4.37Z"/><path class="cls-14" d="M8.46,4.37h0A1.72,1.72,0,0,1,8,7.24s0,.08,0,.08C9.62,7.42,10.05,4.64,8.46,4.37Z"/><path class="cls-12" d="M8.11,6.55a1.45,1.45,0,0,0,.65-.92.6.6,0,0,0-.49-.73A.1.1,0,0,0,8.16,5,3.65,3.65,0,0,0,8,6.51C8,6.57,8.07,6.58,8.11,6.55Z"/><path class="cls-14" d="M8.11,6.55a1.45,1.45,0,0,0,.65-.92.6.6,0,0,0-.49-.73A.1.1,0,0,0,8.16,5,3.65,3.65,0,0,0,8,6.51C8,6.57,8.07,6.58,8.11,6.55Z"/><path class="cls-15" d="M4.21,9.38c-.23-.1-.45.09-.58.25a.89.89,0,0,0-.1.86A.24.24,0,0,0,4,10.41a4.51,4.51,0,0,1,0-.52.65.65,0,0,1,.24-.42A0,0,0,0,0,4.21,9.38Z"/><path class="cls-15" d="M5.83,11.09a2,2,0,0,1-.62-.25.69.69,0,0,1-.31-.67s0-.05-.06,0a.71.71,0,0,0,.12.91c.21.25.67.49.91.14A.07.07,0,0,0,5.83,11.09Z"/><path class="cls-15" d="M7.21,10.67c-.08-.17-.3-.23-.46-.28a1.18,1.18,0,0,1-.51-.34.09.09,0,0,0-.15,0,.85.85,0,0,0,.36.64c.19.16.56.34.75.08A.14.14,0,0,0,7.21,10.67Z"/><path class="cls-15" d="M10.14,9.83A.09.09,0,0,0,10,9.76c-.21.05-.37.27-.55.38a1.68,1.68,0,0,1-.84.28c-.1,0-.16.18,0,.21a1.61,1.61,0,0,0,1-.11C9.82,10.41,10.22,10.14,10.14,9.83Z"/><path class="cls-15" d="M10.51,8.56a1.6,1.6,0,0,0-.37.12,2.62,2.62,0,0,1-.56.09,3.73,3.73,0,0,0-.75.05c-.07,0-.09.14,0,.16.4.13,1.72.33,1.79-.33A.09.09,0,0,0,10.51,8.56Z"/><path class="cls-15" d="M11.21,7.23c0-.21-.45-.75-.28-.94a.07.07,0,0,0-.07-.12.37.37,0,0,0-.22.46.43.43,0,0,0-.12-.11.09.09,0,0,0-.13,0,.84.84,0,0,0-.07.45,1.2,1.2,0,0,1-.11.56c0,.06,0,.14.09.08a1.32,1.32,0,0,0,.36-.51.93.93,0,0,0,0-.24c0,.12.07.24.1.37a.77.77,0,0,1-.1.47s0,.1.08.11C11.13,7.89,11.26,7.51,11.21,7.23Z"/><path class="cls-15" d="M10.51,4.84c-.25-.31-.43-.87-.85-1a.08.08,0,0,0-.1.11,2,2,0,0,0,.36.5,2,2,0,0,0,.52.45A.05.05,0,0,0,10.51,4.84Z"/><path class="cls-15" d="M7.91,4.38a1.21,1.21,0,0,0-1.33.86c0,.06.07.08.11,0,.42-.28.69-.69,1.23-.76C8,4.52,8,4.39,7.91,4.38Z"/><path class="cls-15" d="M6.3,6.1C6.33,6,6.21,6,6.17,6A.84.84,0,0,0,6,6.71a.74.74,0,0,0,.4.59.07.07,0,0,0,.09-.06C6.58,6.84,6.15,6.52,6.3,6.1Z"/><path class="cls-15" d="M6.49,8.23c-.08-.11-.25-.13-.38-.17a.94.94,0,0,1-.4-.25s-.14,0-.12.06a.63.63,0,0,0,.33.37c.15.08.39.2.55.1A.07.07,0,0,0,6.49,8.23Z"/><path class="cls-15" d="M8.56,7.73a.35.35,0,0,1-.13.2.07.07,0,0,0-.07,0C8,8,7.68,8.33,7.23,8.3a.08.08,0,0,0-.05.15.86.86,0,0,0,.92,0,.71.71,0,0,0,.31-.1.63.63,0,0,0,.3-.55A.08.08,0,0,0,8.56,7.73Z"/><path class="cls-15" d="M7.52,6.1c-.53.06-.67,1-.45,1.36,0,0,.09,0,.1,0,.08-.22.13-.45.21-.66a1.79,1.79,0,0,0,.25-.61A.09.09,0,0,0,7.52,6.1Z"/><path class="cls-15" d="M4.64,7.66c0-.27.12-.52.11-.79,0-.07-.06-.11-.13-.08C4,7,4.42,8.1,4.68,8.46c0,0,.09,0,.08,0A2.74,2.74,0,0,1,4.64,7.66Z"/><path class="cls-15" d="M5.61,6.11A.13.13,0,0,0,5.48,6c-.18,0-.3.24-.33.4A.74.74,0,0,0,5.29,7a.07.07,0,0,0,.11,0c0-.14.09-.27.14-.4A.91.91,0,0,0,5.61,6.11Z"/><path class="cls-15" d="M10.62,2.94c-.35-.55-1.17-.07-1.5.27a.06.06,0,0,0,.07.1,3,3,0,0,1,.66-.22,2.91,2.91,0,0,1,.66,0A.11.11,0,0,0,10.62,2.94Z"/><path class="cls-15" d="M9.88,5.52a.05.05,0,0,0-.09.06.94.94,0,0,1,.05.5,4.23,4.23,0,0,0-.13.51.19.19,0,0,0,.31.15C10.36,6.44,10.17,5.79,9.88,5.52Z"/><path class="cls-15" d="M12,4a.91.91,0,0,0-.74-.37.05.05,0,0,0,0,.08c.13.17.32.3.47.46s.22.44.38.62a.1.1,0,0,0,.16,0C12.36,4.49,12.14,4.18,12,4Z"/><path class="cls-15" d="M12,6a.06.06,0,0,0-.07.1,1.27,1.27,0,0,1,.32.86,3.48,3.48,0,0,0,0,.79.08.08,0,0,0,.14.05C13,7.39,12.63,6.22,12,6Z"/><path class="cls-15" d="M12.51,9c0-.06-.09-.08-.1,0a4.75,4.75,0,0,1-.33.81,4.18,4.18,0,0,0-.37.65.07.07,0,0,0,.1.09C12.34,10.29,12.53,9.46,12.51,9Z"/><path class="cls-15" d="M10.66,11.59c-.22.12-.42.28-.64.41a3.85,3.85,0,0,0-.72.39.1.1,0,0,0,0,.16c.27.14.57,0,.8-.18a1.5,1.5,0,0,0,.61-.73S10.69,11.57,10.66,11.59Z"/><path class="cls-15" d="M7.88,12.08a1.09,1.09,0,0,0-1,0,.12.12,0,0,0,0,.17A.88.88,0,0,0,7.9,12.2.08.08,0,0,0,7.88,12.08Z"/><path class="cls-15" d="M5.09,12.94c-.18-.09-.36-.2-.54-.31A5.14,5.14,0,0,0,4,12.26s-.11,0-.08.07a1.43,1.43,0,0,0,1.15.7S5.14,13,5.09,12.94Z"/><path class="cls-15" d="M2.68,9.55a.07.07,0,0,0-.12,0c-.18.33-.34,1,.12,1.2a.14.14,0,0,0,.15-.05A1.25,1.25,0,0,0,2.68,9.55Z"/><path class="cls-15" d="M12.2,3.09A.57.57,0,0,0,11.81,3s-.16.07-.1.11.14,0,.2.09a1.48,1.48,0,0,1,.28.28,3.78,3.78,0,0,0,.49.56s.12,0,.11-.05A1.26,1.26,0,0,0,12.2,3.09Z"/><path class="cls-15" d="M13.25,5.31s-.05,0,0,.06a1.47,1.47,0,0,1,.21.68,1.08,1.08,0,0,0,.23.55.07.07,0,0,0,.11,0C14.1,6.15,13.69,5.5,13.25,5.31Z"/><path class="cls-15" d="M14.67,8.05a0,0,0,0,0,0,0,2,2,0,0,1-.09.72c-.07.23-.19.44-.25.67a.06.06,0,0,0,.08.07A1.12,1.12,0,0,0,14.67,8.05Z"/><path class="cls-15" d="M13,11a.3.3,0,0,0-.55-.11,2.54,2.54,0,0,0-.16.28,2.61,2.61,0,0,1-.19.27c-.13.18-.27.34-.39.53s0,.12.08.09a6.39,6.39,0,0,1,.73-.27A.79.79,0,0,0,13,11Z"/><path class="cls-15" d="M8.69,13.73c-.46,0-.85.29-1.29,0,0,0-.06,0,0,0,.24.49,1.15.86,1.48.24A.19.19,0,0,0,8.69,13.73Z"/><g class="cls-16"><path class="cls-17" d="M13.82,1.51a1.62,1.62,0,0,0-1.06.26s0,0,0,0a3.07,3.07,0,0,1,1.59.52.09.09,0,0,0,.14-.09A.82.82,0,0,0,13.82,1.51Z"/><path class="cls-17" d="M15.29,4.52c.07-.22.23-.42.17-.65a.17.17,0,0,0-.25-.12c-.53.27-.13,1.12.07,1.49h0A1.18,1.18,0,0,1,15.29,4.52Z"/><path class="cls-17" d="M17.2,6c-.1-.43-.42-.61-.73-.87,0,0,0,0,0,0a3,3,0,0,1,.27.94c.07.26.06.54.11.8A.11.11,0,0,0,17,7,.86.86,0,0,0,17.2,6Z"/><path class="cls-17" d="M16.59,8.48a.16.16,0,0,0-.16-.08c-.66.2-.38,1.41-.23,1.88,0,0,.05,0,.05,0a1.7,1.7,0,0,1,.23-1.08C16.58,9,16.72,8.71,16.59,8.48Z"/><path class="cls-17" d="M17.23,2.52a.93.93,0,0,0-1-.13s0,0,0,0a1.19,1.19,0,0,1,.69.42c.18.21.24.5.42.72.05.06.13,0,.16,0A.92.92,0,0,0,17.23,2.52Z"/><path class="cls-17" d="M15.21,10.26s0,0,0,0a3.56,3.56,0,0,1-.85,2.3.09.09,0,0,0,.11.13,1.7,1.7,0,0,0,1-1A2,2,0,0,0,15.21,10.26Z"/><path class="cls-17" d="M13.11,12.57a.21.21,0,0,0-.34-.12c-.17.14-.24.38-.38.56a1.07,1.07,0,0,1-.64.37s0,0,0,0a1.65,1.65,0,0,0,.85-.09A.8.8,0,0,0,13.11,12.57Z"/><path class="cls-17" d="M15.08,13.31c-.38.13-.69.39-1.08.5l-1,.3s0,0,0,0a2.66,2.66,0,0,0,1.18.18,1.4,1.4,0,0,0,1-.86A.11.11,0,0,0,15.08,13.31Z"/><path class="cls-17" d="M18,9.56h0a3.36,3.36,0,0,1-.6,2.21.09.09,0,0,0,.08.15.91.91,0,0,0,.89-.85A3.63,3.63,0,0,0,18,9.56Z"/><path class="cls-17" d="M18.75,6.58c-.06-.08-.16,0-.2,0-.23.49-.1,1.09-.44,1.52h0a1.21,1.21,0,0,0,.72-.53A1,1,0,0,0,18.75,6.58Z"/><path class="cls-17" d="M19.16,4.58A1.17,1.17,0,0,0,18,4.44s0,0,0,0c.63,0,1,.78,1.36,1.21a.08.08,0,0,0,.13,0A1.06,1.06,0,0,0,19.16,4.58Z"/><path class="cls-17" d="M10.24,15.34c-.37.12-.65.38-1,.48A2.73,2.73,0,0,1,8,15.91s0,0,0,0a2.7,2.7,0,0,0,1.34.41,1.13,1.13,0,0,0,1-.89A.1.1,0,0,0,10.24,15.34Z"/><path class="cls-17" d="M6.73,14.79c-.7,0-1.41,0-2.12,0a.1.1,0,0,0-.06.19,1.57,1.57,0,0,0,2.2-.14A0,0,0,0,0,6.73,14.79Z"/><path class="cls-17" d="M2.94,12.63a1.32,1.32,0,0,1-.51-.72s0,0,0,0a1.29,1.29,0,0,0,.14.9.94.94,0,0,0,.84.55.11.11,0,0,0,.09-.13C3.41,12.94,3.15,12.81,2.94,12.63Z"/><path class="cls-17" d="M4,14.74a.81.81,0,0,0-1.11-.32c-.06,0,0,.14,0,.18.23.17.55.19.7.45a2,2,0,0,1,.21.37,1.7,1.7,0,0,1,.09.5h0C4,15.55,4.2,15.1,4,14.74Z"/><path class="cls-17" d="M6.92,16.32a1.54,1.54,0,0,0-1.14.53s0,0,0,0c.53-.41,1.36-.06,1.83.29a.08.08,0,0,0,.13-.06A.79.79,0,0,0,6.92,16.32Z"/><path class="cls-17" d="M13.1,15a.84.84,0,0,0-.88.27,1.11,1.11,0,0,0-.26,1,.12.12,0,0,0,.13.07c.26-.08.42-.36.55-.58a2.75,2.75,0,0,0,.2-.38.46.46,0,0,1,.27-.29A.06.06,0,0,0,13.1,15Z"/><path class="cls-17" d="M3.05,16.94a1.39,1.39,0,0,0-1,0s0,0,0,0c.64,0,1,.65,1.52.92a.09.09,0,0,0,.13-.08A1.26,1.26,0,0,0,3.05,16.94Z"/><path class="cls-17" d="M6.1,18.33c-.4-.12-1.26-.23-1.17-.84h0a1.2,1.2,0,0,0,.21.92,1,1,0,0,0,1,.28A.2.2,0,0,0,6.1,18.33Z"/><path class="cls-17" d="M2.35,15.42a.9.9,0,0,1-.17-.26c-.05-.09-.13-.17-.19-.26a4.44,4.44,0,0,0-.54-.6c-.06-.05-.15,0-.14.06a1.45,1.45,0,0,0,.35.82.73.73,0,0,0,.29.24,1.73,1.73,0,0,0,.38.05S2.37,15.44,2.35,15.42Z"/><path class="cls-17" d="M3.91,7c-.65,0-1,.88-1.1,1.4,0,.06.07.14.12.08.39-.41.58-1,1-1.33A.09.09,0,0,0,3.91,7Z"/><path class="cls-17" d="M17,.76A1.81,1.81,0,0,0,15.82,1a0,0,0,0,0,0,.06,6.7,6.7,0,0,1,.89,0,1.55,1.55,0,0,1,.86.39c.06.05.13,0,.13-.08A.78.78,0,0,0,17,.76Z"/><path class="cls-17" d="M20,3.49C19.8,3,19.38,2.44,19.69,2c0,0,0,0,0,0a1.24,1.24,0,0,0-.44.83.88.88,0,0,0,.57.86A.12.12,0,0,0,20,3.49Z"/><path class="cls-17" d="M20.64,8.34c-.88.23-1,1.17-.89,1.93h0a1.46,1.46,0,0,1,.3-.91,3.2,3.2,0,0,1,.77-.6A.24.24,0,0,0,20.64,8.34Z"/><path class="cls-17" d="M21.28,6a.12.12,0,0,0-.19,0c-.29.21-.27.74-.18,1a.11.11,0,0,0,.21,0,5,5,0,0,0,.16-.55A.66.66,0,0,0,21.28,6Z"/><path class="cls-17" d="M17.24,13.31a.07.07,0,0,0-.13,0,.79.79,0,0,0-.14.16,1.75,1.75,0,0,0-.15.34c-.09.27-.29.49-.39.76a.12.12,0,0,0,.1.15.85.85,0,0,0,.67-.58,1.4,1.4,0,0,0,.11-.49A1.18,1.18,0,0,0,17.24,13.31Z"/><path class="cls-17" d="M11,16.93a1.74,1.74,0,0,1-.33.18,2.13,2.13,0,0,0-.35.14,1.75,1.75,0,0,0-.75.56.12.12,0,0,0,.09.19,1.15,1.15,0,0,0,.92-.35,1.81,1.81,0,0,0,.44-.71S11,16.92,11,16.93Z"/><path class="cls-17" d="M10.06,18.89a7.5,7.5,0,0,1-2-.78s0,0,0,0a1.5,1.5,0,0,0,2,.95A.1.1,0,0,0,10.06,18.89Z"/><path class="cls-17" d="M14.35,16.78c-.18-.21-.62.1-.77.2a.93.93,0,0,0-.41.74c0,.05.07.11.12.06a2.41,2.41,0,0,1,.69-.49C14.13,17.22,14.51,17,14.35,16.78Z"/></g><g class="cls-18"><path class="cls-12" d="M19.91,7.27a2.33,2.33,0,0,0-1.33.3s0,0,0,0a4.06,4.06,0,0,1,2,.6c.09,0,.19,0,.18-.11C20.73,7.63,20.39,7.4,19.91,7.27Z"/><path class="cls-12" d="M21.76,10.72c.09-.25.28-.48.21-.74a.24.24,0,0,0-.32-.15c-.66.31-.15,1.29.09,1.72,0,0,0,0,0,0A1.22,1.22,0,0,1,21.76,10.72Z"/><path class="cls-12" d="M24.16,12.43c-.13-.49-.53-.69-.92-1,0,0,0,0,0,0a3.18,3.18,0,0,1,.33,1.07,8.84,8.84,0,0,1,.14.92.14.14,0,0,0,.21.06A.92.92,0,0,0,24.16,12.43Z"/><path class="cls-12" d="M23.38,15.25a.16.16,0,0,0-.18-.08c-.84.22-.49,1.61-.3,2.14,0,0,.07,0,.06,0a1.85,1.85,0,0,1,.29-1.23C23.38,15.8,23.55,15.52,23.38,15.25Z"/><path class="cls-12" d="M24.19,8.43a1.24,1.24,0,0,0-1.26-.15s0,.05,0,.06a1.48,1.48,0,0,1,.86.48c.23.24.31.58.53.82a.12.12,0,0,0,.2,0A1,1,0,0,0,24.19,8.43Z"/><path class="cls-12" d="M21.66,17.29s0,0,0,0c.21.88-.55,1.92-1.06,2.64-.06.08,0,.18.13.14A2,2,0,0,0,22,18.92C22.21,18.42,21.88,17.75,21.66,17.29Z"/><path class="cls-12" d="M19,19.93a.27.27,0,0,0-.43-.13c-.21.16-.31.44-.49.64a1.36,1.36,0,0,1-.8.42,0,0,0,0,0,0,.06,2.15,2.15,0,0,0,1.07-.1A.94.94,0,0,0,19,19.93Z"/><path class="cls-12" d="M21.5,20.78c-.48.15-.88.44-1.36.57s-.83.24-1.25.34c0,0,0,0,0,0a3.8,3.8,0,0,0,1.49.21,1.76,1.76,0,0,0,1.3-1C21.72,20.82,21.6,20.75,21.5,20.78Z"/><path class="cls-17" d="M19.77,13.64c-.47.15-.87.44-1.36.57s-.82.24-1.24.34h0a3.64,3.64,0,0,0,1.49.21,1.71,1.71,0,0,0,1.3-1C20,13.68,19.87,13.61,19.77,13.64Z"/><path class="cls-12" d="M25.21,16.49h0A3.7,3.7,0,0,1,24.44,19c-.08.07,0,.18.09.18a1.11,1.11,0,0,0,1.12-1C25.77,17.6,25.37,17.06,25.21,16.49Z"/><path class="cls-12" d="M20.74,11.46s0,0,0,0A3.62,3.62,0,0,1,20,14c-.08.08,0,.19.1.18a1.12,1.12,0,0,0,1.12-1C21.29,12.57,20.9,12,20.74,11.46Z"/><path class="cls-12" d="M26.09,13.08a.15.15,0,0,0-.24,0c-.28.56-.13,1.25-.56,1.75h0a1.42,1.42,0,0,0,.9-.6A1,1,0,0,0,26.09,13.08Z"/><path class="cls-12" d="M26.62,10.79a1.62,1.62,0,0,0-1.42-.16s0,0,0,0c.79.05,1.27.9,1.7,1.39,0,0,.15,0,.16,0A1.13,1.13,0,0,0,26.62,10.79Z"/><path class="cls-17" d="M22.22,3.09a1.58,1.58,0,0,0-1.42-.15,0,0,0,1,0,0,0c.79,0,1.27.89,1.7,1.39a.1.1,0,0,0,.17,0A1.15,1.15,0,0,0,22.22,3.09Z"/><path class="cls-12" d="M15.42,23.11c-.46.13-.82.43-1.29.54a3.79,3.79,0,0,1-1.54.11s0,0,0,0a3.65,3.65,0,0,0,1.67.47,1.42,1.42,0,0,0,1.32-1A.13.13,0,0,0,15.42,23.11Z"/><path class="cls-12" d="M11,22.47c-.88,0-1.76,0-2.65,0-.13,0-.19.14-.08.22A2.12,2.12,0,0,0,11,22.53S11,22.48,11,22.47Z"/><path class="cls-12" d="M6.26,20a1.54,1.54,0,0,1-.65-.82s0,0,0,0a1.33,1.33,0,0,0,.16,1,1.2,1.2,0,0,0,1.06.63.14.14,0,0,0,.11-.15C6.85,20.35,6.52,20.21,6.26,20Z"/><path class="cls-12" d="M7.57,22.42a1.05,1.05,0,0,0-1.38-.37.12.12,0,0,0,0,.21c.28.19.69.22.87.52a1.88,1.88,0,0,1,.27.42,1.6,1.6,0,0,1,.11.57s0,0,0,0C7.58,23.35,7.84,22.84,7.57,22.42Z"/><path class="cls-12" d="M11.26,24.23a2,2,0,0,0-1.44.61s0,0,0,0a2.23,2.23,0,0,1,2.3.34.1.1,0,0,0,.16-.07C12.29,24.57,11.84,24.27,11.26,24.23Z"/><path class="cls-12" d="M19,22.72a1.09,1.09,0,0,0-1.1.31,1.17,1.17,0,0,0-.33,1.16.14.14,0,0,0,.16.07c.33-.08.53-.41.7-.66a2.61,2.61,0,0,0,.24-.43.57.57,0,0,1,.34-.34A.06.06,0,0,0,19,22.72Z"/><path class="cls-12" d="M6.39,24.94a1.85,1.85,0,0,0-1.29,0s0,0,0,0C5.91,25,6.35,25.69,7,26c.07,0,.17,0,.15-.09A1.43,1.43,0,0,0,6.39,24.94Z"/><path class="cls-17" d="M4.82,21.8a1.85,1.85,0,0,0-1.29,0s0,0,0,0c.81,0,1.25.74,1.92,1.05.07,0,.17,0,.15-.09A1.43,1.43,0,0,0,4.82,21.8Z"/><path class="cls-12" d="M10.22,26.53c-.5-.14-1.58-.26-1.46-1,0,0,0,0,0,0a1.16,1.16,0,0,0,1.51,1.38A.22.22,0,0,0,10.22,26.53Z"/><path class="cls-12" d="M5.51,23.2a1,1,0,0,1-.2-.3,2.34,2.34,0,0,0-.25-.3,6.23,6.23,0,0,0-.67-.69.1.1,0,0,0-.17.08,1.57,1.57,0,0,0,.43.94A1.11,1.11,0,0,0,5,23.2a4,4,0,0,0,.47.06S5.54,23.22,5.51,23.2Z"/><path class="cls-12" d="M7.47,13.52c-.81,0-1.18,1-1.38,1.59a.1.1,0,0,0,.16.1c.49-.47.73-1.11,1.29-1.52A.1.1,0,0,0,7.47,13.52Z"/><path class="cls-12" d="M23.91,6.41a2.47,2.47,0,0,0-1.49.25s0,.07,0,.07a8.24,8.24,0,0,1,1.11,0,2.16,2.16,0,0,1,1.09.45.1.1,0,0,0,.15-.09C24.76,6.7,24.33,6.48,23.91,6.41Z"/><path class="cls-12" d="M27.6,9.55c-.18-.54-.71-1.21-.32-1.77,0,0,0,0,0,0-.3.3-.54.51-.56.94a1,1,0,0,0,.72,1C27.51,9.72,27.63,9.64,27.6,9.55Z"/><path class="cls-12" d="M28.47,15.09c-1.1.27-1.27,1.34-1.12,2.21,0,0,0,0,0,0a1.6,1.6,0,0,1,.37-1,4.23,4.23,0,0,1,1-.69C29,15.41,28.76,15,28.47,15.09Z"/><path class="cls-12" d="M29.27,12.39a.15.15,0,0,0-.23-.05c-.37.24-.34.85-.23,1.21a.14.14,0,0,0,.26,0c.08-.21.15-.41.21-.63A.64.64,0,0,0,29.27,12.39Z"/><path class="cls-12" d="M24.21,20.79a.1.1,0,0,0-.17,0l-.18.19a2.76,2.76,0,0,0-.18.39c-.11.32-.37.56-.49.87a.13.13,0,0,0,.13.17,1.06,1.06,0,0,0,.84-.66,1.84,1.84,0,0,0,.14-.56A1.87,1.87,0,0,0,24.21,20.79Z"/><path class="cls-12" d="M16.33,24.92a3.36,3.36,0,0,1-.42.22,2.28,2.28,0,0,0-.44.15,2.25,2.25,0,0,0-.94.64c-.07.1,0,.21.12.23a1.55,1.55,0,0,0,1.14-.41,1.86,1.86,0,0,0,.56-.81A0,0,0,0,0,16.33,24.92Z"/><path class="cls-17" d="M8.29,19.55a2.67,2.67,0,0,1-.41.22,2.38,2.38,0,0,0-.45.15,2.29,2.29,0,0,0-.94.64.16.16,0,0,0,.13.23,1.59,1.59,0,0,0,1.14-.41,2,2,0,0,0,.56-.81S8.31,19.55,8.29,19.55Z"/><path class="cls-12" d="M15.19,27.17a10,10,0,0,1-2.49-.9s0,0,0,0c.16,1,1.63,1.43,2.53,1.08A.1.1,0,0,0,15.19,27.17Z"/><path class="cls-17" d="M4,19.55a9.59,9.59,0,0,1-2.49-.89s0,0,0,0c.15,1,1.62,1.43,2.53,1.09C4.09,19.72,4.05,19.59,4,19.55Z"/><path class="cls-12" d="M20.57,24.75c-.21-.24-.77.12-1,.23a1.08,1.08,0,0,0-.51.85.1.1,0,0,0,.15.07,2.89,2.89,0,0,1,.87-.56C20.3,25.26,20.79,25,20.57,24.75Z"/><path class="cls-12" d="M19.15,16.39c-.22-.24-.77.12-1,.23a1,1,0,0,0-.51.85.09.09,0,0,0,.14.07,3.16,3.16,0,0,1,.87-.56C18.88,16.9,19.36,16.63,19.15,16.39Z"/></g><g class="cls-19"><path class="cls-20" d="M18.73,5.78a2.35,2.35,0,0,0-1.32.29s0,.06,0,.06a4.19,4.19,0,0,1,2,.59.11.11,0,0,0,.17-.1C19.55,6.14,19.21,5.91,18.73,5.78Z"/><path class="cls-20" d="M20.58,9.23c.09-.25.28-.48.21-.74a.22.22,0,0,0-.31-.15c-.67.31-.16,1.29.08,1.72,0,0,0,0,0,0A1.22,1.22,0,0,1,20.58,9.23Z"/><path class="cls-20" d="M23,10.94c-.13-.49-.53-.69-.92-1,0,0,0,0,0,0a3.09,3.09,0,0,1,.33,1.08c.09.29.08.61.15.91a.13.13,0,0,0,.2.07A.92.92,0,0,0,23,10.94Z"/><path class="cls-20" d="M22.21,13.76a.19.19,0,0,0-.19-.09c-.84.23-.49,1.61-.29,2.15,0,0,.06,0,.06,0a1.79,1.79,0,0,1,.28-1.23C22.21,14.31,22.37,14,22.21,13.76Z"/><path class="cls-20" d="M20,11.48a.19.19,0,0,0-.19-.08c-.84.22-.48,1.61-.29,2.14,0,0,.06,0,.06,0a1.75,1.75,0,0,1,.29-1.23C20,12,20.17,11.75,20,11.48Z"/><path class="cls-20" d="M23,6.94a1.26,1.26,0,0,0-1.27-.15,0,0,0,0,0,0,.06,1.48,1.48,0,0,1,.86.48c.23.24.31.58.53.82a.13.13,0,0,0,.21,0A1,1,0,0,0,23,6.94Z"/><path class="cls-20" d="M20.48,15.8s0,0,0,0c.21.88-.55,1.92-1.06,2.64,0,.08,0,.17.13.14a2.06,2.06,0,0,0,1.28-1.16A2.14,2.14,0,0,0,20.48,15.8Z"/><path class="cls-20" d="M17.85,18.44a.27.27,0,0,0-.43-.13c-.21.16-.31.44-.48.63a1.34,1.34,0,0,1-.81.43s0,.06,0,.06a2.24,2.24,0,0,0,1.06-.1A.94.94,0,0,0,17.85,18.44Z"/><path class="cls-20" d="M20.32,19.29c-.48.15-.87.44-1.36.57s-.82.24-1.24.34c0,0,0,0,0,0a3.81,3.81,0,0,0,1.49.2,1.71,1.71,0,0,0,1.3-1C20.54,19.33,20.42,19.26,20.32,19.29Z"/><path class="cls-20" d="M24,15s0,0,0,0a3.7,3.7,0,0,1-.75,2.53c-.08.07,0,.18.09.17a1.13,1.13,0,0,0,1.13-1C24.59,16.11,24.2,15.57,24,15Z"/><path class="cls-20" d="M24.92,11.59c-.07-.09-.2,0-.25,0-.28.56-.12,1.25-.55,1.75h0a1.44,1.44,0,0,0,.9-.6A1.06,1.06,0,0,0,24.92,11.59Z"/><path class="cls-20" d="M25.44,9.3A1.61,1.61,0,0,0,24,9.14s0,0,0,0c.79.05,1.27.9,1.7,1.39a.1.1,0,0,0,.17,0A1.14,1.14,0,0,0,25.44,9.3Z"/><path class="cls-20" d="M19,15.18A1.58,1.58,0,0,0,17.58,15s0,0,0,0c.79,0,1.27.89,1.7,1.39a.1.1,0,0,0,.17,0A1.15,1.15,0,0,0,19,15.18Z"/><path class="cls-20" d="M14.24,21.62c-.46.13-.82.42-1.28.54a3.86,3.86,0,0,1-1.55.11s0,0,0,0a3.68,3.68,0,0,0,1.67.47,1.41,1.41,0,0,0,1.32-1C14.41,21.67,14.32,21.6,14.24,21.62Z"/><path class="cls-20" d="M9.84,21c-.88,0-1.77,0-2.66,0-.13,0-.19.14-.08.22A2.13,2.13,0,0,0,9.87,21S9.87,21,9.84,21Z"/><path class="cls-20" d="M5.09,18.51a1.56,1.56,0,0,1-.66-.82,0,0,0,0,0,0,0,1.34,1.34,0,0,0,.17,1,1.17,1.17,0,0,0,1.06.62.12.12,0,0,0,.1-.14C5.68,18.86,5.34,18.71,5.09,18.51Z"/><path class="cls-20" d="M6.39,20.93A1,1,0,0,0,5,20.56c-.08.05,0,.16,0,.21.28.19.69.21.88.52a2.31,2.31,0,0,1,.27.42,2.21,2.21,0,0,1,.11.57h0C6.4,21.85,6.66,21.34,6.39,20.93Z"/><path class="cls-20" d="M10.08,22.74a2,2,0,0,0-1.44.61s0,0,0,0a2.23,2.23,0,0,1,2.3.34c.06,0,.16,0,.16-.07C11.12,23.08,10.67,22.77,10.08,22.74Z"/><path class="cls-20" d="M17.84,21.23a1.1,1.1,0,0,0-1.11.31,1.19,1.19,0,0,0-.33,1.16.14.14,0,0,0,.16.07,1.37,1.37,0,0,0,.7-.66,2.61,2.61,0,0,0,.24-.43.57.57,0,0,1,.34-.34A.06.06,0,0,0,17.84,21.23Z"/><path class="cls-20" d="M5.21,23.45a1.85,1.85,0,0,0-1.29,0,0,0,0,0,0,0,0c.81,0,1.25.74,1.92,1.05.07,0,.17,0,.15-.09A1.43,1.43,0,0,0,5.21,23.45Z"/><path class="cls-20" d="M9,25c-.49-.14-1.57-.26-1.46-1,0,0,0,0,0,0a1.27,1.27,0,0,0,.26,1.06,1.25,1.25,0,0,0,1.25.32A.22.22,0,0,0,9,25Z"/><path class="cls-20" d="M4.34,21.71a1,1,0,0,1-.21-.3,3.5,3.5,0,0,0-.24-.3,5.53,5.53,0,0,0-.68-.69.1.1,0,0,0-.17.07,1.57,1.57,0,0,0,.43,1,1.22,1.22,0,0,0,.37.27,3.93,3.93,0,0,0,.48.06A0,0,0,0,0,4.34,21.71Z"/><path class="cls-20" d="M6.3,12c-.81,0-1.19,1-1.38,1.6a.1.1,0,0,0,.15.1c.49-.47.73-1.11,1.29-1.52A.1.1,0,0,0,6.3,12Z"/><path class="cls-20" d="M22.73,4.92a2.43,2.43,0,0,0-1.48.25c-.05,0,0,.07,0,.07a6.83,6.83,0,0,1,1.11,0,2.09,2.09,0,0,1,1.09.45.11.11,0,0,0,.16-.1C23.58,5.21,23.16,5,22.73,4.92Z"/><path class="cls-20" d="M26.42,8.05c-.17-.53-.71-1.21-.31-1.76,0,0,0,0,0,0a1.39,1.39,0,0,0-.56.94,1,1,0,0,0,.72,1C26.33,8.23,26.45,8.15,26.42,8.05Z"/><path class="cls-20" d="M27.3,13.6a1.74,1.74,0,0,0-1.13,2.21h0a1.56,1.56,0,0,1,.38-1,4,4,0,0,1,1-.69C27.79,13.92,27.59,13.53,27.3,13.6Z"/><path class="cls-20" d="M28.1,10.89a.17.17,0,0,0-.24,0c-.37.24-.34.85-.23,1.21a.15.15,0,0,0,.27,0c.07-.21.14-.41.2-.63A.7.7,0,0,0,28.1,10.89Z"/><path class="cls-20" d="M23,19.29c0-.07-.13-.09-.17,0a1.81,1.81,0,0,0-.17.19,2,2,0,0,0-.19.39c-.11.31-.37.56-.49.87a.14.14,0,0,0,.13.17,1,1,0,0,0,.84-.66,1.41,1.41,0,0,0,.14-.57C23.13,19.52,23,19.38,23,19.29Z"/><path class="cls-20" d="M15.15,23.43a3.23,3.23,0,0,1-.41.22,2.16,2.16,0,0,0-.45.15,2.16,2.16,0,0,0-.94.64c-.07.1,0,.21.12.23a1.54,1.54,0,0,0,1.14-.42,1.77,1.77,0,0,0,.56-.8Z"/><path class="cls-20" d="M14,25.67a9.59,9.59,0,0,1-2.49-.89s0,0,0,0c.16,1,1.63,1.43,2.54,1.08C14.13,25.84,14.1,25.71,14,25.67Z"/><path class="cls-20" d="M13.23,27.87a9.66,9.66,0,0,1-2.5-.89s0,0,0,0c.16,1,1.62,1.43,2.53,1.09C13.35,28,13.32,27.91,13.23,27.87Z"/><path class="cls-20" d="M19.4,23.26c-.22-.24-.78.11-1,.23a1.08,1.08,0,0,0-.51.85c0,.06.09.12.15.06a2.8,2.8,0,0,1,.87-.55C19.12,23.77,19.61,23.49,19.4,23.26Z"/></g><path class="cls-21" d="M9.42,6.14c.13-.52-.07-1.52-.66-1.73-1.46-.54-2.23,2-1.21,2.79A1.08,1.08,0,0,0,9,6.87,1.77,1.77,0,0,0,9.42,6.14Z"/><path class="cls-22" d="M8.77,4.31a.92.92,0,0,0-.54.12c-.23.23,0,.55.08.78A1.19,1.19,0,0,1,8,6.63c-.14.13-.57.38-.41.62s.64.2.82.17A2,2,0,0,0,9.89,6.24a1.62,1.62,0,0,0-.24-1.45,1.19,1.19,0,0,0-.59-.45A1.17,1.17,0,0,0,8.77,4.31Z"/><path class="cls-23" d="M11,4.46a.69.69,0,0,0-.33-.3.37.37,0,0,0-.18,0c-.07,0,0,0-.11,0h0a.84.84,0,0,0,0,.19.65.65,0,0,0,.09.29c.06.08.09.18.15.26a1,1,0,0,0,.2.21.08.08,0,0,0,.11,0A.53.53,0,0,0,11,4.46Z"/><path class="cls-23" d="M8.37,9c-.15-.13-.33-.05-.5,0a1.43,1.43,0,0,1-.82-.06s0,0,0,0c.24.15.41.37.71.42s.59,0,.65-.24C8.41,9,8.4,9,8.37,9Z"/><path class="cls-23" d="M11.78,6.9h0c0,.23-.1.45-.14.69s0,.56-.11.85a0,0,0,0,0,.08,0A1.18,1.18,0,0,0,12,7.82,1.75,1.75,0,0,0,11.78,6.9Z"/><path class="cls-23" d="M6.08,9.77c-.07-.16-.28-.19-.43-.25s-.38-.15-.44-.32h0a.5.5,0,0,0,.2.53c.15.12.47.27.66.17A.09.09,0,0,0,6.08,9.77Z"/><path class="cls-23" d="M15.23,6.79a1.3,1.3,0,0,0-.57-.59h0c0,.22,0,.45.11.66s.05.25.09.36a2.37,2.37,0,0,0,.19.35.07.07,0,0,0,.13,0A.85.85,0,0,0,15.23,6.79Z"/><path class="cls-23" d="M11.87,12.57c-.24.1-.48.2-.72.28a2.48,2.48,0,0,0-.66.24.11.11,0,0,0,0,.15.59.59,0,0,0,.75.08c.3-.14.44-.5.65-.73C11.88,12.58,11.88,12.57,11.87,12.57Z"/><path class="cls-23" d="M6.77,13.28a2.41,2.41,0,0,0-.54-.41c-.21-.14-.43-.26-.64-.39h0a1.32,1.32,0,0,0,.38.68.76.76,0,0,0,.76.23A.07.07,0,0,0,6.77,13.28Z"/><path class="cls-23" d="M8,15.49a1.25,1.25,0,0,0-.69-.09,1.86,1.86,0,0,1-.87.07l0,0a1.22,1.22,0,0,0,.75.44A1,1,0,0,0,8,15.66.1.1,0,0,0,8,15.49Z"/><path class="cls-23" d="M16.1,3.12a1.16,1.16,0,0,0-.85-.32s0,0,0,0c.5.24.67.83,1.1,1.13a.08.08,0,0,0,.12-.06A1,1,0,0,0,16.1,3.12Z"/><path class="cls-23" d="M11,2.14h0a4.11,4.11,0,0,0,1.33.65.1.1,0,0,0,.11-.12A1,1,0,0,0,11,2.14Z"/><path class="cls-24" d="M29.89,13.8s0,0,0,0a9.91,9.91,0,0,1-.63,2.59c-.29.66-.91,1.29-.86,2.05,0,.36.32.69.32,1,0,.6-.28.59-.5,1.06-.14.29-.15.79-.31,1.07-.3.54-.48.19-.72.39-.5.4-.28,1-.74,1.61-.18.22-.4.44-.59.64s-.51.27-.88.29-.34.51-.45.85-.62,1.16-1.07,1c-.43.59-.63,1.32-1.39,1.66a16,16,0,0,0,1.84-1A2.62,2.62,0,0,0,25,26a1.88,1.88,0,0,1,.7-.67c.35-.18.62-.16.83-.54a2.32,2.32,0,0,1,.24-.47c.19-.21.47-.3.67-.51A5.54,5.54,0,0,0,28,23C29.78,20.22,30.09,17,29.89,13.8Z"/><path class="cls-25" d="M29.65,28.09a9.5,9.5,0,0,0-1.27,3.25s0,.05.06,0a9.57,9.57,0,0,0,1.24-3.26A0,0,0,0,0,29.65,28.09Z"/><path class="cls-25" d="M29.72,24.11a5,5,0,0,0-2.87,1.05c-.23.16.06.5.29.33a7.88,7.88,0,0,1,2.58-1.35A0,0,0,0,0,29.72,24.11Z"/><path class="cls-25" d="M31.54,17.72c-.25,1,.17,2,.05,3,0,0,0,0,0,0,.25-.88.05-1.89.5-2.72C32.34,17.57,31.65,17.29,31.54,17.72Z"/><path class="cls-25" d="M34.34,16c-.06,0-.13,0-.18,0a.59.59,0,0,0-.12.37,2.51,2.51,0,0,1-.15.6c-.1.35-.25.69-.36,1h0a8.3,8.3,0,0,0,.79-1.08C34.48,16.64,34.64,16.17,34.34,16Z"/><path class="cls-25" d="M30.07,18a2.48,2.48,0,0,0-.34-1s0,0,0,0a3.59,3.59,0,0,0-.08,1c.06.45.2.89.27,1.34,0,0,.07,0,.08,0A7.78,7.78,0,0,0,30.07,18Z"/><path class="cls-25" d="M32.9,25.68a1.57,1.57,0,0,0-.3-.39,4.23,4.23,0,0,1-.41-.6,0,0,0,0,0,0,0l.3,1c.08.27.13.66.39.8a.12.12,0,0,0,.15,0C33.19,26.24,33,25.93,32.9,25.68Z"/><path class="cls-25" d="M38.69,18.2a.14.14,0,0,0-.19-.06,1.66,1.66,0,0,0-.58.51,6.5,6.5,0,0,1-.74.65,19.12,19.12,0,0,1-2,1.15s0,0,0,0a17.3,17.3,0,0,1,2.4-.89C38.1,19.4,38.92,18.86,38.69,18.2Z"/><path class="cls-26" d="M31.59,22.3a49.76,49.76,0,0,0,3.73-6.56c.23-.54.92-2.2-.23-2.06a8,8,0,0,0-2.28.58,3.35,3.35,0,0,0-1.74,2.94C31,18.06,31,20.61,31,21a2.92,2.92,0,0,0,0,.66C31.05,22,31.3,22.41,31.59,22.3Z"/><path class="cls-27" d="M38.28,20.81a68.08,68.08,0,0,0-6.53,2.36c-.29.15,1,1.06,1.06,1.14.62.6,3.37,3.93,4.67,2.75a7.23,7.23,0,0,0,2.2-3.95,4.71,4.71,0,0,0-.14-2.17C39.35,20.52,38.66,20.74,38.28,20.81Z"/><path class="cls-28" d="M32.18,22.72c1.88-.8,6.28-2.6,7-3.27,1.11-1,.38-2.33.12-2.95S37.65,14,36.77,14.59c-.56.35-3.71,5.74-4.74,7.67C31.85,22.61,32,22.8,32.18,22.72Z"/><path class="cls-29" d="M35.28,27.19c-.83-.79-1.62-1.62-2.46-2.4l-1-.94c-.48-.47-.41.76-.41,1,0,1.67,0,6,.09,6.4.3,1.44,2.65.07,3.75-1C37.12,28.38,35.53,27.43,35.28,27.19Z"/><path class="cls-12" d="M31.17,22.56a.27.27,0,0,0-.31.1c-.05.14-.11.3-.12.35-.08.44.25,1,.64.46A.66.66,0,0,0,31.17,22.56Z"/><path class="cls-30" d="M30,24.61c.18-.21.47-.56.44-.84s-.22-.61-.51-.62a9,9,0,0,0-1.35.2A17.39,17.39,0,0,0,26,24c-1.18.36-3.5.61-3.2,2.39a7.79,7.79,0,0,0,.72,2.91C24.31,30.84,29.57,25.15,30,24.61Z"/><path class="cls-31" d="M45.65,23.34c0-.56-.26-1-.26-1.63a6.27,6.27,0,0,0-.72-2.05c-.21-.6-.74-.85-.85-1.5a2.54,2.54,0,0,0-1-1.27c-.22-.19-.5-.43-.7-.64s-.18-.48-.36-.68a3.26,3.26,0,0,0-.76-.51c-.27-.16-.47-.43-.78-.53.07.22.23.31.36.48a3.5,3.5,0,0,1,.45.8c.07.16,0,.33,0,.49s.19.24.26.38.12.59.3.89c.42.7.17,2.42.1,3.22a17,17,0,0,1-1.75,6,18,18,0,0,1-1.15,1.82,18,18,0,0,1-3.81,4,14.2,14.2,0,0,1-5,2.05,6.21,6.21,0,0,1-1.61-.06c-.47,0-.92.23-1.39.22a3.58,3.58,0,0,1-1.22-.23,8.52,8.52,0,0,0,3.61,1.85c1.17.36,2.18.94,3.49.78a4.44,4.44,0,0,1,1.08-.1,5,5,0,0,0,1.1.11A8.48,8.48,0,0,0,37,36.49c.41-.14.76,0,1.12,0s.56-.47.87-.6.71-.05,1-.23c.58-.32,1.15-.68,1.7-1a5.41,5.41,0,0,0,1.18-1.3c.14-.19.34-.25.5-.42a5.43,5.43,0,0,0,.3-.59,1.56,1.56,0,0,1,.16-.2,2.06,2.06,0,0,0,.29-.37c.1-.17.11-.38.21-.55.19-.35.54-.48.66-.88a5.12,5.12,0,0,1,.15-.56,6.61,6.61,0,0,0,.52-2A6.62,6.62,0,0,0,45.79,25,5.47,5.47,0,0,1,45.65,23.34Z"/><g class="cls-32"><path class="cls-33" d="M45.65,23.34c0-.56-.26-1-.26-1.63a6.27,6.27,0,0,0-.72-2.05c-.21-.6-.74-.85-.85-1.5a2.54,2.54,0,0,0-1-1.27c-.22-.19-.5-.43-.7-.64s-.18-.48-.36-.68a3.26,3.26,0,0,0-.76-.51c-.27-.16-.49-.47-.81-.51a1.6,1.6,0,0,0,.4.7c.21.28.3.74.53,1,.48.49,1.2.08.8,1-.51,1.18.68.25.88,1.09.09.36-.29.38-.07.71s.93.51.47.91-.61-.42-.86-.5c-.56-.17-.22,1-.23,1.26s-.17.27,0,.56.39.21.46.45a4.13,4.13,0,0,1,0,1.07c-.24.08-.33-1.13-.57-.38-.16.52.57.48.18.84-.14.14-.48-.06-.46.28,0,.18.36.27.44.44-.34.19-.88-.89-1,0,0,.41.51.51.56.88.1.76-.61.34-.93.43-.59.17-.06,2.48-.94,1.65a3.07,3.07,0,0,0-.44,1.35c0,.22,0,.42-.18.53-.36.18-.39-.21-.69.22s-.16,1.39-.91,1.67c-.24.08-.27,0-.46.13s-.17.33-.26.43-.33.21-.42.37,0,.35-.11.51c-.26.41-.66.1-1,.4s-.15.69-.69.52c-.07.31-.65.15-.94.38a6.76,6.76,0,0,1-1.19.81c-.42.21-.87.14-1.28.39s-.52.49-.87.56-.64-.16-1-.29c-.55-.23-.25,0-.7.16s-1.17-.3-1.7-.26-.93.18-1.25-.14a8.52,8.52,0,0,0,3.61,1.85c1.17.36,2.18.94,3.49.78a4.44,4.44,0,0,1,1.08-.1,5,5,0,0,0,1.1.11A8.48,8.48,0,0,0,37,36.49c.41-.14.76,0,1.12,0s.56-.47.87-.6.71-.05,1-.23c.58-.32,1.15-.68,1.7-1a5.41,5.41,0,0,0,1.18-1.3c.14-.19.34-.25.5-.42a5.43,5.43,0,0,0,.3-.59,1.56,1.56,0,0,1,.16-.2,2.06,2.06,0,0,0,.29-.37c.1-.17.11-.38.21-.55.19-.35.54-.48.66-.88a5.12,5.12,0,0,1,.15-.56,6.61,6.61,0,0,0,.52-2A6.62,6.62,0,0,0,45.79,25,5.47,5.47,0,0,1,45.65,23.34Z"/></g><path class="cls-34" d="M45.79,25a5.47,5.47,0,0,1-.14-1.66c0-.56-.26-1-.26-1.63a6.27,6.27,0,0,0-.72-2.05c-.2-.58-.71-.84-.84-1.45a2.41,2.41,0,0,0,0,.38,1.94,1.94,0,0,0,.47,1.05A1.48,1.48,0,0,1,44.5,21c-.16.68.31.6.41,1a2.33,2.33,0,0,1,.07.79,2.47,2.47,0,0,0,.12,1.42,1.32,1.32,0,0,1,.08.52,1.06,1.06,0,0,1-.2.57,2.41,2.41,0,0,0-.32,1.35,13.9,13.9,0,0,1-.21,1.56,2.07,2.07,0,0,1-.37,1.11c-.37.37-.91.42-.89,1.06a.23.23,0,0,1-.23.24c-1,.1-1.57,1.43-2.17,2.15a8.31,8.31,0,0,1-2,1.8c-1.09.69-2.75,1.63-4,.89-.43.45-1,.46-1.58.81a4.23,4.23,0,0,1-2.28.4h-.81a5.87,5.87,0,0,0,2.8.54,4.44,4.44,0,0,1,1.08-.1,5,5,0,0,0,1.1.11A8.48,8.48,0,0,0,37,36.49c.41-.14.76,0,1.12,0s.56-.47.87-.6.71-.05,1-.23c.58-.32,1.15-.68,1.7-1a5.41,5.41,0,0,0,1.18-1.3c.14-.19.34-.25.5-.42a5.43,5.43,0,0,0,.3-.59,1.56,1.56,0,0,1,.16-.2,2.06,2.06,0,0,0,.29-.37c.1-.17.11-.38.21-.55.19-.35.54-.48.66-.88a5.12,5.12,0,0,1,.15-.56,6.61,6.61,0,0,0,.52-2A6.62,6.62,0,0,0,45.79,25Z"/><path class="cls-24" d="M41.23,34.18a18.6,18.6,0,0,1-2,1.59,1.77,1.77,0,0,0,.75-.15c.58-.32,1.15-.68,1.7-1a5.41,5.41,0,0,0,1.18-1.3c.14-.19.34-.25.5-.42a5.43,5.43,0,0,0,.3-.59,1.56,1.56,0,0,1,.16-.2,2.06,2.06,0,0,0,.29-.37c.1-.17.11-.38.21-.55.19-.35.54-.48.66-.88a5.12,5.12,0,0,1,.15-.56,6.35,6.35,0,0,0,.49-1.78A22,22,0,0,1,41.23,34.18Z"/><path class="cls-35" d="M27.68,20c.6.57,2,1.93,2.25,2.21.11.1.29.28.46.28.67,0,.39-1.3.38-1.65,0-.8.42-5.44-.27-5.66s-2,1-2.49,1.43-1.65,1.49-1.43,2.25C26.72,19.39,27.33,19.71,27.68,20Z"/><path class="cls-36" d="M27.76,34.4a7.94,7.94,0,0,0,2.75-.1,13.38,13.38,0,0,0,2.88-1.1,17.87,17.87,0,0,0,5-4.85c3.83-5.36,4.06-12,.38-14.64s-10-.37-13.87,5a19.58,19.58,0,0,0-2.5,5.24,7.53,7.53,0,0,0-.58,1.91A8.15,8.15,0,0,0,22,28c.11.64,0,1.29.11,1.93a6.64,6.64,0,0,0,2.56,3.5A4.5,4.5,0,0,0,27.76,34.4Zm-3.52-2.74c-.17-.44-.6-1.16-.17-1.36-.38.18-.89-.66-1.08-1.33a21.79,21.79,0,0,1-.45-2.46A2.57,2.57,0,0,1,23.42,24c-.77-1.1,1.36-4.73,2-5l.67-.16a6.62,6.62,0,0,1,2.85-3.27c.64-.45,1.37-1,2.18-.58a7.42,7.42,0,0,1,4.25-1.63,1.13,1.13,0,0,1,1.14.75,3.56,3.56,0,0,1,2.77,1.71c.52,1,1.49,2.5.26,4.17,1,.76.78,2.45.45,3.76-.38,1.49-1.75,3.78-3.16,4.19.1,2.39-4.14,4.95-5,4.29a4.27,4.27,0,0,1-3.57,1.46C26.88,33.73,24.82,33.07,24.24,31.66Z"/><path class="cls-37" d="M30.85,32.49c.52-.87.32-6.94.3-7.42a3.84,3.84,0,0,0-.07-.69c-.18-.75-1.64,1.54-5.34,4.61a6.76,6.76,0,0,0-1,1.05c-1.44,1.75,1.74,3.34,3.22,3.4C28.73,33.46,30.39,33.25,30.85,32.49Z"/><path class="cls-38" d="M24.69,23.85c.95-.27,6-.66,5.29-1.29s-1.41-1.27-2.08-1.9c-.85-.78-1.33-1.33-1.86-1.35-.9,0-1.56,1.33-1.9,2C23.7,22.19,22.91,24.37,24.69,23.85Z"/><path class="cls-12" d="M46.05,23.56a3.6,3.6,0,0,0-.32-1.24c-.12-.44.05-.9,0-1.33s-.38-.71-.48-1.1c-.18-.73-.49-.88-.91-1.45s-.5-.9-.83-1.34a8.18,8.18,0,0,0-1-1.07c-.2-.2-.25-.51-.44-.72a7.89,7.89,0,0,0-1.24-.83c-.54-.39-1-.84-1.6-1.19a7.09,7.09,0,0,0-2.34-1,9.94,9.94,0,0,0-6.32,1.07,16.25,16.25,0,0,0-5.83,5.13,12,12,0,0,0-1.26,2.05c-.25.58-.61,1.12-.82,1.72-.11.31-.09.67-.2,1A9.91,9.91,0,0,0,21.75,25a7.19,7.19,0,0,0-.28,2c.05.32.23.6.28.92a5,5,0,0,1-.05.86,6.25,6.25,0,0,0,.43,2,9.09,9.09,0,0,0,3.48,4.13,14.18,14.18,0,0,0,2.15,1.28,15.57,15.57,0,0,0,3.82,1.26,10.13,10.13,0,0,0,2.46,0,7,7,0,0,0,3-.45c.45-.22.52-.08,1-.11s.45-.14.8-.34a4.28,4.28,0,0,1,.89-.26,2.21,2.21,0,0,0,.73-.5,14.93,14.93,0,0,0,1.88-1.35c.52-.54,1.05-1.08,1.59-1.6.27-.27.16-.62.38-.91.1-.12.24-.18.31-.32s0-.29.09-.42.38-.35.52-.59.12-.57.24-.83a4.2,4.2,0,0,0,.36-.7A7.65,7.65,0,0,0,46,27.59c0-.67.27-1.24.22-1.92S46.06,24.26,46.05,23.56ZM24.69,33.43a6.64,6.64,0,0,1-2.56-3.5c-.11-.64,0-1.29-.11-1.93a8.15,8.15,0,0,1-.17-2.15,7.53,7.53,0,0,1,.58-1.91,19.58,19.58,0,0,1,2.5-5.24c3.83-5.36,10.18-7.62,13.87-5s3.45,9.28-.38,14.64a17.87,17.87,0,0,1-5,4.85,13.38,13.38,0,0,1-2.88,1.1,7.94,7.94,0,0,1-2.75.1A4.5,4.5,0,0,1,24.69,33.43Zm21-5.74a6.61,6.61,0,0,1-.52,2,5.12,5.12,0,0,0-.15.56c-.12.4-.47.53-.66.88-.1.17-.11.38-.21.55a2.06,2.06,0,0,1-.29.37,1.56,1.56,0,0,0-.16.2,5.43,5.43,0,0,1-.3.59c-.16.17-.36.23-.5.42a5.41,5.41,0,0,1-1.18,1.3c-.55.36-1.12.72-1.7,1-.32.18-.7.08-1,.23s-.53.52-.87.6-.71-.1-1.12,0a8.48,8.48,0,0,1-1.88.75,5,5,0,0,1-1.1-.11,4.44,4.44,0,0,0-1.08.1c-1.31.16-2.32-.42-3.49-.78a8.52,8.52,0,0,1-3.61-1.85,3.58,3.58,0,0,0,1.22.23c.47,0,.92-.2,1.39-.22a6.21,6.21,0,0,0,1.61.06,14.2,14.2,0,0,0,5-2.05,18,18,0,0,0,3.81-4A18,18,0,0,0,40,26.82a17,17,0,0,0,1.75-6c.07-.8.32-2.52-.1-3.22-.18-.3-.13-.6-.3-.89s-.21-.2-.26-.38,0-.33,0-.49a3.5,3.5,0,0,0-.45-.8c-.13-.17-.29-.26-.36-.48.31.1.51.37.78.53a3.26,3.26,0,0,1,.76.51c.18.2.17.48.36.68s.48.45.7.64a2.54,2.54,0,0,1,1,1.27c.11.65.64.9.85,1.5a6.27,6.27,0,0,1,.72,2.05c0,.59.26,1.07.26,1.63A5.47,5.47,0,0,0,45.79,25,6.62,6.62,0,0,1,45.67,27.69Z"/><path class="cls-39" d="M46.05,23.56a3.6,3.6,0,0,0-.32-1.24c-.12-.44.05-.9,0-1.33s-.38-.71-.48-1.1c-.18-.73-.49-.88-.91-1.45s-.5-.9-.83-1.34a8.18,8.18,0,0,0-1-1.07c-.2-.2-.25-.51-.44-.72a7.89,7.89,0,0,0-1.24-.83c-.54-.39-1-.84-1.6-1.19a7.09,7.09,0,0,0-2.34-1,9.94,9.94,0,0,0-6.32,1.07,16.25,16.25,0,0,0-5.83,5.13,12,12,0,0,0-1.26,2.05c-.25.58-.61,1.12-.82,1.72-.11.31-.09.67-.2,1A9.91,9.91,0,0,0,21.75,25a7.19,7.19,0,0,0-.28,2c.05.32.23.6.28.92a5,5,0,0,1-.05.86,6.25,6.25,0,0,0,.43,2,9.09,9.09,0,0,0,3.48,4.13,14.18,14.18,0,0,0,2.15,1.28,15.57,15.57,0,0,0,3.82,1.26,10.13,10.13,0,0,0,2.46,0,7,7,0,0,0,3-.45c.45-.22.52-.08,1-.11s.45-.14.8-.34a4.28,4.28,0,0,1,.89-.26,2.21,2.21,0,0,0,.73-.5,14.93,14.93,0,0,0,1.88-1.35c.52-.54,1.05-1.08,1.59-1.6.27-.27.16-.62.38-.91.1-.12.24-.18.31-.32s0-.29.09-.42.38-.35.52-.59.12-.57.24-.83a4.2,4.2,0,0,0,.36-.7A7.65,7.65,0,0,0,46,27.59c0-.67.27-1.24.22-1.92S46.06,24.26,46.05,23.56ZM24.69,33.43a6.64,6.64,0,0,1-2.56-3.5c-.11-.64,0-1.29-.11-1.93a8.15,8.15,0,0,1-.17-2.15,7.53,7.53,0,0,1,.58-1.91,19.58,19.58,0,0,1,2.5-5.24c3.83-5.36,10.18-7.62,13.87-5s3.45,9.28-.38,14.64a17.87,17.87,0,0,1-5,4.85,13.38,13.38,0,0,1-2.88,1.1,7.94,7.94,0,0,1-2.75.1A4.5,4.5,0,0,1,24.69,33.43Zm21-5.74a6.61,6.61,0,0,1-.52,2,5.12,5.12,0,0,0-.15.56c-.12.4-.47.53-.66.88-.1.17-.11.38-.21.55a2.06,2.06,0,0,1-.29.37,1.56,1.56,0,0,0-.16.2,5.43,5.43,0,0,1-.3.59c-.16.17-.36.23-.5.42a5.41,5.41,0,0,1-1.18,1.3c-.55.36-1.12.72-1.7,1-.32.18-.7.08-1,.23s-.53.52-.87.6-.71-.1-1.12,0a8.48,8.48,0,0,1-1.88.75,5,5,0,0,1-1.1-.11,4.44,4.44,0,0,0-1.08.1c-1.31.16-2.32-.42-3.49-.78a8.52,8.52,0,0,1-3.61-1.85,3.58,3.58,0,0,0,1.22.23c.47,0,.92-.2,1.39-.22a6.21,6.21,0,0,0,1.61.06,14.2,14.2,0,0,0,5-2.05,18,18,0,0,0,3.81-4A18,18,0,0,0,40,26.82a17,17,0,0,0,1.75-6c.07-.8.32-2.52-.1-3.22-.18-.3-.13-.6-.3-.89s-.21-.2-.26-.38,0-.33,0-.49a3.5,3.5,0,0,0-.45-.8c-.13-.17-.29-.26-.36-.48.31.1.51.37.78.53a3.26,3.26,0,0,1,.76.51c.18.2.17.48.36.68s.48.45.7.64a2.54,2.54,0,0,1,1,1.27c.11.65.64.9.85,1.5a6.27,6.27,0,0,1,.72,2.05c0,.59.26,1.07.26,1.63A5.47,5.47,0,0,0,45.79,25,6.62,6.62,0,0,1,45.67,27.69Z"/><path class="cls-40" d="M41.31,16.69l-.06-.12c-.14-.25-.34-.52-.5-.79a4.78,4.78,0,0,0-1.36-1.57,3,3,0,0,1,.89,1.28,9.47,9.47,0,0,1,1.12,4.94,14.09,14.09,0,0,1-1.35,5.13,18.49,18.49,0,0,1-1.63,2.79A17.31,17.31,0,0,1,33.37,33a7.78,7.78,0,0,1-3.32,1.25,14.9,14.9,0,0,1-2.21-.08,13.05,13.05,0,0,0-2.2-.3,2.74,2.74,0,0,0,1.71.6,6.13,6.13,0,0,0,2.69.18,14.2,14.2,0,0,0,5-2.05,18,18,0,0,0,3.81-4A18,18,0,0,0,40,26.82a17,17,0,0,0,1.75-6c.07-.8.32-2.52-.1-3.22A7.13,7.13,0,0,1,41.31,16.69Z"/><path class="cls-12" d="M28.26,33.69a4.27,4.27,0,0,0,3.57-1.46c.82.66,5.06-1.9,5-4.29,1.41-.41,2.78-2.7,3.16-4.19.33-1.31.56-3-.45-3.76,1.23-1.67.26-3.19-.26-4.17a3.56,3.56,0,0,0-2.77-1.71,1.13,1.13,0,0,0-1.14-.75A7.42,7.42,0,0,0,31.08,15c-.81-.39-1.54.13-2.18.58a6.62,6.62,0,0,0-2.85,3.27l-.67.16c-.6.26-2.73,3.89-2,5a2.57,2.57,0,0,0-.88,2.52A21.79,21.79,0,0,0,23,29c.19.67.7,1.51,1.08,1.33-.43.2,0,.92.17,1.36C24.82,33.07,26.88,33.73,28.26,33.69ZM30.74,23c0-.05.07-.21.12-.35a.27.27,0,0,1,.31-.1.66.66,0,0,1,.21.91C31,24,30.66,23.45,30.74,23Zm4.53,7.23c-1.1,1.11-3.45,2.48-3.75,1-.08-.37-.08-4.73-.09-6.4,0-.27-.07-1.5.41-1l1,.94c.84.78,1.63,1.61,2.46,2.4C35.53,27.43,37.12,28.38,35.27,30.24Zm4.27-9.3a4.71,4.71,0,0,1,.14,2.17,7.23,7.23,0,0,1-2.2,3.95c-1.3,1.18-4-2.15-4.67-2.75-.09-.08-1.35-1-1.06-1.14a68.08,68.08,0,0,1,6.53-2.36C38.66,20.74,39.35,20.52,39.54,20.94Zm-2.77-6.35c.88-.55,2.27,1.28,2.54,1.91s1,1.93-.12,2.95c-.73.67-5.13,2.47-7,3.27-.18.08-.33-.11-.15-.46C33.06,20.33,36.21,14.94,36.77,14.59ZM31,21c0-.43,0-3,.09-3.84a3.35,3.35,0,0,1,1.74-2.94,8,8,0,0,1,2.28-.58c1.15-.14.46,1.52.23,2.06a49.76,49.76,0,0,1-3.73,6.56c-.29.11-.54-.35-.58-.6A2.92,2.92,0,0,1,31,21Zm-3-4.4c.47-.45,1.69-1.68,2.49-1.43s.24,4.86.27,5.66c0,.35.29,1.64-.38,1.65-.17,0-.35-.18-.46-.28C29.64,22,28.28,20.6,27.68,20c-.35-.32-1-.64-1.1-1.14C26.36,18.13,27.53,17.09,28,16.64Zm-3.87,4.68c.34-.68,1-2,1.9-2,.53,0,1,.57,1.86,1.35.67.63,1.37,1.31,2.08,1.9s-4.34,1-5.29,1.29C22.91,24.37,23.7,22.19,24.14,21.32Zm-.65,7.94a7.79,7.79,0,0,1-.72-2.91c-.3-1.78,2-2,3.2-2.39a17.39,17.39,0,0,1,2.64-.61,9,9,0,0,1,1.35-.2c.29,0,.48.34.51.62s-.26.63-.44.84C29.57,25.15,24.31,30.84,23.49,29.26Zm1.23.78a6.76,6.76,0,0,1,1-1.05c3.7-3.07,5.16-5.36,5.34-4.61a3.84,3.84,0,0,1,.07.69c0,.48.22,6.55-.3,7.42s-2.12,1-2.91.95C26.46,33.38,23.28,31.79,24.72,30Z"/><path class="cls-36" d="M28.26,33.69a4.27,4.27,0,0,0,3.57-1.46c.82.66,5.06-1.9,5-4.29,1.41-.41,2.78-2.7,3.16-4.19.33-1.31.56-3-.45-3.76,1.23-1.67.26-3.19-.26-4.17a3.56,3.56,0,0,0-2.77-1.71,1.13,1.13,0,0,0-1.14-.75A7.42,7.42,0,0,0,31.08,15c-.81-.39-1.54.13-2.18.58a6.62,6.62,0,0,0-2.85,3.27l-.67.16c-.6.26-2.73,3.89-2,5a2.57,2.57,0,0,0-.88,2.52A21.79,21.79,0,0,0,23,29c.19.67.7,1.51,1.08,1.33-.43.2,0,.92.17,1.36C24.82,33.07,26.88,33.73,28.26,33.69ZM30.74,23c0-.05.07-.21.12-.35a.27.27,0,0,1,.31-.1.66.66,0,0,1,.21.91C31,24,30.66,23.45,30.74,23Zm4.53,7.23c-1.1,1.11-3.45,2.48-3.75,1-.08-.37-.08-4.73-.09-6.4,0-.27-.07-1.5.41-1l1,.94c.84.78,1.63,1.61,2.46,2.4C35.53,27.43,37.12,28.38,35.27,30.24Zm4.27-9.3a4.71,4.71,0,0,1,.14,2.17,7.23,7.23,0,0,1-2.2,3.95c-1.3,1.18-4-2.15-4.67-2.75-.09-.08-1.35-1-1.06-1.14a68.08,68.08,0,0,1,6.53-2.36C38.66,20.74,39.35,20.52,39.54,20.94Zm-2.77-6.35c.88-.55,2.27,1.28,2.54,1.91s1,1.93-.12,2.95c-.73.67-5.13,2.47-7,3.27-.18.08-.33-.11-.15-.46C33.06,20.33,36.21,14.94,36.77,14.59ZM31,21c0-.43,0-3,.09-3.84a3.35,3.35,0,0,1,1.74-2.94,8,8,0,0,1,2.28-.58c1.15-.14.46,1.52.23,2.06a49.76,49.76,0,0,1-3.73,6.56c-.29.11-.54-.35-.58-.6A2.92,2.92,0,0,1,31,21Zm-3-4.4c.47-.45,1.69-1.68,2.49-1.43s.24,4.86.27,5.66c0,.35.29,1.64-.38,1.65-.17,0-.35-.18-.46-.28C29.64,22,28.28,20.6,27.68,20c-.35-.32-1-.64-1.1-1.14C26.36,18.13,27.53,17.09,28,16.64Zm-3.87,4.68c.34-.68,1-2,1.9-2,.53,0,1,.57,1.86,1.35.67.63,1.37,1.31,2.08,1.9s-4.34,1-5.29,1.29C22.91,24.37,23.7,22.19,24.14,21.32Zm-.65,7.94a7.79,7.79,0,0,1-.72-2.91c-.3-1.78,2-2,3.2-2.39a17.39,17.39,0,0,1,2.64-.61,9,9,0,0,1,1.35-.2c.29,0,.48.34.51.62s-.26.63-.44.84C29.57,25.15,24.31,30.84,23.49,29.26Zm1.23.78a6.76,6.76,0,0,1,1-1.05c3.7-3.07,5.16-5.36,5.34-4.61a3.84,3.84,0,0,1,.07.69c0,.48.22,6.55-.3,7.42s-2.12,1-2.91.95C26.46,33.38,23.28,31.79,24.72,30Z"/><path class="cls-40" d="M22.46,29.51c.58.28,1.32-.54,2-1s2.21-1.26,2.38-2.11c-1,0-2.27.88-3.18.68-1.82-.4-.17-2.57.82-2.95,1.4-.54,2.86-.56,4.27-1.2A5.86,5.86,0,0,0,26,22.42c-.87-.06-1.66-.16-1.54-1.19a3.15,3.15,0,0,1,1.31-1.84c1.29-.55,2.72,1.67,3.85,2.16-.27-.85-.46-1.72-.81-2.54s-.78-1.32-.48-2.12c.22-.61,1.17-1.51,1.87-1.16,1,.48.89,3.66.92,4.62.81-1.24.91-3,1.3-4.35a7,7,0,0,1,.89-2.16c.4-.54,1.06-.73,1.4-1.26-2.82-.62-6,1.77-8,3.49a14.31,14.31,0,0,0-4.5,8.21c-.28,1.48-.82,3.12-.21,4.6A1.12,1.12,0,0,0,22.46,29.51Z"/><path class="cls-41" d="M38.8,13.71a6.55,6.55,0,0,0-4.59-1,14,14,0,0,1,2.33,5.81c.18,1,.44,2.26-.18,3.12a1.33,1.33,0,0,1-1.77.15,16.57,16.57,0,0,0-2.94-1.69c-1.15-.32-2.23.43-1.77,1.65s2.59,3.56.9,4.6a.24.24,0,0,1-.29,0,5.78,5.78,0,0,1-.74-1.36c-.1-.24-.26-.73-.6-.71a2,2,0,0,0-1,.37c-1.08.76-.92,2.17-1.81,3-.59.58-1.37.42-2,.87s-1,1-1.59,1.47c-.17.14-.34.28-.52.41a7.09,7.09,0,0,0,2.44,3.07,4.5,4.5,0,0,0,3.07,1,7.94,7.94,0,0,0,2.75-.1,13.38,13.38,0,0,0,2.88-1.1,17.87,17.87,0,0,0,5-4.85C42.25,23,42.48,16.35,38.8,13.71Z"/><g class="cls-42"><path class="cls-17" d="M30.44,25.21a5.22,5.22,0,0,0-1.8,2.18c0,.09.07.14.14.09a4.66,4.66,0,0,0,1.69-2.25S30.45,25.2,30.44,25.21Z"/><path class="cls-17" d="M30.74,25.74s0,0,0,0a17.16,17.16,0,0,1-.54,2.44,15.48,15.48,0,0,0-.31,2.53.08.08,0,0,0,.16,0,9.5,9.5,0,0,0,.58-2.53A12.77,12.77,0,0,0,30.74,25.74Z"/><path class="cls-17" d="M28.51,28.15c-.18.21-2,2.4-1.58,2.61s.62-.3.71-.61a8.87,8.87,0,0,1,.88-2S28.51,28.14,28.51,28.15Z"/><path class="cls-17" d="M26.57,29.4l-.52.55a6.66,6.66,0,0,1-.56.5c-.18.16.05.41.24.28a2,2,0,0,0,.45-.58c.15-.24.28-.49.41-.74C26.59,29.4,26.58,29.39,26.57,29.4Z"/><path class="cls-17" d="M27.51,24.37a7.66,7.66,0,0,1-2.42.43.4.4,0,1,0,.14.76,15.48,15.48,0,0,0,2.3-1.16S27.53,24.36,27.51,24.37Z"/><path class="cls-17" d="M29.14,25c-.43.33-.8.73-1.25,1s-1,.26-1.16.71a.16.16,0,0,0,0,.16c.67.89,2-1.5,2.39-1.88C29.15,25,29.14,25,29.14,25Z"/><path class="cls-17" d="M25.58,26.88l-.89.34a7.2,7.2,0,0,1-1.08.29c-.29.07-.29.56,0,.55.72,0,1.4-.74,1.94-1.15C25.61,26.9,25.59,26.87,25.58,26.88Z"/><path class="cls-17" d="M24.38,26.29a1,1,0,0,0-.74.16c-.24.17.11.54.31.28.06-.07.09-.14.14-.21a.64.64,0,0,1,.3-.17S24.42,26.29,24.38,26.29Z"/><path class="cls-17" d="M33.08,19.14a.21.21,0,0,0-.13-.05.26.26,0,0,0-.26.18,13.59,13.59,0,0,1-1,2.43s0,.07.06,0l.75-1.11a6.43,6.43,0,0,0,.7-1.18A.25.25,0,0,0,33.08,19.14Z"/><path class="cls-17" d="M33.1,16.37s-.05,0-.07,0a6.55,6.55,0,0,0-.7,2.69h0C32.61,18.16,33.26,17.33,33.1,16.37Z"/><path class="cls-17" d="M32.59,14.64c-.67.23-.79.95-.86,1.57,0,.08.1.11.15.05a3.51,3.51,0,0,0,.44-.75c0-.14.13-.27.17-.42s0-.29.11-.44Z"/><path class="cls-17" d="M29.71,15.64h0c.44,0,.6,1.42.63,1.76,0,.63,0,1.27.07,1.9,0,.05.06,0,.06,0a20.76,20.76,0,0,0,.21-2.72C30.7,16.06,30.37,15.09,29.71,15.64Z"/><path class="cls-17" d="M29.93,20.8a3.77,3.77,0,0,0-.91-1c-.33-.29-.63-.61-1-.88,0,0,0,0,0,0A5.19,5.19,0,0,1,28.87,20a6.25,6.25,0,0,0,.62,1.06.27.27,0,0,0,.25.09.26.26,0,0,0,.17-.11A.26.26,0,0,0,29.93,20.8Z"/><path class="cls-17" d="M30.11,20.18s-.06,0-.06,0a5.38,5.38,0,0,0,.28,1.6c0,.07.12.05.14,0C30.66,21.27,30.29,20.67,30.11,20.18Z"/><path class="cls-17" d="M29.41,22.6l-.48-.27a4.45,4.45,0,0,0-.55-.38,1.89,1.89,0,0,0-1.24-.15c-.06,0-.08.1,0,.13a5.26,5.26,0,0,0,1.1.52,1,1,0,0,0,.42.08,4,4,0,0,1,.77.08Z"/><path class="cls-17" d="M25.5,20.1a0,0,0,0,0,0,0c-.51.69-1.94,1.76-.86,2.63a.07.07,0,0,0,.11-.07C24.47,21.67,25.18,21,25.5,20.1Z"/><path class="cls-17" d="M27.58,22.93a3.92,3.92,0,0,0-1.12-.28,3.56,3.56,0,0,0-1.14.26s0,0,0,0a8.14,8.14,0,0,0,1,.19c.43,0,.85-.12,1.29-.11A0,0,0,0,0,27.58,22.93Z"/><path class="cls-43" d="M29.65,28.09a9.5,9.5,0,0,0-1.27,3.25s0,.05.06,0a9.57,9.57,0,0,0,1.24-3.26A0,0,0,0,0,29.65,28.09Z"/><path class="cls-43" d="M29.72,24.11a5,5,0,0,0-2.87,1.05c-.23.16.06.5.29.33a7.88,7.88,0,0,1,2.58-1.35A0,0,0,0,0,29.72,24.11Z"/><path class="cls-43" d="M31.54,17.72c-.25,1,.17,2,.05,3,0,0,0,0,0,0,.25-.88.05-1.89.5-2.72C32.34,17.57,31.65,17.29,31.54,17.72Z"/><path class="cls-43" d="M34.34,16c-.06,0-.13,0-.18,0a.59.59,0,0,0-.12.37,2.51,2.51,0,0,1-.15.6c-.1.35-.25.69-.36,1h0a8.3,8.3,0,0,0,.79-1.08C34.48,16.64,34.64,16.17,34.34,16Z"/><path class="cls-43" d="M30.07,18a2.48,2.48,0,0,0-.34-1s0,0,0,0a3.59,3.59,0,0,0-.08,1c.06.45.2.89.27,1.34,0,0,.07,0,.08,0A7.78,7.78,0,0,0,30.07,18Z"/><path class="cls-43" d="M25.66,21.58l.56.09c.15,0,.32,0,.42.15-.1-.13-.27-.13-.42-.15l-.56-.09c-.09,0-.17.1-.07.16a2.34,2.34,0,0,0,.51.23c.16,0,.4.11.53,0s.05-.09,0-.12Z"/><path class="cls-43" d="M32.9,25.68a1.57,1.57,0,0,0-.3-.39,4.23,4.23,0,0,1-.41-.6,0,0,0,0,0,0,0l.3,1c.08.27.13.66.39.8a.12.12,0,0,0,.15,0C33.19,26.24,33,25.93,32.9,25.68Z"/><path class="cls-43" d="M38.69,18.2a.14.14,0,0,0-.19-.06,1.66,1.66,0,0,0-.58.51,6.5,6.5,0,0,1-.74.65,19.12,19.12,0,0,1-2,1.15s0,0,0,0a17.3,17.3,0,0,1,2.4-.89C38.1,19.4,38.92,18.86,38.69,18.2Z"/><path class="cls-17" d="M26.79,20.35a.29.29,0,0,0-.45.38.35.35,0,0,0,.27.14.27.27,0,0,0,.28-.24A.45.45,0,0,0,26.79,20.35Z"/><path class="cls-17" d="M32.75,28.39a11.25,11.25,0,0,0-.66-1.81s0,0,0,0a12.79,12.79,0,0,1,.08,1.85.31.31,0,0,0,.21.31.27.27,0,0,0,.23,0A.32.32,0,0,0,32.75,28.39Z"/><path class="cls-17" d="M38.76,23c-.61,1.14-.47,2.5-1.41,3.49,0,0,0,0,0,0,1.37-.4,1.5-2.29,1.54-3.46A.08.08,0,0,0,38.76,23Z"/><path class="cls-17" d="M38.1,21.82c-.23-.42-.93-.17-1.27-.09a4.43,4.43,0,0,0-1.57.81,0,0,0,1,0,0,0,9.34,9.34,0,0,1,2-.23C37.41,22.31,38.3,22.18,38.1,21.82Z"/><path class="cls-17" d="M37.59,23.28a13.94,13.94,0,0,0-2.33,0h0a7.29,7.29,0,0,1,2.16.49l.06,0C37.86,23.9,38,23.3,37.59,23.28Z"/><path class="cls-17" d="M35.73,24.32a2.83,2.83,0,0,0-.71-.17,1.71,1.71,0,0,1-.84-.36s0,0,0,0a6.07,6.07,0,0,0,.65.59,2.22,2.22,0,0,0,.73.52C35.93,25.07,36.1,24.49,35.73,24.32Z"/><path class="cls-17" d="M35.94,18.93a4.72,4.72,0,0,0-1.49,1.18,18.49,18.49,0,0,0-1.33,1.6h0a10.08,10.08,0,0,1,1.79-1.25,2.59,2.59,0,0,0,1.21-1.38A.13.13,0,0,0,35.94,18.93Z"/><path class="cls-17" d="M37.92,15.31c-.26.23-.57.33-.83.58a7.44,7.44,0,0,0-.59.67,6.64,6.64,0,0,0-1,1.57c0,.08.07.14.13.09A8,8,0,0,0,36.84,17c.23-.26.44-.52.66-.8a9.44,9.44,0,0,0,.45-.9S37.94,15.3,37.92,15.31Z"/><path class="cls-17" d="M38.4,16.52s0,0-.06,0a.58.58,0,0,0-.19,0,.91.91,0,0,0-.24.24.94.94,0,0,0-.24.49c0,.09.08.13.16.11a1.09,1.09,0,0,0,.42-.38.7.7,0,0,0,.15-.23A.65.65,0,0,0,38.4,16.52Z"/></g><path class="cls-17" d="M31.21,28c0-.81-.21-1.63-.26-2.44,0,0,0,0,0,0a16.69,16.69,0,0,1-.19,2.13,7.41,7.41,0,0,0-.22,1.87c0,.14.2.14.27.05A2.2,2.2,0,0,0,31.21,28Z"/><path class="cls-17" d="M30.55,31.6s0,0,0,0c-.19.19-.37.39-.57.58a3.23,3.23,0,0,0-.58.64.08.08,0,0,0,.06.12,1.08,1.08,0,0,0,.93-.39A.83.83,0,0,0,30.55,31.6Z"/><path class="cls-17" d="M35.46,27.84s-.12,0-.12,0a3.2,3.2,0,0,1-.68,2.36h0a1.51,1.51,0,0,0,1-1A1.36,1.36,0,0,0,35.46,27.84Z"/><path class="cls-17" d="M36.66,16.51a.36.36,0,0,1,0-.09.17.17,0,0,0-.14-.09c-.52,0-.81.85-1.09,1.22a6.9,6.9,0,0,0-1,1.77h0c.68-.89,1.63-1.57,2.28-2.49A.33.33,0,0,0,36.66,16.51Z"/><path class="cls-17" d="M34.21,14.13a7.71,7.71,0,0,0-1.49,1s0,.05,0,0c.4-.16.79-.29,1.2-.42s.82-.31,1.13-.14a.21.21,0,0,0,.32-.11C35.63,13.84,34.55,14,34.21,14.13Z"/><path class="cls-17" d="M30.11,18.75c0-.05-.09,0-.09,0,.09.79-.17,1.82.37,2.49a.1.1,0,0,0,.16,0A4,4,0,0,0,30.11,18.75Z"/><path class="cls-17" d="M29.15,22.25a6,6,0,0,0-1.11-1,9.14,9.14,0,0,0-1.45-.58s-.08,0-.05.08a8.51,8.51,0,0,0,1.07.83c.48.3,1.05.39,1.51.72C29.14,22.3,29.16,22.27,29.15,22.25Z"/><g class="cls-18"><path class="cls-12" d="M42.47,17.72a0,0,0,0,0-.07,0,3.75,3.75,0,0,0,.09.94,9.45,9.45,0,0,0,.09,1.07c0,.07.13.13.19.06C43.27,19.3,42.75,18.24,42.47,17.72Z"/><path class="cls-12" d="M43.88,20.43s-.08,0-.08,0l0,.8c0,.27-.12.54-.15.81a.12.12,0,0,0,.18.12C44.37,21.82,44.24,20.91,43.88,20.43Z"/><path class="cls-12" d="M43.16,22.59a.1.1,0,0,0-.19,0c0,.14-.07.29-.11.43s-.15.26-.08.39,0,0,.07,0,.24-.2.28-.35A1.18,1.18,0,0,0,43.16,22.59Z"/><path class="cls-12" d="M43.07,21a.06.06,0,0,0-.07,0c-.17,0-.21.23-.25.38a2.1,2.1,0,0,0-.08.66c0,.08.09.11.14.05a1.16,1.16,0,0,0,.18-.54A1.81,1.81,0,0,0,43.07,21Z"/><path class="cls-12" d="M41.47,25.56a4,4,0,0,1-.44.87c-.14.25-.4.48-.43.77a.11.11,0,0,0,.1.12c.69,0,.87-1.22.92-1.73A.08.08,0,0,0,41.47,25.56Z"/><path class="cls-12" d="M41.45,28.11c-.49,0-.86.48-1.24.71-.06,0-.05.13,0,.13a1.51,1.51,0,0,0,1.3-.71A.09.09,0,0,0,41.45,28.11Z"/><path class="cls-12" d="M44.05,24.83a1.31,1.31,0,0,0,.4-1c0-.15-.22-.2-.25-.05a2.68,2.68,0,0,1-.18.47c-.1.17-.24.31-.34.48s0,.26.14.22l.09,0a7.2,7.2,0,0,0-.28.9.12.12,0,0,0,.21.1c.19-.3.43-.69.24-1Z"/><path class="cls-12" d="M42.48,23a.08.08,0,0,0-.11.1s0,0,0,0a.41.41,0,0,0,0,.11c0,.07,0,.13,0,.2a.07.07,0,0,0,.11.05.32.32,0,0,0,.12-.26A.25.25,0,0,0,42.48,23Z"/><path class="cls-12" d="M38.75,30.54h0s0,0,0,0a.18.18,0,0,0-.1,0,.62.62,0,0,0-.17.11,2.57,2.57,0,0,0-.41.4,1.75,1.75,0,0,0-.52.91.18.18,0,0,0,.26.17,1.73,1.73,0,0,0,.77-.72,3.1,3.1,0,0,0,.27-.51A.38.38,0,0,0,38.75,30.54Z"/><path class="cls-12" d="M34.75,33.81a2.34,2.34,0,0,0-1.7.75.1.1,0,0,0,.09.18c.6-.09,1-.61,1.62-.74C34.87,34,34.85,33.83,34.75,33.81Z"/><path class="cls-12" d="M28.93,35.07a.2.2,0,0,0-.07-.06l-.08,0a.07.07,0,0,0,0-.06h0a.09.09,0,0,0-.11,0h0a.13.13,0,0,0-.07.13.33.33,0,0,0,.08.18.06.06,0,0,0,.08,0s0,0,.05-.07.06,0,.08,0S29,35.12,28.93,35.07Z"/><path class="cls-12" d="M30.82,36A1.61,1.61,0,0,0,29,35.7c-.09,0,0,.23.07.19.61-.19,1.11.24,1.7.24A.08.08,0,0,0,30.82,36Z"/><path class="cls-12" d="M33.54,35.65a1.85,1.85,0,0,0-1.45.55c-.08.1.07.23.16.15.38-.36,1-.22,1.35-.54A.09.09,0,0,0,33.54,35.65Z"/><path class="cls-12" d="M37.15,33.2c-.14-.09-.28.17-.34.26a2.55,2.55,0,0,0-.25.46.12.12,0,0,0,.22.11c.1-.13.21-.25.3-.39S37.3,33.3,37.15,33.2Z"/><path class="cls-12" d="M37,31.75c-.34.15-.81.49-.75.92a.1.1,0,0,0,.2,0,1,1,0,0,1,.32-.4,1.67,1.67,0,0,0,.34-.45C37.1,31.78,37,31.72,37,31.75Z"/><path class="cls-12" d="M41.27,30.08c-.25,0-.43.35-.53.55a3.42,3.42,0,0,0-.35,1,.11.11,0,0,0,.18.09A2.3,2.3,0,0,0,41,31a2.06,2.06,0,0,0,.32-.84S41.32,30.07,41.27,30.08Z"/><path class="cls-12" d="M39.14,33.58a5.28,5.28,0,0,0-1.23,1c0,.08,0,.16.12.13a3,3,0,0,0,1.23-1C39.32,33.62,39.21,33.53,39.14,33.58Z"/><path class="cls-12" d="M36.1,35.46c-.28.15-.66.23-.85.5a.08.08,0,0,0,.08.12,2.41,2.41,0,0,0,.89-.37C36.37,35.62,36.25,35.37,36.1,35.46Z"/><path class="cls-12" d="M34.57,36.49a1.55,1.55,0,0,1-.31,0,.55.55,0,0,0-.28.06.06.06,0,0,0,0,.1.82.82,0,0,0,.65,0C34.73,36.63,34.67,36.46,34.57,36.49Z"/><path class="cls-12" d="M39.32,31.54a1.17,1.17,0,0,0-.78.7c0,.17.21.26.26.09A.64.64,0,0,1,39,32c.13-.11.24-.23.36-.34A.07.07,0,0,0,39.32,31.54Z"/><path class="cls-12" d="M42.7,31.4c-.13.15-.26.29-.39.45a1.79,1.79,0,0,1-.51.48c-.13.08,0,.31.11.23a2,2,0,0,0,.9-1.09C42.83,31.41,42.75,31.34,42.7,31.4Z"/><path class="cls-12" d="M44.38,27.7c0-.05-.1,0-.12,0a4.35,4.35,0,0,0-.18.71.14.14,0,1,0,.27.06c0-.15,0-.3.08-.44A.78.78,0,0,0,44.38,27.7Z"/><path class="cls-12" d="M43,28.16c-.15.34-.31.67-.43,1a.07.07,0,0,0,.12.07,2.81,2.81,0,0,0,.54-1C43.24,28.1,43,28,43,28.16Z"/></g></g></g></svg>