<svg xmlns="http://www.w3.org/2000/svg" xmlns:xlink="http://www.w3.org/1999/xlink" viewBox="0 0 41.87 52.76"><defs><style>.cls-1{mask:url(#mask);filter:url(#luminosity-noclip-16);}.cls-10,.cls-12,.cls-14,.cls-16,.cls-18,.cls-2,.cls-20,.cls-22,.cls-24,.cls-26,.cls-28,.cls-30,.cls-4,.cls-6,.cls-8{mix-blend-mode:multiply;}.cls-2{fill:url(#radial-gradient);}.cls-3{mask:url(#mask-2);filter:url(#luminosity-noclip-19);}.cls-4{fill:url(#linear-gradient);}.cls-5{mask:url(#mask-3);filter:url(#luminosity-noclip-20);}.cls-6{fill:url(#linear-gradient-2);}.cls-7{mask:url(#mask-4);filter:url(#luminosity-noclip-21);}.cls-8{fill:url(#radial-gradient-2);}.cls-9{mask:url(#mask-5);}.cls-10{fill:url(#radial-gradient-3);}.cls-11{mask:url(#mask-6);filter:url(#luminosity-noclip-22);}.cls-12{fill:url(#linear-gradient-3);}.cls-13{mask:url(#mask-7);}.cls-14{fill:url(#radial-gradient-4);}.cls-15{mask:url(#mask-8);filter:url(#luminosity-noclip-23);}.cls-16{fill:url(#radial-gradient-5);}.cls-17{mask:url(#mask-9);}.cls-18{fill:url(#radial-gradient-6);}.cls-19{mask:url(#mask-10);filter:url(#luminosity-noclip-24);}.cls-20{fill:url(#linear-gradient-4);}.cls-21{mask:url(#mask-11);filter:url(#luminosity-noclip-25);}.cls-22{fill:url(#linear-gradient-5);}.cls-23{mask:url(#mask-12);filter:url(#luminosity-noclip-26);}.cls-24{fill:url(#radial-gradient-7);}.cls-25{mask:url(#mask-13);filter:url(#luminosity-noclip-17);}.cls-26{fill:url(#linear-gradient-6);}.cls-27{mask:url(#mask-14);}.cls-28{fill:url(#radial-gradient-8);}.cls-29{mask:url(#mask-15);filter:url(#luminosity-noclip-18);}.cls-30{fill:url(#radial-gradient-9);}.cls-31{fill:url(#radial-gradient-10);}.cls-32{mask:url(#mask-16);}.cls-33,.cls-52,.cls-54{opacity:0.7;}.cls-33{fill:url(#radial-gradient-11);}.cls-34{fill:url(#linear-gradient-7);}.cls-35{fill:url(#linear-gradient-8);}.cls-36,.cls-49{fill:#290c03;}.cls-36,.cls-60{opacity:0.4;}.cls-37{mask:url(#mask-17);}.cls-38,.cls-48,.cls-58,.cls-64,.cls-70,.cls-74{opacity:0.2;}.cls-38{fill:url(#radial-gradient-12);}.cls-39{mask:url(#mask-18);}.cls-40,.cls-42,.cls-49,.cls-72{opacity:0.3;}.cls-40{fill:url(#linear-gradient-9);}.cls-41{mask:url(#mask-19);}.cls-42{fill:url(#radial-gradient-13);}.cls-43{mask:url(#mask-20);}.cls-44,.cls-62{opacity:0.1;}.cls-44{fill:url(#radial-gradient-14);}.cls-45{mask:url(#mask-21);}.cls-46,.cls-47,.cls-66{opacity:0.8;}.cls-46{fill:url(#linear-gradient-10);}.cls-47,.cls-48{fill:#ffd129;}.cls-50{fill:url(#radial-gradient-15);}.cls-51{mask:url(#mask-22);}.cls-52{fill:url(#linear-gradient-11);}.cls-53{mask:url(#mask-23);}.cls-54{fill:url(#radial-gradient-16);}.cls-55{fill:url(#linear-gradient-12);}.cls-56{fill:url(#linear-gradient-13);}.cls-57{mask:url(#mask-24);}.cls-58{fill:url(#radial-gradient-17);}.cls-59{mask:url(#mask-25);}.cls-60{fill:url(#linear-gradient-14);}.cls-61{mask:url(#mask-26);}.cls-62{fill:url(#radial-gradient-18);}.cls-63{mask:url(#mask-27);}.cls-64{fill:url(#radial-gradient-19);}.cls-65{mask:url(#mask-28);}.cls-66{fill:url(#linear-gradient-15);}.cls-67{fill:url(#radial-gradient-20);}.cls-68{fill:url(#linear-gradient-16);}.cls-69{fill:url(#linear-gradient-17);}.cls-70{fill:#d7df23;}.cls-71{mask:url(#mask-29);}.cls-72{fill:url(#linear-gradient-18);}.cls-73{mask:url(#mask-30);}.cls-74{fill:url(#radial-gradient-21);}.cls-75{filter:url(#luminosity-noclip-15);}.cls-76{filter:url(#luminosity-noclip-14);}.cls-77{filter:url(#luminosity-noclip-13);}.cls-78{filter:url(#luminosity-noclip-12);}.cls-79{filter:url(#luminosity-noclip-11);}.cls-80{filter:url(#luminosity-noclip-10);}.cls-81{filter:url(#luminosity-noclip-9);}.cls-82{filter:url(#luminosity-noclip-8);}.cls-83{filter:url(#luminosity-noclip-7);}.cls-84{filter:url(#luminosity-noclip-6);}.cls-85{filter:url(#luminosity-noclip-5);}.cls-86{filter:url(#luminosity-noclip-4);}.cls-87{filter:url(#luminosity-noclip-3);}.cls-88{filter:url(#luminosity-noclip-2);}.cls-89{filter:url(#luminosity-noclip);}</style><filter id="luminosity-noclip" x="1.05" y="-8171.52" width="21.55" height="32766" filterUnits="userSpaceOnUse" color-interpolation-filters="sRGB"><feFlood flood-color="#fff" result="bg"/><feBlend in="SourceGraphic" in2="bg"/></filter><mask id="mask" x="1.05" y="-8171.52" width="21.55" height="32766" maskUnits="userSpaceOnUse"><g class="cls-89"/></mask><radialGradient id="radial-gradient" cx="19.4" cy="49.53" r="12.23" gradientTransform="translate(-9.96 -13.98) scale(1.03 1.06)" gradientUnits="userSpaceOnUse"><stop offset="0"/><stop offset="0.14" stop-color="#3a3a3a"/><stop offset="0.32" stop-color="#7f7f7f"/><stop offset="0.48" stop-color="#b6b6b6"/><stop offset="0.62" stop-color="#dedede"/><stop offset="0.74" stop-color="#f6f6f6"/><stop offset="0.8" stop-color="#fff"/></radialGradient><filter id="luminosity-noclip-2" x="2.48" y="-8171.52" width="6.68" height="32766" filterUnits="userSpaceOnUse" color-interpolation-filters="sRGB"><feFlood flood-color="#fff" result="bg"/><feBlend in="SourceGraphic" in2="bg"/></filter><mask id="mask-2" x="2.48" y="-8171.52" width="6.68" height="32766" maskUnits="userSpaceOnUse"><g class="cls-88"/></mask><linearGradient id="linear-gradient" x1="2.53" y1="37.87" x2="8.27" y2="29.46" gradientUnits="userSpaceOnUse"><stop offset="0" stop-color="#fff"/><stop offset="0.72"/></linearGradient><filter id="luminosity-noclip-3" x="30.26" y="-8171.52" width="0.97" height="32766" filterUnits="userSpaceOnUse" color-interpolation-filters="sRGB"><feFlood flood-color="#fff" result="bg"/><feBlend in="SourceGraphic" in2="bg"/></filter><mask id="mask-3" x="30.26" y="-8171.52" width="0.97" height="32766" maskUnits="userSpaceOnUse"><g class="cls-87"/></mask><linearGradient id="linear-gradient-2" x1="20.06" y1="35.43" x2="40.7" y2="35.43" gradientUnits="userSpaceOnUse"><stop offset="0"/><stop offset="0.09" stop-color="#2b2b2b"/><stop offset="0.23" stop-color="#626262"/><stop offset="0.37" stop-color="#929292"/><stop offset="0.5" stop-color="#b9b9b9"/><stop offset="0.63" stop-color="#d8d8d8"/><stop offset="0.76" stop-color="#eee"/><stop offset="0.89" stop-color="#fbfbfb"/><stop offset="1" stop-color="#fff"/></linearGradient><filter id="luminosity-noclip-4" x="21.29" y="-8171.52" width="19.41" height="32766" filterUnits="userSpaceOnUse" color-interpolation-filters="sRGB"><feFlood flood-color="#fff" result="bg"/><feBlend in="SourceGraphic" in2="bg"/></filter><mask id="mask-4" x="21.29" y="-8171.52" width="19.41" height="32766" maskUnits="userSpaceOnUse"><g class="cls-86"/></mask><radialGradient id="radial-gradient-2" cx="36.6" cy="54.3" r="12.31" gradientTransform="translate(-9.96 -13.98) scale(1.03 1.06)" gradientUnits="userSpaceOnUse"><stop offset="0"/><stop offset="0.66" stop-color="#dcdcdc"/><stop offset="0.77" stop-color="#fff"/></radialGradient><filter id="luminosity-noclip-5" x="31.89" y="-8171.52" width="9.74" height="32766" filterUnits="userSpaceOnUse" color-interpolation-filters="sRGB"><feFlood flood-color="#fff" result="bg"/><feBlend in="SourceGraphic" in2="bg"/></filter><mask id="mask-5" x="31.89" y="-8171.52" width="9.74" height="32766" maskUnits="userSpaceOnUse"><g class="cls-85"/></mask><radialGradient id="radial-gradient-3" cx="40.6" cy="51.85" r="9.4" gradientTransform="translate(-9.96 -13.98) scale(1.03 1.06)" gradientUnits="userSpaceOnUse"><stop offset="0"/><stop offset="0.09" stop-color="#080808"/><stop offset="0.22" stop-color="#1c1c1c"/><stop offset="0.38" stop-color="#3f3f3f"/><stop offset="0.56" stop-color="#6e6e6e"/><stop offset="0.76" stop-color="#ababab"/><stop offset="0.97" stop-color="#f4f4f4"/><stop offset="1" stop-color="#fff"/></radialGradient><filter id="luminosity-noclip-6" x="31.76" y="-8171.52" width="9.81" height="32766" filterUnits="userSpaceOnUse" color-interpolation-filters="sRGB"><feFlood flood-color="#fff" result="bg"/><feBlend in="SourceGraphic" in2="bg"/></filter><mask id="mask-6" x="31.76" y="-8171.52" width="9.81" height="32766" maskUnits="userSpaceOnUse"><g class="cls-84"/></mask><linearGradient id="linear-gradient-3" x1="40.88" y1="42.43" x2="34.63" y2="50.86" gradientUnits="userSpaceOnUse"><stop offset="0"/><stop offset="0.5" stop-color="#fff"/><stop offset="1"/></linearGradient><filter id="luminosity-noclip-7" x="13.57" y="-8171.52" width="9.91" height="32766" filterUnits="userSpaceOnUse" color-interpolation-filters="sRGB"><feFlood flood-color="#fff" result="bg"/><feBlend in="SourceGraphic" in2="bg"/></filter><mask id="mask-7" x="13.57" y="-8171.52" width="9.91" height="32766" maskUnits="userSpaceOnUse"><g class="cls-83"/></mask><radialGradient id="radial-gradient-4" cx="23.36" cy="46.41" r="9.1" gradientTransform="translate(-9.96 -13.98) scale(1.03 1.06)" gradientUnits="userSpaceOnUse"><stop offset="0"/><stop offset="1" stop-color="#fff"/></radialGradient><filter id="luminosity-noclip-8" x="30.19" y="-8171.52" width="7.65" height="32766" filterUnits="userSpaceOnUse" color-interpolation-filters="sRGB"><feFlood flood-color="#fff" result="bg"/><feBlend in="SourceGraphic" in2="bg"/></filter><mask id="mask-8" x="30.19" y="-8171.52" width="7.65" height="32766" maskUnits="userSpaceOnUse"><g class="cls-82"/></mask><radialGradient id="radial-gradient-5" cx="465.89" cy="-118.08" r="3.5" gradientTransform="matrix(0.46, 0.61, -0.99, 0.79, -298.48, -145.78)" gradientUnits="userSpaceOnUse"><stop offset="0" stop-color="#fff"/><stop offset="1"/></radialGradient><filter id="luminosity-noclip-9" x="20.22" y="-8171.52" width="11.39" height="32766" filterUnits="userSpaceOnUse" color-interpolation-filters="sRGB"><feFlood flood-color="#fff" result="bg"/><feBlend in="SourceGraphic" in2="bg"/></filter><mask id="mask-9" x="20.22" y="-8171.52" width="11.39" height="32766" maskUnits="userSpaceOnUse"><g class="cls-81"/></mask><radialGradient id="radial-gradient-6" cx="34.85" cy="51.92" r="5.53" gradientTransform="translate(-9.96 -13.98) scale(1.03 1.06)" xlink:href="#radial-gradient-5"/><filter id="luminosity-noclip-10" x="21.05" y="-8171.52" width="6.68" height="32766" filterUnits="userSpaceOnUse" color-interpolation-filters="sRGB"><feFlood flood-color="#fff" result="bg"/><feBlend in="SourceGraphic" in2="bg"/></filter><mask id="mask-10" x="21.05" y="-8171.52" width="6.68" height="32766" maskUnits="userSpaceOnUse"><g class="cls-80"/></mask><linearGradient id="linear-gradient-4" x1="21.1" y1="44.25" x2="26.84" y2="35.83" xlink:href="#linear-gradient"/><filter id="luminosity-noclip-11" x="20.19" y="-8171.52" width="14.44" height="32766" filterUnits="userSpaceOnUse" color-interpolation-filters="sRGB"><feFlood flood-color="#fff" result="bg"/><feBlend in="SourceGraphic" in2="bg"/></filter><mask id="mask-11" x="20.19" y="-8171.52" width="14.44" height="32766" maskUnits="userSpaceOnUse"><g class="cls-79"/></mask><linearGradient id="linear-gradient-5" x1="21.53" y1="13.32" x2="30.72" y2="23.6" gradientUnits="userSpaceOnUse"><stop offset="0"/><stop offset="0.03" stop-color="#1d1d1d"/><stop offset="0.08" stop-color="#515151"/><stop offset="0.14" stop-color="gray"/><stop offset="0.2" stop-color="#a7a7a7"/><stop offset="0.26" stop-color="#c7c7c7"/><stop offset="0.33" stop-color="#e0e0e0"/><stop offset="0.39" stop-color="#f1f1f1"/><stop offset="0.46" stop-color="#fcfcfc"/><stop offset="0.55" stop-color="#fff"/><stop offset="0.6" stop-color="#fbfbfb"/><stop offset="0.65" stop-color="#eee"/><stop offset="0.71" stop-color="#d8d8d8"/><stop offset="0.77" stop-color="#b9b9b9"/><stop offset="0.83" stop-color="#929292"/><stop offset="0.9" stop-color="#626262"/><stop offset="0.96" stop-color="#2b2b2b"/><stop offset="1"/></linearGradient><filter id="luminosity-noclip-12" x="26.49" y="-8171.52" width="11.39" height="32766" filterUnits="userSpaceOnUse" color-interpolation-filters="sRGB"><feFlood flood-color="#fff" result="bg"/><feBlend in="SourceGraphic" in2="bg"/></filter><mask id="mask-12" x="26.49" y="-8171.52" width="11.39" height="32766" maskUnits="userSpaceOnUse"><g class="cls-78"/></mask><radialGradient id="radial-gradient-7" cx="40.94" cy="29.76" r="5.53" gradientTransform="translate(-9.96 -13.98) scale(1.03 1.06)" xlink:href="#radial-gradient-5"/><filter id="luminosity-noclip-13" x="11.78" y="-8171.52" width="11" height="32766" filterUnits="userSpaceOnUse" color-interpolation-filters="sRGB"><feFlood flood-color="#fff" result="bg"/><feBlend in="SourceGraphic" in2="bg"/></filter><mask id="mask-13" x="11.78" y="-8171.52" width="11" height="32766" maskUnits="userSpaceOnUse"><g class="cls-77"/></mask><linearGradient id="linear-gradient-6" x1="22.7" y1="38.42" x2="14.52" y2="46.6" xlink:href="#linear-gradient-3"/><filter id="luminosity-noclip-14" x="0.64" y="-8171.52" width="11.39" height="32766" filterUnits="userSpaceOnUse" color-interpolation-filters="sRGB"><feFlood flood-color="#fff" result="bg"/><feBlend in="SourceGraphic" in2="bg"/></filter><mask id="mask-14" x="0.64" y="-8171.52" width="11.39" height="32766" maskUnits="userSpaceOnUse"><g class="cls-76"/></mask><radialGradient id="radial-gradient-8" cx="15.83" cy="46.41" r="5.53" gradientTransform="translate(-9.96 -13.98) scale(1.03 1.06)" xlink:href="#radial-gradient-5"/><filter id="luminosity-noclip-15" x="11.86" y="-8171.52" width="7.65" height="32766" filterUnits="userSpaceOnUse" color-interpolation-filters="sRGB"><feFlood flood-color="#fff" result="bg"/><feBlend in="SourceGraphic" in2="bg"/></filter><mask id="mask-15" x="11.86" y="-8171.52" width="7.65" height="32766" maskUnits="userSpaceOnUse"><g class="cls-75"/></mask><radialGradient id="radial-gradient-9" cx="446.31" cy="-108.73" r="3.5" xlink:href="#radial-gradient-5"/><radialGradient id="radial-gradient-10" cx="18.56" cy="46.85" r="9.63" gradientTransform="translate(-9.96 -13.98) scale(1.03 1.06)" gradientUnits="userSpaceOnUse"><stop offset="0" stop-color="#a60c1f"/><stop offset="1" stop-color="#55020c"/></radialGradient><filter id="luminosity-noclip-16" x="1.05" y="28.78" width="21.55" height="17.84" filterUnits="userSpaceOnUse" color-interpolation-filters="sRGB"><feFlood flood-color="#fff" result="bg"/><feBlend in="SourceGraphic" in2="bg"/></filter><mask id="mask-16" x="1.05" y="28.78" width="21.55" height="17.84" maskUnits="userSpaceOnUse"><g class="cls-1"><path class="cls-2" d="M17.28,28.87c-2.2-.17-9.52-.42-10.43,2.54,1.61,0,9.86,1.76,7.08,4.66-1.19,1.25-3.55-1.75-4.45.22-1.17,2.56,8.41,5.52-.13,5.67a14,14,0,0,1-5.1-.75c-1-.38-2.11-1.25-3.2-1.08.15,2.11,2.28,4.06,4,5a13.27,13.27,0,0,0,8,1.36,11.91,11.91,0,0,0,6.53-3.25,9.42,9.42,0,0,0,3-6.43C22.8,32.8,21.32,29.17,17.28,28.87Z"/></g></mask><radialGradient id="radial-gradient-11" cx="19.4" cy="49.53" r="12.23" gradientTransform="translate(-9.96 -13.98) scale(1.03 1.06)" gradientUnits="userSpaceOnUse"><stop offset="0" stop-color="#a60c1f"/><stop offset="0.26" stop-color="#720c13"/><stop offset="0.5" stop-color="#4a0c0a"/><stop offset="0.69" stop-color="#320c05"/><stop offset="0.8" stop-color="#290c03"/></radialGradient><linearGradient id="linear-gradient-7" x1="10.85" y1="25.71" x2="12.99" y2="49.95" gradientTransform="matrix(1, 0, 0, 1, 0, 0)" xlink:href="#radial-gradient-10"/><linearGradient id="linear-gradient-8" x1="19.47" y1="2.27" x2="9.78" y2="33.16" gradientUnits="userSpaceOnUse"><stop offset="0" stop-color="#4a3b07"/><stop offset="0.56" stop-color="#3a822b"/><stop offset="0.76" stop-color="#3c822a"/><stop offset="0.84" stop-color="#438427"/><stop offset="0.89" stop-color="#4e8622"/><stop offset="0.93" stop-color="#5f8a1b"/><stop offset="0.97" stop-color="#758e12"/><stop offset="1" stop-color="#8d9308"/></linearGradient><mask id="mask-17" x="13.57" y="28.36" width="9.91" height="10.46" maskUnits="userSpaceOnUse"><g class="cls-13"><path class="cls-14" d="M14.17,37.43A5.4,5.4,0,0,0,22.51,36a14.67,14.67,0,0,0,1-1.68c-.55-2.85-1.53-4.57-4.25-6C18,31.35,11.6,35.21,14.17,37.43Z"/></g></mask><radialGradient id="radial-gradient-12" cx="23.36" cy="46.41" r="9.1" gradientTransform="translate(-9.96 -13.98) scale(1.03 1.06)" gradientUnits="userSpaceOnUse"><stop offset="0" stop-color="#fff"/><stop offset="1" stop-color="#fff"/></radialGradient><filter id="luminosity-noclip-17" x="11.78" y="35.45" width="11" height="11.59" filterUnits="userSpaceOnUse" color-interpolation-filters="sRGB"><feFlood flood-color="#fff" result="bg"/><feBlend in="SourceGraphic" in2="bg"/></filter><mask id="mask-18" x="11.78" y="35.45" width="11" height="11.59" maskUnits="userSpaceOnUse"><g class="cls-25"><path class="cls-26" d="M22.16,35.47s-.06,0-.05,0c.38,2.64-1.1,5.75-2.77,7.69a9,9,0,0,1-7.49,3.29c-.07,0-.1.11,0,.13a8.36,8.36,0,0,0,4.54.23,8.16,8.16,0,0,0,4-2.5,9.8,9.8,0,0,0,2.3-4.19A9.63,9.63,0,0,0,22.16,35.47Z"/></g></mask><linearGradient id="linear-gradient-9" x1="22.7" y1="38.42" x2="14.52" y2="46.6" gradientUnits="userSpaceOnUse"><stop offset="0" stop-color="#8dffee"/><stop offset="0.5" stop-color="#8dffee"/><stop offset="1" stop-color="#8dffee"/></linearGradient><mask id="mask-19" x="0.64" y="29.37" width="11.39" height="11.73" maskUnits="userSpaceOnUse"><g class="cls-27"><path class="cls-28" d="M12,35.24A5.78,5.78,0,0,1,6.34,41.1a5.87,5.87,0,0,1,0-11.73A5.78,5.78,0,0,1,12,35.24Z"/></g></mask><radialGradient id="radial-gradient-13" cx="15.83" cy="46.41" r="5.53" xlink:href="#radial-gradient-12"/><filter id="luminosity-noclip-18" x="11.86" y="39.3" width="7.65" height="7.01" filterUnits="userSpaceOnUse" color-interpolation-filters="sRGB"><feFlood flood-color="#fff" result="bg"/><feBlend in="SourceGraphic" in2="bg"/></filter><mask id="mask-20" x="11.86" y="39.3" width="7.65" height="7.01" maskUnits="userSpaceOnUse"><g class="cls-29"><path class="cls-30" d="M17.31,45c-1.92,1.52-4.19,1.8-5.09.61s-.06-3.39,1.85-4.92,4.19-1.8,5.08-.61S19.22,43.43,17.31,45Z"/></g></mask><radialGradient id="radial-gradient-14" cx="446.31" cy="-108.73" r="3.5" gradientTransform="matrix(0.46, 0.61, -0.99, 0.79, -298.48, -145.78)" gradientUnits="userSpaceOnUse"><stop offset="0" stop-color="#ffd129"/><stop offset="1" stop-color="#ffd129"/></radialGradient><filter id="luminosity-noclip-19" x="2.48" y="31.17" width="6.68" height="6.07" filterUnits="userSpaceOnUse" color-interpolation-filters="sRGB"><feFlood flood-color="#fff" result="bg"/><feBlend in="SourceGraphic" in2="bg"/></filter><mask id="mask-21" x="2.48" y="31.17" width="6.68" height="6.07" maskUnits="userSpaceOnUse"><g class="cls-3"><path class="cls-4" d="M3.68,37.22A1.5,1.5,0,0,0,4.8,37a4.33,4.33,0,0,0,1.26-2.15,17.54,17.54,0,0,1,1-2.44,2.27,2.27,0,0,1,2-1.11c.05,0,.05-.09,0-.09a7,7,0,0,0-3.42.54c-1.37.61-3.86,2.88-3.06,4.66A1.41,1.41,0,0,0,3.68,37.22Z"/></g></mask><linearGradient id="linear-gradient-10" x1="2.53" y1="37.87" x2="8.27" y2="29.46" gradientUnits="userSpaceOnUse"><stop offset="0" stop-color="#fff"/><stop offset="0.72" stop-color="#fff"/></linearGradient><radialGradient id="radial-gradient-15" cx="35.99" cy="51.74" r="9.11" xlink:href="#radial-gradient-10"/><filter id="luminosity-noclip-20" x="30.26" y="34.89" width="0.97" height="1.09" filterUnits="userSpaceOnUse" color-interpolation-filters="sRGB"><feFlood flood-color="#fff" result="bg"/><feBlend in="SourceGraphic" in2="bg"/></filter><mask id="mask-22" x="30.26" y="34.89" width="0.97" height="1.09" maskUnits="userSpaceOnUse"><g class="cls-5"><path class="cls-6" d="M31.08,36c.07-.35.12-.72.16-1.09l-1,.17A4.41,4.41,0,0,1,31.08,36Z"/></g></mask><linearGradient id="linear-gradient-11" x1="20.06" y1="35.43" x2="40.7" y2="35.43" gradientUnits="userSpaceOnUse"><stop offset="0" stop-color="#a60c1f"/><stop offset="0.07" stop-color="#950c1b"/><stop offset="0.27" stop-color="#6f0c13"/><stop offset="0.46" stop-color="#500c0c"/><stop offset="0.65" stop-color="#3a0c07"/><stop offset="0.83" stop-color="#2d0c04"/><stop offset="1" stop-color="#290c03"/></linearGradient><filter id="luminosity-noclip-21" x="21.29" y="34.47" width="19.41" height="17.24" filterUnits="userSpaceOnUse" color-interpolation-filters="sRGB"><feFlood flood-color="#fff" result="bg"/><feBlend in="SourceGraphic" in2="bg"/></filter><mask id="mask-23" x="21.29" y="34.47" width="19.41" height="17.24" maskUnits="userSpaceOnUse"><g class="cls-7"><path class="cls-8" d="M38.13,36c-3-2.84-8.78-1.23-11.4,1.35,1.4.63,2.39,1.24,4,.93,1.39-.27,3.71-2,4,.45.22,1.78-2.05,2.67-3.37,2.95-1,.2-4.26-.47-3.88,1.23.49,2.16,4.64.13,5.29,1.18S31.58,46,31,46.35c-2.56,1.69-6.75,1.77-9.71,1.49,2,3.33,6.3,4.17,10.22,3.79A12.07,12.07,0,0,0,38,48.49a8.27,8.27,0,0,0,2.67-6.18A8.64,8.64,0,0,0,38.13,36Z"/></g></mask><radialGradient id="radial-gradient-16" cx="36.6" cy="54.3" r="12.31" gradientTransform="translate(-9.96 -13.98) scale(1.03 1.06)" gradientUnits="userSpaceOnUse"><stop offset="0" stop-color="#a60c1f"/><stop offset="0.77" stop-color="#290c03"/></radialGradient><linearGradient id="linear-gradient-12" x1="24.53" y1="32.65" x2="32.91" y2="46.55" gradientTransform="matrix(1, 0, 0, 1, 0, 0)" xlink:href="#radial-gradient-10"/><linearGradient id="linear-gradient-13" x1="21.09" y1="-0.13" x2="31.62" y2="36.47" xlink:href="#linear-gradient-8"/><mask id="mask-24" x="31.89" y="34.61" width="9.74" height="10.25" maskUnits="userSpaceOnUse"><g class="cls-9"><path class="cls-10" d="M32.52,43.46a5.38,5.38,0,0,0,8.33-1.4,12.07,12.07,0,0,0,.78-1.57c-.27-2.9-1.62-5.28-4.39-5.88C36,37.6,30,41.25,32.52,43.46Z"/></g></mask><radialGradient id="radial-gradient-17" cx="40.6" cy="51.85" r="9.4" xlink:href="#radial-gradient-12"/><filter id="luminosity-noclip-22" x="31.76" y="38.95" width="9.81" height="12.73" filterUnits="userSpaceOnUse" color-interpolation-filters="sRGB"><feFlood flood-color="#fff" result="bg"/><feBlend in="SourceGraphic" in2="bg"/></filter><mask id="mask-25" x="31.76" y="38.95" width="9.81" height="12.73" maskUnits="userSpaceOnUse"><g class="cls-11"><path class="cls-12" d="M40.37,39s-.06,0,0,0A11.05,11.05,0,0,1,39,47.18a9.35,9.35,0,0,1-7.17,4.26c-.07,0-.08.13,0,.14a8.5,8.5,0,0,0,4.52-.49A8.27,8.27,0,0,0,39.89,48a9.94,9.94,0,0,0,1.65-4.5A9.52,9.52,0,0,0,40.37,39Z"/></g></mask><linearGradient id="linear-gradient-14" x1="40.88" y1="42.43" x2="34.63" y2="50.86" xlink:href="#linear-gradient-9"/><filter id="luminosity-noclip-23" x="30.19" y="43.96" width="7.65" height="7.01" filterUnits="userSpaceOnUse" color-interpolation-filters="sRGB"><feFlood flood-color="#fff" result="bg"/><feBlend in="SourceGraphic" in2="bg"/></filter><mask id="mask-26" x="30.19" y="43.96" width="7.65" height="7.01" maskUnits="userSpaceOnUse"><g class="cls-15"><path class="cls-16" d="M35.63,49.61c-1.91,1.53-4.19,1.8-5.08.61s-.07-3.39,1.84-4.91,4.19-1.8,5.08-.61S37.54,48.08,35.63,49.61Z"/></g></mask><radialGradient id="radial-gradient-18" cx="465.89" cy="-118.08" r="3.5" xlink:href="#radial-gradient-14"/><mask id="mask-27" x="20.22" y="35.21" width="11.39" height="11.73" maskUnits="userSpaceOnUse"><g class="cls-17"><path class="cls-18" d="M31.61,41.08a5.7,5.7,0,1,1-5.69-5.87A5.78,5.78,0,0,1,31.61,41.08Z"/></g></mask><radialGradient id="radial-gradient-19" cx="34.85" cy="51.92" r="5.53" xlink:href="#radial-gradient-12"/><filter id="luminosity-noclip-24" x="21.05" y="37.55" width="6.68" height="6.07" filterUnits="userSpaceOnUse" color-interpolation-filters="sRGB"><feFlood flood-color="#fff" result="bg"/><feBlend in="SourceGraphic" in2="bg"/></filter><mask id="mask-28" x="21.05" y="37.55" width="6.68" height="6.07" maskUnits="userSpaceOnUse"><g class="cls-19"><path class="cls-20" d="M22.25,43.6a1.6,1.6,0,0,0,1.12-.25,4.42,4.42,0,0,0,1.26-2.15,18.19,18.19,0,0,1,1-2.45,2.28,2.28,0,0,1,2-1.1s0-.09,0-.09a7.09,7.09,0,0,0-3.42.53c-1.37.62-3.86,2.88-3.06,4.66A1.42,1.42,0,0,0,22.25,43.6Z"/></g></mask><linearGradient id="linear-gradient-15" x1="21.1" y1="44.25" x2="26.84" y2="35.83" xlink:href="#linear-gradient-10"/><radialGradient id="radial-gradient-20" cx="40.68" cy="26.91" r="9.21" gradientTransform="translate(-9.96 -13.98) scale(1.03 1.06)" gradientUnits="userSpaceOnUse"><stop offset="0" stop-color="#8dc63f"/><stop offset="1" stop-color="#3a822b"/></radialGradient><linearGradient id="linear-gradient-16" x1="11" y1="24.23" x2="36.85" y2="11.07" xlink:href="#linear-gradient-8"/><linearGradient id="linear-gradient-17" x1="24.91" y1="11.59" x2="35.56" y2="21.59" xlink:href="#linear-gradient-8"/><filter id="luminosity-noclip-25" x="20.19" y="7.56" width="14.44" height="17.29" filterUnits="userSpaceOnUse" color-interpolation-filters="sRGB"><feFlood flood-color="#fff" result="bg"/><feBlend in="SourceGraphic" in2="bg"/></filter><mask id="mask-29" x="20.19" y="7.56" width="14.44" height="17.29" maskUnits="userSpaceOnUse"><g class="cls-21"><path class="cls-22" d="M32.39,23.22c-1.43-.63-3.11-1.25-3.9-2.76-.94-1.82-.73-4.18-2.06-5.81a24.19,24.19,0,0,1,.76,3.13c.13,1-.05,2.49.54,3.33a3.83,3.83,0,0,1-1.32-1,8.34,8.34,0,0,1-1.13-3.66c-.1-.78-.17-1.57-.31-2.35s-.47-1.28-.51-1.91a10.18,10.18,0,0,1,.44,3.31,9.38,9.38,0,0,1-.13,2c-.1.5-.34,1.11-.1,1.58C23,17.64,23,15.31,23.1,13.25a8.67,8.67,0,0,0-.16-3.19c0,1.53-.72,3-.78,4.55-.09-.67-.42-1.26-.55-1.92s-.26-1.31-.41-2a11.37,11.37,0,0,1-.63-3.16c0,.11,0,.22-.05.34-.77,4.83-.34,8.79,3.07,12.55,1.92,2.13,4.32,2.81,7,3.34a26.64,26.64,0,0,1,4,1.05A6.84,6.84,0,0,0,32.39,23.22Z"/></g></mask><linearGradient id="linear-gradient-18" x1="21.53" y1="13.32" x2="30.72" y2="23.6" gradientUnits="userSpaceOnUse"><stop offset="0" stop-color="#d7df23"/><stop offset="0.05" stop-color="#c1e54f"/><stop offset="0.11" stop-color="#aaeb7d"/><stop offset="0.18" stop-color="#97f0a4"/><stop offset="0.24" stop-color="#87f4c4"/><stop offset="0.31" stop-color="#7bf8dd"/><stop offset="0.38" stop-color="#72faee"/><stop offset="0.46" stop-color="#6dfcf9"/><stop offset="0.55" stop-color="#6bfcfc"/><stop offset="0.6" stop-color="#6dfbf8"/><stop offset="0.66" stop-color="#74faeb"/><stop offset="0.73" stop-color="#7ef7d5"/><stop offset="0.79" stop-color="#8ef3b6"/><stop offset="0.86" stop-color="#a1ed8f"/><stop offset="0.93" stop-color="#b9e75f"/><stop offset="0.99" stop-color="#d5e028"/><stop offset="1" stop-color="#d7df23"/></linearGradient><filter id="luminosity-noclip-26" x="26.49" y="11.71" width="11.39" height="11.74" filterUnits="userSpaceOnUse" color-interpolation-filters="sRGB"><feFlood flood-color="#fff" result="bg"/><feBlend in="SourceGraphic" in2="bg"/></filter><mask id="mask-30" x="26.49" y="11.71" width="11.39" height="11.74" maskUnits="userSpaceOnUse"><g class="cls-23"><path class="cls-24" d="M37.88,17.58a5.7,5.7,0,1,1-5.7-5.87A5.79,5.79,0,0,1,37.88,17.58Z"/></g></mask><radialGradient id="radial-gradient-21" cx="40.94" cy="29.76" r="5.53" xlink:href="#radial-gradient-12"/></defs><g id="Capa_2" data-name="Capa 2"><g id="Layer_4" data-name="Layer 4"><path class="cls-31" d="M12,29.37a20.27,20.27,0,0,1-3.89.37c-2.6-.08-5.24.23-6.55,3a10.83,10.83,0,0,0-.76,7,8.65,8.65,0,0,0,4.25,5.4,13.27,13.27,0,0,0,8,1.36,11.91,11.91,0,0,0,6.53-3.25,9.42,9.42,0,0,0,3-6.43c.23-4-1.25-7.66-5.29-8A21.35,21.35,0,0,0,12,29.37Z"/><g class="cls-32"><path class="cls-33" d="M17.28,28.87c-2.2-.17-9.52-.42-10.43,2.54,1.61,0,9.86,1.76,7.08,4.66-1.19,1.25-3.55-1.75-4.45.22-1.17,2.56,8.41,5.52-.13,5.67a14,14,0,0,1-5.1-.75c-1-.38-2.11-1.25-3.2-1.08.15,2.11,2.28,4.06,4,5a13.27,13.27,0,0,0,8,1.36,11.91,11.91,0,0,0,6.53-3.25,9.42,9.42,0,0,0,3-6.43C22.8,32.8,21.32,29.17,17.28,28.87Z"/></g><path class="cls-34" d="M12.49,47.53c5.59-.33,8.38-3,10-6.37,1.84-4,1.76-9.06-1.77-11.95a7.07,7.07,0,0,0-4.56-1.55,17.26,17.26,0,0,0-3.76.66c0,.33,0,.67,0,1a20.35,20.35,0,0,1,5-.45c4,.3,5.52,3.93,5.29,8a9.42,9.42,0,0,1-3,6.43,11.91,11.91,0,0,1-6.53,3.25,13.27,13.27,0,0,1-8-1.36A8.65,8.65,0,0,1,.8,39.75a10.83,10.83,0,0,1,.76-7c1.31-2.74,4-3.05,6.55-3a19.72,19.72,0,0,0,3.59-.32c0-.32,0-.63,0-1-.34.07-.67.12-1,.16-1.7.17-2.54.2-4.25.35a6.52,6.52,0,0,0-5.26,3.39A10.47,10.47,0,0,0,1.82,43.1C4.46,46.69,8.74,47.75,12.49,47.53Z"/><path class="cls-35" d="M21.36,1.56A2.25,2.25,0,0,0,20.27.29C18.48-.64,15.62.86,16.72,2c1,1,3-.8,3.57,1.06C21.51,6.77,17,11.71,16,13.42a29.91,29.91,0,0,0-3.72,9.75,29,29,0,0,0-.56,5.3c0,.32,0,.63,0,1A12.08,12.08,0,0,0,12,31.24a1.13,1.13,0,0,1,.41-.06c0-.61,0-1.24,0-1.86,0-.33,0-.67.05-1a32.57,32.57,0,0,1,2.22-9.64c1.17-2.88,3.42-5.33,5-8C21.13,8.18,22.42,4.44,21.36,1.56Z"/><path class="cls-36" d="M21.36,1.56A2.25,2.25,0,0,0,20.27.29c-1.4-.73-3.46,0-3.76,1,1.93-.13,3.8-.12,4.26,2,.64,3-.93,5.74-2.59,8.18-2.25,3.33-4.3,6.5-5.34,10.37a30.67,30.67,0,0,0-1.06,7.94c.2-.66.43-1.3.68-1.92a32.77,32.77,0,0,1,2.18-9.17c1.17-2.88,3.42-5.33,5-8C21.13,8.18,22.42,4.44,21.36,1.56Z"/><g class="cls-37"><path class="cls-38" d="M14.17,37.43A5.4,5.4,0,0,0,22.51,36a14.67,14.67,0,0,0,1-1.68c-.55-2.85-1.53-4.57-4.25-6C18,31.35,11.6,35.21,14.17,37.43Z"/></g><g class="cls-39"><path class="cls-40" d="M22.16,35.47s-.06,0-.05,0c.38,2.64-1.1,5.75-2.77,7.69a9,9,0,0,1-7.49,3.29c-.07,0-.1.11,0,.13a8.36,8.36,0,0,0,4.54.23,8.16,8.16,0,0,0,4-2.5,9.8,9.8,0,0,0,2.3-4.19A9.63,9.63,0,0,0,22.16,35.47Z"/></g><g class="cls-41"><path class="cls-42" d="M12,35.24A5.78,5.78,0,0,1,6.34,41.1a5.87,5.87,0,0,1,0-11.73A5.78,5.78,0,0,1,12,35.24Z"/></g><g class="cls-43"><path class="cls-44" d="M17.31,45c-1.92,1.52-4.19,1.8-5.09.61s-.06-3.39,1.85-4.92,4.19-1.8,5.08-.61S19.22,43.43,17.31,45Z"/></g><g class="cls-45"><path class="cls-46" d="M3.68,37.22A1.5,1.5,0,0,0,4.8,37a4.33,4.33,0,0,0,1.26-2.15,17.54,17.54,0,0,1,1-2.44,2.27,2.27,0,0,1,2-1.11c.05,0,.05-.09,0-.09a7,7,0,0,0-3.42.54c-1.37.61-3.86,2.88-3.06,4.66A1.41,1.41,0,0,0,3.68,37.22Z"/></g><path class="cls-47" d="M13.73,31.38s0-.06,0-.06Z"/><path class="cls-48" d="M10.13,31.15a9.13,9.13,0,0,0-3.93.19s0,0,0,0c2.57-.47,7.34,2.31,9.09-.79a.16.16,0,0,0-.19-.23,14,14,0,0,1-2.32.83A10.76,10.76,0,0,1,10.13,31.15Z"/><path class="cls-49" d="M17.29,40.53a11.26,11.26,0,0,0-.13,4.54,15.18,15.18,0,0,0,2.43-1.81,8.77,8.77,0,0,0,2.89-5.49c.07-1.84-1.6-3-3.08-1.54A10.32,10.32,0,0,0,17.29,40.53Z"/><path class="cls-50" d="M31.1,34.9l-1.55.29a15.09,15.09,0,0,1-3,.3c-5.36-.16-7.3,5-6.22,9.94,1.18,5.34,6.44,6.66,11.17,6.2A12.07,12.07,0,0,0,38,48.49a8.27,8.27,0,0,0,2.67-6.18A8.67,8.67,0,0,0,38.14,36C36.22,34.15,33.54,34.47,31.1,34.9Z"/><g class="cls-51"><path class="cls-52" d="M31.08,36c.07-.35.12-.72.16-1.09l-1,.17A4.41,4.41,0,0,1,31.08,36Z"/></g><g class="cls-53"><path class="cls-54" d="M38.13,36c-3-2.84-8.78-1.23-11.4,1.35,1.4.63,2.39,1.24,4,.93,1.39-.27,3.71-2,4,.45.22,1.78-2.05,2.67-3.37,2.95-1,.2-4.26-.47-3.88,1.23.49,2.16,4.64.13,5.29,1.18S31.58,46,31,46.35c-2.56,1.69-6.75,1.77-9.71,1.49,2,3.33,6.3,4.17,10.22,3.79A12.07,12.07,0,0,0,38,48.49a8.27,8.27,0,0,0,2.67-6.18A8.64,8.64,0,0,0,38.13,36Z"/></g><path class="cls-55" d="M30.93,52.61c4.56-.72,8.14-2.29,10.14-6.81a9.15,9.15,0,0,0-2.22-10.52c-.21-.19-.43-.37-.65-.54-2-1.44-4-1.23-6-.84,0,.31,0,.59,0,.84,2.21-.32,4.37-.32,6,1.23a8.67,8.67,0,0,1,2.57,6.34A8.27,8.27,0,0,1,38,48.49a12.07,12.07,0,0,1-6.53,3.14c-4.73.46-10-.86-11.17-6.2-1.08-4.89.86-10.1,6.22-9.94a25.65,25.65,0,0,0,4.68-.6c0-.27,0-.54.05-.81-.71.14-1.38.5-2.11.57-3.13.31-5.59-.19-7.81,2.54a9.82,9.82,0,0,0-1.64,8.55C21.2,51.14,25.77,53.42,30.93,52.61Z"/><path class="cls-56" d="M29,19.81C27,15.21,21.61,12.41,21,3a.89.89,0,0,0-.25-.45A17.7,17.7,0,0,1,20.5,4.8c0,.33-.08.66-.14,1C21.49,15,30.19,18.28,31.09,30.56a30.32,30.32,0,0,1,.12,3.52q0,.41-.06.81a6.52,6.52,0,0,1-.78,2.74,7.46,7.46,0,0,0,.95.06l.17,0,0,0a5.2,5.2,0,0,0,.55-2.22c0-.19,0-.41.08-.66s0-.53,0-.84A32.21,32.21,0,0,0,29,19.81Z"/><path class="cls-36" d="M31.64,29.09a12.48,12.48,0,0,1-.43,4.73v.26q0,.41-.06.81a6.17,6.17,0,0,1-.85,2.84.47.47,0,0,1-.09.12A6.25,6.25,0,0,0,31.49,36a10.73,10.73,0,0,0,.57-1.8c.07-.64.1-1.29.12-1.94A33.8,33.8,0,0,0,29,19.81C27,15.21,21.61,12.41,21,3a.85.85,0,0,0-.24-.44A32,32,0,0,0,21,6.44a15.48,15.48,0,0,0,2.29,5.84c1.78,2.84,3.89,5.49,5.64,8.35A18.63,18.63,0,0,1,31.64,29.09Z"/><g class="cls-57"><path class="cls-58" d="M32.52,43.46a5.38,5.38,0,0,0,8.33-1.4,12.07,12.07,0,0,0,.78-1.57c-.27-2.9-1.62-5.28-4.39-5.88C36,37.6,30,41.25,32.52,43.46Z"/></g><g class="cls-59"><path class="cls-60" d="M40.37,39s-.06,0,0,0A11.05,11.05,0,0,1,39,47.18a9.35,9.35,0,0,1-7.17,4.26c-.07,0-.08.13,0,.14a8.5,8.5,0,0,0,4.52-.49A8.27,8.27,0,0,0,39.89,48a9.94,9.94,0,0,0,1.65-4.5A9.52,9.52,0,0,0,40.37,39Z"/></g><g class="cls-61"><path class="cls-62" d="M35.63,49.61c-1.91,1.53-4.19,1.8-5.08.61s-.07-3.39,1.84-4.91,4.19-1.8,5.08-.61S37.54,48.08,35.63,49.61Z"/></g><g class="cls-63"><path class="cls-64" d="M31.61,41.08a5.7,5.7,0,1,1-5.69-5.87A5.78,5.78,0,0,1,31.61,41.08Z"/></g><g class="cls-65"><path class="cls-66" d="M22.25,43.6a1.6,1.6,0,0,0,1.12-.25,4.42,4.42,0,0,0,1.26-2.15,18.19,18.19,0,0,1,1-2.45,2.28,2.28,0,0,1,2-1.1s0-.09,0-.09a7.09,7.09,0,0,0-3.42.53c-1.37.62-3.86,2.88-3.06,4.66A1.42,1.42,0,0,0,22.25,43.6Z"/></g><path class="cls-48" d="M26.24,37.39s0,0,0,0c1.37-.07,2.68,1.08,4,1.31A2.25,2.25,0,0,0,32.84,37a.07.07,0,0,0-.11-.07,3.58,3.58,0,0,1-3.5.63A7.74,7.74,0,0,0,26.24,37.39Z"/><path class="cls-67" d="M32.68,23.46a11.79,11.79,0,0,1,5.69,3.23,33.5,33.5,0,0,0-.85-8.12,13.36,13.36,0,0,0-4.44-6.87,19.45,19.45,0,0,0-6.5-3.36,30.6,30.6,0,0,1-3.07-1,13.51,13.51,0,0,1-2.1-1.54c-1.19,5-.55,10.55,3.11,14.3C26.77,22.4,29.76,22.68,32.68,23.46Z"/><path class="cls-68" d="M20.52,7.9c-.77,4.83-.34,8.79,3.07,12.55,1.92,2.13,4.32,2.81,7,3.34S36.38,25,38.43,27.3a.19.19,0,0,0,.33-.11,51.76,51.76,0,0,0-.37-8.07,13.84,13.84,0,0,0-3.51-7A18.37,18.37,0,0,0,28.74,8C27,7.23,25,7.07,23.31,6.13A9.48,9.48,0,0,1,20,2.45,9.47,9.47,0,0,1,20.52,7.9Zm.89-2.11a13.51,13.51,0,0,0,2.1,1.54,30.6,30.6,0,0,0,3.07,1,19.45,19.45,0,0,1,6.5,3.36,13.36,13.36,0,0,1,4.44,6.87,33.5,33.5,0,0,1,.85,8.12,11.79,11.79,0,0,0-5.69-3.23c-2.92-.78-5.91-1.06-8.16-3.37C20.86,16.34,20.22,10.8,21.41,5.79Z"/><path class="cls-69" d="M30.27,17.33a16.23,16.23,0,0,0,3.08,2.09,9.52,9.52,0,0,1,2.46,1.73c-.65-.64-1.11-1.4-1.84-2s-1.62-1.33-2.5-1.91c-2.13-1.41-4.3-2.48-5.86-4.62,0,0,0,0,0,0A19.52,19.52,0,0,0,30.27,17.33Z"/><path class="cls-70" d="M34.88,12.12A18.37,18.37,0,0,0,28.74,8C27,7.23,25,7.07,23.31,6.13a9.85,9.85,0,0,1-3-3.12,22.41,22.41,0,0,0,1.18,3.3A7.56,7.56,0,0,0,23.9,8.16c1.27.56,2.66.68,3.92,1.28,0,0,0,.05,0,.05-1.45-.44-3.13-.26-4.45-1.12a7.08,7.08,0,0,1-1.63-1.5c.4.85.82,1.66,1.24,2.39a9.94,9.94,0,0,0,3.74,1.46,12.48,12.48,0,0,1,3.67.84s0,0,0,0c-1.66-.4-3.3-.4-5-.65a4.1,4.1,0,0,1-1.81-.68,16.19,16.19,0,0,0,2.2,2.7c2.57.72,5.18-.66,7.8-.07,0,0,0,.05,0,.05-2.62-.18-5.05,1.23-7.44.36a26.19,26.19,0,0,0,2.28,1.91c1.63.22,3.2-.24,5-.2a4.07,4.07,0,0,1,3.52,1.44s0,.06,0,0c-1.74-1.93-3.92-.92-6.07-.72a6.73,6.73,0,0,1-1.62,0l1,.69,1.08.73c2.38-.07,5-.23,7,1A13.83,13.83,0,0,0,34.88,12.12Z"/><path class="cls-70" d="M38.65,21.29a6.24,6.24,0,0,0-4.48-1.92,13.84,13.84,0,0,1,2.42,2.53,14.46,14.46,0,0,1,2.16,4.25C38.74,24.52,38.77,22.9,38.65,21.29Z"/><path class="cls-70" d="M38.64,21.06a18.38,18.38,0,0,0-.25-1.94c0-.29-.11-.57-.18-.86-1.5-.79-3-.48-4.69-.49-.53,0-1,0-1.56-.06.71.49,1.39,1,2,1.52C35.78,19.26,37.54,19.59,38.64,21.06Z"/><g class="cls-71"><path class="cls-72" d="M32.39,23.22c-1.43-.63-3.11-1.25-3.9-2.76-.94-1.82-.73-4.18-2.06-5.81a24.19,24.19,0,0,1,.76,3.13c.13,1-.05,2.49.54,3.33a3.83,3.83,0,0,1-1.32-1,8.34,8.34,0,0,1-1.13-3.66c-.1-.78-.17-1.57-.31-2.35s-.47-1.28-.51-1.91a10.18,10.18,0,0,1,.44,3.31,9.38,9.38,0,0,1-.13,2c-.1.5-.34,1.11-.1,1.58C23,17.64,23,15.31,23.1,13.25a8.67,8.67,0,0,0-.16-3.19c0,1.53-.72,3-.78,4.55-.09-.67-.42-1.26-.55-1.92s-.26-1.31-.41-2a11.37,11.37,0,0,1-.63-3.16c0,.11,0,.22-.05.34-.77,4.83-.34,8.79,3.07,12.55,1.92,2.13,4.32,2.81,7,3.34a26.64,26.64,0,0,1,4,1.05A6.84,6.84,0,0,0,32.39,23.22Z"/></g><g class="cls-73"><path class="cls-74" d="M37.88,17.58a5.7,5.7,0,1,1-5.7-5.87A5.79,5.79,0,0,1,37.88,17.58Z"/></g></g></g></svg>