<svg xmlns="http://www.w3.org/2000/svg" xmlns:xlink="http://www.w3.org/1999/xlink" viewBox="0 0 52.29 58.62"><defs><style>.cls-1{mask:url(#mask);}.cls-10,.cls-12,.cls-14,.cls-16,.cls-18,.cls-2,.cls-20,.cls-22,.cls-24,.cls-26,.cls-4,.cls-6,.cls-8{mix-blend-mode:multiply;}.cls-2{fill:url(#radial-gradient);}.cls-3{mask:url(#mask-2);}.cls-4{fill:url(#radial-gradient-2);}.cls-5{mask:url(#mask-3);filter:url(#luminosity-noclip-17);}.cls-6{fill:url(#linear-gradient);}.cls-7{mask:url(#mask-4);filter:url(#luminosity-noclip-18);}.cls-8{fill:url(#linear-gradient-2);}.cls-9{mask:url(#mask-5);filter:url(#luminosity-noclip-19);}.cls-10{fill:url(#linear-gradient-3);}.cls-11{mask:url(#mask-6);filter:url(#luminosity-noclip-20);}.cls-12{fill:url(#linear-gradient-4);}.cls-13{mask:url(#mask-7);filter:url(#luminosity-noclip-14);}.cls-14{fill:url(#linear-gradient-5);}.cls-15{mask:url(#mask-8);filter:url(#luminosity-noclip-21);}.cls-16{fill:url(#linear-gradient-6);}.cls-17{mask:url(#mask-9);filter:url(#luminosity-noclip-22);}.cls-18{fill:url(#linear-gradient-7);}.cls-19{mask:url(#mask-10);filter:url(#luminosity-noclip-23);}.cls-20{fill:url(#linear-gradient-8);}.cls-21{mask:url(#mask-11);filter:url(#luminosity-noclip-15);}.cls-22{fill:url(#linear-gradient-9);}.cls-23{mask:url(#mask-12);}.cls-24{fill:url(#radial-gradient-3);}.cls-25{mask:url(#mask-13);filter:url(#luminosity-noclip-16);}.cls-26{fill:url(#radial-gradient-4);}.cls-27{fill:none;}.cls-28{fill:url(#radial-gradient-5);}.cls-29{mask:url(#mask-14);}.cls-186,.cls-189,.cls-193,.cls-30,.cls-35,.cls-37,.cls-87{opacity:0.6;}.cls-30{fill:url(#radial-gradient-6);}.cls-31{fill:url(#linear-gradient-10);}.cls-32{fill:#95513a;}.cls-33{fill:url(#linear-gradient-11);}.cls-34{mask:url(#mask-15);}.cls-35{fill:url(#linear-gradient-12);}.cls-36{mask:url(#mask-16);}.cls-37{fill:url(#linear-gradient-13);}.cls-38{mask:url(#mask-17);}.cls-39,.cls-45{opacity:0.8;}.cls-39{fill:url(#radial-gradient-7);}.cls-40{mask:url(#mask-18);}.cls-41,.cls-80,.cls-89{opacity:0.4;}.cls-41{fill:url(#radial-gradient-8);}.cls-42{mask:url(#mask-19);}.cls-43,.cls-82,.cls-85{opacity:0.5;}.cls-43{fill:url(#radial-gradient-9);}.cls-44{mask:url(#mask-20);}.cls-45{fill:url(#linear-gradient-14);}.cls-46,.cls-47,.cls-48,.cls-49,.cls-50,.cls-51,.cls-52,.cls-53,.cls-54,.cls-55,.cls-56,.cls-57,.cls-58,.cls-59,.cls-60,.cls-61,.cls-62,.cls-63,.cls-64,.cls-65,.cls-66,.cls-67,.cls-68,.cls-69,.cls-70,.cls-71,.cls-72,.cls-73,.cls-74,.cls-75,.cls-76,.cls-77,.cls-78{opacity:0.15;}.cls-46{fill:url(#linear-gradient-15);}.cls-47{fill:url(#linear-gradient-16);}.cls-48{fill:url(#linear-gradient-17);}.cls-49{fill:url(#linear-gradient-18);}.cls-50{fill:url(#linear-gradient-19);}.cls-51{fill:url(#linear-gradient-20);}.cls-52{fill:url(#linear-gradient-21);}.cls-53{fill:url(#linear-gradient-22);}.cls-54{fill:url(#linear-gradient-23);}.cls-55{fill:url(#linear-gradient-24);}.cls-56{fill:url(#linear-gradient-25);}.cls-57{fill:url(#linear-gradient-26);}.cls-58{fill:url(#linear-gradient-27);}.cls-59{fill:url(#linear-gradient-28);}.cls-60{fill:url(#linear-gradient-29);}.cls-61{fill:url(#linear-gradient-30);}.cls-62{fill:url(#linear-gradient-31);}.cls-63{fill:url(#linear-gradient-32);}.cls-64{fill:url(#linear-gradient-33);}.cls-65{fill:url(#linear-gradient-34);}.cls-66{fill:url(#linear-gradient-35);}.cls-67{fill:url(#linear-gradient-36);}.cls-68{fill:url(#linear-gradient-37);}.cls-69{fill:url(#linear-gradient-38);}.cls-70{fill:url(#linear-gradient-39);}.cls-71{fill:url(#linear-gradient-40);}.cls-72{fill:url(#linear-gradient-41);}.cls-73{fill:url(#linear-gradient-42);}.cls-74{fill:url(#linear-gradient-43);}.cls-75{fill:url(#linear-gradient-44);}.cls-76{fill:url(#linear-gradient-45);}.cls-77{fill:url(#linear-gradient-46);}.cls-78{fill:url(#linear-gradient-47);}.cls-79{mask:url(#mask-21);}.cls-80{fill:url(#linear-gradient-48);}.cls-81{mask:url(#mask-22);}.cls-82{fill:url(#linear-gradient-49);}.cls-83{fill:#fff;opacity:0.2;}.cls-84{fill:url(#linear-gradient-50);}.cls-184,.cls-85{fill:#fffccc;}.cls-86{mask:url(#mask-23);}.cls-87{fill:url(#linear-gradient-51);}.cls-88{fill:#99cc48;}.cls-89{fill:#4a3b07;}.cls-90{fill:#fbbc68;}.cls-91{clip-path:url(#clip-path);}.cls-92{fill:#7b2509;}.cls-93{fill:#7c2609;}.cls-94{fill:#7c2709;}.cls-95{fill:#7d2809;}.cls-96{fill:#7d2909;}.cls-97{fill:#7e2a09;}.cls-98{fill:#7f2b09;}.cls-99{fill:#7f2c09;}.cls-100{fill:#802d09;}.cls-101{fill:#812e09;}.cls-102{fill:#812f09;}.cls-103{fill:#823009;}.cls-104{fill:#823109;}.cls-105{fill:#833209;}.cls-106{fill:#843309;}.cls-107{fill:#843409;}.cls-108{fill:#853509;}.cls-109{fill:#863609;}.cls-110{fill:#863709;}.cls-111{fill:#873809;}.cls-112{fill:#873909;}.cls-113{fill:#883a09;}.cls-114{fill:#893b09;}.cls-115{fill:#893c09;}.cls-116{fill:#8a3d09;}.cls-117{fill:#8b3e09;}.cls-118{fill:#8b3f09;}.cls-119{fill:#8c4009;}.cls-120{fill:#8c4109;}.cls-121{fill:#8d4209;}.cls-122{fill:#8e4309;}.cls-123{fill:#8e4409;}.cls-124{fill:#8f4509;}.cls-125{fill:#904609;}.cls-126{fill:#904709;}.cls-127{fill:#914809;}.cls-128{fill:#914909;}.cls-129{fill:#924a09;}.cls-130{fill:#934b09;}.cls-131{fill:#934c09;}.cls-132{fill:#944d09;}.cls-133{fill:#954e09;}.cls-134{fill:#954f09;}.cls-135{fill:#965009;}.cls-136{fill:#965109;}.cls-137{fill:#975309;}.cls-138{fill:#985409;}.cls-139{fill:#985509;}.cls-140{fill:#995609;}.cls-141{fill:#995709;}.cls-142{fill:#9a5809;}.cls-143{fill:#9b5909;}.cls-144{fill:#9b5a09;}.cls-145{fill:#9c5b09;}.cls-146{fill:#9d5c09;}.cls-147{fill:#9d5d09;}.cls-148{fill:#9e5e09;}.cls-149{fill:#9e5f09;}.cls-150{fill:#9f6009;}.cls-151{fill:#a06109;}.cls-152{fill:#a06209;}.cls-153{fill:#a16309;}.cls-154{fill:#a26409;}.cls-155{fill:#a26509;}.cls-156{fill:#a36609;}.cls-157{fill:#a36709;}.cls-158{fill:#a46809;}.cls-159{fill:#a56909;}.cls-160{fill:#a56a09;}.cls-161{fill:#a66b09;}.cls-162{fill:#a76c09;}.cls-163{fill:#a76d09;}.cls-164{fill:#a86e09;}.cls-165{fill:#a86f09;}.cls-166{fill:#a97009;}.cls-167{fill:#aa7109;}.cls-168{fill:#aa7209;}.cls-169{fill:#ab7309;}.cls-170{fill:#ac7409;}.cls-171{fill:#ac7509;}.cls-172{fill:#ad7609;}.cls-173{fill:#ad7709;}.cls-174{fill:#ae7809;}.cls-175{fill:#af7909;}.cls-176{fill:#af7a09;}.cls-177{fill:#b07b09;}.cls-178{fill:#b17c09;}.cls-179{fill:#b17d09;}.cls-180{fill:#b27e09;}.cls-181{fill:#b27f09;}.cls-182{fill:#b38009;}.cls-183{fill:url(#linear-gradient-52);}.cls-185{mask:url(#mask-24);}.cls-186{fill:url(#linear-gradient-53);}.cls-187{fill:url(#linear-gradient-54);}.cls-188{mask:url(#mask-25);}.cls-189{fill:url(#linear-gradient-55);}.cls-190{clip-path:url(#clip-path-2);}.cls-191{fill:url(#linear-gradient-56);}.cls-192{mask:url(#mask-26);}.cls-193{fill:url(#linear-gradient-57);}.cls-194{filter:url(#luminosity-noclip-13);}.cls-195{filter:url(#luminosity-noclip-12);}.cls-196{filter:url(#luminosity-noclip-11);}.cls-197{filter:url(#luminosity-noclip-10);}.cls-198{filter:url(#luminosity-noclip-9);}.cls-199{filter:url(#luminosity-noclip-8);}.cls-200{filter:url(#luminosity-noclip-7);}.cls-201{filter:url(#luminosity-noclip-6);}.cls-202{filter:url(#luminosity-noclip-5);}.cls-203{filter:url(#luminosity-noclip-4);}.cls-204{filter:url(#luminosity-noclip-3);}.cls-205{filter:url(#luminosity-noclip-2);}.cls-206{filter:url(#luminosity-noclip);}</style><filter id="luminosity-noclip" x="1.81" y="-8330.71" width="33.72" height="32766" filterUnits="userSpaceOnUse" color-interpolation-filters="sRGB"><feFlood flood-color="#fff" result="bg"/><feBlend in="SourceGraphic" in2="bg"/></filter><mask id="mask" x="1.81" y="-8330.71" width="33.72" height="32766" maskUnits="userSpaceOnUse"><g class="cls-206"/></mask><radialGradient id="radial-gradient" cx="12.31" cy="22.02" r="31.81" gradientUnits="userSpaceOnUse"><stop offset="0.28"/><stop offset="0.76" stop-color="#fff"/></radialGradient><filter id="luminosity-noclip-2" x="10.61" y="-8330.71" width="21.26" height="32766" filterUnits="userSpaceOnUse" color-interpolation-filters="sRGB"><feFlood flood-color="#fff" result="bg"/><feBlend in="SourceGraphic" in2="bg"/></filter><mask id="mask-2" x="10.61" y="-8330.71" width="21.26" height="32766" maskUnits="userSpaceOnUse"><g class="cls-205"/></mask><radialGradient id="radial-gradient-2" cx="-225.18" cy="427.4" r="7.1" gradientTransform="matrix(1.5, 0.06, -0.09, 2.26, 394.39, -928.59)" gradientUnits="userSpaceOnUse"><stop offset="0" stop-color="#fff"/><stop offset="0.08" stop-color="#f6f6f6"/><stop offset="0.21" stop-color="#dcdcdc"/><stop offset="0.38" stop-color="#b3b3b3"/><stop offset="0.58" stop-color="#7a7a7a"/><stop offset="0.8" stop-color="#313131"/><stop offset="0.94"/></radialGradient><filter id="luminosity-noclip-3" x="14.8" y="-8330.71" width="5.25" height="32766" filterUnits="userSpaceOnUse" color-interpolation-filters="sRGB"><feFlood flood-color="#fff" result="bg"/><feBlend in="SourceGraphic" in2="bg"/></filter><mask id="mask-3" x="14.8" y="-8330.71" width="5.25" height="32766" maskUnits="userSpaceOnUse"><g class="cls-204"/></mask><linearGradient id="linear-gradient" x1="14.47" y1="-0.71" x2="23.13" y2="12.47" gradientUnits="userSpaceOnUse"><stop offset="0"/><stop offset="0.53" stop-color="#fff"/><stop offset="1"/></linearGradient><filter id="luminosity-noclip-4" x="22.26" y="-8330.71" width="13.95" height="32766" filterUnits="userSpaceOnUse" color-interpolation-filters="sRGB"><feFlood flood-color="#fff" result="bg"/><feBlend in="SourceGraphic" in2="bg"/></filter><mask id="mask-4" x="22.26" y="-8330.71" width="13.95" height="32766" maskUnits="userSpaceOnUse"><g class="cls-203"/></mask><linearGradient id="linear-gradient-2" x1="34.67" y1="15.59" x2="22.15" y2="43.2" gradientUnits="userSpaceOnUse"><stop offset="0"/><stop offset="0.5" stop-color="#fff"/><stop offset="1"/></linearGradient><filter id="luminosity-noclip-5" x="14.03" y="-8330.71" width="4.91" height="32766" filterUnits="userSpaceOnUse" color-interpolation-filters="sRGB"><feFlood flood-color="#fff" result="bg"/><feBlend in="SourceGraphic" in2="bg"/></filter><mask id="mask-5" x="14.03" y="-8330.71" width="4.91" height="32766" maskUnits="userSpaceOnUse"><g class="cls-202"/></mask><linearGradient id="linear-gradient-3" x1="13.42" y1="1.08" x2="19.18" y2="0.51" gradientUnits="userSpaceOnUse"><stop offset="0"/><stop offset="0.53" stop-color="#fff"/><stop offset="1"/></linearGradient><filter id="luminosity-noclip-6" x="38.89" y="-8330.71" width="11.52" height="32766" filterUnits="userSpaceOnUse" color-interpolation-filters="sRGB"><feFlood flood-color="#fff" result="bg"/><feBlend in="SourceGraphic" in2="bg"/></filter><mask id="mask-6" x="38.89" y="-8330.71" width="11.52" height="32766" maskUnits="userSpaceOnUse"><g class="cls-201"/></mask><linearGradient id="linear-gradient-4" x1="48.62" y1="28.04" x2="40.39" y2="48.38" xlink:href="#linear-gradient-2"/><filter id="luminosity-noclip-7" x="1.28" y="-8330.71" width="6.95" height="32766" filterUnits="userSpaceOnUse" color-interpolation-filters="sRGB"><feFlood flood-color="#fff" result="bg"/><feBlend in="SourceGraphic" in2="bg"/></filter><mask id="mask-7" x="1.28" y="-8330.71" width="6.95" height="32766" maskUnits="userSpaceOnUse"><g class="cls-200"/></mask><linearGradient id="linear-gradient-5" x1="5.14" y1="11.27" x2="4.65" y2="30.57" xlink:href="#linear-gradient-2"/><filter id="luminosity-noclip-8" x="19.77" y="-8330.71" width="17.68" height="32766" filterUnits="userSpaceOnUse" color-interpolation-filters="sRGB"><feFlood flood-color="#fff" result="bg"/><feBlend in="SourceGraphic" in2="bg"/></filter><mask id="mask-8" x="19.77" y="-8330.71" width="17.68" height="32766" maskUnits="userSpaceOnUse"><g class="cls-199"/></mask><linearGradient id="linear-gradient-6" x1="22" y1="40.33" x2="34.57" y2="34.28" xlink:href="#linear-gradient-2"/><filter id="luminosity-noclip-9" x="32.64" y="-8330.71" width="16.72" height="32766" filterUnits="userSpaceOnUse" color-interpolation-filters="sRGB"><feFlood flood-color="#fff" result="bg"/><feBlend in="SourceGraphic" in2="bg"/></filter><mask id="mask-9" x="32.64" y="-8330.71" width="16.72" height="32766" maskUnits="userSpaceOnUse"><g class="cls-198"/></mask><linearGradient id="linear-gradient-7" x1="88.52" y1="-86.88" x2="80.29" y2="-66.54" gradientTransform="matrix(0.85, 0.52, -0.52, 0.85, -70.99, 75.78)" xlink:href="#linear-gradient-2"/><filter id="luminosity-noclip-10" x="18.09" y="-8330.71" width="20.7" height="32766" filterUnits="userSpaceOnUse" color-interpolation-filters="sRGB"><feFlood flood-color="#fff" result="bg"/><feBlend in="SourceGraphic" in2="bg"/></filter><mask id="mask-10" x="18.09" y="-8330.71" width="20.7" height="32766" maskUnits="userSpaceOnUse"><g class="cls-197"/></mask><linearGradient id="linear-gradient-8" x1="61.9" y1="-74.59" x2="74.47" y2="-80.63" gradientTransform="matrix(0.85, 0.52, -0.52, 0.85, -70.99, 75.78)" xlink:href="#linear-gradient-2"/><filter id="luminosity-noclip-11" x="14.48" y="-8330.71" width="6.96" height="32766" filterUnits="userSpaceOnUse" color-interpolation-filters="sRGB"><feFlood flood-color="#fff" result="bg"/><feBlend in="SourceGraphic" in2="bg"/></filter><mask id="mask-11" x="14.48" y="-8330.71" width="6.96" height="32766" maskUnits="userSpaceOnUse"><g class="cls-196"/></mask><linearGradient id="linear-gradient-9" x1="14.48" y1="9.92" x2="21.43" y2="9.92" gradientUnits="userSpaceOnUse"><stop offset="0.44" stop-color="#fff"/><stop offset="0.98"/></linearGradient><filter id="luminosity-noclip-12" x="3.44" y="-8330.71" width="10.25" height="32766" filterUnits="userSpaceOnUse" color-interpolation-filters="sRGB"><feFlood flood-color="#fff" result="bg"/><feBlend in="SourceGraphic" in2="bg"/></filter><mask id="mask-12" x="3.44" y="-8330.71" width="10.25" height="32766" maskUnits="userSpaceOnUse"><g class="cls-195"/></mask><radialGradient id="radial-gradient-3" cx="-312.9" cy="-20.85" r="7.1" gradientTransform="translate(234.47 38) scale(0.72 1.11)" gradientUnits="userSpaceOnUse"><stop offset="0" stop-color="#fff"/><stop offset="0.98"/></radialGradient><filter id="luminosity-noclip-13" x="17.91" y="-8330.71" width="14.96" height="32766" filterUnits="userSpaceOnUse" color-interpolation-filters="sRGB"><feFlood flood-color="#fff" result="bg"/><feBlend in="SourceGraphic" in2="bg"/></filter><mask id="mask-13" x="17.91" y="-8330.71" width="14.96" height="32766" maskUnits="userSpaceOnUse"><g class="cls-194"/></mask><radialGradient id="radial-gradient-4" cx="54.71" cy="353.19" r="7.1" gradientTransform="matrix(0.6, 0.45, -0.87, 1.17, 298.83, -403.13)" xlink:href="#radial-gradient-3"/><radialGradient id="radial-gradient-5" cx="9.11" cy="17.71" r="17.48" gradientUnits="userSpaceOnUse"><stop offset="0" stop-color="#d7df23"/><stop offset="0.07" stop-color="#ccdc29"/><stop offset="0.26" stop-color="#b6d537"/><stop offset="0.46" stop-color="#a6d041"/><stop offset="0.69" stop-color="#9ccd46"/><stop offset="1" stop-color="#99cc48"/></radialGradient><mask id="mask-14" x="1.81" y="6.89" width="33.72" height="35.14" maskUnits="userSpaceOnUse"><g class="cls-1"><path class="cls-2" d="M34.93,13.71a10.34,10.34,0,0,0-4.94-6c-4-2.16-8.28.67-12.36,1.36,4.58,4.07,5.41,14.74-.93,17.63A16.85,16.85,0,0,1,8.46,28a15.93,15.93,0,0,1-4.43-1,8.88,8.88,0,0,1-2.22-1.27A10.33,10.33,0,0,0,2,26.93c.16.53.46,1,.66,1.54a31.82,31.82,0,0,0,1.2,3.32C4.38,32.84,5,33.91,5.6,34.93a24.9,24.9,0,0,0,3.61,4.51A8.58,8.58,0,0,0,15.53,42c1.7,0,3.47,0,5.2,0A8.42,8.42,0,0,0,27,39.44c6.53-6.93,8-16.53,8.3-18.8A15.75,15.75,0,0,0,34.93,13.71Z"/></g></mask><radialGradient id="radial-gradient-6" cx="12.31" cy="22.02" r="31.81" gradientUnits="userSpaceOnUse"><stop offset="0.28" stop-color="#4a3b07"/><stop offset="0.76" stop-color="#4a3b07"/></radialGradient><linearGradient id="linear-gradient-10" y1="24.6" x2="36.26" y2="24.6" gradientUnits="userSpaceOnUse"><stop offset="0" stop-color="#8dc63f"/><stop offset="1" stop-color="#6a6e06"/></linearGradient><linearGradient id="linear-gradient-11" x1="15.34" y1="10.72" x2="20.26" y2="10.72" gradientUnits="userSpaceOnUse"><stop offset="0" stop-color="#8dc63f"/><stop offset="1" stop-color="#3a822b"/></linearGradient><filter id="luminosity-noclip-14" x="1.28" y="8.31" width="6.95" height="26.73" filterUnits="userSpaceOnUse" color-interpolation-filters="sRGB"><feFlood flood-color="#fff" result="bg"/><feBlend in="SourceGraphic" in2="bg"/></filter><mask id="mask-15" x="1.28" y="8.31" width="6.95" height="26.73" maskUnits="userSpaceOnUse"><g class="cls-13"><path class="cls-14" d="M8.22,34.93c-.57-1.17-1.36-2.23-2-3.38a17.61,17.61,0,0,1-1.55-4.29,35.06,35.06,0,0,1-1-8.59,25.71,25.71,0,0,1,.58-5.39c.45-2,1-3.78,2.82-4.94,0,0,0,0,0,0a5.5,5.5,0,0,0-4.38,3.15A16.19,16.19,0,0,0,1.3,17.75a28.55,28.55,0,0,0,.17,4.43,18.7,18.7,0,0,0,1.41,4.9,22.83,22.83,0,0,0,2.14,4,21.07,21.07,0,0,0,3.06,4C8.15,35.08,8.26,35,8.22,34.93Z"/></g></mask><linearGradient id="linear-gradient-12" x1="5.14" y1="11.27" x2="4.65" y2="30.57" gradientUnits="userSpaceOnUse"><stop offset="0" stop-color="#fff"/><stop offset="0.5" stop-color="#fff"/><stop offset="1" stop-color="#fff"/></linearGradient><filter id="luminosity-noclip-15" x="14.48" y="8.43" width="6.96" height="2.98" filterUnits="userSpaceOnUse" color-interpolation-filters="sRGB"><feFlood flood-color="#fff" result="bg"/><feBlend in="SourceGraphic" in2="bg"/></filter><mask id="mask-16" x="14.48" y="8.43" width="6.96" height="2.98" maskUnits="userSpaceOnUse"><g class="cls-21"><path class="cls-22" d="M21.21,10a9,9,0,0,0-3.07-.48c-1.27-.18-2.56-.17-3.61-1a0,0,0,0,0,0,0A5.26,5.26,0,0,0,17.27,11c1.06.49,3.13.59,4-.28A.51.51,0,0,0,21.21,10Z"/></g></mask><linearGradient id="linear-gradient-13" x1="14.48" y1="9.92" x2="21.43" y2="9.92" gradientUnits="userSpaceOnUse"><stop offset="0.44" stop-color="#4a3b07"/><stop offset="0.98" stop-color="#4a3b07"/></linearGradient><mask id="mask-17" x="3.44" y="7.08" width="10.25" height="15.71" maskUnits="userSpaceOnUse"><g class="cls-23"><ellipse class="cls-24" cx="8.56" cy="14.93" rx="5.12" ry="7.85"/></g></mask><radialGradient id="radial-gradient-7" cx="-312.9" cy="-20.85" r="7.1" gradientTransform="translate(234.47 38) scale(0.72 1.11)" gradientUnits="userSpaceOnUse"><stop offset="0" stop-color="#fff"/><stop offset="0.98" stop-color="#fff"/></radialGradient><filter id="luminosity-noclip-16" x="17.91" y="24.53" width="14.96" height="17.73" filterUnits="userSpaceOnUse" color-interpolation-filters="sRGB"><feFlood flood-color="#fff" result="bg"/><feBlend in="SourceGraphic" in2="bg"/></filter><mask id="mask-18" x="17.91" y="24.53" width="14.96" height="17.73" maskUnits="userSpaceOnUse"><g class="cls-25"><path class="cls-26" d="M29.64,36.55c-3.4,4.58-8.06,6.87-10.4,5.13s-1.5-6.87,1.9-11.44,8.05-6.87,10.4-5.13S33,32,29.64,36.55Z"/></g></mask><radialGradient id="radial-gradient-8" cx="54.71" cy="353.19" r="7.1" gradientTransform="matrix(0.6, 0.45, -0.87, 1.17, 298.83, -403.13)" gradientUnits="userSpaceOnUse"><stop offset="0" stop-color="#d7df23"/><stop offset="0.98" stop-color="#d7df23"/></radialGradient><mask id="mask-19" x="10.61" y="9.26" width="21.26" height="32.11" maskUnits="userSpaceOnUse"><g class="cls-3"><path class="cls-4" d="M31.85,25.72c-.33,8.86-5.35,15.87-11.22,15.65s-10.34-7.59-10-16.45S16,9,21.85,9.27,32.19,16.85,31.85,25.72Z"/></g></mask><radialGradient id="radial-gradient-9" cx="-225.18" cy="427.4" r="7.1" gradientTransform="matrix(1.5, 0.06, -0.09, 2.26, 394.39, -928.59)" gradientUnits="userSpaceOnUse"><stop offset="0" stop-color="#4a3b07"/><stop offset="0.94" stop-color="#4a3b07"/></radialGradient><filter id="luminosity-noclip-17" x="14.8" y="0.35" width="5.25" height="9.55" filterUnits="userSpaceOnUse" color-interpolation-filters="sRGB"><feFlood flood-color="#fff" result="bg"/><feBlend in="SourceGraphic" in2="bg"/></filter><mask id="mask-20" x="14.8" y="0.35" width="5.25" height="9.55" maskUnits="userSpaceOnUse"><g class="cls-5"><path class="cls-6" d="M19.16,1.52A2.34,2.34,0,0,0,17.06.35,2.87,2.87,0,0,0,14.81,1.7s0,.05,0,.05a2.56,2.56,0,0,0,1.32.08,2.41,2.41,0,0,1,2.59.61c1.24,1.31,1,3.65.48,5.17a13,13,0,0,1-1,2.29C20.88,7.72,20.14,3.24,19.16,1.52Z"/></g></mask><linearGradient id="linear-gradient-14" x1="14.47" y1="-0.71" x2="23.13" y2="12.47" gradientUnits="userSpaceOnUse"><stop offset="0" stop-color="#290c03"/><stop offset="0.53" stop-color="#290c03"/><stop offset="1" stop-color="#290c03"/></linearGradient><linearGradient id="linear-gradient-15" x1="7.83" y1="11.34" x2="9.91" y2="11.34" gradientUnits="userSpaceOnUse"><stop offset="0" stop-color="#d7df23"/><stop offset="0.18" stop-color="#bfd124"/><stop offset="0.57" stop-color="#83ad27"/><stop offset="1" stop-color="#3a822b"/></linearGradient><linearGradient id="linear-gradient-16" x1="11.26" y1="12.94" x2="12.92" y2="12.94" xlink:href="#linear-gradient-15"/><linearGradient id="linear-gradient-17" x1="8.93" y1="17.73" x2="9.55" y2="17.73" xlink:href="#linear-gradient-15"/><linearGradient id="linear-gradient-18" x1="5.99" y1="13.96" x2="7.29" y2="13.96" xlink:href="#linear-gradient-15"/><linearGradient id="linear-gradient-19" x1="14.87" y1="14.18" x2="15.55" y2="14.18" xlink:href="#linear-gradient-15"/><linearGradient id="linear-gradient-20" x1="17.42" y1="14.8" x2="18.55" y2="14.8" xlink:href="#linear-gradient-15"/><linearGradient id="linear-gradient-21" x1="19.93" y1="14.22" x2="21.22" y2="14.22" xlink:href="#linear-gradient-15"/><linearGradient id="linear-gradient-22" x1="21.62" y1="13.54" x2="24.19" y2="13.54" xlink:href="#linear-gradient-15"/><linearGradient id="linear-gradient-23" x1="23.44" y1="11.78" x2="26.57" y2="11.78" xlink:href="#linear-gradient-15"/><linearGradient id="linear-gradient-24" x1="26.35" y1="10.62" x2="29.48" y2="10.62" xlink:href="#linear-gradient-15"/><linearGradient id="linear-gradient-25" x1="25.51" y1="15.72" x2="26.03" y2="15.72" xlink:href="#linear-gradient-15"/><linearGradient id="linear-gradient-26" x1="19.58" y1="18.19" x2="20.28" y2="18.19" xlink:href="#linear-gradient-15"/><linearGradient id="linear-gradient-27" x1="16.02" y1="18.9" x2="16.92" y2="18.9" xlink:href="#linear-gradient-15"/><linearGradient id="linear-gradient-28" x1="13.54" y1="18.36" x2="14.13" y2="18.36" xlink:href="#linear-gradient-15"/><linearGradient id="linear-gradient-29" x1="11.24" y1="20.59" x2="11.99" y2="20.59" xlink:href="#linear-gradient-15"/><linearGradient id="linear-gradient-30" x1="10.41" y1="21.4" x2="10.62" y2="21.4" xlink:href="#linear-gradient-15"/><linearGradient id="linear-gradient-31" x1="6.67" y1="19.54" x2="7.48" y2="19.54" xlink:href="#linear-gradient-15"/><linearGradient id="linear-gradient-32" x1="3.49" y1="12.89" x2="5.81" y2="12.89" xlink:href="#linear-gradient-15"/><linearGradient id="linear-gradient-33" x1="4.62" y1="17" x2="5.07" y2="17" xlink:href="#linear-gradient-15"/><linearGradient id="linear-gradient-34" x1="3.05" y1="19.86" x2="3.75" y2="19.86" xlink:href="#linear-gradient-15"/><linearGradient id="linear-gradient-35" x1="5.16" y1="23.77" x2="5.86" y2="23.77" xlink:href="#linear-gradient-15"/><linearGradient id="linear-gradient-36" x1="16.08" y1="24.39" x2="16.39" y2="24.39" xlink:href="#linear-gradient-15"/><linearGradient id="linear-gradient-37" x1="17.17" y1="21.59" x2="17.8" y2="21.59" xlink:href="#linear-gradient-15"/><linearGradient id="linear-gradient-38" x1="22.4" y1="19.89" x2="23.22" y2="19.89" xlink:href="#linear-gradient-15"/><linearGradient id="linear-gradient-39" x1="27.94" y1="17.24" x2="28.8" y2="17.24" xlink:href="#linear-gradient-15"/><linearGradient id="linear-gradient-40" x1="30.15" y1="15.24" x2="30.74" y2="15.24" xlink:href="#linear-gradient-15"/><linearGradient id="linear-gradient-41" x1="31.01" y1="14.11" x2="33.48" y2="14.11" xlink:href="#linear-gradient-15"/><linearGradient id="linear-gradient-42" x1="26.39" y1="22.08" x2="26.95" y2="22.08" xlink:href="#linear-gradient-15"/><linearGradient id="linear-gradient-43" x1="20.94" y1="25.27" x2="21.54" y2="25.27" xlink:href="#linear-gradient-15"/><linearGradient id="linear-gradient-44" x1="8.39" y1="30.7" x2="10.08" y2="30.7" xlink:href="#linear-gradient-15"/><linearGradient id="linear-gradient-45" x1="12.18" y1="30.71" x2="12.62" y2="30.71" xlink:href="#linear-gradient-15"/><linearGradient id="linear-gradient-46" x1="27.59" y1="27.09" x2="29.56" y2="27.09" xlink:href="#linear-gradient-15"/><linearGradient id="linear-gradient-47" x1="26.01" y1="27.93" x2="26.3" y2="27.93" xlink:href="#linear-gradient-15"/><filter id="luminosity-noclip-18" x="22.26" y="8.67" width="13.95" height="33.83" filterUnits="userSpaceOnUse" color-interpolation-filters="sRGB"><feFlood flood-color="#fff" result="bg"/><feBlend in="SourceGraphic" in2="bg"/></filter><mask id="mask-21" x="22.26" y="8.67" width="13.95" height="33.83" maskUnits="userSpaceOnUse"><g class="cls-7"><path class="cls-8" d="M35.75,13.86a12.38,12.38,0,0,0-3.39-5.19,17.35,17.35,0,0,1,2.14,7.2c.21,2.42.06,21.6-12.24,26.64a8.84,8.84,0,0,0,5.34-2.87c6.52-6.92,8-16.52,8.29-18.79S36.51,16.08,35.75,13.86Z"/></g></mask><linearGradient id="linear-gradient-48" x1="34.67" y1="15.59" x2="22.15" y2="43.2" gradientUnits="userSpaceOnUse"><stop offset="0" stop-color="#8dffee"/><stop offset="0.5" stop-color="#8dffee"/><stop offset="1" stop-color="#8dffee"/></linearGradient><filter id="luminosity-noclip-19" x="14.03" y="0.04" width="4.91" height="1.61" filterUnits="userSpaceOnUse" color-interpolation-filters="sRGB"><feFlood flood-color="#fff" result="bg"/><feBlend in="SourceGraphic" in2="bg"/></filter><mask id="mask-22" x="14.03" y="0.04" width="4.91" height="1.61" maskUnits="userSpaceOnUse"><g class="cls-9"><path class="cls-10" d="M16.91.05a4.67,4.67,0,0,0-2.72.88.3.3,0,0,0,0,.5,1.52,1.52,0,0,0,1.68-.08A6.32,6.32,0,0,1,17.25.91c.63-.15,1,.18,1.57.28a.12.12,0,0,0,.12-.14C18.68.25,17.64.11,16.91.05Z"/></g></mask><linearGradient id="linear-gradient-49" x1="13.42" y1="1.08" x2="19.18" y2="0.51" gradientUnits="userSpaceOnUse"><stop offset="0" stop-color="#290c03"/><stop offset="0.53" stop-color="#b38009"/><stop offset="1" stop-color="#290c03"/></linearGradient><linearGradient id="linear-gradient-50" x1="27.78" y1="32.49" x2="49.44" y2="46.26" gradientUnits="userSpaceOnUse"><stop offset="0" stop-color="#f9e4b4"/><stop offset="1" stop-color="#fedc7a"/></linearGradient><filter id="luminosity-noclip-20" x="38.89" y="26.24" width="11.52" height="18.84" filterUnits="userSpaceOnUse" color-interpolation-filters="sRGB"><feFlood flood-color="#fff" result="bg"/><feBlend in="SourceGraphic" in2="bg"/></filter><mask id="mask-23" x="38.89" y="26.24" width="11.52" height="18.84" maskUnits="userSpaceOnUse"><g class="cls-11"><path class="cls-12" d="M48.77,29.4a24.12,24.12,0,0,0-3.48-2.9c-.15-.11-.2-.47-.77-.09a8,8,0,0,1,3.67,6.27,9.85,9.85,0,0,1-3.12,7.47,31.73,31.73,0,0,1-6.18,4.93,26,26,0,0,0,2.85-1c3.94-1.64,8-4.68,8.59-9.21A6.48,6.48,0,0,0,48.77,29.4Z"/></g></mask><linearGradient id="linear-gradient-51" x1="48.62" y1="28.04" x2="40.39" y2="48.38" xlink:href="#linear-gradient-12"/><clipPath id="clip-path"><path class="cls-27" d="M34.07,37.6c.39.34.91,0,1.14-.35a2.67,2.67,0,0,0,.23-1.38,4.16,4.16,0,0,1,.08-1.08s0,0,0,0c-.37.51-1,.81-1.32,1.32S33.58,37.19,34.07,37.6Z"/></clipPath><linearGradient id="linear-gradient-52" x1="17.66" y1="36.62" x2="52.29" y2="36.62" xlink:href="#linear-gradient-10"/><filter id="luminosity-noclip-21" x="19.77" y="30.9" width="17.68" height="10.88" filterUnits="userSpaceOnUse" color-interpolation-filters="sRGB"><feFlood flood-color="#fff" result="bg"/><feBlend in="SourceGraphic" in2="bg"/></filter><mask id="mask-24" x="19.77" y="30.9" width="17.68" height="10.88" maskUnits="userSpaceOnUse"><g class="cls-15"><path class="cls-16" d="M34.86,33.05c-.86.49-1.74.93-2.4,1.36-1.41.9-2.76,1.9-4.23,2.71-2,1.07-3.92,2.22-5.91,3.21a19.25,19.25,0,0,0-2.55,1.34c1.55.43,3.53-.43,5-.93a25.77,25.77,0,0,0,5.47-2.51,24.11,24.11,0,0,0,7.24-7.33A7.38,7.38,0,0,1,34.86,33.05Z"/></g></mask><linearGradient id="linear-gradient-53" x1="22" y1="40.33" x2="34.57" y2="34.28" xlink:href="#linear-gradient-12"/><linearGradient id="linear-gradient-54" x1="67.68" y1="-82.43" x2="89.34" y2="-68.66" gradientTransform="matrix(0.85, 0.52, -0.52, 0.85, -70.99, 75.78)" xlink:href="#linear-gradient-50"/><filter id="luminosity-noclip-22" x="32.64" y="44.18" width="16.72" height="13.88" filterUnits="userSpaceOnUse" color-interpolation-filters="sRGB"><feFlood flood-color="#fff" result="bg"/><feBlend in="SourceGraphic" in2="bg"/></filter><mask id="mask-25" x="32.64" y="44.18" width="16.72" height="13.88" maskUnits="userSpaceOnUse"><g class="cls-17"><path class="cls-18" d="M49.24,49a24.11,24.11,0,0,0-1.46-4.29c-.07-.17.07-.51-.61-.48A8.06,8.06,0,0,1,47,51.45a9.9,9.9,0,0,1-6.55,4.75,32.29,32.29,0,0,1-7.85,1,27.68,27.68,0,0,0,3,.63c4.22.65,9.24.15,12.13-3.39A6.47,6.47,0,0,0,49.24,49Z"/></g></mask><linearGradient id="linear-gradient-55" x1="88.52" y1="-86.88" x2="80.29" y2="-66.54" gradientTransform="matrix(0.85, 0.52, -0.52, 0.85, -70.99, 75.78)" xlink:href="#linear-gradient-12"/><clipPath id="clip-path-2"><path class="cls-27" d="M32.42,48.29c.16.5.77.49,1.16.3a2.66,2.66,0,0,0,.91-1.06,4.31,4.31,0,0,1,.63-.88s0,0,0,0c-.58.24-1.25.19-1.82.44S32.22,47.69,32.42,48.29Z"/></clipPath><linearGradient id="linear-gradient-56" x1="57.56" y1="-78.3" x2="92.19" y2="-78.3" gradientTransform="matrix(0.85, 0.52, -0.52, 0.85, -70.99, 75.78)" xlink:href="#linear-gradient-10"/><filter id="luminosity-noclip-23" x="18.09" y="44.3" width="20.7" height="2.52" filterUnits="userSpaceOnUse" color-interpolation-filters="sRGB"><feFlood flood-color="#fff" result="bg"/><feBlend in="SourceGraphic" in2="bg"/></filter><mask id="mask-26" x="18.09" y="44.3" width="20.7" height="2.52" maskUnits="userSpaceOnUse"><g class="cls-19"><path class="cls-20" d="M35.46,44.82c-1,0-2-.11-2.75-.09-1.68,0-3.35.19-5,.11-2.25-.11-4.51-.14-6.73-.34a19.93,19.93,0,0,0-2.87-.18c1.1,1.17,3.24,1.47,4.73,1.79a26.15,26.15,0,0,0,6,.71,24.15,24.15,0,0,0,10-2.48A7.3,7.3,0,0,1,35.46,44.82Z"/></g></mask><linearGradient id="linear-gradient-57" x1="61.9" y1="-74.59" x2="74.47" y2="-80.63" gradientTransform="matrix(0.85, 0.52, -0.52, 0.85, -70.99, 75.78)" xlink:href="#linear-gradient-12"/></defs><g id="Capa_2" data-name="Capa 2"><g id="Layer_4" data-name="Layer 4"><path class="cls-28" d="M16.81,10.43a3.57,3.57,0,0,0,1.32-1.22,9.29,9.29,0,0,1-3.2-.71,13.27,13.27,0,0,0-4.68-1.28,9.52,9.52,0,0,0-9.06,6.19,15.4,15.4,0,0,0-.56,7.4c2.63,13.15,7,17,8.58,18.63A8.58,8.58,0,0,0,15.53,42c1.7,0,3.47,0,5.2,0A8.42,8.42,0,0,0,27,39.44c6.53-6.93,8-16.53,8.3-18.8a15.75,15.75,0,0,0-.41-6.93,9.17,9.17,0,0,0-5.67-5.89c-4.55-1.33-5.77,0-8.92,1a6.34,6.34,0,0,1-1.31.3A2.6,2.6,0,0,1,16.81,10.43Zm3.43.28a3,3,0,0,1-4.83-.77h0l-.06-.08s0,0,0,0c1.37,1.31,3.09,1.19,4.83.76C20.26,10.6,20.28,10.67,20.24,10.71Z"/><g class="cls-29"><path class="cls-30" d="M34.93,13.71a10.34,10.34,0,0,0-4.94-6c-4-2.16-8.28.67-12.36,1.36,4.58,4.07,5.41,14.74-.93,17.63A16.85,16.85,0,0,1,8.46,28a15.93,15.93,0,0,1-4.43-1,8.88,8.88,0,0,1-2.22-1.27A10.33,10.33,0,0,0,2,26.93c.16.53.46,1,.66,1.54a31.82,31.82,0,0,0,1.2,3.32C4.38,32.84,5,33.91,5.6,34.93a24.9,24.9,0,0,0,3.61,4.51A8.58,8.58,0,0,0,15.53,42c1.7,0,3.47,0,5.2,0A8.42,8.42,0,0,0,27,39.44c6.53-6.93,8-16.53,8.3-18.8A15.75,15.75,0,0,0,34.93,13.71Z"/></g><path class="cls-31" d="M36.13,19.92a14.89,14.89,0,0,0-.43-6.23,10.53,10.53,0,0,0-7.39-7,9,9,0,0,0-5.55.47,19.59,19.59,0,0,1-3.39,1.38,4.19,4.19,0,0,1-.34.58,6.34,6.34,0,0,0,1.31-.3c3.15-1.07,4.37-2.37,8.92-1a9.17,9.17,0,0,1,5.67,5.89,15.75,15.75,0,0,1,.41,6.93c-.27,2.27-1.77,11.87-8.3,18.8A8.42,8.42,0,0,1,20.73,42c-1.73,0-3.5,0-5.2,0a8.58,8.58,0,0,1-6.32-2.58C7.64,37.82,3.26,34,.63,20.81a15.4,15.4,0,0,1,.56-7.4,9.52,9.52,0,0,1,9.06-6.19A13.27,13.27,0,0,1,14.93,8.5a9.29,9.29,0,0,0,3.2.71c.11-.16.22-.33.32-.51h-.23A13,13,0,0,1,13.5,7.2,9,9,0,0,0,8,6.73a10.54,10.54,0,0,0-7.4,7,15.4,15.4,0,0,0-.43,6.23A33.89,33.89,0,0,0,7.56,38.55a10.06,10.06,0,0,0,6.17,4,21,21,0,0,0,4.48.08,34.52,34.52,0,0,0,4.31-.08,9.46,9.46,0,0,0,6.17-4A36.55,36.55,0,0,0,36.13,19.92Z"/><path class="cls-32" d="M16.81,10.43A2.6,2.6,0,0,0,19,9.16a4.19,4.19,0,0,0,.34-.58,5.65,5.65,0,0,0,.49-1.39,9.47,9.47,0,0,0-.55-5.71A2.7,2.7,0,0,0,16.64,0C15.2.06,14,1,13.49,1.05a2,2,0,0,0,.89,1,1.74,1.74,0,0,0,1,.3,2.11,2.11,0,0,1,.26-.22A2.22,2.22,0,0,1,18,2c2,1.35,1.62,4.62.44,6.71-.1.18-.21.35-.32.51A3.57,3.57,0,0,1,16.81,10.43Z"/><path class="cls-33" d="M15.37,9.85s0,0,0,0l.06.08h0a3,3,0,0,0,4.83.77s0-.11,0-.1C18.46,11,16.74,11.16,15.37,9.85Z"/><g class="cls-34"><path class="cls-35" d="M8.22,34.93c-.57-1.17-1.36-2.23-2-3.38a17.61,17.61,0,0,1-1.55-4.29,35.06,35.06,0,0,1-1-8.59,25.71,25.71,0,0,1,.58-5.39c.45-2,1-3.78,2.82-4.94,0,0,0,0,0,0a5.5,5.5,0,0,0-4.38,3.15A16.19,16.19,0,0,0,1.3,17.75a28.55,28.55,0,0,0,.17,4.43,18.7,18.7,0,0,0,1.41,4.9,22.83,22.83,0,0,0,2.14,4,21.07,21.07,0,0,0,3.06,4C8.15,35.08,8.26,35,8.22,34.93Z"/></g><g class="cls-36"><path class="cls-37" d="M21.21,10a9,9,0,0,0-3.07-.48c-1.27-.18-2.56-.17-3.61-1a0,0,0,0,0,0,0A5.26,5.26,0,0,0,17.27,11c1.06.49,3.13.59,4-.28A.51.51,0,0,0,21.21,10Z"/></g><g class="cls-38"><ellipse class="cls-39" cx="8.56" cy="14.93" rx="5.12" ry="7.85"/></g><g class="cls-40"><path class="cls-41" d="M29.64,36.55c-3.4,4.58-8.06,6.87-10.4,5.13s-1.5-6.87,1.9-11.44,8.05-6.87,10.4-5.13S33,32,29.64,36.55Z"/></g><g class="cls-42"><path class="cls-43" d="M31.85,25.72c-.33,8.86-5.35,15.87-11.22,15.65s-10.34-7.59-10-16.45S16,9,21.85,9.27,32.19,16.85,31.85,25.72Z"/></g><g class="cls-44"><path class="cls-45" d="M19.16,1.52A2.34,2.34,0,0,0,17.06.35,2.87,2.87,0,0,0,14.81,1.7s0,.05,0,.05a2.56,2.56,0,0,0,1.32.08,2.41,2.41,0,0,1,2.59.61c1.24,1.31,1,3.65.48,5.17a13,13,0,0,1-1,2.29C20.88,7.72,20.14,3.24,19.16,1.52Z"/></g><path class="cls-46" d="M9.91,9.55a3.84,3.84,0,0,0-2.08,3.53.05.05,0,0,0,.1,0c.47-1.28.76-2.74,2-3.54Z"/><path class="cls-47" d="M12.91,11a4,4,0,0,0-1.63,3.91c0,.09.13.08.16,0,.45-1.24.4-3,1.48-3.91Z"/><path class="cls-48" d="M9.54,14.38A13.37,13.37,0,0,0,9.18,21c0,.07.1.06.11,0,.15-2.2-.07-4.47.26-6.65C9.55,14.37,9.54,14.37,9.54,14.38Z"/><path class="cls-49" d="M7.24,11.41a5.51,5.51,0,0,0-1,5,.12.12,0,0,0,.23,0,18.69,18.69,0,0,1,.84-5S7.26,11.39,7.24,11.41Z"/><path class="cls-50" d="M15.31,12.4h0a6.68,6.68,0,0,0-.2,1.48c-.05.65-.19,1.3-.22,1.95a.12.12,0,0,0,.23.07A4.66,4.66,0,0,0,15.31,12.4Z"/><path class="cls-51" d="M17.44,13.23s0,0,0,0c.47,1,.52,2.12,1,3.09a.07.07,0,0,0,.14,0A9.06,9.06,0,0,0,17.44,13.23Z"/><path class="cls-52" d="M20,12.38s-.09,0-.07,0a15.51,15.51,0,0,1,.6,1.82A12.59,12.59,0,0,0,21,16c.05.13.23.07.24,0A4.48,4.48,0,0,0,20,12.38Z"/><path class="cls-53" d="M21.64,11.31s0,0,0,0c1.52.89,1.83,2.87,2.36,4.39,0,.09.17,0,.18,0A5,5,0,0,0,21.64,11.31Z"/><path class="cls-54" d="M25.53,11.33a3.18,3.18,0,0,0-2.08-1.27s0,0,0,0a3.8,3.8,0,0,1,1.78,1.51c.44.57.67,1.34,1.15,1.88a.11.11,0,0,0,.19-.07A4,4,0,0,0,25.53,11.33Z"/><path class="cls-55" d="M26.36,9.28s0,0,0,0c1.35-.09,2.48,1.55,3,2.61a.06.06,0,0,0,.12,0A3.12,3.12,0,0,0,26.36,9.28Z"/><path class="cls-56" d="M25.54,14s0,0,0,0a18.32,18.32,0,0,1,.38,3.38.05.05,0,0,0,.1,0A6.83,6.83,0,0,0,25.54,14Z"/><path class="cls-57" d="M20,16.08a0,0,0,0,0-.06,0,15.92,15.92,0,0,1-.3,4.13.08.08,0,0,0,.15.05A5.41,5.41,0,0,0,20,16.08Z"/><path class="cls-58" d="M16.91,16.61A20.47,20.47,0,0,0,16,21.12a.06.06,0,0,0,.12,0,20.45,20.45,0,0,0,.78-4.54Z"/><path class="cls-59" d="M14.09,16a18.08,18.08,0,0,0-.54,4.57.1.1,0,0,0,.19,0,18.2,18.2,0,0,0,.39-4.6A0,0,0,0,0,14.09,16Z"/><path class="cls-60" d="M12,17.6s0,0,0,0c-1.28,1.6-.56,4.09-.32,5.93,0,.07.12.06.13,0C12,21.58,11,19.41,12,17.6Z"/><path class="cls-61" d="M10.62,20.51c0-.05-.06-.06-.08,0a6.52,6.52,0,0,0-.13,1.77c0,.08.12.11.13,0C10.67,21.7,10.54,21.1,10.62,20.51Z"/><path class="cls-62" d="M7.46,17.13a8.27,8.27,0,0,0-.68,4.75c0,.1.2.13.23,0a37.61,37.61,0,0,0,.47-4.76Z"/><path class="cls-63" d="M5.81,11.11c-1.41.05-2.11,2.38-2.32,3.47a.09.09,0,0,0,.16.06c.72-1.2.93-2.71,2.16-3.53Z"/><path class="cls-64" d="M5,15.91A4.17,4.17,0,0,0,4.63,18a.09.09,0,0,0,.16,0c.32-.63.13-1.43.28-2.11C5.08,15.91,5,15.87,5,15.91Z"/><path class="cls-65" d="M3.06,18s0,0,0,0a14.51,14.51,0,0,0,.56,3.77.07.07,0,0,0,.14,0A10.41,10.41,0,0,0,3.06,18Z"/><path class="cls-66" d="M5.3,22.48c0-.08-.12-.09-.12,0a5.7,5.7,0,0,0,.58,2.62c0,.06.11,0,.1,0A25.81,25.81,0,0,1,5.3,22.48Z"/><path class="cls-67" d="M16.19,23.09c0-.07-.12-.05-.11,0,.12.86.05,1.73.16,2.59a.05.05,0,0,0,.1,0A7.89,7.89,0,0,0,16.19,23.09Z"/><path class="cls-68" d="M17.27,19.6c0-.06-.11,0-.1,0,.22,1.3.18,2.61.38,3.9,0,.11.17.09.18,0A8.31,8.31,0,0,0,17.27,19.6Z"/><path class="cls-69" d="M22.43,17.13s0,0,0,0c.2,1.84.4,3.6.44,5.44,0,.1.15.14.18,0C23.56,20.84,22.86,18.85,22.43,17.13Z"/><path class="cls-70" d="M28,14.84a0,0,0,0,0,0,0c.52,1.55.21,3.17.57,4.73,0,.07.14.1.16,0A7.68,7.68,0,0,0,28,14.84Z"/><path class="cls-71" d="M30.25,14.16a.05.05,0,0,0-.1,0,14,14,0,0,0,.47,2.13s.08.06.09,0C30.87,15.59,30.4,14.86,30.25,14.16Z"/><path class="cls-72" d="M33.06,13.57a6.28,6.28,0,0,0-2-2.73s0,0,0,0a14.6,14.6,0,0,1,1.7,3.1,29.81,29.81,0,0,1,.65,3.39.06.06,0,0,0,.11,0A11.68,11.68,0,0,0,33.06,13.57Z"/><path class="cls-73" d="M26.6,20.33a0,0,0,0,0-.07,0,8.36,8.36,0,0,1-.14,3.41c0,.08.11.1.14,0C26.87,22.67,27.23,21.42,26.6,20.33Z"/><path class="cls-74" d="M21.36,24.22s-.08,0-.07,0a3.92,3.92,0,0,1-.35,2,.07.07,0,0,0,.13.06A2,2,0,0,0,21.36,24.22Z"/><path class="cls-75" d="M10.08,32.58a19.41,19.41,0,0,0-1.67-3.83s0,0,0,0A10,10,0,0,0,10,32.63C10,32.69,10.1,32.66,10.08,32.58Z"/><path class="cls-76" d="M12.29,30s-.13,0-.11,0a4.39,4.39,0,0,1,.15.6,5.13,5.13,0,0,0,.1.7c0,.07.12.1.14,0A1.65,1.65,0,0,0,12.29,30Z"/><path class="cls-77" d="M29.55,24.71s-.05,0-.06,0a9.64,9.64,0,0,1-.74,2.36,9.47,9.47,0,0,1-1.15,2.32.07.07,0,0,0,.1.09,4.17,4.17,0,0,0,1.27-2A7.69,7.69,0,0,0,29.55,24.71Z"/><path class="cls-78" d="M26.15,27.34c0-.05-.11-.06-.11,0V28a2.53,2.53,0,0,0,0,.55.08.08,0,0,0,.14,0C26.41,28.24,26.25,27.67,26.15,27.34Z"/><g class="cls-79"><path class="cls-80" d="M35.75,13.86a12.38,12.38,0,0,0-3.39-5.19,17.35,17.35,0,0,1,2.14,7.2c.21,2.42.06,21.6-12.24,26.64a8.84,8.84,0,0,0,5.34-2.87c6.52-6.92,8-16.52,8.29-18.79S36.51,16.08,35.75,13.86Z"/></g><g class="cls-81"><path class="cls-82" d="M16.91.05a4.67,4.67,0,0,0-2.72.88.3.3,0,0,0,0,.5,1.52,1.52,0,0,0,1.68-.08A6.32,6.32,0,0,1,17.25.91c.63-.15,1,.18,1.57.28a.12.12,0,0,0,.12-.14C18.68.25,17.64.11,16.91.05Z"/></g><path class="cls-83" d="M16.91.44c-1-.45-2.11.53-3.06.66-.12,0-.11.17,0,.21a1.6,1.6,0,0,0,1.37,0,5.9,5.9,0,0,0,.69-.4,2.5,2.5,0,0,1,1-.25C17,.61,17,.48,16.91.44Z"/><path class="cls-84" d="M45.29,26.5c-.16-.12-.21-.56-1,.06A129.61,129.61,0,0,1,32.1,35c-2.28,1.44-4.57,2.87-6.93,4.17a51.83,51.83,0,0,1-6,3c.6-.24,1.26,1.64,1.39,2a3.53,3.53,0,0,0,1.65,2c1.77.9,3.8.64,5.7.55a40.67,40.67,0,0,0,13.81-2.62c3.94-1.64,8-4.68,8.59-9.21a6.48,6.48,0,0,0-1.56-5.47A24.12,24.12,0,0,0,45.29,26.5ZM34.17,36.09c.36-.51.95-.81,1.32-1.32,0,0,0,0,0,0a4.16,4.16,0,0,0-.08,1.08,2.67,2.67,0,0,1-.23,1.38c-.23.37-.75.69-1.14.35S33.87,36.52,34.17,36.09Zm5.32.16A5.56,5.56,0,0,1,36.7,39.7a6.76,6.76,0,0,1-4.41.71A19.64,19.64,0,0,1,30,39.52a8.2,8.2,0,0,0-2.66-.12s0,0,0-.06c1.43-.76,2.74-.36,4.2,0a6.88,6.88,0,0,0,4.67-.2,5,5,0,0,0,3.06-4,11.07,11.07,0,0,1,.91-4.45s0,0,0,0a12.71,12.71,0,0,0-.5,3.07A10.17,10.17,0,0,1,39.49,36.25Z"/><path class="cls-85" d="M30,39.52a4.22,4.22,0,0,0-.69-.14l1.11.29C30.26,39.62,30.13,39.56,30,39.52Z"/><g class="cls-86"><path class="cls-87" d="M48.77,29.4a24.12,24.12,0,0,0-3.48-2.9c-.15-.11-.2-.47-.77-.09a8,8,0,0,1,3.67,6.27,9.85,9.85,0,0,1-3.12,7.47,31.73,31.73,0,0,1-6.18,4.93,26,26,0,0,0,2.85-1c3.94-1.64,8-4.68,8.59-9.21A6.48,6.48,0,0,0,48.77,29.4Z"/></g><path class="cls-85" d="M28,39.06a6.39,6.39,0,0,1,3.52.3,6.88,6.88,0,0,0,4.67-.2c.23-.11.45-.23.67-.36a7.76,7.76,0,0,0,2.32-3.95c.05-.18.1-.36.14-.53a8.85,8.85,0,0,1,.84-3.62s0,0,0,0a18.69,18.69,0,0,0-.43,2A10.13,10.13,0,0,1,40.42,31a14.11,14.11,0,0,1,1.2-1.77c.12-.31.26-.63.41-.94-3.2,2.39-6.57,4.56-9.93,6.69-2.13,1.35-4.28,2.69-6.48,3.92A8.18,8.18,0,0,1,28,39.06Zm6.19-3c.36-.51.95-.81,1.32-1.32,0,0,0,0,0,0a4.16,4.16,0,0,0-.08,1.08,2.67,2.67,0,0,1-.23,1.38c-.23.37-.75.69-1.14.35S33.87,36.52,34.17,36.09Z"/><path class="cls-88" d="M49.94,27.51a6.28,6.28,0,0,0-2-.63,10.89,10.89,0,0,1-2.22-.54l0,0c1.56,1.25,3.33,2.22,4.34,4a7.17,7.17,0,0,1,.57,5.32c1-2,1.51-4.15.62-6.33A3.58,3.58,0,0,0,49.94,27.51Z"/><path class="cls-89" d="M51,29.12c-1.18-1.66-3.53-1.58-5.09-2.74l-.12,0,0,0c1.56,1.25,3.33,2.22,4.34,4a7.17,7.17,0,0,1,.57,5.32,8.09,8.09,0,0,0,.92-5.36A6.76,6.76,0,0,0,51,29.12Z"/><path class="cls-90" d="M40.16,30.71s0,0,0,0a11.07,11.07,0,0,0-.91,4.45,5,5,0,0,1-3.06,4,6.88,6.88,0,0,1-4.67.2c-1.46-.38-2.77-.78-4.2,0,0,0,0,.07,0,.06a8.2,8.2,0,0,1,2.66.12,19.64,19.64,0,0,0,2.31.89,6.76,6.76,0,0,0,4.41-.71,5.56,5.56,0,0,0,2.79-3.45,10.17,10.17,0,0,0,.17-2.47A12.71,12.71,0,0,1,40.16,30.71Z"/><g class="cls-91"><rect class="cls-92" x="33.58" y="34.76" width="1.94" height="3.18"/><path class="cls-92" d="M35,36.41c-.28.58-.79.92-1.15.75s-.43-.78-.15-1.37.79-.91,1.15-.74S35.22,35.83,35,36.41Z"/><path class="cls-93" d="M34.94,36.4c-.27.58-.78.91-1.13.74s-.43-.77-.15-1.34.78-.91,1.13-.74S35.21,35.83,34.94,36.4Z"/><path class="cls-94" d="M34.93,36.4c-.26.57-.77.9-1.12.73s-.42-.76-.15-1.33.78-.9,1.13-.73S35.2,35.83,34.93,36.4Z"/><path class="cls-95" d="M34.93,36.4c-.27.56-.77.89-1.11.72s-.42-.75-.15-1.32.76-.88,1.11-.72S35.19,35.83,34.93,36.4Z"/><path class="cls-96" d="M34.92,36.39c-.26.56-.75.88-1.1.72s-.41-.74-.14-1.3.75-.88,1.1-.72S35.18,35.84,34.92,36.39Z"/><path class="cls-97" d="M34.91,36.39c-.26.55-.74.87-1.08.71s-.41-.74-.15-1.29.75-.87,1.09-.71S35.17,35.84,34.91,36.39Z"/><path class="cls-98" d="M34.91,36.39c-.26.54-.74.86-1.08.7s-.4-.73-.14-1.28.74-.85,1.07-.69S35.16,35.84,34.91,36.39Z"/><path class="cls-99" d="M34.9,36.38c-.25.54-.73.85-1.06.7s-.39-.72-.14-1.26.73-.85,1.06-.69S35.15,35.85,34.9,36.38Z"/><path class="cls-100" d="M34.89,36.38c-.25.53-.72.84-1,.68s-.38-.71-.13-1.24.72-.84,1-.68S35.14,35.85,34.89,36.38Z"/><path class="cls-101" d="M34.88,36.38c-.24.52-.71.83-1,.67s-.38-.7-.14-1.23.71-.82,1-.67S35.13,35.85,34.88,36.38Z"/><path class="cls-102" d="M34.88,36.37c-.25.52-.7.82-1,.67s-.38-.69-.14-1.21.7-.82,1-.67S35.12,35.86,34.88,36.37Z"/><path class="cls-103" d="M34.87,36.37c-.24.51-.69.81-1,.66s-.37-.69-.13-1.2.69-.81,1-.66S35.11,35.86,34.87,36.37Z"/><path class="cls-104" d="M34.86,36.37c-.24.5-.68.79-1,.65s-.37-.68-.13-1.19.68-.79,1-.64S35.1,35.86,34.86,36.37Z"/><path class="cls-105" d="M34.86,36.36c-.24.5-.68.79-1,.65s-.36-.67-.13-1.17.68-.79,1-.64S35.09,35.87,34.86,36.36Z"/><path class="cls-106" d="M34.85,36.36c-.23.49-.67.78-1,.63s-.36-.66-.13-1.15.67-.77,1-.63S35.08,35.87,34.85,36.36Z"/><path class="cls-107" d="M34.84,36.36c-.23.48-.66.76-1,.62s-.35-.65-.12-1.13.66-.77,1-.63S35.07,35.87,34.84,36.36Z"/><path class="cls-108" d="M34.83,36.35c-.22.48-.65.76-.94.62s-.35-.64-.13-1.12.65-.76,1-.62S35.06,35.87,34.83,36.35Z"/><path class="cls-109" d="M34.83,36.35c-.23.47-.64.75-.94.61s-.34-.63-.12-1.11.64-.74.93-.61S35.05,35.88,34.83,36.35Z"/><path class="cls-110" d="M34.82,36.35c-.22.46-.63.73-.92.6s-.34-.63-.12-1.09.63-.74.92-.61S35,35.88,34.82,36.35Z"/><path class="cls-111" d="M34.81,36.34c-.21.47-.62.73-.9.6s-.34-.62-.12-1.08.62-.73.9-.59S35,35.88,34.81,36.34Z"/><path class="cls-112" d="M34.81,36.34c-.22.46-.62.72-.9.58s-.33-.6-.12-1.06.62-.71.9-.58S35,35.89,34.81,36.34Z"/><path class="cls-113" d="M34.8,36.34c-.21.45-.61.7-.88.57s-.33-.6-.12-1,.61-.71.88-.58S35,35.89,34.8,36.34Z"/><path class="cls-114" d="M34.79,36.33c-.21.45-.6.7-.87.57s-.32-.59-.11-1,.59-.7.87-.57S35,35.89,34.79,36.33Z"/><path class="cls-115" d="M34.79,36.33c-.21.44-.59.69-.86.56s-.32-.58-.12-1,.59-.68.86-.56S35,35.9,34.79,36.33Z"/><path class="cls-116" d="M34.78,36.33c-.2.43-.58.67-.85.55s-.31-.58-.11-1,.58-.68.85-.56S35,35.9,34.78,36.33Z"/><path class="cls-117" d="M34.77,36.32c-.2.43-.57.67-.83.55s-.31-.57-.11-1,.57-.67.83-.54S35,35.9,34.77,36.32Z"/><path class="cls-118" d="M34.76,36.32c-.19.42-.56.66-.82.54s-.3-.56-.11-1,.57-.65.83-.53S35,35.9,34.76,36.32Z"/><path class="cls-119" d="M34.76,36.32c-.2.41-.56.64-.81.52s-.3-.54-.11-1,.56-.65.81-.53S35,35.91,34.76,36.32Z"/><path class="cls-120" d="M34.75,36.31c-.19.41-.55.64-.8.52s-.29-.54-.1-.94.55-.64.79-.52S34.94,35.91,34.75,36.31Z"/><path class="cls-121" d="M34.74,36.31c-.19.4-.54.63-.78.51s-.29-.53-.1-.93.53-.62.78-.51S34.93,35.91,34.74,36.31Z"/><path class="cls-122" d="M34.74,36.31c-.19.39-.53.61-.77.5s-.29-.52-.11-.91.53-.62.77-.51S34.92,35.92,34.74,36.31Z"/><path class="cls-123" d="M34.73,36.3c-.18.39-.52.61-.76.5s-.28-.52-.1-.9.52-.61.76-.49S34.91,35.92,34.73,36.3Z"/><path class="cls-124" d="M34.72,36.3c-.18.38-.51.6-.74.49s-.28-.51-.1-.89.51-.59.74-.48S34.9,35.92,34.72,36.3Z"/><path class="cls-125" d="M34.71,36.3c-.17.37-.5.58-.73.47s-.27-.49-.1-.86.51-.59.74-.48S34.89,35.93,34.71,36.3Z"/><path class="cls-126" d="M34.71,36.29c-.18.37-.5.58-.72.47s-.27-.49-.1-.85.5-.58.72-.47S34.88,35.93,34.71,36.29Z"/><path class="cls-127" d="M34.7,36.29c-.17.36-.49.57-.71.46s-.26-.48-.09-.84.48-.56.71-.46S34.87,35.93,34.7,36.29Z"/><path class="cls-128" d="M34.69,36.29c-.16.35-.47.55-.69.45s-.26-.47-.09-.82.47-.56.69-.46S34.86,35.93,34.69,36.29Z"/><path class="cls-129" d="M34.68,36.28c-.16.35-.46.55-.68.45s-.25-.46-.09-.81.47-.54.68-.44S34.85,35.94,34.68,36.28Z"/><path class="cls-130" d="M34.68,36.28c-.16.34-.46.53-.67.44s-.25-.46-.09-.8.46-.53.67-.43S34.84,35.94,34.68,36.28Z"/><path class="cls-131" d="M34.67,36.28c-.16.33-.45.52-.66.42s-.24-.44-.08-.77.45-.53.65-.43S34.83,35.94,34.67,36.28Z"/><path class="cls-132" d="M34.66,36.27c-.15.33-.44.52-.64.42s-.24-.43-.09-.76.45-.51.65-.42S34.82,36,34.66,36.27Z"/><path class="cls-133" d="M34.66,36.27c-.15.32-.44.5-.63.41s-.24-.43-.09-.75.44-.5.63-.41S34.81,36,34.66,36.27Z"/><path class="cls-134" d="M34.65,36.27c-.15.31-.43.49-.62.4s-.23-.42-.08-.73.42-.5.62-.41S34.8,36,34.65,36.27Z"/><path class="cls-135" d="M34.64,36.26c-.14.31-.41.49-.6.4s-.23-.41-.08-.72.41-.48.6-.4S34.79,36,34.64,36.26Z"/><path class="cls-136" d="M34.63,36.26c-.14.3-.4.47-.59.39s-.22-.41-.08-.71.41-.47.6-.38S34.78,36,34.63,36.26Z"/><path class="cls-137" d="M34.63,36.26c-.14.29-.4.46-.58.37s-.22-.39-.08-.68.4-.47.58-.38S34.77,36,34.63,36.26Z"/><path class="cls-138" d="M34.62,36.25c-.14.29-.39.46-.57.37s-.21-.38-.07-.67.39-.45.57-.37S34.76,36,34.62,36.25Z"/><path class="cls-139" d="M34.61,36.25c-.13.28-.38.44-.55.36s-.21-.38-.07-.66.38-.44.55-.36S34.75,36,34.61,36.25Z"/><path class="cls-140" d="M34.61,36.25c-.13.27-.38.43-.55.35s-.2-.37-.07-.64.38-.44.54-.36S34.74,36,34.61,36.25Z"/><path class="cls-141" d="M34.6,36.24c-.13.27-.36.43-.53.35s-.2-.36-.07-.63.36-.42.53-.35S34.73,36,34.6,36.24Z"/><path class="cls-142" d="M34.59,36.24c-.12.26-.35.41-.51.34s-.2-.35-.07-.62.35-.41.51-.33S34.72,36,34.59,36.24Z"/><path class="cls-143" d="M34.58,36.24c-.12.25-.34.4-.5.33s-.19-.35-.07-.6.35-.41.51-.33S34.71,36,34.58,36.24Z"/><path class="cls-144" d="M34.58,36.23c-.12.25-.34.4-.49.32S33.9,36.22,34,36s.34-.39.49-.32S34.7,36,34.58,36.23Z"/><path class="cls-145" d="M34.57,36.23c-.11.24-.33.38-.48.31s-.18-.32-.06-.57.33-.38.48-.31S34.69,36,34.57,36.23Z"/><path class="cls-146" d="M34.56,36.23c-.11.23-.32.37-.46.3s-.18-.32-.06-.55.32-.38.46-.31S34.68,36,34.56,36.23Z"/><path class="cls-147" d="M34.56,36.22c-.11.23-.32.37-.46.3s-.17-.31-.06-.54.31-.36.46-.3S34.66,36,34.56,36.22Z"/><path class="cls-148" d="M34.55,36.22c-.11.22-.3.35-.44.29s-.17-.3-.06-.53.3-.35.44-.28S34.66,36,34.55,36.22Z"/><path class="cls-149" d="M34.54,36.22c-.1.21-.29.34-.43.28s-.16-.3,0-.51.29-.35.43-.28S34.64,36,34.54,36.22Z"/><path class="cls-150" d="M34.54,36.21c-.1.21-.29.34-.42.27S34,36.2,34.06,36s.29-.33.42-.27S34.63,36,34.54,36.21Z"/><path class="cls-151" d="M34.53,36.21c-.1.2-.28.32-.41.26s-.15-.27,0-.48.28-.32.4-.26S34.62,36,34.53,36.21Z"/><path class="cls-152" d="M34.52,36.21c-.09.19-.27.31-.39.25S34,36.2,34.08,36s.27-.32.39-.26S34.61,36,34.52,36.21Z"/><path class="cls-153" d="M34.51,36.2c-.09.19-.26.3-.37.25s-.15-.26-.06-.45.27-.3.38-.25S34.6,36,34.51,36.2Z"/><path class="cls-154" d="M34.51,36.2c-.09.18-.26.29-.37.24s-.14-.25,0-.44.25-.29.37-.23S34.59,36,34.51,36.2Z"/><path class="cls-155" d="M34.5,36.2c-.09.18-.24.28-.35.23s-.14-.24,0-.42.24-.29.35-.23S34.58,36,34.5,36.2Z"/><path class="cls-156" d="M34.49,36.19c-.08.18-.23.27-.34.22s-.13-.23,0-.4.23-.27.34-.22S34.57,36,34.49,36.19Z"/><path class="cls-157" d="M34.49,36.19c-.08.17-.23.26-.33.21s-.12-.22,0-.39.23-.26.33-.21S34.56,36,34.49,36.19Z"/><path class="cls-158" d="M34.48,36.19c-.08.16-.22.25-.32.2s-.12-.21,0-.37.22-.25.32-.21S34.55,36,34.48,36.19Z"/><path class="cls-159" d="M34.47,36.18c-.07.16-.21.24-.3.2s-.11-.21,0-.36.21-.24.3-.2S34.54,36,34.47,36.18Z"/><path class="cls-160" d="M34.46,36.18c-.07.15-.2.23-.29.19s-.1-.2,0-.35.2-.23.3-.19S34.53,36,34.46,36.18Z"/><path class="cls-161" d="M34.46,36.18c-.07.14-.19.22-.28.18s-.1-.19,0-.33.19-.22.28-.18S34.52,36,34.46,36.18Z"/><path class="cls-162" d="M34.45,36.17c-.06.14-.18.21-.27.17s-.09-.17,0-.31.18-.21.26-.17S34.51,36,34.45,36.17Z"/><path class="cls-163" d="M34.44,36.17c-.06.13-.17.2-.25.16s-.09-.17,0-.3.17-.2.25-.16S34.5,36,34.44,36.17Z"/><path class="cls-164" d="M34.43,36.17c0,.12-.16.19-.23.15s-.09-.16,0-.28.17-.19.24-.16S34.49,36,34.43,36.17Z"/><path class="cls-165" d="M34.43,36.16c-.06.12-.16.18-.23.15s-.08-.15,0-.27.16-.18.23-.15S34.48,36.05,34.43,36.16Z"/><path class="cls-166" d="M34.42,36.16c-.05.11-.15.17-.21.14s-.08-.15,0-.26.15-.17.21-.14S34.47,36.05,34.42,36.16Z"/><path class="cls-167" d="M34.41,36.16c0,.1-.14.16-.2.13s-.07-.14,0-.24.14-.16.21-.13S34.46,36.05,34.41,36.16Z"/><path class="cls-168" d="M34.41,36.15c0,.1-.13.15-.19.13s-.07-.13,0-.23.13-.15.19-.12S34.45,36.06,34.41,36.15Z"/><path class="cls-169" d="M34.4,36.15c0,.09-.12.14-.18.11s-.06-.12,0-.21.12-.14.18-.11S34.44,36.06,34.4,36.15Z"/><path class="cls-170" d="M34.39,36.15c0,.08-.11.13-.16.1s-.06-.11,0-.19.11-.13.16-.11S34.43,36.06,34.39,36.15Z"/><path class="cls-171" d="M34.38,36.14c0,.08-.1.12-.15.1s0-.1,0-.18.11-.12.16-.1S34.42,36.06,34.38,36.14Z"/><path class="cls-172" d="M34.38,36.14c0,.07-.1.11-.14.09s-.05-.1,0-.17.1-.11.14-.09S34.41,36.07,34.38,36.14Z"/><path class="cls-173" d="M34.37,36.14c0,.06-.09.1-.13.08a.13.13,0,0,1,0-.15c0-.07.08-.1.12-.08S34.4,36.07,34.37,36.14Z"/><path class="cls-174" d="M34.36,36.13a.1.1,0,0,1-.11.08s0-.08,0-.14.07-.09.11-.07S34.39,36.07,34.36,36.13Z"/><path class="cls-175" d="M34.36,36.13s-.07.08-.1.06,0-.06,0-.12.07-.08.1-.06S34.38,36.08,34.36,36.13Z"/><path class="cls-176" d="M34.35,36.13s-.06.07-.09,0,0-.06,0-.1.06-.07.09-.06S34.37,36.08,34.35,36.13Z"/><path class="cls-177" d="M34.34,36.12s-.05.06-.07.05,0-.05,0-.09.05-.06.07,0S34.36,36.08,34.34,36.12Z"/><path class="cls-178" d="M34.33,36.12s0,.05-.06,0,0,0,0-.08.05,0,.07,0S34.35,36.09,34.33,36.12Z"/><path class="cls-179" d="M34.33,36.11s0,0,0,0,0,0,0-.06,0,0,0,0S34.34,36.09,34.33,36.11Z"/><path class="cls-180" d="M34.32,36.11a.05.05,0,0,1,0,0,0,0,0,0,1,0,0s0,0,0,0S34.33,36.09,34.32,36.11Z"/><path class="cls-181" d="M34.31,36.11s0,0,0,0,0,0,0,0,0,0,0,0S34.32,36.1,34.31,36.11Z"/><path class="cls-182" d="M34.31,36.1h0Z"/></g><path class="cls-183" d="M49.46,26.7c-1.43-.52-3-.36-4.48-.87,0,0,0,0,0,0a.87.87,0,0,0-.31.09,16.27,16.27,0,0,0-2,1.34c-1.29.89-2.55,1.8-3.84,2.69-2.28,1.58-4.63,3.05-7,4.53S27.29,37.38,25,38.77a24.49,24.49,0,0,1-7.31,3.31,2.1,2.1,0,0,1,.76.32,1.34,1.34,0,0,1-.56.4,6.33,6.33,0,0,0,1.38,0c1.1.89.77,2.54,1.8,3.43a5.81,5.81,0,0,0,3.73,1.22c.72,0,1.43,0,2.15,0a44.2,44.2,0,0,0,14.55-2.6,19.93,19.93,0,0,0,3.87-2c4-2.68,8.06-8,6.68-13.08A4.14,4.14,0,0,0,49.46,26.7Zm.87,8.17c-.63,4.53-4.65,7.57-8.59,9.21A40.67,40.67,0,0,1,27.93,46.7c-1.9.09-3.93.35-5.7-.55a3.53,3.53,0,0,1-1.65-2c-.13-.33-.79-2.21-1.39-2a51.83,51.83,0,0,0,6-3c2.36-1.3,4.65-2.73,6.93-4.17a129.61,129.61,0,0,0,12.22-8.46c.76-.62.81-.18,1-.06a24.12,24.12,0,0,1,3.48,2.9A6.48,6.48,0,0,1,50.33,34.87Zm.37.85a7.17,7.17,0,0,0-.57-5.32c-1-1.8-2.78-2.77-4.34-4l0,0a10.89,10.89,0,0,0,2.22.54,6.28,6.28,0,0,1,2,.63,3.58,3.58,0,0,1,1.38,1.88C52.21,31.57,51.67,33.71,50.7,35.72Z"/><path class="cls-184" d="M19.78,41.9h.12a3,3,0,0,0,.82-.37c.74-.34,1.43-.79,2.18-1.11s1.33-.38,2-.63a14.62,14.62,0,0,1,4.26-1.1c1.05-.09,2.11.48,3.13.63a3.85,3.85,0,0,0,2.43-.38c.49-.26,1.49-.83,1.67-1.38a4.23,4.23,0,0,1-1.36.51,3.55,3.55,0,0,1-2.51-.43c-1.49-1,.73-2.21,1.5-2.77,1.21-.9,2.5-1.72,3.65-2.7s2.22-1.71,3.18-2.69a4.81,4.81,0,0,0-.8,1.58c-.85,2.09.15,4.66-1.15,6.61A4.78,4.78,0,0,0,39.8,36c.44-1.28.18-2.69.52-4a8.78,8.78,0,0,1,1.2-2.73,17.44,17.44,0,0,1,2.12-2.09,7,7,0,0,1,.85-.78s.8-.54.77-.54L45,25.83s0,0,0,0a.87.87,0,0,0-.31.09,16.27,16.27,0,0,0-2,1.34c-1.29.89-2.55,1.8-3.84,2.69-2.28,1.58-4.63,3.05-7,4.53S27.29,37.38,25,38.77a29.11,29.11,0,0,1-6,3C19.23,41.75,19.52,41.88,19.78,41.9Z"/><path class="cls-92" d="M19.73,42.1c0-.43-.6-.43-.87-.4a4.54,4.54,0,0,0-1.56.55s0,0,0,0a4.08,4.08,0,0,0,1,.14,6.55,6.55,0,0,1-1,.5s0,0,0,0a2,2,0,0,0,1.3,0c.25-.05.92-.15.94-.5a.19.19,0,0,0,0-.08A.29.29,0,0,0,19.73,42.1Z"/><g class="cls-185"><path class="cls-186" d="M34.86,33.05c-.86.49-1.74.93-2.4,1.36-1.41.9-2.76,1.9-4.23,2.71-2,1.07-3.92,2.22-5.91,3.21a19.25,19.25,0,0,0-2.55,1.34c1.55.43,3.53-.43,5-.93a25.77,25.77,0,0,0,5.47-2.51,24.11,24.11,0,0,0,7.24-7.33A7.38,7.38,0,0,1,34.86,33.05Z"/></g><path class="cls-187" d="M47.78,44.66c-.08-.19.11-.58-.86-.45a126.92,126.92,0,0,1-14.84.85c-2.69,0-5.39.08-8.08-.05a50.71,50.71,0,0,1-6.64-.59c.63.11.21,2.06.15,2.4a3.59,3.59,0,0,0,.35,2.61c1,1.68,2.91,2.52,4.58,3.44a41,41,0,0,0,13.15,5c4.22.65,9.24.15,12.13-3.39A6.47,6.47,0,0,0,49.24,49,24.11,24.11,0,0,0,47.78,44.66Zm-14.49,2.4c.57-.25,1.24-.2,1.82-.44,0,0,0,0,0,0a4.31,4.31,0,0,0-.63.88,2.66,2.66,0,0,1-.91,1.06c-.39.19-1,.2-1.16-.3S32.81,47.27,33.29,47.06ZM37.75,50a5.63,5.63,0,0,1-4.18,1.49,6.86,6.86,0,0,1-4.13-1.69,18.93,18.93,0,0,1-1.51-2,7.6,7.6,0,0,0-2.22-1.49s0-.07,0-.06c1.61.09,2.53,1.11,3.57,2.19a6.85,6.85,0,0,0,4.09,2.26,4.94,4.94,0,0,0,4.7-1.83,11,11,0,0,1,3.1-3.32s0,0,0,0a13.05,13.05,0,0,0-2,2.36A10.32,10.32,0,0,1,37.75,50Z"/><path class="cls-85" d="M27.93,47.81a3.33,3.33,0,0,0-.52-.48l.8.82C28.12,48,28,47.92,27.93,47.81Z"/><g class="cls-188"><path class="cls-189" d="M49.24,49a24.11,24.11,0,0,0-1.46-4.29c-.07-.17.07-.51-.61-.48A8.06,8.06,0,0,1,47,51.45a9.9,9.9,0,0,1-6.55,4.75,32.29,32.29,0,0,1-7.85,1,27.68,27.68,0,0,0,3,.63c4.22.65,9.24.15,12.13-3.39A6.47,6.47,0,0,0,49.24,49Z"/></g><path class="cls-85" d="M26.46,46.37a6.34,6.34,0,0,1,2.85,2.08,6.85,6.85,0,0,0,4.09,2.26,6.56,6.56,0,0,0,.76,0,7.64,7.64,0,0,0,4-2.16l.4-.38a8.65,8.65,0,0,1,2.6-2.65s0,0,0,0a18.79,18.79,0,0,0-1.44,1.53A10.12,10.12,0,0,1,41.26,46a13.61,13.61,0,0,1,1.94-.89c.27-.2.56-.4.84-.58-4,.37-8,.46-12,.53-2.52,0-5,.07-7.57,0A8.26,8.26,0,0,1,26.46,46.37Zm6.83.69c.57-.25,1.24-.2,1.82-.44,0,0,0,0,0,0a4.31,4.31,0,0,0-.63.88,2.66,2.66,0,0,1-.91,1.06c-.39.19-1,.2-1.16-.3S32.81,47.27,33.29,47.06Z"/><path class="cls-88" d="M51.22,47.94a6.18,6.18,0,0,0-1.36-1.57,10.21,10.21,0,0,1-1.61-1.61.14.14,0,0,0,0,.06c.68,1.87,1.68,3.63,1.61,5.69a7.2,7.2,0,0,1-2.28,4.84c1.87-1.21,3.45-2.75,3.82-5.08A3.58,3.58,0,0,0,51.22,47.94Z"/><path class="cls-89" d="M51.24,49.84c-.14-2-2.18-3.18-2.92-5a.86.86,0,0,0-.07-.1.14.14,0,0,0,0,.06c.68,1.87,1.68,3.63,1.61,5.69a7.2,7.2,0,0,1-2.28,4.84,8.1,8.1,0,0,0,3.57-4.1A5.52,5.52,0,0,0,51.24,49.84Z"/><path class="cls-90" d="M41.21,45.58s0,0,0,0a11,11,0,0,0-3.1,3.32,4.94,4.94,0,0,1-4.7,1.83,6.85,6.85,0,0,1-4.09-2.26c-1-1.08-2-2.1-3.57-2.19,0,0-.06,0,0,.06a7.6,7.6,0,0,1,2.22,1.49,18.93,18.93,0,0,0,1.51,2,6.86,6.86,0,0,0,4.13,1.69A5.63,5.63,0,0,0,37.75,50a10.32,10.32,0,0,0,1.43-2A13.05,13.05,0,0,1,41.21,45.58Z"/><g class="cls-190"><rect class="cls-92" x="32.22" y="46.62" width="2.92" height="2.17"/><path class="cls-92" d="M33.79,47.73c-.54.36-1.15.38-1.37,0s0-.88.58-1.24,1.15-.37,1.37,0S34.33,47.38,33.79,47.73Z"/><path class="cls-93" d="M33.79,47.73c-.54.35-1.14.36-1.36,0s0-.88.58-1.23,1.13-.37,1.35,0S34.32,47.38,33.79,47.73Z"/><path class="cls-94" d="M33.78,47.72c-.52.35-1.12.36-1.34,0s0-.87.57-1.21,1.13-.37,1.34,0S34.31,47.37,33.78,47.72Z"/><path class="cls-95" d="M33.78,47.71c-.52.35-1.12.36-1.33,0s0-.86.56-1.2,1.12-.36,1.33,0S34.3,47.37,33.78,47.71Z"/><path class="cls-96" d="M33.77,47.71c-.51.34-1.1.35-1.31,0s0-.85.56-1.19,1.1-.36,1.31,0S34.29,47.37,33.77,47.71Z"/><path class="cls-97" d="M33.77,47.7c-.51.34-1.09.35-1.29,0s0-.84.54-1.17,1.09-.36,1.3,0S34.28,47.37,33.77,47.7Z"/><path class="cls-98" d="M33.77,47.69c-.51.33-1.08.35-1.28,0s0-.83.54-1.16,1.07-.35,1.28,0S34.27,47.36,33.77,47.69Z"/><path class="cls-99" d="M33.76,47.69c-.5.32-1.06.34-1.26,0s0-.81.53-1.14,1.06-.35,1.27,0S34.26,47.36,33.76,47.69Z"/><path class="cls-100" d="M33.76,47.68c-.49.32-1,.34-1.25,0s0-.81.53-1.14,1.05-.33,1.25,0S34.25,47.36,33.76,47.68Z"/><path class="cls-101" d="M33.75,47.67c-.48.32-1,.34-1.23,0s0-.8.52-1.12,1-.33,1.23,0S34.24,47.35,33.75,47.67Z"/><path class="cls-102" d="M33.75,47.67c-.48.31-1,.33-1.22,0s0-.79.51-1.1,1-.33,1.22,0S34.23,47.35,33.75,47.67Z"/><path class="cls-103" d="M33.74,47.66c-.47.31-1,.33-1.2,0s0-.78.51-1.1,1-.32,1.2,0S34.22,47.35,33.74,47.66Z"/><path class="cls-104" d="M33.74,47.65c-.47.31-1,.33-1.19,0s0-.77.5-1.08,1-.32,1.19,0S34.21,47.35,33.74,47.65Z"/><path class="cls-105" d="M33.74,47.65c-.47.3-1,.32-1.18,0s0-.76.5-1.06,1-.32,1.17,0S34.2,47.34,33.74,47.65Z"/><path class="cls-106" d="M33.73,47.64c-.45.3-1,.32-1.16,0s0-.76.49-1.06,1-.31,1.16,0S34.19,47.34,33.73,47.64Z"/><path class="cls-107" d="M33.73,47.63c-.45.3-1,.32-1.15,0s0-.74.49-1,1-.31,1.14,0S34.18,47.34,33.73,47.63Z"/><path class="cls-108" d="M33.72,47.63c-.44.29-.95.3-1.13,0s0-.73.48-1,1-.31,1.13,0S34.17,47.34,33.72,47.63Z"/><path class="cls-109" d="M33.72,47.62c-.44.29-.94.3-1.12,0s0-.72.48-1,.93-.3,1.11,0S34.16,47.33,33.72,47.62Z"/><path class="cls-110" d="M33.71,47.61c-.43.29-.92.3-1.1,0s0-.71.47-1,.92-.3,1.1,0S34.15,47.33,33.71,47.61Z"/><path class="cls-111" d="M33.71,47.61c-.43.28-.91.29-1.08,0s0-.7.45-1,.92-.3,1.09,0S34.14,47.33,33.71,47.61Z"/><path class="cls-112" d="M33.71,47.6c-.42.28-.9.29-1.07,0s0-.69.45-1,.9-.29,1.07,0S34.12,47.32,33.71,47.6Z"/><path class="cls-113" d="M33.7,47.59c-.41.28-.89.29-1.05,0s0-.69.44-1,.89-.29,1.06,0S34.11,47.32,33.7,47.59Z"/><path class="cls-114" d="M33.7,47.59c-.41.27-.88.28-1,0s0-.67.44-.94.87-.28,1,0S34.1,47.32,33.7,47.59Z"/><path class="cls-115" d="M33.69,47.58c-.4.27-.86.28-1,0s0-.66.43-.93.86-.27,1,0S34.09,47.32,33.69,47.58Z"/><path class="cls-116" d="M33.69,47.57c-.4.27-.85.28-1,0s0-.65.43-.91.84-.27,1,0S34.08,47.31,33.69,47.57Z"/><path class="cls-117" d="M33.68,47.57c-.39.26-.83.27-1,0s0-.65.42-.9.84-.27,1,0S34.07,47.31,33.68,47.57Z"/><path class="cls-118" d="M33.68,47.56c-.39.25-.82.27-1,0s0-.63.41-.89.83-.26,1,0S34.06,47.31,33.68,47.56Z"/><path class="cls-119" d="M33.67,47.55c-.37.25-.81.27-1,0s0-.62.41-.87.81-.26,1,0S34.05,47.31,33.67,47.55Z"/><path class="cls-120" d="M33.67,47.55c-.37.24-.8.26-1,0s0-.62.4-.86.8-.26,1,0S34,47.3,33.67,47.55Z"/><path class="cls-121" d="M33.67,47.54c-.37.24-.79.26-.94,0s0-.61.4-.85.78-.25.93,0S34,47.3,33.67,47.54Z"/><path class="cls-122" d="M33.66,47.54c-.36.23-.77.24-.92,0s0-.59.39-.83.77-.25.92,0S34,47.3,33.66,47.54Z"/><path class="cls-123" d="M33.66,47.53c-.36.23-.76.24-.91,0s0-.59.39-.82.76-.25.9,0S34,47.29,33.66,47.53Z"/><path class="cls-124" d="M33.65,47.52c-.35.23-.74.24-.89,0s0-.58.38-.81.75-.24.89,0S34,47.29,33.65,47.52Z"/><path class="cls-125" d="M33.65,47.52c-.34.22-.74.23-.87,0s0-.56.36-.79.74-.24.88,0S34,47.29,33.65,47.52Z"/><path class="cls-126" d="M33.64,47.51c-.33.22-.72.23-.85,0s0-.55.36-.77.72-.24.86,0S34,47.29,33.64,47.51Z"/><path class="cls-127" d="M33.64,47.5c-.33.22-.71.23-.84,0s0-.55.35-.77.71-.23.85,0S34,47.28,33.64,47.5Z"/><path class="cls-128" d="M33.64,47.5c-.33.21-.7.22-.83,0s0-.54.35-.75.69-.23.83,0S34,47.28,33.64,47.5Z"/><path class="cls-129" d="M33.63,47.49c-.32.21-.68.22-.81,0s0-.52.34-.73.69-.22.82,0S34,47.28,33.63,47.49Z"/><path class="cls-130" d="M33.63,47.48c-.32.21-.67.22-.8,0s0-.52.34-.73.67-.21.79,0S33.94,47.28,33.63,47.48Z"/><path class="cls-131" d="M33.62,47.48c-.31.2-.66.21-.78,0s0-.51.33-.71.66-.21.78,0S33.93,47.27,33.62,47.48Z"/><path class="cls-132" d="M33.62,47.47c-.3.2-.65.21-.77,0s0-.5.33-.69.64-.21.76,0S33.92,47.27,33.62,47.47Z"/><path class="cls-133" d="M33.61,47.46c-.29.2-.63.21-.75,0s0-.48.32-.68.63-.2.75,0S33.91,47.27,33.61,47.46Z"/><path class="cls-134" d="M33.61,47.46c-.29.19-.62.2-.74,0s0-.48.31-.67.62-.2.74,0S33.9,47.27,33.61,47.46Z"/><path class="cls-135" d="M33.6,47.45c-.28.19-.6.2-.72,0s0-.47.31-.65.61-.2.72,0S33.89,47.26,33.6,47.45Z"/><path class="cls-136" d="M33.6,47.44c-.28.19-.59.2-.71,0s0-.45.3-.64.6-.19.71,0S33.88,47.26,33.6,47.44Z"/><path class="cls-137" d="M33.6,47.44c-.28.18-.59.18-.7,0s0-.45.3-.63.58-.19.69,0S33.87,47.26,33.6,47.44Z"/><path class="cls-138" d="M33.59,47.43c-.26.17-.57.18-.68,0s0-.44.29-.61.57-.19.68,0S33.86,47.25,33.59,47.43Z"/><path class="cls-139" d="M33.59,47.42c-.26.17-.56.18-.66,0s0-.43.28-.6.55-.18.66,0S33.85,47.25,33.59,47.42Z"/><path class="cls-140" d="M33.58,47.42c-.25.16-.54.17-.64,0s0-.42.27-.59.54-.18.65,0S33.84,47.25,33.58,47.42Z"/><path class="cls-141" d="M33.58,47.41c-.25.16-.53.17-.63,0s0-.41.26-.57.54-.18.64,0S33.83,47.25,33.58,47.41Z"/><path class="cls-142" d="M33.57,47.4c-.24.16-.51.17-.61,0s0-.4.26-.56.52-.17.62,0S33.82,47.24,33.57,47.4Z"/><path class="cls-143" d="M33.57,47.4c-.24.15-.51.16-.6,0s0-.39.25-.54.51-.16.61,0S33.81,47.24,33.57,47.4Z"/><path class="cls-144" d="M33.57,47.39c-.24.15-.5.16-.59,0s0-.38.25-.53.49-.16.58,0S33.8,47.24,33.57,47.39Z"/><path class="cls-145" d="M33.56,47.38c-.22.15-.48.16-.57,0s0-.37.24-.52.48-.15.57,0S33.79,47.24,33.56,47.38Z"/><path class="cls-146" d="M33.56,47.38c-.22.14-.47.15-.56,0s0-.36.24-.5.46-.15.55,0S33.78,47.23,33.56,47.38Z"/><path class="cls-147" d="M33.55,47.37c-.21.14-.45.15-.54,0s0-.35.23-.49.46-.15.54,0S33.77,47.23,33.55,47.37Z"/><path class="cls-148" d="M33.55,47.36c-.21.14-.44.15-.53,0s0-.34.22-.48.45-.14.53,0S33.76,47.23,33.55,47.36Z"/><path class="cls-149" d="M33.54,47.36c-.2.13-.43.14-.51,0s0-.33.22-.46.43-.14.51,0S33.75,47.22,33.54,47.36Z"/><path class="cls-150" d="M33.54,47.35c-.2.13-.42.14-.5,0s0-.33.21-.45.42-.14.5,0S33.74,47.22,33.54,47.35Z"/><path class="cls-151" d="M33.54,47.34c-.19.13-.41.13-.49,0s0-.31.21-.44.4-.13.48,0S33.72,47.22,33.54,47.34Z"/><path class="cls-152" d="M33.53,47.34c-.18.12-.39.12-.47,0s0-.3.2-.42.39-.13.47,0S33.71,47.22,33.53,47.34Z"/><path class="cls-153" d="M33.53,47.33c-.18.12-.38.12-.45,0s0-.29.19-.41.38-.12.45,0S33.7,47.21,33.53,47.33Z"/><path class="cls-154" d="M33.52,47.32c-.17.12-.36.12-.43,0s0-.29.18-.4.37-.12.44,0S33.69,47.21,33.52,47.32Z"/><path class="cls-155" d="M33.52,47.32c-.17.11-.36.11-.42,0s0-.27.18-.38.35-.12.42,0S33.68,47.21,33.52,47.32Z"/><path class="cls-156" d="M33.51,47.31c-.16.11-.34.11-.4,0s0-.26.17-.37.34-.11.41,0S33.67,47.21,33.51,47.31Z"/><path class="cls-157" d="M33.51,47.3c-.15.11-.33.11-.39,0s0-.26.16-.36.33-.11.39,0S33.66,47.2,33.51,47.3Z"/><path class="cls-158" d="M33.5,47.3c-.14.1-.31.1-.37,0s0-.25.16-.34.31-.1.37,0S33.65,47.2,33.5,47.3Z"/><path class="cls-159" d="M33.5,47.29c-.14.09-.3.1-.36,0s0-.23.15-.33.31-.09.36,0S33.64,47.2,33.5,47.29Z"/><path class="cls-160" d="M33.5,47.28c-.14.09-.29.1-.35,0s0-.22.15-.31.29-.09.34,0S33.63,47.19,33.5,47.28Z"/><path class="cls-161" d="M33.49,47.28c-.13.08-.28.09-.33,0s0-.22.14-.3.28-.09.33,0S33.62,47.19,33.49,47.28Z"/><path class="cls-162" d="M33.49,47.27c-.13.08-.27.09-.32,0s0-.2.14-.29.26-.08.31,0S33.61,47.19,33.49,47.27Z"/><path class="cls-163" d="M33.48,47.26c-.11.08-.25.09-.3,0s0-.19.13-.27.25-.08.3,0S33.6,47.19,33.48,47.26Z"/><path class="cls-164" d="M33.48,47.26c-.11.07-.24.08-.29,0s0-.19.12-.26.24-.08.29,0S33.59,47.18,33.48,47.26Z"/><path class="cls-165" d="M33.47,47.25c-.1.07-.22.08-.27,0s0-.18.12-.25.23-.07.27,0S33.58,47.18,33.47,47.25Z"/><path class="cls-166" d="M33.47,47.25a.21.21,0,0,1-.26,0c0-.06,0-.16.11-.23s.22-.07.26,0S33.57,47.18,33.47,47.25Z"/><path class="cls-167" d="M33.47,47.24c-.1.06-.21.06-.24,0s0-.16.1-.22.2-.07.24,0S33.56,47.18,33.47,47.24Z"/><path class="cls-168" d="M33.46,47.23c-.09.06-.19.06-.22,0s0-.15.09-.21.19-.06.23,0S33.55,47.17,33.46,47.23Z"/><path class="cls-169" d="M33.46,47.23c-.09.05-.18.05-.21,0s0-.14.09-.19.17-.06.21,0S33.54,47.17,33.46,47.23Z"/><path class="cls-170" d="M33.45,47.22c-.07.05-.16.05-.19,0s0-.12.08-.17.16-.06.2,0S33.53,47.17,33.45,47.22Z"/><path class="cls-171" d="M33.45,47.21c-.07,0-.15,0-.18,0s0-.12.07-.17.16,0,.19,0A.14.14,0,0,1,33.45,47.21Z"/><path class="cls-172" d="M33.44,47.21a.12.12,0,0,1-.16,0s0-.11.07-.15.14,0,.16,0S33.51,47.16,33.44,47.21Z"/><path class="cls-173" d="M33.44,47.2c-.06,0-.13,0-.15,0s0-.09.06-.13.13,0,.15,0S33.5,47.16,33.44,47.2Z"/><path class="cls-174" d="M33.44,47.19c-.06,0-.12,0-.14,0s0-.09.06-.13.11,0,.13,0S33.49,47.16,33.44,47.19Z"/><path class="cls-175" d="M33.43,47.19s-.1,0-.12,0,0-.08,0-.11.1,0,.12,0S33.48,47.15,33.43,47.19Z"/><path class="cls-176" d="M33.43,47.18a.08.08,0,0,1-.11,0s0-.07,0-.09.09,0,.1,0S33.47,47.15,33.43,47.18Z"/><path class="cls-177" d="M33.42,47.17a.06.06,0,0,1-.09,0s0-.05,0-.08.08,0,.09,0S33.46,47.15,33.42,47.17Z"/><path class="cls-178" d="M33.42,47.17s-.07,0-.08,0,0-.05,0-.07.07,0,.08,0A.06.06,0,0,1,33.42,47.17Z"/><path class="cls-179" d="M33.41,47.16s0,0-.06,0,0,0,0,0a0,0,0,0,1,.06,0S33.44,47.14,33.41,47.16Z"/><path class="cls-180" d="M33.41,47.15s0,0,0,0a.08.08,0,0,1,0,0h0S33.43,47.14,33.41,47.15Z"/><path class="cls-181" d="M33.41,47.15h0l0,0h0A0,0,0,0,1,33.41,47.15Z"/><path class="cls-182" d="M33.4,47.14h0s0,0,0,0,0,0,0,0Z"/></g><path class="cls-191" d="M51.24,47c-1-1.19-2.4-1.88-3.38-3.08,0,0,0,0,0,0a.82.82,0,0,0-.31-.08,17.31,17.31,0,0,0-2.38.11c-1.56.09-3.11.21-4.67.3-2.77.16-5.54.19-8.31.24s-5.4.08-8.1,0a24.58,24.58,0,0,1-8-1,1.9,1.9,0,0,1,.48.68,1.43,1.43,0,0,1-.68,0,6.77,6.77,0,0,0,1.2.67c.47,1.34-.67,2.57-.26,3.87a6,6,0,0,0,2.55,3c.6.4,1.22.75,1.85,1.1A44,44,0,0,0,35,58.28a19.25,19.25,0,0,0,4.35.32c4.8-.21,11-2.62,12.5-7.68A4.13,4.13,0,0,0,51.24,47Zm-3.52,7.43c-2.89,3.54-7.91,4-12.13,3.39a41,41,0,0,1-13.15-5c-1.67-.92-3.54-1.76-4.58-3.44a3.59,3.59,0,0,1-.35-2.61c.06-.34.48-2.29-.15-2.4A50.71,50.71,0,0,0,24,45c2.69.13,5.39.1,8.08.05a126.92,126.92,0,0,0,14.84-.85c1-.13.78.26.86.45A24.11,24.11,0,0,1,49.24,49,6.47,6.47,0,0,1,47.72,54.43Zm-.12.92a7.2,7.2,0,0,0,2.28-4.84c.07-2.06-.93-3.82-1.61-5.69a.14.14,0,0,1,0-.06,10.21,10.21,0,0,0,1.61,1.61,6.18,6.18,0,0,1,1.36,1.57,3.58,3.58,0,0,1,.2,2.33C51.05,52.6,49.47,54.14,47.6,55.35Z"/><path class="cls-184" d="M18,44.52l.09.06a3,3,0,0,0,.89.12c.81.08,1.64.06,2.45.18s1.33.37,2,.5a14.39,14.39,0,0,1,4.2,1.28c.95.47,1.55,1.5,2.35,2.17a4.36,4.36,0,0,0,4.41.63A4.32,4.32,0,0,1,33,49.18a3.49,3.49,0,0,1-1.91-1.67c-.78-1.59,1.76-1.5,2.71-1.59,1.5-.13,3-.16,4.52-.4s2.79-.3,4.12-.64a5,5,0,0,0-1.51.93c-1.81,1.35-2.29,4-4.42,5a4.68,4.68,0,0,0,1.63-.91c1.05-.86,1.56-2.2,2.52-3.13a8.68,8.68,0,0,1,2.45-1.7,17.72,17.72,0,0,1,2.9-.68,7.28,7.28,0,0,1,1.13-.22c.06,0,1-.05.94-.06l-.2-.23s0,0,0,0a.82.82,0,0,0-.31-.08,17.31,17.31,0,0,0-2.38.11c-1.56.09-3.11.21-4.67.3-2.77.16-5.54.19-8.31.24s-5.4.08-8.1,0a29.2,29.2,0,0,1-6.65-.6C17.59,44.11,17.77,44.37,18,44.52Z"/><path class="cls-92" d="M17.84,44.67c.24-.35-.29-.68-.55-.8a4.38,4.38,0,0,0-1.6-.35s0,0,0,0a4,4,0,0,0,.77.64,6.92,6.92,0,0,1-1.11-.09s0,0,0,0a2.08,2.08,0,0,0,1.13.65c.24.08.86.34,1.06,0a.21.21,0,0,0,0-.06A.32.32,0,0,0,17.84,44.67Z"/><g class="cls-192"><path class="cls-193" d="M35.46,44.82c-1,0-2-.11-2.75-.09-1.68,0-3.35.19-5,.11-2.25-.11-4.51-.14-6.73-.34a19.93,19.93,0,0,0-2.87-.18c1.1,1.17,3.24,1.47,4.73,1.79a26.15,26.15,0,0,0,6,.71,24.15,24.15,0,0,0,10-2.48A7.3,7.3,0,0,1,35.46,44.82Z"/></g></g></g></svg>