<svg xmlns="http://www.w3.org/2000/svg" xmlns:xlink="http://www.w3.org/1999/xlink" viewBox="0 0 51.01 33.3"><defs><style>.cls-1{mask:url(#mask);filter:url(#luminosity-noclip-4);}.cls-2,.cls-4,.cls-6{mix-blend-mode:multiply;}.cls-2{fill:url(#linear-gradient);}.cls-3{mask:url(#mask-2);filter:url(#luminosity-noclip-5);}.cls-4{fill:url(#linear-gradient-2);}.cls-5{mask:url(#mask-3);filter:url(#luminosity-noclip-6);}.cls-6{fill:url(#linear-gradient-3);}.cls-7{fill:url(#linear-gradient-4);}.cls-11,.cls-12,.cls-17,.cls-60,.cls-8{fill:#290c03;}.cls-16,.cls-22,.cls-25,.cls-32,.cls-39,.cls-45,.cls-50,.cls-59,.cls-8{opacity:0.1;}.cls-9{fill:#bf8f1d;}.cls-10{fill:#8dc63f;}.cls-11{opacity:0.7;}.cls-12{opacity:0.3;}.cls-13{fill:url(#linear-gradient-5);}.cls-14{fill:#816c37;}.cls-15{fill:#4a3b07;}.cls-15,.cls-66{opacity:0.2;}.cls-16{fill:#fedc7a;}.cls-17,.cls-19,.cls-23,.cls-24,.cls-26,.cls-27,.cls-28,.cls-29,.cls-30,.cls-31,.cls-33,.cls-34,.cls-35,.cls-36,.cls-37,.cls-38,.cls-40,.cls-41,.cls-42,.cls-43,.cls-44,.cls-46,.cls-47,.cls-48,.cls-49,.cls-51,.cls-52,.cls-53,.cls-54,.cls-55,.cls-56,.cls-57,.cls-58{opacity:0.4;}.cls-18{fill:url(#radial-gradient);}.cls-19{fill:url(#radial-gradient-2);}.cls-20{fill:url(#linear-gradient-6);}.cls-21{fill:#fffccc;}.cls-22{fill:url(#linear-gradient-7);}.cls-23{fill:url(#linear-gradient-8);}.cls-24{fill:url(#linear-gradient-9);}.cls-25{fill:url(#linear-gradient-10);}.cls-26{fill:url(#linear-gradient-11);}.cls-27{fill:url(#linear-gradient-12);}.cls-29{fill:url(#linear-gradient-13);}.cls-30{fill:url(#linear-gradient-14);}.cls-31{fill:url(#linear-gradient-15);}.cls-32{fill:url(#linear-gradient-16);}.cls-33{fill:url(#linear-gradient-17);}.cls-34{fill:url(#linear-gradient-18);}.cls-35{fill:url(#linear-gradient-19);}.cls-36{fill:url(#linear-gradient-20);}.cls-37{fill:url(#linear-gradient-21);}.cls-38{fill:url(#linear-gradient-22);}.cls-39{fill:url(#linear-gradient-23);}.cls-40{fill:url(#linear-gradient-24);}.cls-41{fill:url(#linear-gradient-25);}.cls-42{fill:url(#linear-gradient-26);}.cls-43{fill:url(#linear-gradient-27);}.cls-44{fill:url(#linear-gradient-28);}.cls-46{fill:url(#linear-gradient-29);}.cls-47{fill:url(#linear-gradient-30);}.cls-48{fill:url(#linear-gradient-31);}.cls-49{fill:url(#linear-gradient-32);}.cls-50{fill:url(#linear-gradient-33);}.cls-51{fill:url(#linear-gradient-34);}.cls-52{fill:url(#linear-gradient-35);}.cls-53{fill:url(#linear-gradient-36);}.cls-54{fill:url(#linear-gradient-37);}.cls-55{fill:url(#linear-gradient-38);}.cls-56{fill:url(#linear-gradient-39);}.cls-57{fill:url(#linear-gradient-40);}.cls-58{fill:url(#linear-gradient-41);}.cls-59{fill:url(#linear-gradient-42);}.cls-61{mask:url(#mask-4);}.cls-62{opacity:0.5;fill:url(#linear-gradient-43);}.cls-63{mask:url(#mask-5);}.cls-64{opacity:0.6;fill:url(#linear-gradient-44);}.cls-65{mask:url(#mask-6);}.cls-66{fill:url(#linear-gradient-45);}.cls-67{filter:url(#luminosity-noclip-3);}.cls-68{filter:url(#luminosity-noclip-2);}.cls-69{filter:url(#luminosity-noclip);}</style><filter id="luminosity-noclip" x="43.28" y="-8086.6" width="6.19" height="32766" filterUnits="userSpaceOnUse" color-interpolation-filters="sRGB"><feFlood flood-color="#fff" result="bg"/><feBlend in="SourceGraphic" in2="bg"/></filter><mask id="mask" x="43.28" y="-8086.6" width="6.19" height="32766" maskUnits="userSpaceOnUse"><g class="cls-69"/></mask><linearGradient id="linear-gradient" x1="48.01" y1="18.48" x2="45.18" y2="26.27" gradientUnits="userSpaceOnUse"><stop offset="0"/><stop offset="0.5" stop-color="#fff"/><stop offset="1"/></linearGradient><filter id="luminosity-noclip-2" x="26.04" y="-8086.6" width="6" height="32766" filterUnits="userSpaceOnUse" color-interpolation-filters="sRGB"><feFlood flood-color="#fff" result="bg"/><feBlend in="SourceGraphic" in2="bg"/></filter><mask id="mask-2" x="26.04" y="-8086.6" width="6" height="32766" maskUnits="userSpaceOnUse"><g class="cls-68"/></mask><linearGradient id="linear-gradient-2" x1="15.1" y1="-579.01" x2="12.27" y2="-571.21" gradientTransform="matrix(-1, 0.02, -0.02, -1, 30.89, -555.87)" xlink:href="#linear-gradient"/><filter id="luminosity-noclip-3" x="39.22" y="-8086.6" width="11.37" height="32766" filterUnits="userSpaceOnUse" color-interpolation-filters="sRGB"><feFlood flood-color="#fff" result="bg"/><feBlend in="SourceGraphic" in2="bg"/></filter><mask id="mask-3" x="39.22" y="-8086.6" width="11.37" height="32766" maskUnits="userSpaceOnUse"><g class="cls-67"/></mask><linearGradient id="linear-gradient-3" x1="40.61" y1="33.75" x2="50.84" y2="26.04" xlink:href="#linear-gradient"/><linearGradient id="linear-gradient-4" x1="-4.63" y1="-3.29" x2="18.37" y2="12.6" gradientUnits="userSpaceOnUse"><stop offset="0" stop-color="#8d9308"/><stop offset="1" stop-color="#816c37"/></linearGradient><linearGradient id="linear-gradient-5" x1="13.08" y1="7.71" x2="38.6" y2="32.7" gradientUnits="userSpaceOnUse"><stop offset="0" stop-color="#816c37"/><stop offset="1" stop-color="#3e560a"/></linearGradient><radialGradient id="radial-gradient" cx="37.89" cy="20.65" r="11.13" gradientUnits="userSpaceOnUse"><stop offset="0" stop-color="#fff"/><stop offset="0.74" stop-color="#a3ea34"/><stop offset="1" stop-color="#8dc63f"/></radialGradient><radialGradient id="radial-gradient-2" cx="38.06" cy="20.71" r="9.39" gradientUnits="userSpaceOnUse"><stop offset="0" stop-color="#f9ed32"/><stop offset="0.31" stop-color="#e8e62a"/><stop offset="0.66" stop-color="#dbe125"/><stop offset="1" stop-color="#d7df23"/></radialGradient><linearGradient id="linear-gradient-6" x1="30.92" y1="15.89" x2="50.74" y2="30.01" xlink:href="#linear-gradient-5"/><linearGradient id="linear-gradient-7" x1="30.92" y1="12.84" x2="34.62" y2="16.81" gradientUnits="userSpaceOnUse"><stop offset="0" stop-color="#d7df23"/><stop offset="0.59" stop-color="#3a822b"/><stop offset="0.77" stop-color="#83ad27"/><stop offset="0.92" stop-color="#bfd124"/><stop offset="1" stop-color="#d7df23"/></linearGradient><linearGradient id="linear-gradient-8" x1="41.3" y1="24.52" x2="45.01" y2="28.5" xlink:href="#linear-gradient-7"/><linearGradient id="linear-gradient-9" x1="-20.76" y1="7.07" x2="-17.06" y2="11.05" gradientTransform="translate(48.89 3.61) rotate(-10)" xlink:href="#linear-gradient-7"/><linearGradient id="linear-gradient-10" x1="-10.38" y1="18.76" x2="-6.67" y2="22.73" gradientTransform="translate(48.89 3.61) rotate(-10)" xlink:href="#linear-gradient-7"/><linearGradient id="linear-gradient-11" x1="-71.54" y1="-7.37" x2="-67.83" y2="-3.39" gradientTransform="matrix(0.94, -0.34, 0.34, 0.94, 98.42, -1.83)" xlink:href="#linear-gradient-7"/><linearGradient id="linear-gradient-12" x1="-61.15" y1="4.32" x2="-57.45" y2="8.29" gradientTransform="matrix(0.94, -0.34, 0.34, 0.94, 98.42, -1.83)" xlink:href="#linear-gradient-7"/><linearGradient id="linear-gradient-13" x1="-118.8" y1="-29.95" x2="-115.1" y2="-25.98" gradientTransform="translate(145.83 -16.06) rotate(-30)" gradientUnits="userSpaceOnUse"><stop offset="0" stop-color="#8dc63f"/><stop offset="0.1" stop-color="#7aae3e"/><stop offset="0.3" stop-color="#4a723d"/><stop offset="0.5" stop-color="#17333b"/><stop offset="1" stop-color="#8dc63f"/></linearGradient><linearGradient id="linear-gradient-14" x1="-108.42" y1="-18.27" x2="-104.71" y2="-14.29" xlink:href="#linear-gradient-13"/><linearGradient id="linear-gradient-15" x1="-161.42" y1="-60.6" x2="-157.71" y2="-56.63" gradientTransform="matrix(0.77, -0.64, 0.64, 0.77, 190.16, -38.16)" xlink:href="#linear-gradient-13"/><linearGradient id="linear-gradient-16" x1="-151.03" y1="-48.92" x2="-147.33" y2="-44.94" gradientTransform="matrix(0.77, -0.64, 0.64, 0.77, 190.16, -38.16)" xlink:href="#linear-gradient-7"/><linearGradient id="linear-gradient-17" x1="-197.22" y1="-98.99" x2="-193.52" y2="-95.01" gradientTransform="matrix(0.64, -0.77, 0.77, 0.64, 230.06, -66.44)" xlink:href="#linear-gradient-7"/><linearGradient id="linear-gradient-18" x1="-186.84" y1="-87.3" x2="-183.13" y2="-83.33" gradientTransform="matrix(0.64, -0.77, 0.77, 0.64, 230.06, -66.44)" xlink:href="#linear-gradient-7"/><linearGradient id="linear-gradient-19" x1="-226.78" y1="-142.35" x2="-223.08" y2="-138.38" gradientTransform="translate(264.36 -102.39) rotate(-60)" xlink:href="#linear-gradient-13"/><linearGradient id="linear-gradient-20" x1="-216.39" y1="-130.67" x2="-212.69" y2="-126.69" gradientTransform="translate(264.36 -102.39) rotate(-60)" xlink:href="#linear-gradient-7"/><linearGradient id="linear-gradient-21" x1="-248.54" y1="-190.23" x2="-244.84" y2="-186.26" gradientTransform="matrix(0.34, -0.94, 0.94, 0.34, 291.99, -143.92)" xlink:href="#linear-gradient-7"/><linearGradient id="linear-gradient-22" x1="-238.16" y1="-178.54" x2="-234.45" y2="-174.57" gradientTransform="matrix(0.34, -0.94, 0.94, 0.34, 291.99, -143.92)" xlink:href="#linear-gradient-7"/><linearGradient id="linear-gradient-23" x1="-261.27" y1="-240.84" x2="-257.57" y2="-236.87" gradientTransform="translate(311.6 -189.29) rotate(-80)" xlink:href="#linear-gradient-7"/><linearGradient id="linear-gradient-24" x1="-250.89" y1="-229.16" x2="-247.18" y2="-225.18" gradientTransform="translate(311.6 -189.29) rotate(-80)" xlink:href="#linear-gradient-13"/><linearGradient id="linear-gradient-25" x1="-264.65" y1="-293.69" x2="-260.95" y2="-289.72" gradientTransform="translate(323.86 -236.99) rotate(-90)" xlink:href="#linear-gradient-13"/><linearGradient id="linear-gradient-26" x1="-254.26" y1="-282.01" x2="-250.56" y2="-278.03" gradientTransform="translate(323.86 -236.99) rotate(-90)" xlink:href="#linear-gradient-7"/><linearGradient id="linear-gradient-27" x1="-258.63" y1="-346.12" x2="-254.93" y2="-342.14" gradientTransform="translate(327.46 -285.88) rotate(-100)" xlink:href="#linear-gradient-13"/><linearGradient id="linear-gradient-28" x1="-248.25" y1="-334.43" x2="-244.54" y2="-330.46" gradientTransform="translate(327.46 -285.88) rotate(-100)" xlink:href="#linear-gradient-7"/><linearGradient id="linear-gradient-29" x1="-244.45" y1="-396.49" x2="-240.75" y2="-392.52" gradientTransform="matrix(-0.34, -0.94, 0.94, -0.34, 322.03, -335.41)" xlink:href="#linear-gradient-7"/><linearGradient id="linear-gradient-30" x1="-234.07" y1="-384.81" x2="-230.36" y2="-380.84" gradientTransform="matrix(-0.34, -0.94, 0.94, -0.34, 322.03, -335.41)" xlink:href="#linear-gradient-7"/><linearGradient id="linear-gradient-31" x1="-221.51" y1="-443.21" x2="-217.8" y2="-439.24" gradientTransform="translate(307.8 -382.81) rotate(-120)" xlink:href="#linear-gradient-7"/><linearGradient id="linear-gradient-32" x1="-211.12" y1="-431.52" x2="-207.41" y2="-427.55" gradientTransform="translate(307.8 -382.81) rotate(-120)" xlink:href="#linear-gradient-7"/><linearGradient id="linear-gradient-33" x1="-190.79" y1="-485.42" x2="-187.08" y2="-481.44" gradientTransform="matrix(-0.64, -0.77, 0.77, -0.64, 285.7, -427.15)" xlink:href="#linear-gradient-7"/><linearGradient id="linear-gradient-34" x1="-180.4" y1="-473.73" x2="-176.7" y2="-469.76" gradientTransform="matrix(-0.64, -0.77, 0.77, -0.64, 285.7, -427.15)" xlink:href="#linear-gradient-7"/><linearGradient id="linear-gradient-35" x1="-152.41" y1="-522.45" x2="-148.71" y2="-518.48" gradientTransform="matrix(-0.77, -0.64, 0.64, -0.77, 257.42, -467.05)" xlink:href="#linear-gradient-7"/><linearGradient id="linear-gradient-36" x1="-142.03" y1="-510.77" x2="-138.63" y2="-507.13" gradientTransform="matrix(-0.77, -0.64, 0.64, -0.77, 257.42, -467.05)" xlink:href="#linear-gradient-13"/><linearGradient id="linear-gradient-37" x1="-109.11" y1="-551.6" x2="-105.4" y2="-547.63" gradientTransform="translate(221.47 -501.35) rotate(-150)" xlink:href="#linear-gradient-7"/><linearGradient id="linear-gradient-38" x1="-98.72" y1="-539.91" x2="-95.02" y2="-535.94" gradientTransform="translate(221.47 -501.35) rotate(-150)" xlink:href="#linear-gradient-7"/><linearGradient id="linear-gradient-39" x1="-61.59" y1="-572.81" x2="-57.88" y2="-568.84" gradientTransform="matrix(-0.94, -0.34, 0.34, -0.94, 179.93, -528.98)" xlink:href="#linear-gradient-13"/><linearGradient id="linear-gradient-40" x1="-51.2" y1="-561.12" x2="-47.49" y2="-557.15" gradientTransform="matrix(-0.94, -0.34, 0.34, -0.94, 179.93, -528.98)" xlink:href="#linear-gradient-7"/><linearGradient id="linear-gradient-41" x1="-10.71" y1="-585.15" x2="-7.01" y2="-581.17" gradientTransform="translate(134.57 -548.59) rotate(-170)" xlink:href="#linear-gradient-7"/><linearGradient id="linear-gradient-42" x1="-0.33" y1="-573.46" x2="3.38" y2="-569.49" gradientTransform="translate(134.57 -548.59) rotate(-170)" xlink:href="#linear-gradient-7"/><filter id="luminosity-noclip-4" x="43.28" y="14.28" width="6.19" height="15.73" filterUnits="userSpaceOnUse" color-interpolation-filters="sRGB"><feFlood flood-color="#fff" result="bg"/><feBlend in="SourceGraphic" in2="bg"/></filter><mask id="mask-4" x="43.28" y="14.28" width="6.19" height="15.73" maskUnits="userSpaceOnUse"><g class="cls-1"><path class="cls-2" d="M46.62,14.28a0,0,0,0,0,0,0c2.24,2.06,2.52,5.29,1.74,8.11s-2.36,6.13-5,7.49c-.06,0,0,.13,0,.11,3.12-.91,5.41-4.38,5.94-7.42S49.31,16.12,46.62,14.28Z"/></g></mask><linearGradient id="linear-gradient-43" x1="48.01" y1="18.48" x2="45.18" y2="26.27" gradientUnits="userSpaceOnUse"><stop offset="0" stop-color="#fff"/><stop offset="0.5" stop-color="#fff"/><stop offset="1" stop-color="#fff"/></linearGradient><filter id="luminosity-noclip-5" x="26.04" y="11.7" width="6" height="15.79" filterUnits="userSpaceOnUse" color-interpolation-filters="sRGB"><feFlood flood-color="#fff" result="bg"/><feBlend in="SourceGraphic" in2="bg"/></filter><mask id="mask-5" x="26.04" y="11.7" width="6" height="15.79" maskUnits="userSpaceOnUse"><g class="cls-3"><path class="cls-4" d="M29,27.5s0,0,0,0a6,6,0,0,1-2-3.37c-.11-.84.6-2.43,1.76-2.1a8.6,8.6,0,0,0-2.1-.17c.07-1.19,2-1.51,2.88-1.53-.57-.24-3-.68-2.14-1.56.58-.61,2.39.06,3.12.05-.7-.24-3.18-1.09-2.52-2.1s2.92.1,3.83.1c-.45-1-1.94-1.26-2.39-2.24-.33-.72-.19-.46.33-1A9.67,9.67,0,0,1,32,11.81a.06.06,0,0,0,0-.11c-3.1,1-5.31,4.49-5.78,7.55S26.29,25.71,29,27.5Z"/></g></mask><linearGradient id="linear-gradient-44" x1="15.1" y1="-579.01" x2="12.27" y2="-571.21" gradientTransform="matrix(-1, 0.02, -0.02, -1, 30.89, -555.87)" xlink:href="#linear-gradient-43"/><filter id="luminosity-noclip-6" x="39.22" y="24.61" width="11.37" height="8.69" filterUnits="userSpaceOnUse" color-interpolation-filters="sRGB"><feFlood flood-color="#fff" result="bg"/><feBlend in="SourceGraphic" in2="bg"/></filter><mask id="mask-6" x="39.22" y="24.61" width="11.37" height="8.69" maskUnits="userSpaceOnUse"><g class="cls-5"><path class="cls-6" d="M50.58,24.61a21.11,21.11,0,0,1-4.11,5.19,11.7,11.7,0,0,1-7.2,3.29.06.06,0,0,0,0,.12,8.4,8.4,0,0,0,6-1.53,15.52,15.52,0,0,0,2.24-1.43,11.46,11.46,0,0,0,1.73-2.55C49.67,26.87,50.68,25.65,50.58,24.61Z"/></g></mask><linearGradient id="linear-gradient-45" x1="40.61" y1="33.75" x2="50.84" y2="26.04" gradientUnits="userSpaceOnUse"><stop offset="0" stop-color="#8dc63f"/><stop offset="0.5" stop-color="#d7df23"/><stop offset="1" stop-color="#8dc63f"/></linearGradient></defs><g id="Capa_2" data-name="Capa 2"><g id="Layer_4" data-name="Layer 4"><path class="cls-7" d="M5.79,10.16s0,0,0,.06c.26.92.43,2.81-.64,3.31h0c-.24,1.16-.62,2.15-2,1.9A1.57,1.57,0,0,1,2.24,15c1.84,4.85,7.87,8.42,15,8.42A19.06,19.06,0,0,0,24,22.24C28.4,20.58,31,18,31.85,14.48a11.63,11.63,0,0,0,.35-2.62A9.65,9.65,0,0,0,29.74,5C27,2.08,22.34.33,17.25.33c-7.14,0-13.17,3.56-15,8.41A2.36,2.36,0,0,1,3.4,8.25C4.66,8.06,5.46,9.08,5.79,10.16Z"/><path class="cls-8" d="M30.68,8.09c.21.1.33.43.43.63a.36.36,0,0,1,0,.09V8.75c0,.2.29.41.43.43.42-3.26-3.15-5.73-5.71-7L25.36,2a.06.06,0,0,1-.05.06,1.17,1.17,0,0,1-1.21-.39.07.07,0,0,1,0-.1,18.22,18.22,0,0,0-2.79-.48A4.37,4.37,0,0,0,19.51.94c.67.19,2.11,0,2.55.56-.54.34-1.35.16-1.94.42.5.14,1.09,0,1.6.11-.2.32-1.17.3-1.54.43.44.2,1,.06,1.43.3a2.65,2.65,0,0,1-1.33.33l.11,0,.52.13a0,0,0,0,1,0,.07c-.27.14-.82.15-1-.14a.08.08,0,0,1,0-.07,4.23,4.23,0,0,0-.74.13c.46.16,2.81.49,2.78,1.16s-1.85,0-2.26,0A2.06,2.06,0,0,0,20.83,5a.77.77,0,0,1-.29-.22s0-.1.07-.1c.41,0,.8.23,1.22.28a0,0,0,0,1,0,.07,1.48,1.48,0,0,1-.66.07c.41.13.77.28.89.59-.45.23-1,0-1.48.06,0,.68,1.27.53,1.52,1-.41.09-1.43-.07-1.61.43s.59.55.73.88c-.46.33-1.23,0-1.69.33s.13.72.52.92c.57.29.51.39.27.46l.21,0c.18,0,.37,0,.54,0s.1.06.11.13c0,.32-.5.2-1,0l.17.13a4.4,4.4,0,0,1,.67.54s0,0,0,0a4.69,4.69,0,0,1-.72-.33c-.25-.11-.52-.16-.76-.26l0,0c-.07.08-.08.18,0,.33.28.47,1.37.62,1.49,1.17s-.52.28-.88.27-1.38-.2-1.32.45c0,.39.68.45.65.84a4.94,4.94,0,0,1-1.1-.06l.22.16c.25.13.65.1.84.31a.12.12,0,0,1,0,.15c-.29.25-.78,0-1-.2a1.54,1.54,0,0,1-.33-.43.6.6,0,0,0-.47.17c-.25.31.19.69.26,1-.37,0-.73-.12-1.1-.07-.08.42.41.7.4,1.1-.18,0-.6-.07-.88,0a2.8,2.8,0,0,1,.24.33.75.75,0,0,0,.5.37A0,0,0,0,1,17,16a.66.66,0,0,1-.66-.1,1.16,1.16,0,0,1-.36-.34,5.68,5.68,0,0,0,.44.72c-.37.21-1.26-.25-1.5.07a.61.61,0,0,0,.23.11,3.05,3.05,0,0,1,.51.17s0,.06,0,.06a2.37,2.37,0,0,1-.8-.18c-.05.33.43.56.61.71-.28,0-1.19-.17-1.37,0a.17.17,0,0,0-.06.06c.17-.06.35.09.49.19a2.85,2.85,0,0,0,.53.38s0,0,0,0a.64.64,0,0,1-.39,0c.3.24.39.24,0,.34s-1.29-.33-1.84-.42c.09.45.76.6.83,1.06-.51.07-1-.36-1.48-.27.11.4.57.57.73.93-.45.11-1-.34-1.38-.46.09.47.79.59.91,1.06-.56,0-1-.46-1.57-.56-.09.35.33.68.46,1a1.42,1.42,0,0,1-.93-.37,4,4,0,0,0,.41.41,4.24,4.24,0,0,0,.84.68s0,0,0,0a1.06,1.06,0,0,1-1-.41,3.83,3.83,0,0,1-.39-.53,9.19,9.19,0,0,1-1-.52c.16.39.61.6.8.94-.8-.09-1.4-.91-2.1-1.22.16.51.79.72,1,1.19-.68,0-1.16-.88-1.76-1a5.41,5.41,0,0,0,1.09,1.1c-.56-.18-1-.71-1.54-.87A2.8,2.8,0,0,0,8,21s0,0,0,0,0-.07,0-.07a1.63,1.63,0,0,1,.66.26,3.69,3.69,0,0,0,.8.31s0,.05,0,.05a2.22,2.22,0,0,1-.68-.07,13.92,13.92,0,0,0,5.11,1.67,19.88,19.88,0,0,0,3.93.26c.59,0,1.18-.09,1.77-.15a7.48,7.48,0,0,0,1.5-.06c.35-.11.44-.39.74-.49.58-.2,1.73.07.88-1,.51-.23.72.25,1.15.31s.86-.25.56-.65c.47-.07,2-.16,1.2-1,.16.16.44.11.69,0a2,2,0,0,1-.31-.08,5.51,5.51,0,0,1-.77-.45s0-.05,0,0c.32.08.64.06,1,.17l.41.17c.21-.23.27-.49-.11-.6.31-.42,1.37,0,1.6-.45.15-.31-.33-.39-.54-.58.22,0,.72.15.89,0s-.09-.44-.28-.68a1.72,1.72,0,0,0,.64,0c-.08-.15-.11-.29-.29-.39a2.22,2.22,0,0,0,1-.13c-.05-.19-.22-.51-.14-.71s.33-.1.62-.25h0c-.05-.11-.1-.22-.16-.33s0-.09.06-.06a.85.85,0,0,1,.29.24c.3-.34-.09-.82.08-1.37,1,.93.17-1.3.91-1.22A14.36,14.36,0,0,0,31,11.55l.19.1A14.78,14.78,0,0,0,31,9.76c.07.13.26.26.34.36a3.57,3.57,0,0,0-.17-1,4,4,0,0,0-.3-.42c-.12-.16-.29-.34-.27-.55C30.6,8.09,30.65,8.08,30.68,8.09ZM31,7c.12.3.76,1.22.39,1.49a.09.09,0,0,1-.1,0c-.09-.08-.08-.12-.09-.23a2.78,2.78,0,0,0-.11-.5A6.24,6.24,0,0,1,30.93,7S31,6.92,31,7Zm-1.62-2.2.36.24a1,1,0,0,1,.3.28s0,.05,0,0a2.69,2.69,0,0,1-.33-.26l-.35-.25S29.34,4.72,29.38,4.75ZM29.17,5c.29.28.66.44,1,.71a2.27,2.27,0,0,1,.59.78c.07.15-.19.28-.27.13A7.67,7.67,0,0,0,29.16,5S29.16,5,29.17,5Zm-.27,6a1.06,1.06,0,0,1-.59-.67c0-.05.07-.1.1,0a1,1,0,0,0,.53.41.49.49,0,0,0,.34,0,.49.49,0,0,1,.21,0,0,0,0,0,1,0,0C29.63,11.12,29.09,11.1,28.9,11Zm.82,1.58h.08a.12.12,0,0,1,.1,0,.21.21,0,0,1,.05.17.25.25,0,0,1-.24.18c-.15,0-.22-.19-.29-.28-.18-.27-.3-.56-.46-.83,0,0,0,0,0,0A3.06,3.06,0,0,0,29.72,12.59Zm-7.15-1.23a2.07,2.07,0,0,1-.62-.52s0-.07.06,0a3.09,3.09,0,0,0,.79.34,1.79,1.79,0,0,1,.65.39s0,.14-.05.13A1.58,1.58,0,0,1,22.57,11.36Zm.52,1.52a0,0,0,0,1-.07,0,1.33,1.33,0,0,0-.17-.36c-.07-.09-.16-.15-.22-.24s.09-.27.2-.17A1.53,1.53,0,0,1,23.09,12.88ZM20,16.55a.88.88,0,0,1-.33-.64.05.05,0,0,1,.1,0,1,1,0,0,0,.48.58c.14.08.38.13.45.29s0,.06,0,.08C20.44,17,20.11,16.69,20,16.55Zm.2,1.29s0,.05,0,0c-.3-.32-.78-.45-1-.81a.09.09,0,0,1,0-.13C19.7,16.81,20,17.4,20.17,17.84Zm.33-2.23a3.05,3.05,0,0,1,.17.51,0,0,0,0,1-.05,0,1.39,1.39,0,0,0-.32-.32c-.11-.08-.27-.13-.35-.25a.16.16,0,0,1,.08-.23A.41.41,0,0,1,20.5,15.61Zm-.32-2.1a1,1,0,0,1-.59-.41,0,0,0,0,1,0-.06,4.2,4.2,0,0,0,.85.27c.2,0,.58.15.56.41a.09.09,0,0,1-.06.09c-.14,0-.22,0-.34-.1Zm.43.93a.05.05,0,0,1,.05-.07c.33.06.89.38.79.79a.14.14,0,0,1-.22.07c-.14-.11-.19-.29-.3-.42A2.83,2.83,0,0,1,20.61,14.44Zm.63-1c0-.06,0-.13.08-.09a2.31,2.31,0,0,1,.63.53c.16.17-.07.44-.23.27A3.06,3.06,0,0,1,21.24,13.42Zm7.92-5.07A1.77,1.77,0,0,0,28.9,8a1.9,1.9,0,0,1-.45-.53,0,0,0,0,1,.05,0c.22.25.55.4.78.64s.36.57,0,.6a.09.09,0,0,1-.1-.07C29.17,8.52,29.22,8.45,29.16,8.35Zm.05.74a.69.69,0,0,1,.23.37c0,.1-.06.2-.17.17a.07.07,0,0,1-.05-.08c0-.15-.28-.49-.38-.61s-.37-.41-.53-.63c0,0,0,0,0,0C28.62,8.56,28.94,8.79,29.21,9.09Zm-2-1.41a3.2,3.2,0,0,1-.28-.91h0a3.15,3.15,0,0,0,.54.94c.14.16.41.33.37.57a.09.09,0,0,1-.08.06C27.52,8.34,27.33,7.9,27.22,7.68Zm.41.79a.08.08,0,0,1,0,.08c-.33.22-.74-.33-.66-.64a.05.05,0,0,1,.08,0c.11.1.19.22.3.31S27.56,8.32,27.63,8.47Zm.18-.94a5.64,5.64,0,0,0-1-1.44s0,0,0,0A2.86,2.86,0,0,1,28.1,7.22a.32.32,0,0,1,.08.14C28.22,7.57,27.94,7.75,27.81,7.53ZM27,9.24a1.76,1.76,0,0,1,.79,0,.82.82,0,0,1,.54.36.07.07,0,0,1-.07.1,1.47,1.47,0,0,1-.55-.23A1.58,1.58,0,0,0,27,9.35.06.06,0,0,1,27,9.24Zm1.25-.05-.37-.41s0-.08.06,0c.2.15,1.12.6.8,1a.12.12,0,0,1-.2,0,1.45,1.45,0,0,0-.09-.22A1.16,1.16,0,0,0,28.2,9.19Zm.07-2.62c-.08,0-.12-.07-.18-.12a1,1,0,0,0-.22-.13,4.36,4.36,0,0,0-.51-.17.06.06,0,0,1,0-.11,1.57,1.57,0,0,1,.71.1c.14.08.34.21.27.4A.06.06,0,0,1,28.27,6.57ZM28,5.76c-.54.43-1.73,0-2-.61,0,0,0-.07.06-.05A4.58,4.58,0,0,0,28,5.61.09.09,0,0,1,28,5.76ZM25.57,8.68c-.17,0-.52-.08-.4-.32s.59-.19.8-.1a2,2,0,0,1,.69.52s0,.05,0,0A2,2,0,0,0,25.57,8.68Zm1,4.82a.44.44,0,0,1,.46.24.12.12,0,0,1,0,.13.1.1,0,0,1-.08,0,.13.13,0,0,1-.11-.08.36.36,0,0,0-.27-.26A0,0,0,0,1,26.53,13.5Zm-.28-3.86a7.26,7.26,0,0,1-.81-.49.05.05,0,0,1,0-.1,4.72,4.72,0,0,1,.92.3.16.16,0,0,1,.09.14c0,.07,0,.09-.07.14A.15.15,0,0,1,26.25,9.64Zm.07,2.93a1,1,0,0,1-.47-.31,1.62,1.62,0,0,1-.29-.43c0-.05.06-.09.1,0a1.87,1.87,0,0,0,.43.36c.12.09.27.18.31.33S26.38,12.57,26.32,12.57Zm-1.92.91c-.11.13-.25,0-.31-.11a1,1,0,0,1-.14-.52s0,0,0,0a1.08,1.08,0,0,0,.24.36l.11.11s.11.09,0,0A.08.08,0,0,1,24.4,13.48Zm-.89-3.32s0-.05,0-.05a1.37,1.37,0,0,1,.74.15c.22.11.46.19.68.3a.12.12,0,0,1,0,.23.7.7,0,0,1-.56-.2A1.55,1.55,0,0,0,23.51,10.16Zm.07-2.37c.06.07.11.1.19.08a.13.13,0,1,1,.05.25.27.27,0,0,1-.32-.29S23.55,7.75,23.58,7.79Zm-.45-1.37s0,0,0,0a7.2,7.2,0,0,1,.9.28,2,2,0,0,1,.73.24.09.09,0,0,1,0,.12C24.4,7.46,23.47,6.58,23.13,6.42Zm.95,2.5a1.68,1.68,0,0,0,.47.22c.13,0,.21,0,.28.15a.07.07,0,0,1,0,.1c-.2.17-.52-.08-.69-.2a3.75,3.75,0,0,0-.84-.54s0,0,0,0A1.93,1.93,0,0,1,24.08,8.92Zm-.5.28c-.06.24-.4,0-.52-.07s-.53-.36-.82-.51c0,0,0,0,0,0a2.12,2.12,0,0,1,.87.31C23.21,8.94,23.63,9,23.58,9.2Zm.81-.68a1.46,1.46,0,0,1-.46-.25s0-.09,0-.1c.42-.13.88.36,1.1.66,0,0,0,0,0,0A3.87,3.87,0,0,0,24.39,8.52Zm-.74-1.24s0,0,0,0c.28.12.56.27.86.37a6.83,6.83,0,0,1,.81.18.09.09,0,0,1,0,.15C24.81,8.27,24.05,7.59,23.65,7.28Zm2-1.35a0,0,0,1,1,0-.07l.47.21a1.92,1.92,0,0,1,.41.19.06.06,0,0,1,0,.1.84.84,0,0,1-.37-.14.4.4,0,0,1,.14.28.09.09,0,0,1-.08.09c-.18,0-.26-.11-.4-.21a1.74,1.74,0,0,0-.48-.22c-.05,0-.07-.11,0-.12a1.06,1.06,0,0,1,.56,0Zm.79,1a.16.16,0,0,1,0,.32c-.62,0-.9-.54-1.39-.8,0,0,0,0,0,0C25.54,6.5,25.89,7,26.41,6.93Zm-.1,1.26a3.26,3.26,0,0,0-1.13-.93,0,0,0,0,1,0-.06,2.62,2.62,0,0,1,1.27.7s.05,0,.08.08S26.43,8.34,26.31,8.19ZM27,4.85c-.19,0-.32-.28-.45-.42a5.27,5.27,0,0,1-.43-.51s0,0,0,0a2.26,2.26,0,0,1,.59.42c.12.13.33.28.34.47A.07.07,0,0,1,27,4.85Zm-.85-.47c.19.13.46.24.56.46,0,0,0,.1-.05.1-.26,0-.55-.2-.73-.36a1.44,1.44,0,0,1-.47-.67s0,0,0,0C25.72,4.06,25.92,4.23,26.15,4.38Zm-.28.54A.08.08,0,0,1,25.8,5a.66.66,0,0,1-.37-.19L25,4.5c-.19-.15-.47-.31-.56-.54h0a4.49,4.49,0,0,1,.76.38C25.44,4.45,25.86,4.64,25.87,4.92Zm-.64.56a.08.08,0,0,1,0,.12c-.27.22-.72,0-1-.17a.84.84,0,0,1-.43-.71s0,0,.05,0a1.47,1.47,0,0,0,.66.49A2.09,2.09,0,0,1,25.23,5.48ZM24,5.55s0,.07,0,.07a2.74,2.74,0,0,1-.4,0h0a1.54,1.54,0,0,0,.82.37c.09,0,.48.07.32.25s-.55,0-.71-.07a.79.79,0,0,1-.48-.51s0,0,0,0a1.86,1.86,0,0,1-1.22-.5A.06.06,0,0,1,22.39,5c.29.07.54.25.83.34S23.72,5.49,24,5.55Zm-1.6,0a.2.2,0,0,1,.07.06c0-.05,0,0,0,0s.11.15.18.22a2.41,2.41,0,0,0,.54.41s0,.06,0,0A4,4,0,0,1,22.45,6c-.13-.07-.36-.28-.19-.44A.09.09,0,0,1,22.37,5.51ZM22.32,7a.69.69,0,0,1,.61,0,.63.63,0,0,1,.34.41s0,0,0,0-.36-.07-.52-.11a.73.73,0,0,1-.42-.21A.11.11,0,0,1,22.32,7Zm.95,1.21s0,.08,0,.09a1.2,1.2,0,0,1-.62,0c-.26-.07-.52-.1-.78-.16,0,0,0-.07,0-.07a2,2,0,0,1,.72,0A2,2,0,0,1,23.27,8.19Zm-.49,1.12c.21.08,0,.39-.16.31a3.62,3.62,0,0,1-1.3-.69s0,0,0,0c.25.1.52.11.77.19A5.3,5.3,0,0,1,22.78,9.31Zm.09,1.25,0,0a.07.07,0,0,1-.06,0c-.11,0-.13-.05-.2-.12a.81.81,0,0,0-.29-.19c-.21-.08-.42-.11-.63-.18-.05,0-.05-.09,0-.09a1.45,1.45,0,0,1,1.18.39S22.88,10.52,22.87,10.56Zm-1.07,1s0,.06,0,.07c-.2.1-.45-.16-.58-.29s0-.07,0-.05a3.29,3.29,0,0,0,.39.17A.25.25,0,0,1,21.8,11.6Zm-.28,4.18a0,0,0,0,1,.09,0,1.22,1.22,0,0,0,.25.57c.1.12.29.23.25.4a.1.1,0,0,1-.08.08c-.2,0-.37-.29-.45-.44A.83.83,0,0,1,21.52,15.78Zm2.82,3.71s0,0-.05,0a1.26,1.26,0,0,0-.53-.54c-.19-.11-.4-.18-.58-.3a.06.06,0,0,1,0-.12C23.72,18.46,24.16,19.07,24.34,19.49Zm-.66-1.6a1.18,1.18,0,0,1-.22-.81h0c.15.19.27.41.44.59a1.33,1.33,0,0,0,.3.23.46.46,0,0,1,.2.19.08.08,0,0,1,0,.08C24.19,18.4,23.8,18.08,23.68,17.89Zm.08-1.5a1,1,0,0,1-.12-.45c0-.12,0-.23,0-.34s.09-.07.1,0a1.66,1.66,0,0,0,.32.56.87.87,0,0,0,.21.22c.08.05.17,0,.25.11a.22.22,0,0,1,0,.34C24.19,17,23.88,16.64,23.76,16.39Zm.66-1.4c-.09-.08-.22-.09-.29-.19a.09.09,0,0,1,0-.1c.14-.16.38,0,.44.15a1.31,1.31,0,0,1,.06.56s0,0,0,0S24.53,15.08,24.42,15Zm.22-2.69-.4-.77a0,0,0,0,1,.07,0c.15.21.29.43.45.65s.36.35.39.55a.08.08,0,0,1-.07.08C24.87,12.76,24.73,12.46,24.64,12.3ZM25,9.91s0-.13.07-.09.26,0,.38.09a1,1,0,0,1,.27.17c.17.16.33.33.49.5s0,.39-.19.27a3.2,3.2,0,0,1-.5-.54.78.78,0,0,0-.3-.24A.69.69,0,0,1,25,9.91Zm.62,3.71a4.36,4.36,0,0,0,.35.4.66.66,0,0,0,.19.15.8.8,0,0,1,.16.08.12.12,0,0,1,0,.17c-.15.2-.41,0-.52-.16a1.27,1.27,0,0,1-.28-.61C25.48,13.6,25.55,13.59,25.58,13.62Zm.09,1.51a4,4,0,0,0,.48.79,3.58,3.58,0,0,0,.28.37l.12.11h0a.09.09,0,0,1,.06,0c.06.12-.05.2-.16.19s-.26-.22-.33-.33a3,3,0,0,1-.51-1.17A0,0,0,0,1,25.67,15.13Zm.83.41a.07.07,0,0,1,0-.08c.16-.13.37,0,.44.2a.55.55,0,0,1,0,.5.06.06,0,0,1-.12,0,1,1,0,0,0-.16-.36C26.63,15.7,26.53,15.66,26.5,15.54Zm.07-5.1c-.05,0,0-.12.06-.09.41.23.82.48.91,1a.11.11,0,0,1-.06.12s-.07,0-.11,0a.13.13,0,0,1-.1-.09A1.72,1.72,0,0,0,26.57,10.44Zm.69,1.6a1.17,1.17,0,0,1,.8.26c.18.16.45.45.34.7a.08.08,0,0,1-.11,0c-.12-.07-.14-.17-.21-.28a1.13,1.13,0,0,0-.24-.29,3.45,3.45,0,0,0-.59-.41S27.25,12,27.26,12Zm2.17-4.31a0,0,0,0,1,0,0c.16,0,.37.22.46.34a.87.87,0,0,1,.2.58h0a.77.77,0,0,0-.35-.56C29.66,8,29.45,7.87,29.43,7.73Zm.22-.1c-.13-.1-.28-.09-.42-.17l-.31-.18a2.72,2.72,0,0,1-.58-.37,0,0,0,0,1,0,0,3.49,3.49,0,0,1,.83.21.77.77,0,0,1,.48.54S29.66,7.64,29.65,7.63Zm-.17-1.46a2.79,2.79,0,0,1-.28-.32.06.06,0,0,1,.07-.08,3.18,3.18,0,0,1,.4.23c.09.06.19.11.28.18h0a.07.07,0,0,1,.08,0v0a.11.11,0,0,1,0,.12v0a.14.14,0,0,1-.21.1A1.13,1.13,0,0,1,29.48,6.17Zm-.25.3c.08,0,.13,0,.21,0a.12.12,0,0,1,.13.14c0,.16-.2.21-.33.18a.76.76,0,0,1-.37-.29,7.08,7.08,0,0,1-.53-.88s0,0,0,0c.19.18.35.39.53.58A1.08,1.08,0,0,0,29.23,6.47Zm-.34-.81a.05.05,0,0,1-.08,0c-.17-.17-.19-.41-.43-.54a2.59,2.59,0,0,0-.66-.23,0,0,0,0,1,0-.07,1.18,1.18,0,0,1,.86.14C28.78,5.11,29.05,5.42,28.89,5.66Zm-1.35-1.9a5.61,5.61,0,0,1,.62.47,2.33,2.33,0,0,0,.38.26.66.66,0,0,1,.27.19.08.08,0,0,1,0,.12c-.25.08-.55-.18-.72-.34a4.27,4.27,0,0,1-.57-.63S27.5,3.74,27.54,3.76Zm-.13.65h0a.06.06,0,0,1,.06,0,.18.18,0,0,1-.22.19.59.59,0,0,1-.33-.23,1.19,1.19,0,0,1-.3-.88s.05,0,.05,0a1.46,1.46,0,0,0,.39.61.72.72,0,0,0,.24.22ZM26.05,2.65a2.08,2.08,0,0,1,.79.35c.17.14.42.37.37.61,0,0,0,.05-.06,0A.6.6,0,0,1,27,3.41a1.78,1.78,0,0,0-.29-.32A2.92,2.92,0,0,0,26,2.71S26,2.64,26.05,2.65Zm-1.37-.2a3.92,3.92,0,0,1,.84.43,3.12,3.12,0,0,1,.69.5.16.16,0,0,1,0,.15c.05-.11,0,.06,0,.09a.07.07,0,0,1-.06,0h0s0,0,0,0A.22.22,0,0,1,26,3.55l-.36-.32a4.35,4.35,0,0,0-.94-.72A0,0,0,1,1,24.68,2.45Zm-.47.74a.2.2,0,0,1,0-.08.19.19,0,0,1,.21,0,7.27,7.27,0,0,1,.95.7s0,.09-.05.07L24.3,3.38A.17.17,0,0,1,24.21,3.19Zm0,1.19a2.4,2.4,0,0,1,.6.63s0,.07-.05,0A2.16,2.16,0,0,0,24,4.49l-.4-.19a.3.3,0,0,1-.14-.1s-.06-.15,0-.1a.13.13,0,0,1,.14-.2c.06,0,.12,0,.18.05l.12.11Zm-1.59-3a1,1,0,0,1,.5,0c.16.05.29.15.45.2s0,0,0,0a1.26,1.26,0,0,1-1-.17A.08.08,0,0,1,22.66,1.34ZM22.53,2c.29.09.58,0,.87.08a1.56,1.56,0,0,1,.61.32.08.08,0,0,1-.05.14,1.46,1.46,0,0,1-.8-.09A7.07,7.07,0,0,1,22.53,2Zm1,.85a.08.08,0,0,1,0,.15,2.33,2.33,0,0,1-.82-.15,2,2,0,0,0-.86-.18h0C22,2,23.23,2.61,23.54,2.82Zm-2.09.31c.22-.14.63,0,.85.1s.45.15.68.21a.6.6,0,0,1,.36.16.07.07,0,0,1,0,.11c-.24.17-.69-.07-.92-.18s-.36-.17-.54-.24-.29-.07-.42-.13A0,0,0,0,1,21.45,3.13Zm.26.8s0-.05,0-.05a6,6,0,0,1,.82.27c.26.1.55.12.79.24a.09.09,0,0,1,0,.15C22.78,4.88,22.14,4.21,21.71,3.93Zm-.61,2a.07.07,0,0,1,0-.1,1.77,1.77,0,0,1,1.06.53.06.06,0,0,1,0,.1A1.43,1.43,0,0,1,21.1,5.93ZM21.05,7.1a2,2,0,0,1,1.6.51.1.1,0,0,1,0,.16c-.57.16-1.06-.46-1.56-.64C21,7.13,21,7.11,21.05,7.1Zm.06.62a1.63,1.63,0,0,1-.49-.14.07.07,0,0,1,0-.11c.32-.17.83.08,1.1.26a.07.07,0,0,1,0,.11A2.66,2.66,0,0,1,21.11,7.72Zm-1,.68a6.67,6.67,0,0,1,1-.13,1.3,1.3,0,0,1,.78.06.07.07,0,0,1,0,.1,1.11,1.11,0,0,1-.78.16,4.28,4.28,0,0,1-1-.11S20,8.41,20.07,8.4Zm.85,1.1c-.45-.2-.89-.44-1.32-.67a0,0,0,0,1,0-.07,3.05,3.05,0,0,1,1.54.4C21.36,9.31,21.13,9.59,20.92,9.5Zm-.14,1.62a1.1,1.1,0,0,1-.52-.22s0-.1,0-.1a3.57,3.57,0,0,1,.73.1,1.16,1.16,0,0,1,.49.36s0,.08-.06.05C21.27,11.14,21,11.17,20.78,11.12Zm0,1a1.07,1.07,0,0,0,.44.25,2.57,2.57,0,0,1,.4.07,0,0,0,0,1,0,.08.51.51,0,0,1-.49,0,1.14,1.14,0,0,1-.39-.33S20.8,12.08,20.82,12.1Zm-1.58.26s0,0,0,0c.51-.4,1.25-.05,1.76.21a.07.07,0,0,1,0,.13C20.37,13,19.84,12.14,19.24,12.36Zm-.23,2c.29,0,1.2,0,1.14.45,0,0,0,.07-.07.06a.62.62,0,0,1-.29-.12l-.32-.13a1,1,0,0,1-.48-.23S19,14.36,19,14.36Zm-1,0a.89.89,0,0,0,.63.33c.16,0,.43,0,.56.05a.06.06,0,0,1,0,.1c-.14.19-.56.07-.74,0a.75.75,0,0,1-.52-.47S18,14.33,18,14.36Zm.41,2.22c-.26.06-.67,0-.78-.28a0,0,0,0,1,0-.06.77.77,0,0,1,.36.12,2.54,2.54,0,0,0,.38.16S18.48,16.58,18.44,16.58Zm-1.07-1.69c.24.06.75.26.69.57a.11.11,0,0,1-.06.07c-.17,0-.26-.07-.37-.18a3.87,3.87,0,0,1-.32-.37S17.33,14.88,17.37,14.89Zm-.71,2.29c.43-.09.85.4.95.78,0,0,0,0,0,0a1.74,1.74,0,0,0-.5-.44c-.15-.1-.31-.15-.45-.26A.06.06,0,0,1,16.66,17.18Zm-1.3.28c.27-.26.8.1.93.36,0,0,0,.11-.06.08a1.36,1.36,0,0,0-.51-.18c-.13,0-.29,0-.36-.18A.06.06,0,0,1,15.36,17.46Zm-1,1.48a1.07,1.07,0,0,1,.38.29,2,2,0,0,0,.4.3s0,.1,0,.08a2.16,2.16,0,0,1-.48-.24.8.8,0,0,1-.33-.35A.06.06,0,0,1,14.39,18.94Zm-1.63-.08s0,0,0,0a2.45,2.45,0,0,1,1,.35.8.8,0,0,1,.4.55,0,0,0,0,1,0,0,1.51,1.51,0,0,1-.72-.32A7.1,7.1,0,0,1,12.76,18.86ZM9.52,21c-.06,0,0-.11,0-.12a1.13,1.13,0,0,1,1,.52s0,0,0,0a.71.71,0,0,1-.49-.1A3.11,3.11,0,0,1,9.52,21Zm2.2,1.6a4,4,0,0,1-1.39-.8s0-.13.05-.11a5.14,5.14,0,0,1,1.39.82C11.83,22.5,11.78,22.58,11.72,22.56Zm.83-.28c-.18,0-.41-.19-.53-.31a1.13,1.13,0,0,1-.34-.52s0-.06.05,0a1.25,1.25,0,0,0,.49.42c.13.08.35.17.4.33A.08.08,0,0,1,12.55,22.28Zm.95-1.18c-.29,0-.82,0-1-.29,0,0,0-.06,0-.07a.67.67,0,0,1,.41.09,1.68,1.68,0,0,0,.53.19C13.56,21,13.54,21.09,13.5,21.1Zm.95,1.54a.13.13,0,0,1-.16.06c-.12,0-.19-.15-.27-.24l-.21-.27s-.08-.08-.06-.14.32.05.38.09S14.54,22.44,14.45,22.64Zm.47-1.37c-.12,0-.4-.14-.24-.28.4-.38.89.14,1.1.47a0,0,0,0,1,0,.05A1,1,0,0,0,14.92,21.27Zm1.41,1.79c-.31.21-.7,0-.92-.27,0,0,0-.13.05-.11.29.1.59.16.86.27A.07.07,0,0,1,16.33,23.06Zm.55-2c-.22-.37-.14-.92-.48-1.22,0,0,0,0,0,0a.94.94,0,0,1,.45.41,6.13,6.13,0,0,0,.3.64C17.27,21.1,17,21.28,16.88,21.1Zm-.29-2.3a.09.09,0,0,1,.08-.12,2.5,2.5,0,0,1,.65.17,1.84,1.84,0,0,1,.56.18c.05,0,0,.09,0,.1C17.51,19.18,16.76,19.19,16.59,18.8Zm1.25,1.5s0,0,0,0,.22.29.35.42a.87.87,0,0,0,.21.17,1.08,1.08,0,0,1,.24.12.13.13,0,0,1-.05.22c-.21.07-.46-.15-.56-.32A2.17,2.17,0,0,1,17.84,20.3Zm1.31,2.57a1.13,1.13,0,0,1-.21-.12,1.24,1.24,0,0,0-.33-.09.9.9,0,0,1-.5-.21s0-.11,0-.12a1,1,0,0,1,.7.16c.13.07.34.2.33.37C19.17,22.87,19.16,22.87,19.15,22.87Zm.46-3.57c-.17.19-.35-.16-.4-.28a1.92,1.92,0,0,0-.55-.82s0,0,0,0a2.19,2.19,0,0,1,.7.5C19.48,18.82,19.78,19.11,19.61,19.3Zm.89,2.81c-.17.11-.45-.08-.58-.21a.65.65,0,0,1-.19-.49,0,0,0,0,1,.08,0,.66.66,0,0,0,.39.32c.14.06.29.06.37.22A.15.15,0,0,1,20.5,22.11Zm.69-1.25a.16.16,0,0,1-.13,0,2.06,2.06,0,0,1-.83-.57s0-.11.07-.07a3.68,3.68,0,0,0,.85.4.14.14,0,0,1,.07.11A.14.14,0,0,1,21.19,20.86Zm.84-.62a.12.12,0,0,1-.1,0,2.44,2.44,0,0,1-.71-.53s0-.11.07-.07a3,3,0,0,0,.73.43.08.08,0,0,1,.05.08S22.06,20.21,22,20.24Zm0-1.27a1.46,1.46,0,0,1-.73-1.23s0,0,0,0a.94.94,0,0,0,.46.61,1.44,1.44,0,0,1,.48.36A.19.19,0,0,1,22.05,19Zm.45-5.49a3.08,3.08,0,0,1,.78,1.61.15.15,0,0,1-.29.06,4.56,4.56,0,0,1-.2-.81,3.51,3.51,0,0,0-.33-.83S22.48,13.46,22.5,13.48Zm.21,2.64a1.93,1.93,0,0,0-.19-.38,0,0,0,0,1,.07-.06,1.06,1.06,0,0,1,.33.37c0,.11.14.29,0,.4a.08.08,0,0,1-.08,0C22.76,16.41,22.74,16.23,22.71,16.12Zm1,4.91a1.69,1.69,0,0,0-.34-.23c-.14-.06-.28-.1-.43-.15a.05.05,0,0,1,0-.1,1.73,1.73,0,0,1,.6,0c.16.06.35.16.36.35A.14.14,0,0,1,23.7,21Zm1.22-.3c-.36-.09-1-.16-1-.64a.14.14,0,0,1,.25-.09,2,2,0,0,0,.13.25.9.9,0,0,0,.2.19,3.47,3.47,0,0,0,.46.27S24.94,20.73,24.92,20.73Zm.67-1.84c-.13-.07-.19-.26-.27-.39a1.58,1.58,0,0,0-.34-.43A0,0,0,0,1,25,18a1,1,0,0,1,.41.36c.08.13.23.31.23.46S25.63,18.91,25.59,18.89Zm.05-1.6c-.14-.05-.24-.22-.33-.33s0-.09.07-.06.27.18.32.32A.05.05,0,0,1,25.64,17.29Zm1.18,1.88a2.67,2.67,0,0,0-.46-.37c-.11-.07-.25-.2-.25-.33a.08.08,0,0,1,.07-.08c.16,0,.29.15.37.26s.22.32.31.48S26.84,19.2,26.82,19.17Zm.64-.38a.57.57,0,0,1-.55-.28,2.44,2.44,0,0,1-.26-.57s0-.06.06,0a2.79,2.79,0,0,0,.39.38l.21.13a.82.82,0,0,1,.2.12A.16.16,0,0,1,27.46,18.79Zm.33-1a0,0,0,0,1-.08,0c-.09-.11-.09-.25-.2-.35a1.31,1.31,0,0,0-.35-.19s0-.06,0-.06C27.42,17.14,28.11,17.48,27.79,17.77ZM28,16.16a.15.15,0,0,1-.26,0,.66.66,0,0,1,0-.28c0-.13-.05-.25-.08-.38a5.06,5.06,0,0,0-.17-.67s0,0,0,0a5.63,5.63,0,0,1,.38.68C27.91,15.68,28.09,16,28,16.16Zm1.13.69a.17.17,0,0,1-.3.06c-.09-.1-.08-.27-.1-.4s0-.24,0-.36,0-.09.08,0a1,1,0,0,1,.25.31A.64.64,0,0,1,29.13,16.85Zm.05-1.69c-.23.15-.58-.2-.72-.35A2.53,2.53,0,0,1,28,14s0-.05,0,0a2.2,2.2,0,0,0,.86.77C29,14.81,29.41,15,29.18,15.16Zm.76-.71s0,0,0,0a.51.51,0,0,0-.3-.42c-.11-.07-.25-.12-.28-.26s0-.19.12-.19.34.23.41.4A.77.77,0,0,1,29.94,14.45Zm-.28-4.63s0-.09.06-.07a2.51,2.51,0,0,1,.46.32c.08.07.3.19.19.32S29.73,10,29.66,9.82Zm.78,1.12a.64.64,0,0,1,.32.29,0,0,0,0,1-.05,0,.41.41,0,0,0-.23-.13.15.15,0,0,1-.11,0,.09.09,0,0,1,.07-.15Zm.14,3.25s-.07.05-.08,0a.69.69,0,0,1,0-.2s0-.06.06,0S30.6,14.1,30.58,14.19ZM31,12.78c.08.2-.25.3-.32.1a5.2,5.2,0,0,1-.39-.91s0,0,.05,0A2.14,2.14,0,0,1,31,12.78Zm-.14-2.49s-.06.05-.07,0a2.63,2.63,0,0,0-.25-.6,4.42,4.42,0,0,0-.44-.53s0-.1.06-.06C30.4,9.4,30.83,9.84,30.81,10.29Zm-.59-3a1.57,1.57,0,0,0-.25-.2A.4.4,0,0,1,29.79,7a.13.13,0,0,1,0-.17c.21-.12.45.12.57.28a2.66,2.66,0,0,1,.3.64,0,0,0,0,1-.08,0A2.49,2.49,0,0,0,30.22,7.33Z"/><path class="cls-9" d="M2.68,14.7a1.14,1.14,0,0,0,1.84-.47,1.58,1.58,0,0,1,.33-.6c-.35.35-1.61-.14-2-.21s-1.21.08-1.49-.18A15.12,15.12,0,0,0,2.68,14.7Z"/><path class="cls-9" d="M4.67,11a6.48,6.48,0,0,1-.89.67,4,4,0,0,1-1.95.62,3.4,3.4,0,0,0,3,.82c.9-.27.64-1.81.51-2.72H5.3C5.07,10.59,4.84,10.88,4.67,11Z"/><path class="cls-10" d="M1,12.2a.23.23,0,0,1,.19-.38A4,4,0,0,0,4.39,10.7l.39-.29a6.66,6.66,0,0,0-2.12,1.05A2.58,2.58,0,0,1,1,11.67a2.12,2.12,0,0,1-.5.49,2.44,2.44,0,0,1,.62.62,2,2,0,0,1,.48,0C1.41,12.57,1.22,12.39,1,12.2Z"/><path class="cls-11" d="M1,12.2a.23.23,0,0,1,.19-.38A4,4,0,0,0,4.39,10.7l.39-.29a6.66,6.66,0,0,0-2.12,1.05A2.58,2.58,0,0,1,1,11.67a2.12,2.12,0,0,1-.5.49,2.44,2.44,0,0,1,.62.62,2,2,0,0,1,.48,0C1.41,12.57,1.22,12.39,1,12.2Z"/><path class="cls-9" d="M2.49,11.11c.35-.21.67-.45,1-.65S4.9,10,5.12,9.64c.13-.2,0-.43-.52-.73a1.81,1.81,0,0,0-2.46.51c-.43.66-.5,1.36-1,1.88A2.07,2.07,0,0,0,2.49,11.11Z"/><path class="cls-12" d="M2,13.79l-.18,0a4.5,4.5,0,0,0,.87.93,1.14,1.14,0,0,0,1.84-.47c0-.06.05-.12.07-.17A15.19,15.19,0,0,1,2,13.79Z"/><path class="cls-12" d="M2.15,12.56a3.25,3.25,0,0,0,2.71.58c.82-.25.68-1.57.54-2.49C4.48,11.58,3.4,12.59,2.15,12.56Z"/><path class="cls-12" d="M4.6,8.91a2,2,0,0,0-1.54-.19,6.13,6.13,0,0,0-1.3,1.93,2.85,2.85,0,0,1-.41.66,1.79,1.79,0,0,0,1.14-.2c.35-.21.67-.45,1-.65S4.9,10,5.12,9.64C5.25,9.44,5.14,9.21,4.6,8.91Z"/><path class="cls-13" d="M32.42,14.62a12.21,12.21,0,0,0,.37-2.75A10.29,10.29,0,0,0,30.17,4.6C27.33,1.56,22.63,0,17.38,0,9.2,0,2.45,4.32,1.38,10.19A4.47,4.47,0,0,1,2,9a1.54,1.54,0,0,1,.25-.26C4.08,3.89,10.11.33,17.25.33,22.34.33,27,2.08,29.74,5a9.65,9.65,0,0,1,2.46,6.85,11.63,11.63,0,0,1-.35,2.62C31,18,28.4,20.58,24,22.24a19.06,19.06,0,0,1-6.77,1.14c-7.14,0-13.17-3.57-15-8.42a7.93,7.93,0,0,1-.73-.88C2.9,19.69,9.36,24,17.25,24a19.57,19.57,0,0,0,7-1.17C28.8,21.06,31.48,18.39,32.42,14.62Z"/><path class="cls-14" d="M2.24,15a1.57,1.57,0,0,0,.87.48c1.41.25,1.79-.74,2-1.9h0c1.07-.5.9-2.39.64-3.31,0,0,0,0,0-.06C5.46,9.08,4.66,8.06,3.4,8.25a2.36,2.36,0,0,0-1.16.49A1.54,1.54,0,0,0,2,9a4.47,4.47,0,0,0-.61,1.19,2.13,2.13,0,0,1-.84,1.1.2.2,0,0,0,0,.34A3.08,3.08,0,0,1,.1,12a.2.2,0,0,0,0,.33c.18.16.37.38.58.55-.24,0-.19.36,0,.45a2.56,2.56,0,0,1,.86.78A7.93,7.93,0,0,0,2.24,15Zm3.13-4.54c.13.91.39,2.45-.51,2.72a3.4,3.4,0,0,1-3-.82,4,4,0,0,0,1.95-.62A6.48,6.48,0,0,0,4.67,11c.17-.15.4-.44.63-.62Zm-3.23-1A1.81,1.81,0,0,1,4.6,8.91c.54.3.65.53.52.73-.22.37-1.24.6-1.61.82s-.67.44-1,.65a2.07,2.07,0,0,1-1.35.19C1.64,10.78,1.71,10.08,2.14,9.42Zm-1,3.36a2.44,2.44,0,0,0-.62-.62,2.12,2.12,0,0,0,.5-.49,2.58,2.58,0,0,0,1.66-.21,6.66,6.66,0,0,1,2.12-1.05l-.39.29a4,4,0,0,1-3.16,1.12A.23.23,0,0,0,1,12.2c.18.19.37.37.56.54A2,2,0,0,0,1.12,12.78Zm1.72.64c.4.07,1.66.56,2,.21a1.58,1.58,0,0,0-.33.6,1.14,1.14,0,0,1-1.84.47,15.12,15.12,0,0,1-1.33-1.46C1.63,13.5,2.48,13.36,2.84,13.42Z"/><path class="cls-15" d="M17.57,1.32c0,.07,0,.19.09.19.4,0,.78-.07,1.18-.09A7,7,0,0,0,20,1.35s0,0,0,0C19.29,1.17,18,.44,17.57,1.32Z"/><path class="cls-15" d="M18.88,2a1.35,1.35,0,0,0-.71.16.08.08,0,0,0,0,.13.46.46,0,0,0,.45.12c.21,0,.59-.23.79-.13,0,0,0,0,0,0A.75.75,0,0,0,18.88,2Z"/><path class="cls-15" d="M16.87,2.47l-.34-.11a.69.69,0,0,0-.37-.08.07.07,0,0,0,0,.09.57.57,0,0,0,.75.14A0,0,0,0,0,16.87,2.47Z"/><path class="cls-15" d="M16.24,1.83a.72.72,0,0,0-.59,0c-.08,0,0,.14,0,.13a.93.93,0,0,1,.44.06C16.26,2.1,16.36,1.89,16.24,1.83Z"/><path class="cls-15" d="M16.58,1.29a1.76,1.76,0,0,0-.88-.05s-.09.1,0,.13a1,1,0,0,0,.91,0S16.64,1.3,16.58,1.29Z"/><path class="cls-15" d="M13.88,1.6c-.22-.15-.68.09-.89.18s-.53.31-.32.55c0,0,.08,0,.06,0-.2-.37,1-.41,1.17-.6A.07.07,0,0,0,13.88,1.6Z"/><path class="cls-15" d="M17.31,3.63a1.16,1.16,0,0,0-.68-.46,1.12,1.12,0,0,0-.86.11c-.06,0,0,.11,0,.11a1.25,1.25,0,0,1,.77.21.86.86,0,0,0,.65.18A.11.11,0,0,0,17.31,3.63Z"/><path class="cls-15" d="M19,4.22a.92.92,0,0,0-.37,0l-.51,0c-.1,0-.08.16,0,.17.28,0,.72.17.9-.12A.08.08,0,0,0,19,4.22Z"/><path class="cls-15" d="M20.1,3.87c-.2-.09-.41-.13-.61-.24s-.34-.23-.54-.2a.1.1,0,0,0-.07.14,1.23,1.23,0,0,0,.55.36.78.78,0,0,0,.68.09A.08.08,0,0,0,20.1,3.87Z"/><path class="cls-15" d="M18.36,2.91a1,1,0,0,0-.74.1.07.07,0,0,0,0,.13,1.15,1.15,0,0,0,.32,0l.39-.05C18.47,3.06,18.45,2.92,18.36,2.91Z"/><path class="cls-15" d="M16.17,5.8c-.48-.46-1.37-.2-2-.33a0,0,0,0,0,0,.08,5.31,5.31,0,0,0,.88.19,9.35,9.35,0,0,0,1,.2C16.16,5.94,16.22,5.85,16.17,5.8Z"/><path class="cls-15" d="M20.43,5.47s0,0,0,0-.21-.13-.27-.16a1.72,1.72,0,0,0-.45-.16.71.71,0,0,0-.73.2.1.1,0,0,0,.08.15l.85,0a1.35,1.35,0,0,1,.4.08.12.12,0,0,0,.14,0s0,0,0,0Z"/><path class="cls-15" d="M18.7,6.16a.87.87,0,0,0-.49-.47.82.82,0,0,0-.7.07.11.11,0,0,0,0,.2L18,6a.76.76,0,0,1,.53.23A.08.08,0,0,0,18.7,6.16Z"/><path class="cls-15" d="M18.39,8.39a.89.89,0,0,0-.84,0,.08.08,0,0,0,0,.15c.22.07.46,0,.68.07a.82.82,0,0,1,.47.48s.06,0,.05,0A1,1,0,0,0,18.39,8.39Z"/><path class="cls-15" d="M7,4.93A1.87,1.87,0,0,0,5.57,6.19s0,0,0,0a5.3,5.3,0,0,1,.77-.54A2.55,2.55,0,0,0,7,5.06C7.09,5,7,4.92,7,4.93Z"/><path class="cls-15" d="M9.16,3.17a1.4,1.4,0,0,0-1.45,1s0,.06,0,0a1.9,1.9,0,0,1,.62-.61c.25-.16.54-.2.79-.35A.05.05,0,0,0,9.16,3.17Z"/><path class="cls-15" d="M11.38,3.4c-.18-.15-.47-.07-.69,0a4.78,4.78,0,0,0-.75.27,0,0,0,0,0,0,.06l.76,0c.23,0,.5.06.68-.11A.1.1,0,0,0,11.38,3.4Z"/><path class="cls-15" d="M11.8,2.18a1.18,1.18,0,0,0-1.17.22s0,.13,0,.13a2,2,0,0,0,.49-.11q.31-.09.63-.15A0,0,0,0,0,11.8,2.18Z"/><path class="cls-15" d="M14.26,3a2.17,2.17,0,0,0-.36,0c-.15,0-.28-.07-.43-.08a1.19,1.19,0,0,0-.78.32s0,0,0,0a1.2,1.2,0,0,1,.72-.14,2.09,2.09,0,0,1,.4.19.35.35,0,0,0,.49-.18A.1.1,0,0,0,14.26,3Z"/><path class="cls-15" d="M14.8,2c-.24-.13-.56.1-.66.32,0,0,0,.07.07.06.2-.07.49,0,.63-.19A.14.14,0,0,0,14.8,2Z"/><path class="cls-15" d="M15.35.87a.93.93,0,0,0-.24,0C15,.84,15,1,15.1,1a.74.74,0,0,0,.26,0A.06.06,0,0,0,15.35.87Z"/><path class="cls-15" d="M14,4.88a1.69,1.69,0,0,0-.92,0,8.48,8.48,0,0,0-1.11.25s0,.06,0,.05a4.1,4.1,0,0,1,1.26,0A.92.92,0,0,0,14,5.06.1.1,0,0,0,14,4.88Z"/><path class="cls-15" d="M16,4.18c-.26-.25-.77,0-1,.09a.11.11,0,0,0,.06.2,5.25,5.25,0,0,1,.56,0A.58.58,0,0,0,16,4.33.12.12,0,0,0,16,4.18Z"/><path class="cls-15" d="M17.1,4.38A.12.12,0,0,0,17,4.29l-.14,0a.06.06,0,0,0-.07.08l0,.05h0c-.07,0-.06.13,0,.15a.29.29,0,0,0,.16,0,.12.12,0,0,0,.1-.14Z"/><path class="cls-15" d="M13.43,4.5a.74.74,0,0,0-.54-.34c-.18,0-.56-.06-.68.12a.11.11,0,0,0,0,.12c.13.08.34,0,.49,0a1.17,1.17,0,0,1,.64.13S13.45,4.54,13.43,4.5Z"/><path class="cls-15" d="M10.78,5.57c-.39.12-1-.13-1.23.28A.07.07,0,0,0,9.6,6a1.77,1.77,0,0,0,1.23-.29S10.83,5.56,10.78,5.57Z"/><path class="cls-15" d="M8.12,6.29a.5.5,0,0,0-.35.14,1,1,0,0,0-.29.36.07.07,0,0,0,.08.09c.24,0,.42-.33.6-.48C8.19,6.37,8.18,6.29,8.12,6.29Z"/><path class="cls-15" d="M6.33,7.92s-.09,0-.12,0,0,0,0,0,.13.07.2,0S6.38,7.88,6.33,7.92Z"/><path class="cls-15" d="M9.52,4.79a7,7,0,0,0-1,.29,1.51,1.51,0,0,0-.78.45,0,0,0,0,0,0,0,2.64,2.64,0,0,1,1.08-.3.91.91,0,0,0,.72-.38A.07.07,0,0,0,9.52,4.79Z"/><path class="cls-15" d="M7.05,6.17a.8.8,0,0,0-.59.2,3.77,3.77,0,0,0-.57.56S5.91,7,6,7c.46-.08.64-.68,1.1-.8C7.08,6.22,7.08,6.18,7.05,6.17Z"/><path class="cls-15" d="M4.73,7.2a3.6,3.6,0,0,1-.5.29c-.11,0-.32.12-.21.27s.36,0,.44-.08a1,1,0,0,0,.33-.44S4.76,7.18,4.73,7.2Z"/><path class="cls-15" d="M4.69,6c-.29.27-.72.62-.57,1.07a0,0,0,0,0,0,0c-.1-.48.45-.63.59-1A0,0,0,0,0,4.69,6Z"/><path class="cls-15" d="M11.42,6.57c-.46-.3-.95.08-1.3.37a0,0,0,0,0,0,0c.4-.21.9,0,1.28-.26C11.48,6.7,11.47,6.61,11.42,6.57Z"/><path class="cls-15" d="M13.39,6.52a1.44,1.44,0,0,0-.31-.19c-.14-.08-.25-.2-.4-.27s-.59,0-.9.05c0,0,0,0,0,0a1.62,1.62,0,0,1,.62.1,1.81,1.81,0,0,1,.32.3c.17.18.46.34.66.13A.11.11,0,0,0,13.39,6.52Z"/><path class="cls-15" d="M15.53,6.75a2.54,2.54,0,0,0-1-.16.06.06,0,0,0,0,.12c.29.19.74.43,1,.16A.08.08,0,0,0,15.53,6.75Z"/><path class="cls-15" d="M17.08,6.69a.82.82,0,0,0-.25.16,1.27,1.27,0,0,1-.36.2.07.07,0,0,0,0,.13c.22,0,.6-.13.67-.38A.08.08,0,0,0,17.08,6.69Z"/><path class="cls-15" d="M17.61,6.15a.77.77,0,0,0-.4-.06,1.46,1.46,0,0,1-.61.13c-.05,0-.08.07,0,.1.22.12.42,0,.66,0s.34.19.46.3a.69.69,0,0,0,.37.21c.05,0,.12,0,.1-.08A.93.93,0,0,0,17.61,6.15Z"/><path class="cls-15" d="M19.3,7.27c-.2-.08-.48.07-.66.16s0,.06,0,.07c.2,0,.55.12.67-.11A.08.08,0,0,0,19.3,7.27Z"/><path class="cls-15" d="M20,6.51s.12.1.17,0a.14.14,0,0,0,0-.12C20.17,6.2,19.79,6.35,20,6.51Z"/><path class="cls-15" d="M13.56,7.47A1.37,1.37,0,0,0,12,7.54a.1.1,0,0,0,.06.17,2.5,2.5,0,0,0,.72-.09q.38-.06.75-.09S13.58,7.48,13.56,7.47Z"/><path class="cls-15" d="M10.42,8.21a1.76,1.76,0,0,0-.37.17,0,0,0,0,0,0,.08,2.35,2.35,0,0,0,.4-.14C10.55,8.29,10.49,8.18,10.42,8.21Z"/><path class="cls-15" d="M8.32,8A.28.28,0,0,0,8,7.88,0,0,0,0,0,8,8a.47.47,0,0,1,.22.17C8.27,8.19,8.38,8.1,8.32,8Z"/><path class="cls-15" d="M8.41,9.79a5.78,5.78,0,0,1-1.15-.32,5.06,5.06,0,0,0-1-.46s0,0,0,0c.59.39,1.36,1.36,2.15.9A.08.08,0,0,0,8.41,9.79Z"/><path class="cls-15" d="M9.85,9.25a.05.05,0,0,0,0,.09,4.52,4.52,0,0,1,.5.23c.18.12.27.25.5.23a.09.09,0,0,0,.07-.08C10.9,9.24,10.22,9.06,9.85,9.25Z"/><path class="cls-15" d="M12.28,10a1,1,0,0,1-.53-.33.11.11,0,0,0-.17.12.72.72,0,0,0,.68.46C12.4,10.25,12.39,10.05,12.28,10Z"/><path class="cls-15" d="M13.92,8.88c-.09-.19-.36-.28-.54-.33a.94.94,0,0,0-.7.08c-.06,0,0,.13,0,.11a.85.85,0,0,1,.66.07c.15.06.3.19.47.18S14,8.94,13.92,8.88Z"/><path class="cls-15" d="M16.23,9.89a10.88,10.88,0,0,1-1.1-.25c-.08,0-.13.09-.06.14.3.24.83.49,1.18.21A.05.05,0,0,0,16.23,9.89Z"/><path class="cls-15" d="M16.71,8.88a1.5,1.5,0,0,0-1.15-.37s0,0,0,0a1.67,1.67,0,0,1,.62.2,1,1,0,0,0,.49.21S16.74,8.91,16.71,8.88Z"/><path class="cls-15" d="M18.42,9.62c-.08-.11-.26-.09-.38-.1a1.08,1.08,0,0,1-.56-.13.07.07,0,0,0-.1.1.87.87,0,0,0,.49.3c.17,0,.44.09.56-.07A.09.09,0,0,0,18.42,9.62Z"/><path class="cls-15" d="M7.33,19a1.73,1.73,0,0,0-.56-.16,1.44,1.44,0,0,1-.66-.31s-.05,0,0,0c.19.38.77,1,1.24.76A.18.18,0,0,0,7.33,19Z"/><path class="cls-15" d="M8.5,18.67a.1.1,0,0,0-.08.16,1.31,1.31,0,0,0,.84.38,2.2,2.2,0,0,1,1.11.4h0A2.17,2.17,0,0,0,8.5,18.67Z"/><path class="cls-15" d="M8.21,19c-.11-.13-.24-.24-.35-.37a1.65,1.65,0,0,0-.43-.36.08.08,0,0,0-.12.05c0,.45.52.62.88.72A0,0,0,0,0,8.21,19Z"/><path class="cls-15" d="M8.25,18.13c-.17-.38-.77-.41-1.11-.58,0,0-.08,0,0,.06a2,2,0,0,0,.49.34,2,2,0,0,0,.61.27C8.24,18.23,8.27,18.17,8.25,18.13Z"/><path class="cls-15" d="M10.45,17.85a1.43,1.43,0,0,0-.74,0c-.09,0-.08.16,0,.16a1.76,1.76,0,0,1,.64.15c.17.07.29.25.48.23a.07.07,0,0,0,.06-.07C10.94,18,10.63,17.92,10.45,17.85Z"/><path class="cls-15" d="M12.63,18.09a1.06,1.06,0,0,1-.84-.46c-.17-.19-.35-.55-.63-.62a.09.09,0,0,0-.1.11c.13.37,1.17,1.55,1.58,1C12.66,18.12,12.64,18.09,12.63,18.09Z"/><path class="cls-15" d="M9.72,16.88a1.31,1.31,0,0,0-.31-.42c-.12-.1-.29-.21-.44-.15s0,.08,0,.1.24.11.35.19a1.72,1.72,0,0,1,.34.32A0,0,0,0,0,9.72,16.88Z"/><path class="cls-15" d="M8.89,17.17a1.27,1.27,0,0,0-.77-.41.06.06,0,0,0,0,.11c.23.16.47.3.71.44A.09.09,0,1,0,8.89,17.17Z"/><path class="cls-15" d="M5.87,17.45a1.88,1.88,0,0,1-.64-.26,2.47,2.47,0,0,0-.53-.29.08.08,0,0,0-.09.11,1.13,1.13,0,0,0,1.26.55A.06.06,0,0,0,5.87,17.45Z"/><path class="cls-15" d="M3.69,16.05a3.61,3.61,0,0,0-.25-.3s-.08,0-.07.05a.86.86,0,0,0,.23.33C3.65,16.19,3.75,16.11,3.69,16.05Z"/><path class="cls-15" d="M12.66,16.75c-.06-.11-.14-.13-.25-.18a2.64,2.64,0,0,1-.35-.23c-.24-.16-.45-.37-.69-.52,0,0,0,0,0,0a6.87,6.87,0,0,1,.63.69c.14.15.41.42.63.32A.07.07,0,0,0,12.66,16.75Z"/><path class="cls-15" d="M14.17,17.46c-.1-.1-.21-.08-.34-.11a1.3,1.3,0,0,1-.44-.17c-.07-.05-.16.05-.1.11a1.13,1.13,0,0,0,.42.29c.14,0,.33.1.45,0A.07.07,0,0,0,14.17,17.46Z"/><path class="cls-15" d="M13.94,15.54a2.21,2.21,0,0,0-.51-.11,2.39,2.39,0,0,1-.73-.23c-.08,0-.15.06-.08.11a1.63,1.63,0,0,0,1.33.34A.06.06,0,0,0,13.94,15.54Z"/><path class="cls-15" d="M15.68,14.45c-.32,0-.58.22-.92.11a.13.13,0,0,0-.07.24,1,1,0,0,0,1.05-.23S15.74,14.45,15.68,14.45Z"/><path class="cls-16" d="M9.77,6.5a1.68,1.68,0,0,0-1.26.13s0,.06,0,.06a3.72,3.72,0,0,0,1.25-.08A.06.06,0,0,0,9.77,6.5Z"/><path class="cls-16" d="M11.81,4.23a1.11,1.11,0,0,0-.79.11,2.85,2.85,0,0,0-.72.53s0,0,0,0c.24-.1.51-.17.76-.26a3.27,3.27,0,0,0,.77-.23A.09.09,0,0,0,11.81,4.23Z"/><path class="cls-16" d="M14.94,3.69a.13.13,0,0,0-.13,0c-.3.07-.67,0-.91.24,0,0,0,.08,0,.07.31-.07.62,0,.93-.05a.13.13,0,0,0,.08-.21Z"/><path class="cls-16" d="M15.21,2.18a2,2,0,0,0-1.15-.07c-.07,0-.06.12,0,.13.38,0,.75,0,1.12,0A.05.05,0,0,0,15.21,2.18Z"/><path class="cls-16" d="M10.36,2.15c-.67-.41-1.24.64-1.69.93,0,0,0,0,0,0a3.67,3.67,0,0,1,.8-.55c.28-.14.59-.1.86-.24A.09.09,0,0,0,10.36,2.15Z"/><path class="cls-16" d="M12.86,1.37c-.19-.49-.9,0-1.16.17a.08.08,0,0,0,.05.16c.23-.05.46-.15.7-.19s.27.14.4,0A.17.17,0,0,0,12.86,1.37Z"/><path class="cls-16" d="M6.63,4.11c-.42.09-1.06.09-1.1.66a.09.09,0,0,0,.15.07,7.77,7.77,0,0,1,1-.63A.05.05,0,0,0,6.63,4.11Z"/><path class="cls-16" d="M5.14,6c-.26,0-.61.14-.66.45a.07.07,0,0,0,.1.07,1.24,1.24,0,0,0,.27-.17,1,1,0,0,1,.33-.16A.1.1,0,0,0,5.14,6Z"/><path class="cls-16" d="M8.93,7.33C8.63,7,8,7.4,7.74,7.54a0,0,0,0,0,0,.08,3.47,3.47,0,0,0,.46-.13l.3-.08a1.38,1.38,0,0,1,.35,0A.07.07,0,0,0,8.93,7.33Z"/><path class="cls-16" d="M9.73,8a1.1,1.1,0,0,0-.82.33A.11.11,0,0,0,9,8.54a1.07,1.07,0,0,1,.7-.12c.21.05.38.19.6.17.05,0,.08-.07.08-.12C10.37,8.17,10,8.05,9.73,8Z"/><path class="cls-16" d="M12.47,8.39a2.14,2.14,0,0,1-.73.23c-.1,0-.11.15,0,.15a1.05,1.05,0,0,0,.81-.3S12.52,8.37,12.47,8.39Z"/><path class="cls-16" d="M14.72,7.73a1.49,1.49,0,0,0-1,0,.08.08,0,0,0,0,.16,5.91,5.91,0,0,1,.94,0C14.73,7.83,14.76,7.76,14.72,7.73Z"/><path class="cls-16" d="M16.12,8.49a.88.88,0,0,1-.42-.11.08.08,0,0,0-.09.13c.16.1.36.2.54.07A.05.05,0,0,0,16.12,8.49Z"/><path class="cls-16" d="M19.22,7.38c-.24-.25-.7-.16-1-.16-.13,0-.14.2,0,.2h.48c.16,0,.32.07.49.07A.06.06,0,0,0,19.22,7.38Z"/><path class="cls-16" d="M8.79,11.31c-.24-.57-1.06-.64-1.59-.61a0,0,0,0,0,0,.07,2.21,2.21,0,0,1,.87.2c.23.12.39.35.63.45A.08.08,0,0,0,8.79,11.31Z"/><path class="cls-16" d="M10.81,12a.78.78,0,0,0-.43-.13,1,1,0,0,1-.48-.22c-.08-.07-.2.07-.13.14a1.36,1.36,0,0,0,.49.29c.16,0,.4.13.54,0A.06.06,0,0,0,10.81,12Z"/><path class="cls-16" d="M11.84,10.84a6.38,6.38,0,0,0-1.07,0c-.09,0-.1.13,0,.13a5.55,5.55,0,0,0,1.08-.07A0,0,0,0,0,11.84,10.84Z"/><path class="cls-16" d="M15.43,11a6.17,6.17,0,0,0-.61-.19c-.11,0-.16.12-.06.17a1.32,1.32,0,0,0,.65.12C15.46,11.14,15.47,11.07,15.43,11Z"/><path class="cls-16" d="M17.61,10.62c-.08,0-.14,0-.19-.08s-.22,0-.16.08.28.27.38.1A.07.07,0,0,0,17.61,10.62Z"/><path class="cls-16" d="M16.81,5c-.45-.4-1.09-.15-1.62-.11,0,0,0,.07,0,.07a4.86,4.86,0,0,1,1.57.11S16.84,5,16.81,5Z"/><path class="cls-16" d="M17.83,4.77a4.14,4.14,0,0,0-1.32.6c-.08,0,0,.19.1.15a8.92,8.92,0,0,0,1.27-.65A.06.06,0,0,0,17.83,4.77Z"/><path class="cls-16" d="M17.58,2.72a.07.07,0,0,0,0,.13c.2,0,.45,0,.56.16,0,0,.09,0,.08,0C18.24,2.63,17.83,2.67,17.58,2.72Z"/><path class="cls-16" d="M6.74,16.19a1.6,1.6,0,0,0-.27-.25,3.85,3.85,0,0,1-.35-.35c-.13-.14-.3-.39-.49-.45,0,0,0,0,0,0a1.86,1.86,0,0,0,.4.6c.16.19.41.52.69.52A.06.06,0,0,0,6.74,16.19Z"/><path class="cls-16" d="M6.91,14.78a2.72,2.72,0,0,1-.53-.42c0-.06-.14,0-.09.08a2.38,2.38,0,0,0,.44.4c.15.1.34.3.52.32s0,0,0-.07S7,14.86,6.91,14.78Z"/><path class="cls-16" d="M7.44,14.06a.8.8,0,0,0-.28-.13.67.67,0,0,1-.31-.27c0-.07-.15,0-.12.05A.86.86,0,0,0,7,14a.52.52,0,0,0,.39.13S7.48,14.09,7.44,14.06Z"/><path class="cls-16" d="M7,13.14a1.87,1.87,0,0,1-.4.07c-.08,0-.09.14,0,.14A.52.52,0,0,0,7,13.2,0,0,0,0,0,7,13.14Z"/><path class="cls-16" d="M8,12.52a2.37,2.37,0,0,0-1-.39.72.72,0,0,0-.75.2c0,.05,0,.11.09.08.51-.39,1.09.36,1.61.23C8,12.63,8,12.56,8,12.52Z"/><path class="cls-16" d="M7.53,10.54a1.05,1.05,0,0,0-.8,0,.06.06,0,0,0,0,.12,2.1,2.1,0,0,1,.75,0A0,0,0,0,0,7.53,10.54Z"/><path class="cls-16" d="M9.35,14.36c-.28-.1-.58-.13-.86-.22s-.55-.22-.82-.33a0,0,0,0,0,0,.06c.47.27,1.13.73,1.71.57C9.39,14.43,9.4,14.38,9.35,14.36Z"/><path class="cls-16" d="M8.17,15.53c-.22-.25-.55-.58-.91-.46a.11.11,0,0,0,0,.19c.13.06.28.08.41.15l.4.22C8.14,15.66,8.22,15.59,8.17,15.53Z"/><path class="cls-16" d="M7.68,16.89c-.29-.09-.66-.45-1-.31a.07.07,0,0,0,0,.11,1.42,1.42,0,0,0,.47.2,1.66,1.66,0,0,0,.49.11A.06.06,0,0,0,7.68,16.89Z"/><path class="cls-16" d="M6.11,17.65c-.19-.32-.4-.74-.78-.85,0,0-.08,0,0,.08a3.16,3.16,0,0,0,.78.81S6.13,17.68,6.11,17.65Z"/><path class="cls-16" d="M4.36,16c0-.08-.16,0-.13.06a3.07,3.07,0,0,0,.26.43c.06.08.11.16.16.24s.06.2.1.29a.06.06,0,0,0,.11,0C5,16.59,4.51,16.24,4.36,16Z"/><path class="cls-16" d="M4.84,18.14c-.23-.31-.55-.54-.8-.83a.07.07,0,0,0-.1.09,4.89,4.89,0,0,0,.84.8S4.86,18.18,4.84,18.14Z"/><path class="cls-16" d="M7.24,9.61c-.39,0-1,.23-1,.72,0,0,0,0,.07,0,.17-.38.68-.39,1-.63A.06.06,0,0,0,7.24,9.61Z"/><path class="cls-16" d="M6.85,8.2c-.33,0-.62.34-.8.58,0,0,0,.06,0,0a1.78,1.78,0,0,1,.35-.32c.13-.09.29-.14.42-.24S6.88,8.2,6.85,8.2Z"/><path class="cls-16" d="M6,7.83c-.32-.09-.5.3-.47.57,0,0,.07,0,.07,0a.44.44,0,0,1,.17-.27A.67.67,0,0,1,5.91,8C6,8,6,8,6,7.91A.05.05,0,0,0,6,7.83Z"/><path class="cls-16" d="M8.45,5.46c-.19-.07-.42.15-.57.24a4.85,4.85,0,0,0-.75.53s0,0,0,0c.28-.12.54-.24.83-.34s.51-.17.51-.39A.1.1,0,0,0,8.45,5.46Z"/><path class="cls-16" d="M9.07,3.93c-.54,0-.73.52-1.11.78,0,0,0,0,0,0,.18-.07.37-.13.55-.21s.42-.13.62-.23A.19.19,0,0,0,9.07,3.93Z"/><path class="cls-16" d="M12.86,2.57a1.56,1.56,0,0,0-1,.36,0,0,0,1,0,0,0,1.62,1.62,0,0,1,.62-.06.57.57,0,0,0,.44-.2A.07.07,0,0,0,12.86,2.57Z"/><path class="cls-16" d="M15.05,1.08A2.82,2.82,0,0,0,14.48,1a.91.91,0,0,0-.56.2.09.09,0,0,0,.05.16l.57-.05a2,2,0,0,0,.52-.17S15.07,1.08,15.05,1.08Z"/><path class="cls-16" d="M10.65,2.76a.07.07,0,0,0,.06.1c.1,0,.19,0,.29,0l.18,0s0,0,0,0C11.18,2.51,10.72,2.53,10.65,2.76Z"/><path class="cls-16" d="M7.32,3.33a5.74,5.74,0,0,0-.36.5s0,.09.06.07a.79.79,0,0,0,.37-.55A0,0,0,0,0,7.32,3.33Z"/><path class="cls-17" d="M4.49,9.34a2.75,2.75,0,0,1-1,1.1,7.68,7.68,0,0,1-1.65.88h0c1.15.07,2.89-.59,3.33-1.75C5.35,9.13,4.64,8.89,4.49,9.34Z"/><path class="cls-17" d="M5.67,11.51s-.08,0-.09,0a1.85,1.85,0,0,1-1.31,1.31,4,4,0,0,1-1.71-.05h0a2.63,2.63,0,0,0,2.09.65,1.56,1.56,0,0,0,.94-.56C6,12.45,5.78,12,5.67,11.51Z"/><path class="cls-17" d="M4.71,13.88a3.34,3.34,0,0,1-1.09.77,2.08,2.08,0,0,1-1.26,0s0,0,0,0a1.28,1.28,0,0,0,2.4-.75S4.72,13.85,4.71,13.88Z"/><path class="cls-18" d="M41.62,10.39a12.69,12.69,0,0,0-5.88-.13c-.32.05-.63.12-.94.19-5.36,1.28-8.92,5.38-8.44,11.18.29,3.57,2.06,6.94,5.41,8.31a14.61,14.61,0,0,0,10.2.8,10.77,10.77,0,0,0,4.88-3.13,10.34,10.34,0,0,0,2.26-4.23,12.41,12.41,0,0,0,.35-2.63A9.67,9.67,0,0,0,47,13.9,13.6,13.6,0,0,0,41.62,10.39Z"/><path class="cls-19" d="M37.76,25a2.15,2.15,0,0,0,.12-.87s0,0,0,0a14.68,14.68,0,0,1,.8,2.92,4,4,0,0,0,.5,1.53c.41-1.24-.22-2.37-.31-3.57a2.89,2.89,0,0,0,0-.88,0,0,0,0,1,0,0c.45.71.84,1.49,1.26,2.22a3.62,3.62,0,0,0,1,1.35,4.77,4.77,0,0,0-.52-1.37c-.31-.83-1-1.92-.87-2.84,0,0,.06-.07.09,0,.86,1.12,1.44,2.73,2.93,3.22a6.78,6.78,0,0,0-.89-1.34c-.45-.74-1.13-1.35-1.56-2.08-.15-.26-.19-.56-.41-.77,0,0,0,0,0,0,1,.57,1.59,1.56,2.55,2.16a4.31,4.31,0,0,0,1.75.75c-.38-.54-1-.94-1.43-1.46A6.88,6.88,0,0,0,40.75,22a2.94,2.94,0,0,1,1.91.74,7.63,7.63,0,0,0,2.77,1c-.24-.55-1.44-.82-1.94-1.16s-.74-.55-1.14-.79a8.18,8.18,0,0,0-.92-.57,0,0,0,0,1,0,0c1.15.13,2.25.53,3.4.61a6.46,6.46,0,0,0,1.43.19c-.15-.43-1.58-.79-2-1s-1-.29-1.46-.45a2.81,2.81,0,0,0-1.2-.31s0,0,0,0a25.17,25.17,0,0,1,2.68-.59c.55-.17,1.71-.28,2-.84-.4-.28-1.48,0-2,0a6.67,6.67,0,0,0-1.6.25,5.54,5.54,0,0,0-1.27.55s0,0,0,0c.53-.66,1.19-1.16,1.76-1.79a20.62,20.62,0,0,0,1.7-2.32c-.68-.08-1.3.45-1.84.77A19,19,0,0,0,41,18.21c-.23.19-.52.28-.7.54,0,0,0,0,0,0a19.27,19.27,0,0,1,2-3.3c.26-.41.74-1,.71-1.48-.53-.11-1.1.85-1.4,1.18s-.88.79-1.27,1.24-.77.61-1,1c0,0,0,0,0,0,.37-.92,1-1.72,1.32-2.66.17-.47.64-2,.21-2.39.06.05-1.09,2.47-1.18,2.72-.18.47-.3,1-.47,1.44a5.44,5.44,0,0,0-.43,1s0,0,0,0A16.36,16.36,0,0,1,39,14a11.26,11.26,0,0,0-.09-3.28,5.52,5.52,0,0,0-.64,3.09c0,.66,0,1.33,0,2s-.33.95-.35,1.44a0,0,0,1,1,0,0A21.71,21.71,0,0,1,37.68,14c-.07-1-.41-1.94-.54-2.91-.27.3-.23,1-.26,1.33a8.34,8.34,0,0,0,0,1.8,15.68,15.68,0,0,1,.15,1.93c0,.37-.36,1.22-.25,1.5a11.88,11.88,0,0,1-.36-2.45,18,18,0,0,0-.56-1.86,6.92,6.92,0,0,0-.43-1.06c-.1-.21-.48-.72-.46-1a9.46,9.46,0,0,0-.15,2.27,6.2,6.2,0,0,0,.78,2,8.3,8.3,0,0,1,.47.88c.07.17.1.91.27,1-.33-.14-.4-.53-.55-.83a4.93,4.93,0,0,0-.91-1.27,14.62,14.62,0,0,0-2.5-2.31,5.18,5.18,0,0,0,1.37,2.52c.62.72,2.29,1.48,2.09,2.67-.89-.47-1.39-1.48-2.21-2.1a13.57,13.57,0,0,0-2.73-1.8,5,5,0,0,0,1.77,2.25c.46.3,1,.43,1.48.71s.75.7,1.17,1c-.91,0-1.76-.84-2.59-1.22A30.46,30.46,0,0,0,29.7,16c.21.76,1.65,1.53,2.32,1.88a7.7,7.7,0,0,0,1.69.59c.48.12.89.45,1.36.54,0,0,0,0,0,0-1.2.07-2.37-.5-3.6-.6a23.52,23.52,0,0,0-2.91,0,13.47,13.47,0,0,0,3.17.89c.54.09,1.09.17,1.63.24a5.75,5.75,0,0,0,1.3.23,3.1,3.1,0,0,1-1.19.12,10.49,10.49,0,0,0-1.59.22c-.75.19-2.27.39-2.82.91a5.43,5.43,0,0,0,2.74-.14c.8-.24,1.8-.79,2.65-.56,0,0,.07.07,0,.1-.91.51-1.95.64-2.9,1.09a14.61,14.61,0,0,0-2.42,1.17c.5.31,1.55,0,2.07-.19.86-.28,2-.88,2.89-.72,0,0,.08.06,0,.09-.69.48-1.51.79-2.22,1.29a14.65,14.65,0,0,0-2.83,2.23,6.27,6.27,0,0,0,2.21-1.16c1.05-.64,2.12-1.73,3.36-1.95a3.15,3.15,0,0,0,.87-.12s0,0,0,0a8.81,8.81,0,0,1-1.95,1,5.44,5.44,0,0,0-1.79,1.62c-.41.55-1.49,1.58-1.5,2.29a9.41,9.41,0,0,0,2.61-1.31,12.83,12.83,0,0,0,1.81-1.56c.23-.22.38-.49.6-.71s.57-.31.77-.57c0,0,0,0,0,0A9.52,9.52,0,0,1,35,24.64a7.28,7.28,0,0,0-1.26,2.44,8.34,8.34,0,0,0-.41,2.22c.57-.13,1.29-1.39,1.57-1.88a33.83,33.83,0,0,0,1.38-3.3,3.38,3.38,0,0,0,.38-.79,0,0,0,0,1,0,0c.06.66-.46,4.4.33,4.59a12.52,12.52,0,0,0,.52-2.09A7.78,7.78,0,0,1,37.76,25Z"/><path class="cls-20" d="M32.08,10.77a8,8,0,0,0-2.87,1.68,1.79,1.79,0,0,1,.4,0c-.12.44-1,1-1.35,1.31a6.22,6.22,0,0,0-1.38,1.81c.07,0,.15,0,.21,0,0,.36-.42.81-.57,1.15a10.09,10.09,0,0,0-.63,5.38c.18,1.36.13,3.17,1.21,4.21,0-.07,0-.13,0-.2.63.39.75,1.75,1.51,2.28a.64.64,0,0,1,.06-.1c-.3.27,2.67,2.59,2.91,2.78,1.8,1.45,4.06,1.77,6.25,2.11A11.79,11.79,0,0,0,50.52,25a13.51,13.51,0,0,0,.21-6.32C48.93,10.86,38.87,7.44,32.08,10.77Zm17,12.61a10.34,10.34,0,0,1-2.26,4.23A10.77,10.77,0,0,1,42,30.74a14.61,14.61,0,0,1-10.2-.8c-3.35-1.37-5.12-4.74-5.41-8.31-.48-5.8,3.08-9.9,8.44-11.18.31-.07.62-.14.94-.19a12.69,12.69,0,0,1,5.88.13A13.6,13.6,0,0,1,47,13.9a9.67,9.67,0,0,1,2.46,6.85A12.41,12.41,0,0,1,49.11,23.38Z"/><path class="cls-21" d="M41.1,20a2.54,2.54,0,0,1-.45-.27c-.6-.56-.52-1.59-1.16-2.12s-2,.48-2.94.57-1,.25-1.2,1.19c-.13.65-1,1.19-1,1.79s.92,1,1.31,1.35a4.56,4.56,0,0,0,1.41.79c.45.18,1.15.64,1.64.5s.64-.9.94-1.28,2-1.52,1.75-2.23A.88.88,0,0,0,41.1,20Z"/><path class="cls-22" d="M34.61,16.82a12.59,12.59,0,0,0-1.53-2.15,6.43,6.43,0,0,0-2.1-2s-.08,0-.06.06a7.59,7.59,0,0,0,1.6,2.44,6.57,6.57,0,0,0,2,1.76C34.58,16.94,34.63,16.87,34.61,16.82Z"/><path class="cls-23" d="M45,28.51a12.6,12.6,0,0,0-1.52-2.16,6.54,6.54,0,0,0-2.11-2,0,0,0,0,0-.06.05,7.81,7.81,0,0,0,1.6,2.45,6.6,6.6,0,0,0,2,1.76A.07.07,0,0,0,45,28.51Z"/><path class="cls-24" d="M34,17.46a12.72,12.72,0,0,0-1.88-1.86A6.49,6.49,0,0,0,29.7,14a0,0,0,0,0-.05.07,7.65,7.65,0,0,0,2,2.13,6.73,6.73,0,0,0,2.28,1.39A.07.07,0,0,0,34,17.46Z"/><path class="cls-25" d="M46.25,27.17a12.18,12.18,0,0,0-1.87-1.86A6.49,6.49,0,0,0,42,23.69s-.08,0-.05.06a7.39,7.39,0,0,0,2,2.13,6.35,6.35,0,0,0,2.28,1.39A.06.06,0,0,0,46.25,27.17Z"/><path class="cls-26" d="M33.51,18.2a13.33,13.33,0,0,0-2.17-1.51,6.6,6.6,0,0,0-2.67-1.17,0,0,0,0,0,0,.07A7.72,7.72,0,0,0,31,17.34a6.64,6.64,0,0,0,2.49,1A.07.07,0,0,0,33.51,18.2Z"/><path class="cls-27" d="M47.26,25.63a12.27,12.27,0,0,0-2.16-1.51A6.47,6.47,0,0,0,42.43,23a0,0,0,0,0,0,.07,7.6,7.6,0,0,0,2.34,1.75,6.64,6.64,0,0,0,2.49,1A.06.06,0,0,0,47.26,25.63Z"/><g class="cls-28"><path class="cls-29" d="M33.15,19a12.13,12.13,0,0,0-2.39-1.11,6.52,6.52,0,0,0-2.83-.69c-.05,0-.06.05,0,.08a7.84,7.84,0,0,0,2.61,1.32,6.84,6.84,0,0,0,2.62.52A.07.07,0,0,0,33.15,19Z"/><path class="cls-30" d="M48,23.93a13,13,0,0,0-2.39-1.1,6.4,6.4,0,0,0-2.84-.69,0,0,0,0,0,0,.07,7.49,7.49,0,0,0,2.61,1.32,6.45,6.45,0,0,0,2.62.52C48,24,48,24,48,23.93Z"/></g><path class="cls-31" d="M33,19.87a12.22,12.22,0,0,0-2.56-.68,6.48,6.48,0,0,0-2.9-.19,0,0,0,0,0,0,.08,7.85,7.85,0,0,0,2.8.85,6.5,6.5,0,0,0,2.67.06A.07.07,0,0,0,33,19.87Z"/><path class="cls-32" d="M48.41,22.14a12.58,12.58,0,0,0-2.55-.67A6.51,6.51,0,0,0,43,21.28a0,0,0,0,0,0,.08,7.85,7.85,0,0,0,2.8.85,6.68,6.68,0,0,0,2.67.05C48.47,22.24,48.46,22.17,48.41,22.14Z"/><path class="cls-33" d="M32.89,20.75a12.09,12.09,0,0,0-2.63-.22,6.49,6.49,0,0,0-2.9.32s0,.06,0,.08a7.73,7.73,0,0,0,2.91.34,6.53,6.53,0,0,0,2.64-.4A.07.07,0,0,0,32.89,20.75Z"/><path class="cls-34" d="M48.52,20.3a12.74,12.74,0,0,0-2.63-.22,6.49,6.49,0,0,0-2.9.32s0,.07,0,.08a7.74,7.74,0,0,0,2.91.35,6.53,6.53,0,0,0,2.64-.41A.07.07,0,0,0,48.52,20.3Z"/><path class="cls-35" d="M33,21.62a12.33,12.33,0,0,0-2.63.25,6.52,6.52,0,0,0-2.8.81,0,0,0,0,0,0,.08,7.76,7.76,0,0,0,2.92-.16A6.72,6.72,0,0,0,33,21.74.07.07,0,0,0,33,21.62Z"/><path class="cls-36" d="M48.3,18.47a13.13,13.13,0,0,0-2.63.24,6.64,6.64,0,0,0-2.79.82,0,0,0,0,0,0,.08,7.76,7.76,0,0,0,2.92-.16,6.67,6.67,0,0,0,2.53-.86S48.35,18.48,48.3,18.47Z"/><path class="cls-37" d="M33.24,22.47a12.23,12.23,0,0,0-2.55.7,6.4,6.4,0,0,0-2.61,1.29s0,.07,0,.07A7.38,7.38,0,0,0,31,23.86a6.43,6.43,0,0,0,2.34-1.28A.06.06,0,0,0,33.24,22.47Z"/><path class="cls-38" d="M47.77,16.71a12.75,12.75,0,0,0-2.54.69,6.64,6.64,0,0,0-2.62,1.29,0,0,0,0,0,0,.08,7.82,7.82,0,0,0,2.85-.67,6.67,6.67,0,0,0,2.34-1.28A.07.07,0,0,0,47.77,16.71Z"/><path class="cls-39" d="M33.63,23.26a13,13,0,0,0-2.39,1.13,6.6,6.6,0,0,0-2.35,1.72s0,.08,0,.07A7.56,7.56,0,0,0,31.62,25a6.56,6.56,0,0,0,2.08-1.67C33.74,23.31,33.68,23.25,33.63,23.26Z"/><path class="cls-40" d="M46.94,15.06a12.94,12.94,0,0,0-2.38,1.13,6.63,6.63,0,0,0-2.36,1.72s0,.08,0,.07a7.59,7.59,0,0,0,2.68-1.15A6.46,6.46,0,0,0,47,15.16C47.05,15.11,47,15.05,46.94,15.06Z"/><path class="cls-41" d="M34.15,24A12.75,12.75,0,0,0,32,25.5a6.53,6.53,0,0,0-2,2.1s0,.08.06.06a7.59,7.59,0,0,0,2.44-1.6,6.62,6.62,0,0,0,1.77-2C34.27,24,34.2,24,34.15,24Z"/><path class="cls-42" d="M45.84,13.59a12.6,12.6,0,0,0-2.16,1.52,6.54,6.54,0,0,0-2,2.11,0,0,0,0,0,0,.06,7.81,7.81,0,0,0,2.45-1.6,6.49,6.49,0,0,0,1.76-2A.07.07,0,0,0,45.84,13.59Z"/><path class="cls-43" d="M34.79,24.58a12.72,12.72,0,0,0-1.86,1.88,6.47,6.47,0,0,0-1.61,2.42,0,0,0,0,0,.06.05,7.65,7.65,0,0,0,2.13-2,6.73,6.73,0,0,0,1.39-2.28C34.91,24.59,34.84,24.56,34.79,24.58Z"/><path class="cls-44" d="M44.5,12.33a12.18,12.18,0,0,0-1.86,1.87A6.49,6.49,0,0,0,41,16.62s0,.08.06.05a7.42,7.42,0,0,0,2.14-2,6.46,6.46,0,0,0,1.38-2.28A.06.06,0,0,0,44.5,12.33Z"/><g class="cls-45"><path class="cls-46" d="M35.53,25.07A13.33,13.33,0,0,0,34,27.24a6.6,6.6,0,0,0-1.17,2.67,0,0,0,0,0,.07,0,7.56,7.56,0,0,0,1.75-2.34,6.64,6.64,0,0,0,1-2.49A.07.07,0,0,0,35.53,25.07Z"/><path class="cls-47" d="M43,11.32a12.27,12.27,0,0,0-1.51,2.16,6.6,6.6,0,0,0-1.17,2.67,0,0,0,0,0,.07,0,7.48,7.48,0,0,0,1.75-2.34,6.64,6.64,0,0,0,1-2.49A.06.06,0,0,0,43,11.32Z"/></g><path class="cls-48" d="M36.34,25.43a12.4,12.4,0,0,0-1.11,2.39,6.53,6.53,0,0,0-.69,2.84s.05.05.08,0a7.84,7.84,0,0,0,1.32-2.61,6.8,6.8,0,0,0,.52-2.62A.07.07,0,0,0,36.34,25.43Z"/><path class="cls-49" d="M41.26,10.59a13.08,13.08,0,0,0-1.1,2.4,6.32,6.32,0,0,0-.69,2.83,0,0,0,0,0,.07,0,7.49,7.49,0,0,0,1.32-2.61,6.44,6.44,0,0,0,.52-2.61C41.38,10.55,41.3,10.55,41.26,10.59Z"/><path class="cls-50" d="M37.2,25.64a12,12,0,0,0-.68,2.55,6.51,6.51,0,0,0-.19,2.91,0,0,0,0,0,.08,0,7.47,7.47,0,0,0,.85-2.8,6.5,6.5,0,0,0,.06-2.67A.06.06,0,0,0,37.2,25.64Z"/><path class="cls-51" d="M39.47,10.17a12.58,12.58,0,0,0-.67,2.55,6.51,6.51,0,0,0-.19,2.91,0,0,0,0,0,.08,0,7.85,7.85,0,0,0,.85-2.8,6.68,6.68,0,0,0,.05-2.67C39.57,10.11,39.5,10.12,39.47,10.17Z"/><path class="cls-52" d="M38.08,25.69a12.09,12.09,0,0,0-.22,2.63,6.49,6.49,0,0,0,.32,2.9s.06,0,.08,0a7.54,7.54,0,0,0,.34-2.91,6.53,6.53,0,0,0-.4-2.64A.07.07,0,0,0,38.08,25.69Z"/><path class="cls-53" d="M37.69,10.47a11.93,11.93,0,0,0-.28,2.22,6.47,6.47,0,0,0,.32,2.9s.07,0,.08,0a7.71,7.71,0,0,0,.35-2.9A4.11,4.11,0,0,0,37.69,10.47Z"/><path class="cls-54" d="M39,25.59a13,13,0,0,0,.25,2.63A6.52,6.52,0,0,0,40,31s.07,0,.08,0a7.79,7.79,0,0,0-.16-2.92,6.62,6.62,0,0,0-.86-2.52A.07.07,0,0,0,39,25.59Z"/><path class="cls-55" d="M35.8,10.28a12.4,12.4,0,0,0,.25,2.63,6.52,6.52,0,0,0,.81,2.8,0,0,0,0,0,.08,0,7.76,7.76,0,0,0-.16-2.92,6.72,6.72,0,0,0-.86-2.53C35.88,10.19,35.81,10.23,35.8,10.28Z"/><path class="cls-56" d="M39.8,25.35a12.31,12.31,0,0,0,.7,2.54,6.4,6.4,0,0,0,1.29,2.61,0,0,0,0,0,.07,0,7.39,7.39,0,0,0-.67-2.85,6.43,6.43,0,0,0-1.28-2.34A.07.07,0,0,0,39.8,25.35Z"/><path class="cls-57" d="M34,10.81a13,13,0,0,0,.69,2.55A6.66,6.66,0,0,0,36,16a0,0,0,0,0,.08,0,7.82,7.82,0,0,0-.67-2.85,6.67,6.67,0,0,0-1.28-2.34A.07.07,0,0,0,34,10.81Z"/><path class="cls-58" d="M40.59,25a13,13,0,0,0,1.13,2.39,6.6,6.6,0,0,0,1.72,2.35s.08,0,.07,0A7.56,7.56,0,0,0,42.36,27a6.53,6.53,0,0,0-1.67-2.08S40.58,24.9,40.59,25Z"/><path class="cls-59" d="M32.4,11.64A12.36,12.36,0,0,0,33.52,14a6.6,6.6,0,0,0,1.72,2.35s.08,0,.07,0a7.56,7.56,0,0,0-1.15-2.69,6.57,6.57,0,0,0-1.67-2.09A.07.07,0,0,0,32.4,11.64Z"/><path class="cls-60" d="M34.54,17a2.85,2.85,0,0,0,.72.36c0-.8-1-1.42-1.65-1.79,0,0,0,0,0,0a2.89,2.89,0,0,1,.42.77A2.15,2.15,0,0,0,34.54,17Z"/><path class="cls-60" d="M40,22.45s0,0,0,0c.22.21.26.51.41.77.25.42.67,1,1.23,1,.29,0-.53-.94-.55-1A6,6,0,0,0,40,22.45Z"/><path class="cls-60" d="M42.59,22.6a1.11,1.11,0,0,0-.44.08c0,.54,1.37.81,1.76.91,0,0,.07-.05.05-.08A1.8,1.8,0,0,0,42.59,22.6Z"/><path class="cls-60" d="M34.14,21.88s0-.08,0-.09c-.46-.08-1.58.09-1.75.65C32.09,23.28,34,22,34.14,21.88Z"/><path class="cls-60" d="M39.15,15.83a1.53,1.53,0,0,0,.1-.42c0-.28-.09-.83-.45-.49s0,1.33.11,1.66A3.08,3.08,0,0,1,39.15,15.83Z"/><path class="cls-60" d="M36.55,15.25a1.14,1.14,0,0,0,.1-.42c0-.27-.09-.83-.45-.48s0,1.33.11,1.66A3.11,3.11,0,0,1,36.55,15.25Z"/><path class="cls-60" d="M35.05,25.87a1.6,1.6,0,0,0-.32.29c-.14.24-.38.74.1.66s.75-1.1.84-1.44C35.65,25.47,35.31,25.67,35.05,25.87Z"/><path class="cls-60" d="M41.77,25.06a1.36,1.36,0,0,0,.34.27c.25.11.79.28.63-.19s-1.19-.59-1.54-.62C41.29,24.53,41.54,24.82,41.77,25.06Z"/><path class="cls-60" d="M33.28,23.79a1.81,1.81,0,0,0-.39.18c-.21.19-.59.6-.1.66s1.05-.82,1.23-1.12A2.76,2.76,0,0,1,33.28,23.79Z"/><path class="cls-60" d="M40.59,18.3c0-.19.79-.52.95-.71a12,12,0,0,0,1.09-1.48s0-.08-.07-.07a2.33,2.33,0,0,0-1.34,1.05A2.93,2.93,0,0,0,40.59,18.3Z"/><path class="cls-60" d="M32.76,20.62c-.65.27-1,1,0,.59a12.06,12.06,0,0,0,1.67-.77s0-.09,0-.1A2.38,2.38,0,0,0,32.76,20.62Z"/><path class="cls-60" d="M43.27,21.74a6.06,6.06,0,0,0-1.83-.5,0,0,0,0,0,0,0c.29.1.46.35.7.53s1.07.73,1.31.68C44,22.37,43.56,21.86,43.27,21.74Z"/><path class="cls-60" d="M43.38,19.89c-.27-.27-1.5.26-1.79.38,0,0,0,0,0,0s2.47.39,1.8-.41Z"/><path class="cls-60" d="M42,19.25a2.24,2.24,0,0,0,1-.3,9.87,9.87,0,0,0,1.49-1.07s0-.08,0-.09a2.4,2.4,0,0,0-1.6.59A3.77,3.77,0,0,0,42,19.25Z"/><path class="cls-60" d="M39.27,17.34c.18-.25.47-.34.7-.53s.67-.58.63-.73-.47-.15-.61-.06a2.93,2.93,0,0,0-.75,1.3S39.26,17.36,39.27,17.34Z"/><path class="cls-60" d="M32.87,20a3.81,3.81,0,0,0,1.46-.18s0,0,0,0c-.24,0-.43-.17-.65-.25a3.5,3.5,0,0,0-.65-.08,6.74,6.74,0,0,0-1.42,0s0,.07,0,.1A1.56,1.56,0,0,0,32.87,20Z"/><path class="cls-60" d="M34.63,22.56c-.16-.42-2.16.59-2.44.74,0,0,0,.09,0,.1.36.1,2.48-.12,2.43-.8A.06.06,0,0,0,34.63,22.56Z"/><path class="cls-60" d="M36.1,23c-.18.25-.47.33-.7.52s-.95.76-.92,1.29c.87.09,1.39-1.14,1.65-1.8C36.14,23,36.12,23,36.1,23Z"/><path class="cls-60" d="M36.66,23.33a3.38,3.38,0,0,1-.38.79,5.7,5.7,0,0,0-.22.81c-.06.23-.24.67-.13.9.32.69.59-.31.65-.61a6.3,6.3,0,0,0,.11-1.89A0,0,0,0,0,36.66,23.33Z"/><path class="cls-60" d="M38.05,24.84c-.21.33-.48,1.84,0,2.09s.46-.62.42-.88A3.67,3.67,0,0,0,38.05,24.84Z"/><path class="cls-60" d="M38.13,15.93a11.15,11.15,0,0,0,.22-2.16s-.07,0-.1,0C37.78,14.26,37.47,15.42,38.13,15.93Z"/><path class="cls-60" d="M37,15.75c-.75.25-.31,1.45-.15,1.94,0,0,0,0,0,0a3.22,3.22,0,0,1,.18-.86A1.86,1.86,0,0,0,37,15.75Z"/><path class="cls-60" d="M36,17a1.62,1.62,0,0,0-.23-1c-.06-.1-.83-1-.83-1A2.22,2.22,0,0,0,36,17Z"/><path class="cls-60" d="M38.91,24.12a0,0,0,0,0,0,0,2.89,2.89,0,0,1,0,.88,5.71,5.71,0,0,0,.18.82,11.46,11.46,0,0,0,.58,1.74c0,.05.08,0,.09,0a2.41,2.41,0,0,0-.07-1.71A6.4,6.4,0,0,0,38.91,24.12Z"/><path class="cls-60" d="M40.86,25c-.22-.41-.41-.84-.87-1a1.67,1.67,0,0,0,.28,1.13,6.36,6.36,0,0,0,1.18,1.49s0,0,0,0a3.53,3.53,0,0,1-.25-.84A5.22,5.22,0,0,0,40.86,25Z"/><path class="cls-60" d="M33.43,17.5a5.21,5.21,0,0,0,1.5.68,0,0,0,0,0,0,0c-.24-.13-.34-.38-.53-.57a5.26,5.26,0,0,0-.59-.43,9,9,0,0,0-1.37-.81s-.06,0-.05.07A2.15,2.15,0,0,0,33.43,17.5Z"/><path class="cls-60" d="M33.19,18.83c.26.31,1.55.22,1.87.19,0,0,0,0,0,0a3.23,3.23,0,0,1-.78-.41c-.2-.09-1.51-.43-1.13.22Z"/><path class="cls-60" d="M43,23.83a.29.29,0,0,0-.41.08l0,0c-.33.3.21.76.45.4l.06-.12A.29.29,0,0,0,43,23.83Z"/><path class="cls-60" d="M34.43,14.76h0a.26.26,0,0,0-.31,0h0a.27.27,0,1,0,.33,0Z"/><path class="cls-60" d="M31.77,18.64c-.26,0-.28.4,0,.4S32,18.64,31.77,18.64Z"/><path class="cls-60" d="M34.33,21h0c-.14,0-.21.16-.13.26a.16.16,0,0,0,.28-.1v0A.12.12,0,0,0,34.33,21Z"/><path class="cls-60" d="M33.84,24.79c-.36,0-.39.55,0,.55S34.2,24.79,33.84,24.79Z"/><path class="cls-60" d="M38,23.76h0a.3.3,0,0,0-.46.23.29.29,0,0,0,.48.24h0A.29.29,0,0,0,38,23.76Z"/><path class="cls-60" d="M41.13,21.84a.29.29,0,0,0-.38-.21.3.3,0,0,0-.25.36.32.32,0,0,0,.57.12A.33.33,0,0,0,41.13,21.84Z"/><path class="cls-60" d="M41.42,19l0,0c-.34,0-.12.62.18.38a.24.24,0,0,0,.09-.14A.2.2,0,0,0,41.42,19Z"/><path class="cls-60" d="M42.74,16.91a.24.24,0,0,0-.14,0l-.07,0a.29.29,0,0,0,0,.45.29.29,0,0,0,.43-.14A.28.28,0,0,0,42.74,16.91Z"/><path class="cls-60" d="M42.53,17h0C42.47,17,42.5,17,42.53,17Z"/><path class="cls-60" d="M40.36,14.62c-.21,0-.23.34,0,.34S40.58,14.62,40.36,14.62Z"/><path class="cls-60" d="M38,16.84c-.35,0-.39.55,0,.55S38.4,16.84,38,16.84Z"/><path class="cls-60" d="M37.58,16.33c-.23,0-.25.35,0,.35S37.8,16.33,37.58,16.33Z"/><g class="cls-61"><path class="cls-62" d="M46.62,14.28a0,0,0,0,0,0,0c2.24,2.06,2.52,5.29,1.74,8.11s-2.36,6.13-5,7.49c-.06,0,0,.13,0,.11,3.12-.91,5.41-4.38,5.94-7.42S49.31,16.12,46.62,14.28Z"/></g><g class="cls-63"><path class="cls-64" d="M29,27.5s0,0,0,0a6,6,0,0,1-2-3.37c-.11-.84.6-2.43,1.76-2.1a8.6,8.6,0,0,0-2.1-.17c.07-1.19,2-1.51,2.88-1.53-.57-.24-3-.68-2.14-1.56.58-.61,2.39.06,3.12.05-.7-.24-3.18-1.09-2.52-2.1s2.92.1,3.83.1c-.45-1-1.94-1.26-2.39-2.24-.33-.72-.19-.46.33-1A9.67,9.67,0,0,1,32,11.81a.06.06,0,0,0,0-.11c-3.1,1-5.31,4.49-5.78,7.55S26.29,25.71,29,27.5Z"/></g><g class="cls-65"><path class="cls-66" d="M50.58,24.61a21.11,21.11,0,0,1-4.11,5.19,11.7,11.7,0,0,1-7.2,3.29.06.06,0,0,0,0,.12,8.4,8.4,0,0,0,6-1.53,15.52,15.52,0,0,0,2.24-1.43,11.46,11.46,0,0,0,1.73-2.55C49.67,26.87,50.68,25.65,50.58,24.61Z"/></g></g></g></svg>