<svg xmlns="http://www.w3.org/2000/svg" xmlns:xlink="http://www.w3.org/1999/xlink" viewBox="0 0 48.37 55.32"><defs><style>.cls-1{mask:url(#mask);filter:url(#luminosity-noclip-3);}.cls-2,.cls-4{mix-blend-mode:multiply;}.cls-2{fill:url(#linear-gradient);}.cls-3{mask:url(#mask-2);filter:url(#luminosity-noclip-4);}.cls-4{fill:url(#radial-gradient);}.cls-5{fill:#a60c1f;}.cls-10,.cls-34,.cls-6{fill:#d7df23;}.cls-6{opacity:0.2;}.cls-7{fill:url(#radial-gradient-2);}.cls-8{mask:url(#mask-3);}.cls-13,.cls-14,.cls-17,.cls-18,.cls-19,.cls-33,.cls-37,.cls-9{opacity:0.7;}.cls-9{fill:url(#linear-gradient-2);}.cls-10,.cls-11,.cls-21,.cls-24,.cls-27,.cls-43,.cls-44,.cls-45,.cls-46,.cls-47,.cls-48,.cls-49,.cls-50,.cls-51,.cls-52{opacity:0.3;}.cls-11,.cls-12,.cls-13{fill:#fff;}.cls-14{fill:#55020c;}.cls-15{fill:url(#radial-gradient-3);}.cls-16{fill:url(#linear-gradient-3);}.cls-17{fill:url(#linear-gradient-4);}.cls-18{fill:url(#linear-gradient-5);}.cls-19{fill:url(#linear-gradient-6);}.cls-20,.cls-21,.cls-38{fill:#8d9308;}.cls-20,.cls-35{opacity:0.6;}.cls-22{fill:url(#linear-gradient-7);}.cls-23{fill:url(#linear-gradient-8);}.cls-24{fill:url(#radial-gradient-4);}.cls-25{mask:url(#mask-4);}.cls-26{fill:url(#radial-gradient-5);}.cls-27{fill:#fa9483;}.cls-28{fill:url(#linear-gradient-9);}.cls-29{fill:url(#radial-gradient-6);}.cls-30{fill:url(#radial-gradient-7);}.cls-31{fill:url(#radial-gradient-8);}.cls-32{fill:url(#linear-gradient-10);}.cls-33{fill:url(#linear-gradient-11);}.cls-34,.cls-39,.cls-40,.cls-41,.cls-42{opacity:0.5;}.cls-35{fill:url(#linear-gradient-12);}.cls-36{opacity:0.9;fill:url(#linear-gradient-13);}.cls-37{fill:url(#linear-gradient-14);}.cls-39{fill:url(#linear-gradient-15);}.cls-40{fill:url(#linear-gradient-16);}.cls-41{fill:url(#linear-gradient-17);}.cls-42{fill:url(#linear-gradient-18);}.cls-43{fill:url(#linear-gradient-19);}.cls-44{fill:url(#linear-gradient-20);}.cls-45{fill:url(#linear-gradient-21);}.cls-46{fill:url(#linear-gradient-22);}.cls-47{fill:url(#linear-gradient-23);}.cls-48{fill:url(#linear-gradient-24);}.cls-49{fill:url(#linear-gradient-25);}.cls-50{fill:url(#linear-gradient-26);}.cls-51{fill:url(#linear-gradient-27);}.cls-52{fill:url(#linear-gradient-28);}.cls-53{filter:url(#luminosity-noclip-2);}.cls-54{filter:url(#luminosity-noclip);}</style><filter id="luminosity-noclip" x="3.14" y="-8327.41" width="23.13" height="32766" filterUnits="userSpaceOnUse" color-interpolation-filters="sRGB"><feFlood flood-color="#fff" result="bg"/><feBlend in="SourceGraphic" in2="bg"/></filter><mask id="mask" x="3.14" y="-8327.41" width="23.13" height="32766" maskUnits="userSpaceOnUse"><g class="cls-54"/></mask><linearGradient id="linear-gradient" x1="-122.9" y1="74.16" x2="-115.77" y2="82.46" gradientTransform="translate(92.57 -89.49) rotate(-23.82)" gradientUnits="userSpaceOnUse"><stop offset="0"/><stop offset="0.09" stop-color="#2b2b2b"/><stop offset="0.23" stop-color="#626262"/><stop offset="0.37" stop-color="#929292"/><stop offset="0.5" stop-color="#b9b9b9"/><stop offset="0.63" stop-color="#d8d8d8"/><stop offset="0.76" stop-color="#eee"/><stop offset="0.89" stop-color="#fbfbfb"/><stop offset="1" stop-color="#fff"/></linearGradient><filter id="luminosity-noclip-2" x="12.95" y="-8327.41" width="25.69" height="32766" filterUnits="userSpaceOnUse" color-interpolation-filters="sRGB"><feFlood flood-color="#fff" result="bg"/><feBlend in="SourceGraphic" in2="bg"/></filter><mask id="mask-2" x="12.95" y="-8327.41" width="25.69" height="32766" maskUnits="userSpaceOnUse"><g class="cls-53"/></mask><radialGradient id="radial-gradient" cx="729.83" cy="-151.49" r="6.64" gradientTransform="matrix(0.62, 1.01, -1.83, 1.11, -701.11, -527.99)" gradientUnits="userSpaceOnUse"><stop offset="0" stop-color="#fff"/><stop offset="0.11" stop-color="#fafafa"/><stop offset="0.23" stop-color="#ececec"/><stop offset="0.36" stop-color="#d5d5d5"/><stop offset="0.5" stop-color="#b5b5b5"/><stop offset="0.64" stop-color="#8c8c8c"/><stop offset="0.79" stop-color="#595959"/><stop offset="0.93" stop-color="#1e1e1e"/><stop offset="1"/></radialGradient><radialGradient id="radial-gradient-2" cx="-128.89" cy="66.63" r="17.7" gradientTransform="translate(92.57 -89.49) rotate(-23.82)" gradientUnits="userSpaceOnUse"><stop offset="0" stop-color="#ef4136"/><stop offset="0.43" stop-color="#ef3e38"/><stop offset="0.8" stop-color="#f1333d"/><stop offset="1" stop-color="#f22a42"/></radialGradient><filter id="luminosity-noclip-3" x="3.14" y="11.23" width="23.13" height="34.69" filterUnits="userSpaceOnUse" color-interpolation-filters="sRGB"><feFlood flood-color="#fff" result="bg"/><feBlend in="SourceGraphic" in2="bg"/></filter><mask id="mask-3" x="3.14" y="11.23" width="23.13" height="34.69" maskUnits="userSpaceOnUse"><g class="cls-1"><path class="cls-2" d="M22.65,16.05a17.24,17.24,0,0,0-9-4.59,13.43,13.43,0,0,0-4.56-.06c1.11-.21,3.16,2.17,3.72,2.95a10.85,10.85,0,0,1,1.72,4.32c.33,1.65,2.06,4.89.62,6.33s-2-3.19-3.22-3.2c-3.09,0,.46,4.27.81,5.06s1,2.2.05,2.69-1.64-1-2-1.61c-1.17-2-3.42.48-2.92,2,.27.86,4.14,5.37.91,5.17-1.07-.06-1.83-1.3-2.11-2.2s.46-1.86.17-2.49C6,28.6,4,31.81,4.34,33.05c.43,1.56,3.73,3.2,2.5,5.27-.57,1-1.4.61-1.9,0S3.5,36.86,3.18,38c-.26.9.71,2.44.95,3.3a6.48,6.48,0,0,0,2.13,3.54,4.43,4.43,0,0,0,2,1.09,4,4,0,0,0,1.41-.24,8.61,8.61,0,0,0,2.3-.85,5.57,5.57,0,0,1,.9-.48,6.77,6.77,0,0,0,2.55-1.46,36.33,36.33,0,0,0,5.11-6,35.12,35.12,0,0,0,2.69-4.33A39.12,39.12,0,0,0,25,28c.85-2.23,1.82-5.07.83-7.41A14.11,14.11,0,0,0,22.65,16.05Zm-2.79-1.7,0-.25a0,0,0,0,1,0,0l.38.5C20.11,14.51,20,14.42,19.86,14.35Z"/></g></mask><linearGradient id="linear-gradient-2" x1="-122.9" y1="74.16" x2="-115.77" y2="82.46" gradientTransform="translate(92.57 -89.49) rotate(-23.82)" gradientUnits="userSpaceOnUse"><stop offset="0" stop-color="#a60c1f"/><stop offset="1" stop-color="#a60c1f"/></linearGradient><radialGradient id="radial-gradient-3" cx="-114.54" cy="59.8" r="13.13" gradientTransform="translate(92.57 -89.49) rotate(-23.82)" gradientUnits="userSpaceOnUse"><stop offset="0" stop-color="#8dc63f"/><stop offset="1" stop-color="#3bad53"/></radialGradient><linearGradient id="linear-gradient-3" x1="-100.07" y1="66.43" x2="-122.6" y2="55.73" gradientTransform="translate(92.57 -89.49) rotate(-23.82)" gradientUnits="userSpaceOnUse"><stop offset="0" stop-color="#4a3b07"/><stop offset="0.48" stop-color="#3bad53"/><stop offset="1" stop-color="#d7df23"/></linearGradient><linearGradient id="linear-gradient-4" x1="-112.47" y1="66.68" x2="-108.02" y2="66.68" gradientTransform="translate(92.57 -89.49) rotate(-23.82)" gradientUnits="userSpaceOnUse"><stop offset="0" stop-color="#3bad53"/><stop offset="1" stop-color="#4a3b07"/></linearGradient><linearGradient id="linear-gradient-5" x1="-108.84" y1="64.27" x2="-100.96" y2="64.27" xlink:href="#linear-gradient-4"/><linearGradient id="linear-gradient-6" x1="-110.89" y1="61.88" x2="-111.18" y2="55.56" gradientTransform="translate(92.57 -89.49) rotate(-23.82)" gradientUnits="userSpaceOnUse"><stop offset="0" stop-color="#4a3b07"/><stop offset="1" stop-color="#3bad53"/></linearGradient><linearGradient id="linear-gradient-7" x1="684.64" y1="193.21" x2="709.58" y2="193.21" gradientTransform="matrix(0.52, 0.85, -0.85, 0.52, -171.84, -652.41)" gradientUnits="userSpaceOnUse"><stop offset="0" stop-color="#ed1c24"/><stop offset="0.22" stop-color="#e81b24"/><stop offset="0.47" stop-color="#da1823"/><stop offset="0.74" stop-color="#c41321"/><stop offset="1" stop-color="#a60c1f"/></linearGradient><linearGradient id="linear-gradient-8" x1="697.52" y1="209.34" x2="696.93" y2="177.66" gradientTransform="matrix(0.52, 0.85, -0.85, 0.52, -171.84, -652.41)" gradientUnits="userSpaceOnUse"><stop offset="0" stop-color="#ed1c24"/><stop offset="0.19" stop-color="#ee2127"/><stop offset="0.41" stop-color="#ef2f31"/><stop offset="0.64" stop-color="#f24641"/><stop offset="0.88" stop-color="#f66557"/><stop offset="1" stop-color="#f97964"/></linearGradient><radialGradient id="radial-gradient-4" cx="697.13" cy="188.42" r="14.7" gradientTransform="matrix(0.52, 0.85, -0.85, 0.52, -171.84, -652.41)" gradientUnits="userSpaceOnUse"><stop offset="0" stop-color="#fa9483"/><stop offset="0.37" stop-color="#fa9282"/><stop offset="0.52" stop-color="#f98b7d"/><stop offset="0.64" stop-color="#f87f76"/><stop offset="0.73" stop-color="#f76d6b"/><stop offset="0.81" stop-color="#f5565d"/><stop offset="0.88" stop-color="#f33b4c"/><stop offset="0.92" stop-color="#f22a42"/></radialGradient><filter id="luminosity-noclip-4" x="12.95" y="33.1" width="25.69" height="19.99" filterUnits="userSpaceOnUse" color-interpolation-filters="sRGB"><feFlood flood-color="#fff" result="bg"/><feBlend in="SourceGraphic" in2="bg"/></filter><mask id="mask-4" x="12.95" y="33.1" width="25.69" height="19.99" maskUnits="userSpaceOnUse"><g class="cls-3"><path class="cls-4" d="M29.88,49.82c-6.73,4.09-14,4.38-16.26.67s1.37-10,8.09-14.12S35.72,32,38,35.71,36.6,45.74,29.88,49.82Z"/></g></mask><radialGradient id="radial-gradient-5" cx="729.83" cy="-151.49" r="6.64" gradientTransform="matrix(0.62, 1.01, -1.83, 1.11, -701.11, -527.99)" gradientUnits="userSpaceOnUse"><stop offset="0" stop-color="#f97964"/><stop offset="1" stop-color="#f97964"/></radialGradient><linearGradient id="linear-gradient-9" x1="697.13" y1="197.04" x2="697.13" y2="177.92" gradientTransform="matrix(0.52, 0.85, -0.85, 0.52, -171.84, -652.41)" gradientUnits="userSpaceOnUse"><stop offset="0" stop-color="#f97964"/><stop offset="0.12" stop-color="#f66557"/><stop offset="0.36" stop-color="#f24641"/><stop offset="0.59" stop-color="#ef2f31"/><stop offset="0.81" stop-color="#ee2127"/><stop offset="1" stop-color="#ed1c24"/></linearGradient><radialGradient id="radial-gradient-6" cx="693.1" cy="177.45" r="5.64" gradientTransform="matrix(0.52, 0.85, -0.85, 0.52, -171.84, -652.41)" xlink:href="#radial-gradient-3"/><radialGradient id="radial-gradient-7" cx="693.07" cy="174.74" r="5.68" gradientTransform="matrix(0.52, 0.85, -0.85, 0.52, -171.84, -652.41)" xlink:href="#radial-gradient-3"/><radialGradient id="radial-gradient-8" cx="700.05" cy="177.4" r="6.32" gradientTransform="matrix(0.52, 0.85, -0.85, 0.52, -171.84, -652.41)" gradientUnits="userSpaceOnUse"><stop offset="0" stop-color="#3bad53"/><stop offset="1" stop-color="#8dc63f"/></radialGradient><linearGradient id="linear-gradient-10" x1="703.1" y1="182.2" x2="692.76" y2="171.71" gradientTransform="matrix(0.52, 0.85, -0.85, 0.52, -171.84, -652.41)" xlink:href="#linear-gradient-3"/><linearGradient id="linear-gradient-11" x1="698.42" y1="175.79" x2="700.57" y2="168.78" gradientTransform="matrix(0.52, 0.85, -0.85, 0.52, -171.84, -652.41)" xlink:href="#linear-gradient-3"/><linearGradient id="linear-gradient-12" x1="689.37" y1="176.75" x2="696.59" y2="176.75" gradientTransform="matrix(0.52, 0.85, -0.85, 0.52, -171.84, -652.41)" xlink:href="#linear-gradient-4"/><linearGradient id="linear-gradient-13" x1="697.7" y1="177.62" x2="705.9" y2="177.62" gradientTransform="matrix(0.52, 0.85, -0.85, 0.52, -171.84, -652.41)" xlink:href="#linear-gradient-6"/><linearGradient id="linear-gradient-14" x1="695.75" y1="174.51" x2="697.83" y2="173.95" gradientTransform="matrix(0.52, 0.85, -0.85, 0.52, -171.84, -652.41)" xlink:href="#linear-gradient-6"/><linearGradient id="linear-gradient-15" x1="695.01" y1="188.23" x2="696.72" y2="188.23" xlink:href="#linear-gradient-7"/><linearGradient id="linear-gradient-16" x1="696.95" y1="191.51" x2="697.98" y2="191.51" xlink:href="#linear-gradient-7"/><linearGradient id="linear-gradient-17" x1="698.44" y1="188.46" x2="699.93" y2="188.46" xlink:href="#linear-gradient-7"/><linearGradient id="linear-gradient-18" x1="696.64" y1="185.8" x2="698.5" y2="185.8" xlink:href="#linear-gradient-7"/><linearGradient id="linear-gradient-19" x1="686.95" y1="185.18" x2="690.41" y2="185.18" xlink:href="#linear-gradient-7"/><linearGradient id="linear-gradient-20" x1="687.23" y1="190.3" x2="690.3" y2="190.3" xlink:href="#linear-gradient-7"/><linearGradient id="linear-gradient-21" x1="689.17" y1="195.19" x2="690.77" y2="195.19" xlink:href="#linear-gradient-7"/><linearGradient id="linear-gradient-22" x1="690.46" y1="198.57" x2="692.03" y2="198.57" xlink:href="#linear-gradient-7"/><linearGradient id="linear-gradient-23" x1="692.62" y1="202.11" x2="694.08" y2="202.11" xlink:href="#linear-gradient-7"/><linearGradient id="linear-gradient-24" x1="700.34" y1="201.38" x2="702.92" y2="201.38" xlink:href="#linear-gradient-7"/><linearGradient id="linear-gradient-25" x1="702.22" y1="198.37" x2="704.65" y2="198.37" xlink:href="#linear-gradient-7"/><linearGradient id="linear-gradient-26" x1="703.29" y1="194.25" x2="706.45" y2="194.25" xlink:href="#linear-gradient-7"/><linearGradient id="linear-gradient-27" x1="703.83" y1="190.66" x2="707.21" y2="190.66" xlink:href="#linear-gradient-7"/><linearGradient id="linear-gradient-28" x1="702.44" y1="183.7" x2="706.8" y2="183.7" xlink:href="#linear-gradient-7"/></defs><g id="Capa_2" data-name="Capa 2"><g id="Layer_4" data-name="Layer 4"><path class="cls-5" d="M17.17,36.84h0A5.71,5.71,0,0,0,17,39a3.51,3.51,0,0,0,.52,1.19,1.41,1.41,0,0,0,.65.5.22.22,0,0,0,.28-.1,1.84,1.84,0,0,0,0-1.44C18.15,38.32,17.47,37.58,17.17,36.84Z"/><path class="cls-5" d="M14.13,42.41c0,.33-.11.68-.17,1a3.4,3.4,0,0,0,0,.78,5.54,5.54,0,0,1,.9-.65L14.48,43a3.81,3.81,0,0,1-.33-.63Z"/><path class="cls-6" d="M10.79,43.29a7,7,0,0,1-1.24-.86,2.76,2.76,0,0,1-.72-2s0,0,0,0A2.86,2.86,0,0,0,9,42.81c.32.58,1.21,1.23,1.8.64A.12.12,0,0,0,10.79,43.29Z"/><path class="cls-7" d="M2.28,16.8C-.08,21.48,1.15,27,2.25,31.85c.79,3.5.7,7.2,2.23,10.51a6.08,6.08,0,0,0,1.78,2.46,4.43,4.43,0,0,0,2,1.09,4,4,0,0,0,1.41-.24,8.61,8.61,0,0,0,2.3-.85,5.57,5.57,0,0,1,.9-.48,6.77,6.77,0,0,0,2.55-1.46,36.33,36.33,0,0,0,5.11-6,35.12,35.12,0,0,0,2.69-4.33A39.12,39.12,0,0,0,25,28c.85-2.23,1.82-5.07.83-7.41C22.18,12,7.43,6.57,2.28,16.8ZM6.13,38.28a.21.21,0,0,1-.28.1A2.25,2.25,0,0,1,4.68,36.7a5.69,5.69,0,0,1,.15-2.13h0C5.32,35.73,6.73,36.88,6.13,38.28ZM4,30.25a2.27,2.27,0,0,1-1.17-1.69A5.51,5.51,0,0,1,3,26.43H3c.47,1.16,1.88,2.31,1.28,3.72A.22.22,0,0,1,4,30.25Zm6.75,12.59a.23.23,0,0,1-.28.1A2.27,2.27,0,0,1,9.3,41.25a5.69,5.69,0,0,1,.15-2.13h0C9.94,40.28,11.35,41.43,10.75,42.84ZM8.93,34.19a.22.22,0,0,1-.29.1A2.3,2.3,0,0,1,7.47,32.6a5.46,5.46,0,0,1,.16-2.12s0,0,0,0C8.11,31.63,9.52,32.79,8.93,34.19ZM3.61,21.86a.22.22,0,0,1-.29.1,2.31,2.31,0,0,1-1.17-1.69,5.66,5.66,0,0,1,.16-2.12h0C2.79,19.3,4.2,20.46,3.61,21.86Zm3.58,3.5A2.27,2.27,0,0,1,6,23.67a5.51,5.51,0,0,1,.15-2.13h0c.47,1.16,1.87,2.31,1.28,3.72A.22.22,0,0,1,7.19,25.36ZM13.84,38a.22.22,0,0,1-.29.1,2.31,2.31,0,0,1-1.17-1.69,5.46,5.46,0,0,1,.16-2.12h0C13,35.43,14.43,36.59,13.84,38ZM5.89,17.35a2.27,2.27,0,0,1-1.17-1.69,5.71,5.71,0,0,1,.15-2.13h0c.47,1.16,1.88,2.31,1.28,3.72A.21.21,0,0,1,5.89,17.35Zm6.37,11.14a.22.22,0,0,1-.29.1A2.28,2.28,0,0,1,10.8,26.9,5.65,5.65,0,0,1,11,24.78s0,0,0,0C11.44,25.93,12.85,27.09,12.26,28.49ZM9.1,18.82a5.65,5.65,0,0,1,.15-2.12h0c.47,1.15,1.88,2.31,1.29,3.71a.22.22,0,0,1-.29.1A2.28,2.28,0,0,1,9.1,18.82Zm7.22,14.1A.23.23,0,0,1,16,33a2.27,2.27,0,0,1-1.17-1.69A5.69,5.69,0,0,1,15,29.2h0C15.51,30.36,16.92,31.51,16.32,32.92Zm-1.6-8.53a2.28,2.28,0,0,1-1.17-1.68,5.69,5.69,0,0,1,.15-2.13h0c.47,1.16,1.88,2.31,1.28,3.71A.2.2,0,0,1,14.72,24.39ZM21,34.82a.21.21,0,0,1-.28.1,2.25,2.25,0,0,1-1.17-1.69,5.46,5.46,0,0,1,.15-2.12h0C20.2,32.26,21.61,33.42,21,34.82ZM19.26,28a.22.22,0,0,1-.29.1,2.31,2.31,0,0,1-1.17-1.69A5.66,5.66,0,0,1,18,24.3s0,0,0,0C18.44,25.45,19.85,26.61,19.26,28Zm-1.94-8.34a.22.22,0,0,1-.29.1,2.3,2.3,0,0,1-1.17-1.69A5.71,5.71,0,0,1,16,16h0C16.5,17.11,17.91,18.26,17.32,19.67Zm6.23,10.18a.22.22,0,0,1-.28.1,2.27,2.27,0,0,1-1.17-1.69,5.64,5.64,0,0,1,.15-2.12s0,0,0,0C22.74,27.29,24.15,28.45,23.55,29.85Zm-.47-10c.47,1.15,1.88,2.31,1.28,3.71a.2.2,0,0,1-.28.1,2.3,2.3,0,0,1-1.17-1.69,5.65,5.65,0,0,1,.15-2.12Zm-2.9-.66A12.57,12.57,0,0,0,20,16.28a19.8,19.8,0,0,1-.16-2.18,0,0,0,0,1,0,0,3.52,3.52,0,0,1,1.05,2.4,6.51,6.51,0,0,1-.59,2.69C20.28,19.24,20.18,19.23,20.18,19.15Z"/><path class="cls-5" d="M20.32,19.18a6.51,6.51,0,0,0,.59-2.69,3.52,3.52,0,0,0-1.05-2.4,0,0,0,0,0,0,0A19.8,19.8,0,0,0,20,16.28a12.57,12.57,0,0,1,.19,2.87C20.18,19.23,20.28,19.24,20.32,19.18Z"/><path class="cls-5" d="M4.83,34.57a5.69,5.69,0,0,0-.15,2.13,2.25,2.25,0,0,0,1.17,1.68.21.21,0,0,0,.28-.1c.6-1.4-.81-2.55-1.28-3.71Z"/><path class="cls-5" d="M9.45,39.12a5.69,5.69,0,0,0-.15,2.13,2.27,2.27,0,0,0,1.17,1.69.23.23,0,0,0,.28-.1c.6-1.41-.81-2.56-1.28-3.72Z"/><path class="cls-5" d="M5.46,41.88h0a8.82,8.82,0,0,0-.21,1.77,1.34,1.34,0,0,0,0,.35c.2.66.47,1.43,1.17,1.69a.22.22,0,0,0,.29-.1,1.93,1.93,0,0,0,.12-.44C7.05,44,5.88,42.92,5.46,41.88Z"/><path class="cls-5" d="M7.63,30.48a5.46,5.46,0,0,0-.16,2.12,2.3,2.3,0,0,0,1.17,1.69.22.22,0,0,0,.29-.1c.59-1.4-.82-2.56-1.29-3.71C7.64,30.47,7.63,30.47,7.63,30.48Z"/><path class="cls-5" d="M3,26.43H3a5.51,5.51,0,0,0-.15,2.13A2.27,2.27,0,0,0,4,30.25a.22.22,0,0,0,.28-.1C4.88,28.74,3.47,27.59,3,26.43Z"/><path class="cls-5" d="M6.19,21.54h0A5.51,5.51,0,0,0,6,23.67a2.27,2.27,0,0,0,1.17,1.69.22.22,0,0,0,.28-.1C8.06,23.85,6.66,22.7,6.19,21.54Z"/><path class="cls-5" d="M2.31,18.15a5.66,5.66,0,0,0-.16,2.12A2.31,2.31,0,0,0,3.32,22a.22.22,0,0,0,.29-.1c.59-1.4-.82-2.56-1.28-3.71Z"/><path class="cls-5" d="M11,24.78a5.65,5.65,0,0,0-.15,2.12A2.28,2.28,0,0,0,12,28.59a.22.22,0,0,0,.29-.1c.59-1.4-.82-2.56-1.29-3.71C11,24.77,11,24.77,11,24.78Z"/><path class="cls-5" d="M12.54,34.28a5.46,5.46,0,0,0-.16,2.12,2.31,2.31,0,0,0,1.17,1.69.22.22,0,0,0,.29-.1c.59-1.4-.82-2.56-1.29-3.71Z"/><path class="cls-5" d="M15,29.2a5.69,5.69,0,0,0-.15,2.13A2.27,2.27,0,0,0,16,33a.23.23,0,0,0,.28-.1c.6-1.41-.81-2.56-1.28-3.72Z"/><path class="cls-5" d="M13.72,20.58h0a5.69,5.69,0,0,0-.15,2.13,2.28,2.28,0,0,0,1.17,1.68.2.2,0,0,0,.28-.1C15.6,22.89,14.19,21.74,13.72,20.58Z"/><path class="cls-5" d="M10.56,20.41c.59-1.4-.82-2.56-1.29-3.71h0a5.65,5.65,0,0,0-.15,2.12,2.28,2.28,0,0,0,1.17,1.69A.22.22,0,0,0,10.56,20.41Z"/><path class="cls-5" d="M4.89,13.53h0a5.71,5.71,0,0,0-.15,2.13,2.27,2.27,0,0,0,1.17,1.69.21.21,0,0,0,.28-.1C6.77,15.84,5.36,14.69,4.89,13.53Z"/><path class="cls-5" d="M18,24.3a5.66,5.66,0,0,0-.16,2.12A2.31,2.31,0,0,0,19,28.11a.22.22,0,0,0,.29-.1c.59-1.4-.82-2.56-1.29-3.71C18,24.29,18,24.29,18,24.3Z"/><path class="cls-5" d="M19.72,31.11a5.46,5.46,0,0,0-.15,2.12,2.25,2.25,0,0,0,1.17,1.69.21.21,0,0,0,.28-.1c.59-1.4-.82-2.56-1.28-3.71Z"/><path class="cls-5" d="M22.25,26.14a5.64,5.64,0,0,0-.15,2.12A2.27,2.27,0,0,0,23.27,30a.22.22,0,0,0,.28-.1c.6-1.4-.81-2.56-1.28-3.71C22.26,26.13,22.25,26.13,22.25,26.14Z"/><path class="cls-5" d="M16,16a5.71,5.71,0,0,0-.15,2.13A2.3,2.3,0,0,0,17,19.77a.22.22,0,0,0,.29-.1c.59-1.41-.82-2.56-1.29-3.72Z"/><path class="cls-5" d="M24.08,23.62a.2.2,0,0,0,.28-.1c.6-1.4-.81-2.56-1.28-3.71h0a5.65,5.65,0,0,0-.15,2.12A2.3,2.3,0,0,0,24.08,23.62Z"/><path class="cls-5" d="M23,14.67C17.9,10,9.13,8.5,3.77,13.64-.11,17.36-.49,22.42.4,27.43c.55,3.08,1.3,6.13,1.83,9.22a19.39,19.39,0,0,0,2.63,7.84,5,5,0,0,0,5.48,2C16.55,45,21.15,38,24.05,32.83a25.43,25.43,0,0,0,3.31-9C27.83,20.18,25.58,17,23,14.67ZM25,28a37.67,37.67,0,0,1-3.64,7.16C18.9,39,14,45.14,8.92,45.66,5.9,46,4.55,43,3.8,40.39s-.93-5.8-1.55-8.54c-1.1-4.86-2.33-10.37,0-15C7.43,6.57,22.18,12,25.85,20.6,26.84,22.94,25.87,25.78,25,28Z"/><g class="cls-8"><path class="cls-9" d="M22.65,16.05a17.24,17.24,0,0,0-9-4.59,13.43,13.43,0,0,0-4.56-.06c1.11-.21,3.16,2.17,3.72,2.95a10.85,10.85,0,0,1,1.72,4.32c.33,1.65,2.06,4.89.62,6.33s-2-3.19-3.22-3.2c-3.09,0,.46,4.27.81,5.06s1,2.2.05,2.69-1.64-1-2-1.61c-1.17-2-3.42.48-2.92,2,.27.86,4.14,5.37.91,5.17-1.07-.06-1.83-1.3-2.11-2.2s.46-1.86.17-2.49C6,28.6,4,31.81,4.34,33.05c.43,1.56,3.73,3.2,2.5,5.27-.57,1-1.4.61-1.9,0S3.5,36.86,3.18,38c-.26.9.71,2.44.95,3.3a6.48,6.48,0,0,0,2.13,3.54,4.43,4.43,0,0,0,2,1.09,4,4,0,0,0,1.41-.24,8.61,8.61,0,0,0,2.3-.85,5.57,5.57,0,0,1,.9-.48,6.77,6.77,0,0,0,2.55-1.46,36.33,36.33,0,0,0,5.11-6,35.12,35.12,0,0,0,2.69-4.33A39.12,39.12,0,0,0,25,28c.85-2.23,1.82-5.07.83-7.41A14.11,14.11,0,0,0,22.65,16.05Zm-2.79-1.7,0-.25a0,0,0,0,1,0,0l.38.5C20.11,14.51,20,14.42,19.86,14.35Z"/></g><path class="cls-10" d="M23.26,16.28,23,16a10,10,0,0,1,2,5.5,23.62,23.62,0,0,1-3.16,12.38,29.48,29.48,0,0,1-9.35,10.61,8.66,8.66,0,0,1-4.49,1.3c.48,0,1.12.32,1.69.31a5.47,5.47,0,0,0,1.5-.2A12.53,12.53,0,0,0,16,43.11a36.33,36.33,0,0,0,5.11-6,35.12,35.12,0,0,0,2.69-4.33,39.12,39.12,0,0,0,1.84-4.51c.85-2.23,1.82-5.06.83-7.4A14.17,14.17,0,0,0,23.26,16.28Z"/><path class="cls-11" d="M12.16,16.26c-.69-1.25-2.48-3-4-2.64l-.06-.07a2.62,2.62,0,0,0-4,0,2.45,2.45,0,0,0-.38,2.7C2.48,16,1.35,17.29,1,18.56c-.27.93-.57,2.67-.1,3.57s2.31,1.3,1.7,2.61c-.28.6-.75.88-.92,1.58-.39,1.55.17,5.29,2.19,5.58,1.71.24,1.32-1.74,1.35-2.82,0-.46,0-1.33.54-1.53s.85.29,1.29.37a2.26,2.26,0,0,0,1.67-.4c1-.75,1.23-2.34.94-3.95A2.87,2.87,0,0,0,11.91,23C14,21.55,13.17,18.11,12.16,16.26ZM4.52,30a.68.68,0,0,1-.88.39C2.3,29.78,2.48,28,2.38,26.83a.73.73,0,0,1,1.15-.63.61.61,0,0,1,.38.27A4.43,4.43,0,0,1,4.52,30Zm-.48-9a2,2,0,0,1,0,.48c-.07.9-.72,1.47-1.55.38C2,21.18.77,18,2.55,18.19,3.64,18.34,3.93,20.09,4,20.92Zm4,4.15a1.12,1.12,0,0,1-.31.65c-.8.63-1.93-1.93-2.05-2.4s0-2.8.93-2.08A5.14,5.14,0,0,1,8,25.07ZM6.72,17.43l0,0c-.85,1.22-2.61-1.83-2.06-2.77C5.56,13.1,7.2,16.63,6.72,17.43Zm4.48,2.8c0,1-.7,1.44-1.5.82-1.17-.91-1.33-3-1.06-4.35s1.15-.26,1.57.31A4.67,4.67,0,0,1,11.2,20.23Z"/><path class="cls-12" d="M6,20.76c-.7.11-.92,1-1,1.59a4.3,4.3,0,0,0,.38,2.45c.06.42,1,.46.86-.12C5.93,23.43,5,22,6,20.8,6,20.78,6,20.76,6,20.76Z"/><path class="cls-12" d="M8.31,17.14s-.05,0-.05,0a4.23,4.23,0,0,0,.41,3.48.45.45,0,0,0,.78-.41c-.15-.36-.41-.66-.56-1C8.62,18.51,8.57,17.79,8.31,17.14Z"/><path class="cls-12" d="M4.92,16.48a8,8,0,0,1-.75-2.06h0a4.08,4.08,0,0,0,0,2.11c.13.59.45,1.56,1.13,1.67a.34.34,0,0,0,.39-.36C5.65,17.36,5.17,16.89,4.92,16.48Z"/><path class="cls-12" d="M1.72,19.3s0,0,0,0a3.5,3.5,0,0,0,.58,3.34A.46.46,0,0,0,3,22.12,5.82,5.82,0,0,1,1.72,19.3Z"/><path class="cls-13" d="M4.07,30.57a3.92,3.92,0,0,1-1.84-3s0,0,0,0a3.19,3.19,0,0,0,1.5,3.78C4.2,31.61,4.59,30.81,4.07,30.57Z"/><path class="cls-11" d="M7.68,33.82A4,4,0,0,1,6.85,31s0,0,0,0c-.53.62-.23,1.71,0,2.39s.7,1.53,1.36,1.65a.3.3,0,0,0,.33-.39C8.41,34.3,7.92,34.11,7.68,33.82Z"/><path class="cls-11" d="M5.8,38.14c-.2-.25-.51-.41-.69-.68a4.75,4.75,0,0,1-.57-1,4.49,4.49,0,0,1-.11-1.27s0,0,0,0a2.76,2.76,0,0,0,.92,3.57C5.66,38.88,6.05,38.44,5.8,38.14Z"/><path class="cls-11" d="M10.34,25.7s0,0,0,0a5,5,0,0,0-.09,2.44c.19.63.53,1.56,1.29,1.55a.22.22,0,0,0,.2-.18c.09-.59-.45-1-.73-1.51A5.77,5.77,0,0,1,10.34,25.7Z"/><path class="cls-11" d="M14.6,24.8a1.66,1.66,0,0,1-.68-.66,13.53,13.53,0,0,1-.72-1.76.05.05,0,0,0-.1,0,2.43,2.43,0,0,0,.09,2.27c.31.58,1.19,1.45,1.83.8a.21.21,0,0,0,0-.25A1.1,1.1,0,0,0,14.6,24.8Z"/><path class="cls-11" d="M15.26,16.7c-.43,1.16-.4,3,.92,3.64.08,0,.19,0,.17-.12a5.92,5.92,0,0,0-.6-1.45,4.24,4.24,0,0,1-.4-2C15.36,16.68,15.28,16.65,15.26,16.7Z"/><path class="cls-6" d="M19.35,28.64c-.41-.42-1-.69-1.35-1.13a3,3,0,0,1-.72-2.13,0,0,0,0,0,0,0A2.33,2.33,0,0,0,19.3,28.8.09.09,0,0,0,19.35,28.64Z"/><path class="cls-6" d="M14.94,32.09a3.75,3.75,0,0,1-.58-1.76s0,0,0,0c-.07,1.15,0,3.18,1.57,3.23.14,0,.18-.17.12-.27C15.77,32.81,15.27,32.52,14.94,32.09Z"/><path class="cls-6" d="M14.54,38.43c-.63-.25-1.31-.2-1.76-.78a6.92,6.92,0,0,1-.8-1.8c0-.05-.08,0-.08,0a3.6,3.6,0,0,0,.52,2.36,1.6,1.6,0,0,0,2.13.4A.12.12,0,0,0,14.54,38.43Z"/><path class="cls-14" d="M15.33,12.85a23.91,23.91,0,0,1-2.42,1.82,30.57,30.57,0,0,1-7.37,2.46c-.1,0-.07.17,0,.19a13.64,13.64,0,0,0,5.93.12c1.68-.39,3.52-1.43,5.28-1.19,1.45.2,1.29,3.25,1.39,4.41.06.75,0,1.5,0,2.25a7.66,7.66,0,0,0,3.17-2.18c.86-1,1.7-2.86,3.3-2.58a6,6,0,0,1,1.62.87,13.61,13.61,0,0,0-2.77-3.75,10,10,0,0,0-5-3.34A3.71,3.71,0,0,0,15.33,12.85Z"/><path class="cls-15" d="M15.62,11.75a.26.26,0,0,1,.48,0c.75,1.53.67,3,1,4.63s1.17,3.22,1.61,4.89c2.16-2.76,2.17-5.53.69-8.87-.21-.46.39-.77.73-.51,2.12,1.58,4.27,2.19,6.65,1.23a16,16,0,0,0-3-2.88c-2.38-1.56-4.8-.56-7.16.47a.5.5,0,0,1-.58-.18C14,7.86,11,7.51,7.83,7.43a7.78,7.78,0,0,0,3,3,3,3,0,0,0,1.62.31c.09,0,1.7.31,1.56.39-.59.36-1.28.17-1.92.28a5.09,5.09,0,0,0-1.85.84,15,15,0,0,0-3.49,3.74C10,15.15,13.69,14.83,15.62,11.75Z"/><path class="cls-10" d="M12,10.68a8.31,8.31,0,0,1-1.61-3.07,23.54,23.54,0,0,0-2.54-.18,7.78,7.78,0,0,0,3,3A2.39,2.39,0,0,0,12,10.68Z"/><path class="cls-10" d="M8.16,14.15c-.49.58-1,1.18-1.39,1.79,2.67-.65,5.63-1,7.67-2.8C12.46,13.67,10.08,13.43,8.16,14.15Z"/><path class="cls-10" d="M20.4,12.09c2,1.45,4.11,2,6.39,1.05-.55-.62-1.1-1.26-1.7-1.83A26.38,26.38,0,0,1,20.4,12.09Z"/><path class="cls-10" d="M19,12c-.38,1.65-1.32,3.27-1.74,4.95.4,1.5,1.09,2.88,1.48,4.38,2.16-2.76,2.17-5.53.69-8.87a.38.38,0,0,1,0-.39Z"/><path class="cls-16" d="M5.85,17.08c2.58-.81,6.88-.58,8.87-2.74a7.26,7.26,0,0,0,1.12-1.7c-.07.14.4,2.72.41,3.16.08,2.32,1.41,4.28,1.76,6.56a.47.47,0,0,0,.82.26,8.35,8.35,0,0,0,2-9.2,6.9,6.9,0,0,0,6.94.36c.25-.13.47-.49.24-.75A17,17,0,0,0,23.83,9.1a5.67,5.67,0,0,0-3-.66c-1,.06-1.95.62-2.9.66a9.64,9.64,0,0,0,.56-4.36A6.19,6.19,0,0,0,16.86.66a2.17,2.17,0,0,0-3.33.27c-.57.8-1.08,3.3.6,3.2s0-1.75.39-2.5,1.25-.23,1.7.29a4.88,4.88,0,0,1,1,2.24A4.94,4.94,0,0,1,16,8.83a18.6,18.6,0,0,0-2.69-1.57A17.38,17.38,0,0,0,7,6.5a.47.47,0,0,0-.39.62,8.37,8.37,0,0,0,3.73,4c-2.07,1.11-3.77,3.55-5,5.24A.44.44,0,0,0,5.85,17.08Zm4.41-4.88a5.09,5.09,0,0,1,1.85-.84c.64-.11,1.33.08,1.92-.28.14-.08-1.47-.39-1.56-.39a3,3,0,0,1-1.62-.31,7.78,7.78,0,0,1-3-3c3.13.08,6.17.43,8.23,3.12a.5.5,0,0,0,.58.18c2.36-1,4.78-2,7.16-.47a16,16,0,0,1,3,2.88c-2.38,1-4.53.35-6.65-1.23-.34-.26-.94.05-.73.51,1.48,3.34,1.47,6.11-.69,8.87-.44-1.67-1.24-3.2-1.61-4.89s-.26-3.1-1-4.63a.26.26,0,0,0-.48,0c-1.93,3.08-5.6,3.4-8.85,4.19A15,15,0,0,1,10.26,12.2Z"/><path class="cls-17" d="M17.4,10.55c0-.06-.17,0-.15.06a23.67,23.67,0,0,0,1.13,5.12,10.44,10.44,0,0,1,.41,6.08c0,.12.12.24.23.15a6.4,6.4,0,0,0,1.79-4.56A9.59,9.59,0,0,0,20,13.58C19.41,12.31,18.31,11.61,17.4,10.55Z"/><path class="cls-18" d="M23.27,9.75a6.08,6.08,0,0,0-5.57.59,0,0,0,0,0,0,.06c1.66.38,3.34.62,5,1.11s3,1.39,4.55,1.62a.15.15,0,0,0,.16-.19C27,11.46,24.61,10.29,23.27,9.75Z"/><path class="cls-19" d="M17.94,4a10.54,10.54,0,0,1-.62,4.24c-.07.18-.67,1-1,1.57-1.35-1-2.41-2.25-4.1-2.74A9.59,9.59,0,0,0,8,7.13s0,0,0,0c.14.25.54.22.79.26a7,7,0,0,1,3.15,1.29c1.42,1,2.9,2.2,4.76,2a.27.27,0,0,0,.24-.17,4.61,4.61,0,0,0,1.3-2A7.24,7.24,0,0,0,18,4C18,4,17.94,4,17.94,4Z"/><path class="cls-20" d="M2.52,19.61c0,.13,0,.26,0,.39a2.32,2.32,0,0,0,.06.45,1.12,1.12,0,0,0,.36.78A.31.31,0,0,0,3.37,21a1,1,0,0,0-.28-.71c-.07-.11-.16-.21-.24-.32s-.22-.22-.3-.36A0,0,0,1,0,2.52,19.61Z"/><path class="cls-20" d="M3.23,27.9a2.34,2.34,0,0,1,0,.38,1.75,1.75,0,0,0,0,.46,1.08,1.08,0,0,0,.36.77.3.3,0,0,0,.47-.22,1,1,0,0,0-.27-.72l-.24-.31a2.11,2.11,0,0,1-.3-.37S3.23,27.88,3.23,27.9Z"/><path class="cls-20" d="M6.46,23.08c0,.13,0,.25,0,.38a1.73,1.73,0,0,0,0,.45,1.18,1.18,0,0,0,.37.78.31.31,0,0,0,.47-.23A1,1,0,0,0,7,23.75l-.24-.31a3.72,3.72,0,0,1-.3-.37S6.45,23.06,6.46,23.08Z"/><path class="cls-20" d="M9.52,18.17a1.67,1.67,0,0,1,0,.39,2.32,2.32,0,0,0,.06.45,1.12,1.12,0,0,0,.36.78.31.31,0,0,0,.47-.23,1,1,0,0,0-.28-.71c-.07-.11-.16-.21-.23-.32a2.49,2.49,0,0,1-.3-.36S9.52,18.15,9.52,18.17Z"/><path class="cls-20" d="M13.94,22.12a1.72,1.72,0,0,1,0,.39A2.32,2.32,0,0,0,14,23a1.08,1.08,0,0,0,.36.77.3.3,0,0,0,.47-.22,1,1,0,0,0-.28-.72l-.23-.31a2.49,2.49,0,0,1-.3-.36S13.94,22.1,13.94,22.12Z"/><path class="cls-20" d="M11.2,26.22c0,.13,0,.26,0,.39a2.32,2.32,0,0,0,.06.45,1.08,1.08,0,0,0,.36.77.31.31,0,0,0,.47-.22,1,1,0,0,0-.28-.72l-.23-.31a2.49,2.49,0,0,1-.3-.36S11.2,26.2,11.2,26.22Z"/><path class="cls-20" d="M7.85,31.81a2.43,2.43,0,0,1,0,.38,1.73,1.73,0,0,0,0,.45,1.09,1.09,0,0,0,.36.78.3.3,0,0,0,.47-.23.94.94,0,0,0-.27-.71l-.24-.31a2.11,2.11,0,0,1-.3-.37S7.85,31.79,7.85,31.81Z"/><path class="cls-20" d="M5,35.79a1.64,1.64,0,0,1,0,.38,2.32,2.32,0,0,0,.06.45,1.12,1.12,0,0,0,.36.78.3.3,0,0,0,.47-.23,1,1,0,0,0-.27-.71l-.24-.32a1.74,1.74,0,0,1-.3-.36A0,0,0,0,0,5,35.79Z"/><path class="cls-20" d="M5.71,43.27c0,.13,0,.25,0,.38a2.31,2.31,0,0,0,0,.46,1.13,1.13,0,0,0,.37.77.31.31,0,0,0,.47-.22,1,1,0,0,0-.28-.72L6,43.63a3.72,3.72,0,0,1-.3-.37S5.7,43.25,5.71,43.27Z"/><path class="cls-20" d="M9.69,40.66a2.34,2.34,0,0,1,0,.38,1.75,1.75,0,0,0,.05.46,1.08,1.08,0,0,0,.36.77.3.3,0,0,0,.47-.22,1,1,0,0,0-.27-.72L10,41a2.11,2.11,0,0,1-.3-.37S9.69,40.64,9.69,40.66Z"/><path class="cls-20" d="M12.8,35.64c0,.13,0,.25,0,.38a1.73,1.73,0,0,0,.05.45,1.18,1.18,0,0,0,.37.78.31.31,0,0,0,.47-.23,1,1,0,0,0-.28-.71L13.13,36a3.58,3.58,0,0,1-.3-.36S12.79,35.62,12.8,35.64Z"/><path class="cls-20" d="M15.3,30.57c0,.13,0,.26,0,.38a2.31,2.31,0,0,0,.05.46,1.13,1.13,0,0,0,.37.77.31.31,0,0,0,.47-.22,1,1,0,0,0-.28-.72l-.24-.31a3.72,3.72,0,0,1-.3-.37S15.29,30.55,15.3,30.57Z"/><path class="cls-20" d="M18.2,25.67a2.45,2.45,0,0,1,0,.38,2.32,2.32,0,0,0,.06.45,1.12,1.12,0,0,0,.36.78.31.31,0,0,0,.47-.23,1,1,0,0,0-.28-.71c-.07-.11-.16-.21-.23-.32a2,2,0,0,1-.3-.36A0,0,0,0,0,18.2,25.67Z"/><path class="cls-20" d="M16.4,17.18a1.64,1.64,0,0,1,0,.38,2.32,2.32,0,0,0,.06.45,1.12,1.12,0,0,0,.36.78.31.31,0,0,0,.47-.23,1,1,0,0,0-.28-.71c-.07-.11-.16-.21-.23-.32a1.74,1.74,0,0,1-.3-.36A0,0,0,0,0,16.4,17.18Z"/><path class="cls-21" d="M23.35,21.25a2.43,2.43,0,0,1,0,.38,1.73,1.73,0,0,0,.05.45,1.09,1.09,0,0,0,.36.78.3.3,0,0,0,.47-.23.94.94,0,0,0-.27-.71l-.24-.31a2.11,2.11,0,0,1-.3-.37S23.35,21.23,23.35,21.25Z"/><path class="cls-21" d="M22.49,27.36c0,.13,0,.26,0,.39a1.74,1.74,0,0,0,.06.45,1.08,1.08,0,0,0,.36.77.3.3,0,0,0,.47-.22,1,1,0,0,0-.28-.72l-.24-.31c-.09-.13-.22-.22-.3-.36A0,0,0,1,0,22.49,27.36Z"/><path class="cls-21" d="M20.08,32.71a1.64,1.64,0,0,1,0,.38,2.32,2.32,0,0,0,.06.45,1.09,1.09,0,0,0,.36.78.3.3,0,0,0,.47-.22,1,1,0,0,0-.27-.72l-.24-.31a2.11,2.11,0,0,1-.3-.37S20.08,32.69,20.08,32.71Z"/><path class="cls-22" d="M40.11,45.77c.15-1.34-1.09-3.56-1.21-5.29a6.32,6.32,0,0,1-.36-.67c-1,2.22.88,5.62-.34,7.7-1.71,2.94-5.81,4.21-8.9,5.15-3.25,1-6.86,1.78-10.28,1.23a7.21,7.21,0,0,1-5.41-3.28,7.59,7.59,0,0,1-.52-6.5c1.08-3.28,3.45-6.12,5.83-8.55S24.21,30.2,27.6,30c2.44-.11,4.62,3.16,7.08,3.26a5.89,5.89,0,0,1-.41-.57c-1.52-.87-3-3.07-4.24-3.57a6.51,6.51,0,0,0-4.7-.09c-3.44,1.11-6.67,4.8-9,7.4-2.69,3-5.28,8.15-4.39,12.39,1.2,5.69,6.17,6.8,11.34,6.38a24.09,24.09,0,0,0,4-.69c3.38-.88,8.14-2,10.72-4.58A6.6,6.6,0,0,0,40.11,45.77Z"/><path class="cls-23" d="M37.83,35.37a6,6,0,0,1-3.15-2.07C32.22,33.2,30,29.93,27.6,30c-3.39.16-6.42,3.21-8.68,5.52s-4.75,5.27-5.83,8.55a7.59,7.59,0,0,0,.52,6.5A7.21,7.21,0,0,0,19,53.89c3.42.55,7-.24,10.28-1.23,3.09-.94,7.19-2.21,8.9-5.15,1.22-2.08-.63-5.48.34-7.7-.63-1.4-.53-2.66-.71-4.4Z"/><path class="cls-24" d="M32.9,45.53a10.84,10.84,0,0,0,0,3.81,6.8,6.8,0,0,0,.89,3.12,61.51,61.51,0,0,1,.66-7.21,16.84,16.84,0,0,1,.65-2.56h0c1.81-1.89,3.35-4,5-6l-2-3.37c-2.52.55-5.08,1-7.58,1.68h0a16.39,16.39,0,0,1-2.56-.6,59.69,59.69,0,0,1-6.7-2.75,6.78,6.78,0,0,0,2.35,2.23,11.15,11.15,0,0,0,3.37,1.78,6.91,6.91,0,0,0,1,.22c-.43.18-.85.36-1.27.57s-.55.29-.81.44a16.9,16.9,0,0,1-2.14-.26,50.8,50.8,0,0,1-6-1.72,4.62,4.62,0,0,0,2,1.67,8.72,8.72,0,0,0,3,1.2,6.68,6.68,0,0,0,1.66.08,16.54,16.54,0,0,0-1.88,1.63,16.25,16.25,0,0,1-2.1,0,45.11,45.11,0,0,1-5.6-.93c.3.66,1.09.94,1.76,1.25a7.32,7.32,0,0,0,2.75.76,7.15,7.15,0,0,0,2.44-.26,26.3,26.3,0,0,0-1.65,2.13,16.52,16.52,0,0,1-2,.09A43.54,43.54,0,0,1,12.8,42c.25.58,1,.79,1.62,1a6.86,6.86,0,0,0,2.61.52,8,8,0,0,0,2.62-.46c-.58.88-1.14,1.79-1.7,2.72-.45.06-.9.11-1.33.14a42.5,42.5,0,0,1-4.83-.11c.19.47.86.61,1.41.77a6.14,6.14,0,0,0,2.35.29,8.39,8.39,0,0,0,2-.41c-.52.86-1,1.72-1.6,2.58,1-.1,2-.17,3-.23a8.29,8.29,0,0,0-1.28,1.58,6.1,6.1,0,0,0-.83,2.21c-.11.57-.3,1.22,0,1.61A45.75,45.75,0,0,1,19,49.93c.22-.37.47-.74.73-1.11,1.08-.07,2.15-.14,3.2-.26a8.2,8.2,0,0,0-1.62,2.11,6.79,6.79,0,0,0-.74,2.56c-.07.66-.23,1.42.16,1.91a43.93,43.93,0,0,1,2-5,17.41,17.41,0,0,1,1-1.7A23.59,23.59,0,0,0,26.4,48a7.15,7.15,0,0,0-1.95,4.84,3.3,3.3,0,0,0,.3,2.13,47.66,47.66,0,0,1,1.76-5.39,17.31,17.31,0,0,1,.95-1.87,16.39,16.39,0,0,0,2.3-.91,6.87,6.87,0,0,0-.69,1.5,8.84,8.84,0,0,0-.32,3.22,4.65,4.65,0,0,0,.56,2.55,50.82,50.82,0,0,1,1.26-6.15,16.06,16.06,0,0,1,.75-2c.26-.17.52-.34.77-.52s.73-.57,1.08-.86A7.45,7.45,0,0,0,32.9,45.53Z"/><g class="cls-25"><path class="cls-26" d="M29.88,49.82c-6.73,4.09-14,4.38-16.26.67s1.37-10,8.09-14.12S35.72,32,38,35.71,36.6,45.74,29.88,49.82Z"/></g><path class="cls-27" d="M31.46,44.24c3.47-2.55,5.37-6.28,8.45-9.1.15-.14,0-.4-.23-.32l-.32.13s0,0,0-.05a.1.1,0,0,0,0,0l.27-.22c.15-.12,0-.42-.18-.35-3.93,1.43-8.11,1.39-12,3.3-4.15,2-5.7,5.81-8.07,9.45C23.66,46.61,27.72,47,31.46,44.24Z"/><path class="cls-28" d="M31.08,43.56c2.78-2,4.29-5,6.76-7.28.12-.11,0-.32-.18-.26l-.26.11s0,0,0-.05l0,0,.22-.18c.12-.1,0-.34-.15-.28-3.14,1.14-6.49,1.11-9.58,2.64-3.32,1.64-4.56,4.65-6.45,7.56C24.84,45.45,28.09,45.75,31.08,43.56Z"/><path class="cls-29" d="M37.2,34.32c0-.11,0-.22,0-.33a28.93,28.93,0,0,0-.81-4,7.67,7.67,0,0,0-2-2.93,4.12,4.12,0,0,1-.85-.87c-.25,0-.35.22-.29.6a3.89,3.89,0,0,0,.17,2.86,11.37,11.37,0,0,0,1.79,2.76C35.85,33.06,36.59,33.64,37.2,34.32Z"/><path class="cls-30" d="M38.2,34.14a2.73,2.73,0,0,1,0,.41c0,.11,0,.23,0,.36,0,0,2.19-1.09,2.44-1.28a4.58,4.58,0,0,0,1.64-2.78C40.9,31.36,38.29,32.24,38.2,34.14Z"/><path class="cls-31" d="M40.36,40.55a17.84,17.84,0,0,0,3.34,2,27.55,27.55,0,0,0-1.21-2.94,8,8,0,0,0-4.34-3.81A7.92,7.92,0,0,0,40.36,40.55Z"/><path class="cls-32" d="M37.38,35.65v0c.18,1.74.09,3,.71,4.4a6.32,6.32,0,0,0,.36.67c.09.15.17.29.28.44,1.36,1.92,3.88,1.9,5.8,2.88.37.19.87-.16.64-.59-1-1.76-1.14-4.07-2.48-5.62a6,6,0,0,0-2.56-1.72,7.69,7.69,0,0,0,2.75-.47,14.6,14.6,0,0,0,5.19-2.61c.91-.86-.48-2.34-1.3-1.43a10.16,10.16,0,0,1-6.08,3.44l.2-.16c1.2-1,1.64-2.9,2.33-4.27a.24.24,0,0,0-.19-.37,6,6,0,0,0-4.68,1.45l-.3.28a7.5,7.5,0,0,0-.51-1.72,14.65,14.65,0,0,0-1.74-3c-.6-.77-1.57-1.13-2.16-1.94-.12-.17-.36-.07-.43.09A8.39,8.39,0,0,0,33.82,33c.13.19.26.38.41.56A6.1,6.1,0,0,0,37.38,35.65Zm5.11,4a27.55,27.55,0,0,1,1.21,2.94,17.84,17.84,0,0,1-3.34-2,7.92,7.92,0,0,1-2.21-4.74A8,8,0,0,1,42.49,39.62Zm-.21-8.77a4.58,4.58,0,0,1-1.64,2.78c-.25.19-2.44,1.24-2.44,1.28,0-.13,0-.25,0-.36a2.73,2.73,0,0,0,0-.41C38.29,32.24,40.9,31.36,42.28,30.85Zm-8.87-1.2a3.89,3.89,0,0,1-.17-2.86c-.06-.38,0-.58.29-.6a4.12,4.12,0,0,0,.85.87,7.67,7.67,0,0,1,2,2.93,28.93,28.93,0,0,1,.81,4c0,.11,0,.22,0,.33-.61-.68-1.35-1.26-2-1.91A11.37,11.37,0,0,1,33.41,29.65Z"/><path class="cls-33" d="M40.2,35.57l-.11,0-.69.32a6.59,6.59,0,0,1,.88.2,8,8,0,0,0,2.6-.47,22.44,22.44,0,0,0,3.31-1.33,8.27,8.27,0,0,0-.87-.1A20.1,20.1,0,0,0,40.2,35.57Z"/><path class="cls-34" d="M37.44,35A34.32,34.32,0,0,1,35,31.18a11.45,11.45,0,0,1-1-3c-.19-.89-.12-2.13-.61-2.91a7.12,7.12,0,0,1-.69,2.53,3.74,3.74,0,0,0,0,1.79c.12.56.08,1.11.24,1.67a5.39,5.39,0,0,0,4.43,3.93A.08.08,0,0,0,37.44,35Z"/><path class="cls-34" d="M38.8,34.2a5,5,0,0,1,1.25-1.38,31,31,0,0,0,2.88-2.37s0-.1,0-.1A5.37,5.37,0,0,0,39,31.64,3,3,0,0,0,38,35a.13.13,0,0,0,.22,0A2.82,2.82,0,0,0,38.8,34.2Z"/><path class="cls-34" d="M44.92,43.69a8.82,8.82,0,0,1-.8-3.11,5.71,5.71,0,0,0-1.32-2.31,6.38,6.38,0,0,0-4.32-2.48.17.17,0,0,0-.13.29c1.26,1.43,2.8,2.39,3.89,4,.84,1.25,1.34,2.67,2.52,3.68C44.84,43.87,45,43.8,44.92,43.69Z"/><path class="cls-35" d="M37.6,34.92c-.29-1.25.07-2.47-.31-3.74a5.82,5.82,0,0,0-2-2.86s0,0,0,0c.73,1.13.7,2.69,1,4a8.16,8.16,0,0,0,.57,1.73c.19.42.81.82.93,1.2A1.89,1.89,0,0,1,37.6,34.92Z"/><path class="cls-36" d="M43.43,42.64a2.58,2.58,0,0,0-.8-.94,22.61,22.61,0,0,1-1.54-1.94c-1-1.08-2.16-2.17-3-3.33-.07-.09-.22,0-.19.11a9.84,9.84,0,0,0,1.72,3.83,5.86,5.86,0,0,0,3.8,2.31S43.44,42.66,43.43,42.64Z"/><path class="cls-37" d="M42.47,31s0-.06-.07,0l-2.17,2.13A16,16,0,0,0,38,35.27a.15.15,0,0,0,.16.24A5.61,5.61,0,0,0,42.47,31Z"/><path class="cls-38" d="M21.09,32.3a4.17,4.17,0,0,0,.78-1s0,0,0,0A2.29,2.29,0,0,0,20.7,32,.26.26,0,0,0,21.09,32.3Z"/><path class="cls-38" d="M17.91,35.51a4.17,4.17,0,0,0,.78-1s0,0,0,0a2.25,2.25,0,0,0-1.15.72A.25.25,0,0,0,17.91,35.51Z"/><path class="cls-38" d="M14.91,39.16A4.25,4.25,0,0,0,15.44,38s0,0,0,0a2.12,2.12,0,0,0-.95,1A.25.25,0,0,0,14.91,39.16Z"/><path class="cls-38" d="M13.19,42.57a4.14,4.14,0,0,0,.34-1.25s0,0,0,0a2.25,2.25,0,0,0-.8,1.1A.26.26,0,0,0,13.19,42.57Z"/><path class="cls-38" d="M12.25,46.61a3.21,3.21,0,0,0-.19-1.09s0,0,0,0a1.54,1.54,0,0,0-.29,1.09C11.81,46.85,12.25,46.85,12.25,46.61Z"/><path class="cls-38" d="M33.21,52.28a4,4,0,0,1,1.28-.21s0,0,0,0a2.22,2.22,0,0,1-1.17.68A.26.26,0,0,1,33.21,52.28Z"/><path class="cls-38" d="M28.9,53.62a4.3,4.3,0,0,1,1.28-.22,0,0,0,0,1,0,0,2.32,2.32,0,0,1-1.18.68A.25.25,0,0,1,28.9,53.62Z"/><path class="cls-38" d="M24.28,54.59a4.06,4.06,0,0,1,1.3.09s0,0,0,0a2.18,2.18,0,0,1-1.3.39A.25.25,0,0,1,24.28,54.59Z"/><path class="cls-38" d="M20.46,54.55a3.89,3.89,0,0,1,1.26.27s0,0,0,0a2.22,2.22,0,0,1-1.34.19A.25.25,0,0,1,20.46,54.55Z"/><path class="cls-38" d="M16.44,53.52a3.12,3.12,0,0,1,.88.67s0,0,0,0a1.59,1.59,0,0,1-1.1-.25C16,53.8,16.22,53.41,16.44,53.52Z"/><path class="cls-39" d="M27.5,41.06a34.9,34.9,0,0,1,5.64-3.58s0-.06,0,0c-1.6.51-3.18.55-4.58,1.56-1.83,1.31-3,3.13-4.65,4.62a.06.06,0,0,0,.07.1A17.78,17.78,0,0,0,27.5,41.06Z"/><path class="cls-40" d="M29.56,40.68s0,0,0,0a39.41,39.41,0,0,1-4.11,2.65A26,26,0,0,0,22.57,45a.05.05,0,0,0,0,.09C25.62,44.92,27.74,42.84,29.56,40.68Z"/><path class="cls-41" d="M33.06,40.3s0-.06,0,0c-1.09.77-2.09,1.68-3.13,2.51a22.29,22.29,0,0,1-3.84,2.37s0,.08,0,.07A18.71,18.71,0,0,0,30,43.85C31.51,43.08,32,41.51,33.06,40.3Z"/><path class="cls-42" d="M30.62,41.36a42.11,42.11,0,0,1,4.11-3.56.07.07,0,0,0-.06-.12,9.84,9.84,0,0,0-3.41,1.62c-1.35,1.19-2.08,2.78-3.36,4,0,0,0,0,0,0A7,7,0,0,0,30.62,41.36Z"/><path class="cls-43" d="M29.58,32.62c-1.12-1.5-3.45-.85-5-.68-.06,0-.05.09,0,.11a8.83,8.83,0,0,0,2.19.62,17.67,17.67,0,0,0,2.6.36A.25.25,0,0,0,29.58,32.62Z"/><path class="cls-44" d="M24.47,35.71c-.52-.25-1-.43-1.55-.72a5.37,5.37,0,0,0-1.59-.69c-.14,0-.31.11-.22.27.62,1,2.16,1.87,3.34,1.36A.13.13,0,0,0,24.47,35.71Z"/><path class="cls-45" d="M21,38.48a3.26,3.26,0,0,0-3.32.31.18.18,0,0,0,.11.32,4.29,4.29,0,0,0,1.46-.19c.57-.11,1.16-.15,1.72-.29A.08.08,0,0,0,21,38.48Z"/><path class="cls-46" d="M18.29,41.67a.13.13,0,0,0-.05-.21A6.8,6.8,0,0,0,17,41.29a1.55,1.55,0,0,0-1.16.09.22.22,0,0,0-.05.28c.19.4.78.46,1.18.46A1.94,1.94,0,0,0,18.29,41.67Z"/><path class="cls-47" d="M16.26,45.12c-.38,0-.76-.07-1.14-.09s-.86-.22-1.19,0a.19.19,0,0,0-.07.24c.21.37.73.38,1.11.37a2.72,2.72,0,0,0,1.34-.34A.1.1,0,0,0,16.26,45.12Z"/><path class="cls-48" d="M20.12,53.22a3.6,3.6,0,0,1-.3-1.38,3.51,3.51,0,0,1,.5-1.5s0-.09-.05-.08c-1,.24-1.56,3-.29,3.13A.14.14,0,0,0,20.12,53.22Z"/><path class="cls-49" d="M23.84,50.44a.1.1,0,0,0-.17-.08,1.6,1.6,0,0,0-.47,1.2c0,.28,0,.57-.09.86a1.38,1.38,0,0,0,0,.78.19.19,0,0,0,.23.15C24.42,53.06,23.88,51.22,23.84,50.44Z"/><path class="cls-50" d="M28.32,52.34c-.06-.21-.21-.31-.32-.49a2,2,0,0,1-.24-.87,14.11,14.11,0,0,1,0-1.72.08.08,0,0,0-.16,0,6.35,6.35,0,0,0-.4,2.15c0,.46.34,1.46,1,1.16A.21.21,0,0,0,28.32,52.34Z"/><path class="cls-51" d="M32,49.61c0-.45-.13-1.93-.85-1.89,0,0-.09,0-.07.09a3.62,3.62,0,0,1,.21.8,5,5,0,0,1-.13,1.15c-.09.48-.53,1.23-.27,1.72a.21.21,0,0,0,.19.12C31.87,51.63,31.94,50.15,32,49.61Z"/><path class="cls-52" d="M36.7,47.8c1.06-1.32.1-3.67.21-5.19,0,0,0,0,0,0A5.94,5.94,0,0,0,36.31,45a11,11,0,0,0,0,2.75A.22.22,0,0,0,36.7,47.8Z"/></g></g></svg>