<svg xmlns="http://www.w3.org/2000/svg" xmlns:xlink="http://www.w3.org/1999/xlink" viewBox="0 0 64.69 49.14"><defs><style>.cls-1{mask:url(#mask);}.cls-2,.cls-4,.cls-6{mix-blend-mode:multiply;}.cls-2{fill:url(#radial-gradient);}.cls-3{mask:url(#mask-2);filter:url(#luminosity-noclip-4);}.cls-4{fill:url(#linear-gradient);}.cls-5{mask:url(#mask-3);}.cls-6{fill:url(#linear-gradient-2);}.cls-7{fill:url(#radial-gradient-2);}.cls-14,.cls-16,.cls-21,.cls-8{opacity:0.3;}.cls-8{fill:url(#radial-gradient-3);}.cls-9{fill:url(#radial-gradient-4);}.cls-10{fill:url(#radial-gradient-5);}.cls-11{fill:url(#radial-gradient-6);}.cls-12{mask:url(#mask-4);}.cls-13{opacity:0.8;fill:url(#radial-gradient-7);}.cls-14,.cls-41{fill:#fff;}.cls-15{mask:url(#mask-5);}.cls-16{fill:url(#linear-gradient-3);}.cls-17{fill:url(#radial-gradient-8);}.cls-18{fill:url(#radial-gradient-9);}.cls-19{opacity:0.7;fill:url(#radial-gradient-10);}.cls-20{mask:url(#mask-6);}.cls-21{fill:url(#linear-gradient-4);}.cls-22{fill:url(#radial-gradient-11);}.cls-23{fill:url(#radial-gradient-12);}.cls-24{fill:url(#radial-gradient-13);}.cls-25{fill:url(#radial-gradient-14);}.cls-26{fill:url(#radial-gradient-15);}.cls-27{fill:url(#radial-gradient-16);}.cls-28{fill:#f5e7b8;}.cls-29{fill:url(#radial-gradient-17);}.cls-30{fill:url(#radial-gradient-18);}.cls-31{fill:url(#radial-gradient-19);}.cls-32{fill:url(#radial-gradient-20);}.cls-33{fill:#ef712b;}.cls-34{fill:url(#radial-gradient-21);}.cls-35{fill:url(#radial-gradient-22);}.cls-36{fill:url(#radial-gradient-23);}.cls-37{fill:url(#radial-gradient-24);}.cls-38{fill:#fbb040;}.cls-39{fill:url(#radial-gradient-25);}.cls-40{fill:url(#radial-gradient-26);}.cls-42{fill:url(#radial-gradient-27);}.cls-43{fill:url(#radial-gradient-28);}.cls-44,.cls-45{fill:#d7df23;}.cls-44{opacity:0.5;}.cls-45,.cls-47{opacity:0.2;}.cls-46{opacity:0.4;}.cls-48{filter:url(#luminosity-noclip-3);}.cls-49{filter:url(#luminosity-noclip-2);}.cls-50{filter:url(#luminosity-noclip);}</style><filter id="luminosity-noclip" x="4.59" y="-8245.96" width="29.15" height="32766" filterUnits="userSpaceOnUse" color-interpolation-filters="sRGB"><feFlood flood-color="#fff" result="bg"/><feBlend in="SourceGraphic" in2="bg"/></filter><mask id="mask" x="4.59" y="-8245.96" width="29.15" height="32766" maskUnits="userSpaceOnUse"><g class="cls-50"/></mask><radialGradient id="radial-gradient" cx="508.24" cy="618.73" r="9.18" gradientTransform="matrix(0.35, 0.75, -1.55, 0.73, 799.72, -823.19)" gradientUnits="userSpaceOnUse"><stop offset="0" stop-color="#fff"/><stop offset="1"/></radialGradient><filter id="luminosity-noclip-2" x="1.17" y="-8245.96" width="45.86" height="32766" filterUnits="userSpaceOnUse" color-interpolation-filters="sRGB"><feFlood flood-color="#fff" result="bg"/><feBlend in="SourceGraphic" in2="bg"/></filter><mask id="mask-2" x="1.17" y="-8245.96" width="45.86" height="32766" maskUnits="userSpaceOnUse"><g class="cls-49"/></mask><linearGradient id="linear-gradient" x1="22.39" y1="12.07" x2="32.73" y2="31.71" gradientUnits="userSpaceOnUse"><stop offset="0"/><stop offset="1" stop-color="#fff"/></linearGradient><filter id="luminosity-noclip-3" x="37.93" y="-8245.96" width="26" height="32766" filterUnits="userSpaceOnUse" color-interpolation-filters="sRGB"><feFlood flood-color="#fff" result="bg"/><feBlend in="SourceGraphic" in2="bg"/></filter><mask id="mask-3" x="37.93" y="-8245.96" width="26" height="32766" maskUnits="userSpaceOnUse"><g class="cls-48"/></mask><linearGradient id="linear-gradient-2" x1="50.67" y1="39.12" x2="51.3" y2="51.06" xlink:href="#linear-gradient"/><radialGradient id="radial-gradient-2" cx="24" cy="15.45" r="19.32" gradientUnits="userSpaceOnUse"><stop offset="0" stop-color="#fedc7a"/><stop offset="0.93" stop-color="#ffd129"/><stop offset="1" stop-color="#d7df23"/></radialGradient><radialGradient id="radial-gradient-3" cx="24" cy="15.71" r="19.22" gradientUnits="userSpaceOnUse"><stop offset="0" stop-color="#99cc48"/><stop offset="1" stop-color="#f98f03"/></radialGradient><radialGradient id="radial-gradient-4" cx="24.01" cy="15.46" r="20.19" gradientUnits="userSpaceOnUse"><stop offset="0" stop-color="#8d9308"/><stop offset="1" stop-color="#ffd129"/></radialGradient><radialGradient id="radial-gradient-5" cx="40.96" cy="7.77" r="23.09" xlink:href="#radial-gradient-4"/><radialGradient id="radial-gradient-6" cx="6.6" cy="22.22" r="2.69" xlink:href="#radial-gradient-4"/><mask id="mask-4" x="4.59" y="0.11" width="29.15" height="19.17" maskUnits="userSpaceOnUse"><g class="cls-1"><path class="cls-2" d="M22.39,16.53C14.54,20.24,6.74,20.19,5,16.42s3.13-9.84,11-13.55S31.59-.8,33.37,3,30.24,12.81,22.39,16.53Z"/></g></mask><radialGradient id="radial-gradient-7" cx="508.24" cy="618.73" r="9.18" gradientTransform="matrix(0.35, 0.75, -1.55, 0.73, 799.72, -823.19)" gradientUnits="userSpaceOnUse"><stop offset="0" stop-color="#fff"/><stop offset="1" stop-color="#fff"/></radialGradient><filter id="luminosity-noclip-4" x="1.17" y="0.98" width="45.86" height="29.16" filterUnits="userSpaceOnUse" color-interpolation-filters="sRGB"><feFlood flood-color="#fff" result="bg"/><feBlend in="SourceGraphic" in2="bg"/></filter><mask id="mask-5" x="1.17" y="0.98" width="45.86" height="29.16" maskUnits="userSpaceOnUse"><g class="cls-3"><path class="cls-4" d="M46.31,7.5c-1.48-.59-3-.81-4.31-1.8s-2.1-2.1-3.48-2.87a18.89,18.89,0,0,0-2.81-1.21,18.11,18.11,0,0,0-2-.56,5.41,5.41,0,0,0-1.75,0c-.34,0-1.19-.18-1.45,0-.7.54,2.29,1.49.36,2a2.41,2.41,0,0,1,.47,1.67c-.08.3-.51.54-.41.9s.54.3.65.53c.19.4-.13.74-.21,1.09-.12.55,0,.38,0,.91a2.8,2.8,0,0,1-.75,1.76c-.35.32-1.16.24-1.3.78-.2.81.58.6,0,1.44-.33.5-.52.2-.27.9.11.31.57.52.44.92-.29.93-1.66.12-2.16.53s-.11.83-.1,1.26c0,.77-.14.51-.63,1s-.4.88-1,.74c-.32-.07-.56-.87-1-.55-.22.18.05,1.33-.12,1.68-.86,1.7-2.3-.28-3.33.25-.32.17-.27.69-.51.92-.4.39-.77.26-1.28.18s-.71-.24-1.12,0-.33.64-.93.8a4.5,4.5,0,0,1-2.65-.35c-1-.32-2.25.26-3.14-.12S10.53,18.43,9.43,19c-.36-1,.35-1.87-1.19-1.09-1.08.54-.82.3-1.66-.22-.61-.38-1,.13-1.57,0-.41-.09-.56-.53-1-.57a12.25,12.25,0,0,1-2,2.56c-.94.82-1.24,3.1-.05,3.86a15.89,15.89,0,0,0,2.69,1c2.75,1.11,8.29,6.37,17.71,5.5,6.72-.61,10.12-.91,14.79-4.51,5.86-4.52,5.14-10,6.92-13.36.87-1.63,2.88-1.25,3-3.63A1,1,0,0,0,46.31,7.5Zm-4.52,9.12s-.09,0-.08,0A13.21,13.21,0,0,0,40.49,5.84s0,0,0,0a10.82,10.82,0,0,1,2.34,5.54A8,8,0,0,1,41.79,16.62Z"/></g></mask><linearGradient id="linear-gradient-3" x1="22.39" y1="12.07" x2="32.73" y2="31.71" gradientUnits="userSpaceOnUse"><stop offset="0" stop-color="#290c03"/><stop offset="1" stop-color="#290c03"/></linearGradient><radialGradient id="radial-gradient-8" cx="50.5" cy="22.22" r="4.71" xlink:href="#radial-gradient-2"/><radialGradient id="radial-gradient-9" cx="49.64" cy="34" r="14.4" xlink:href="#radial-gradient-2"/><radialGradient id="radial-gradient-10" cx="51.88" cy="36.36" r="14.4" xlink:href="#radial-gradient-3"/><mask id="mask-6" x="37.93" y="38.3" width="26" height="10.18" maskUnits="userSpaceOnUse"><g class="cls-5"><path class="cls-6" d="M61.51,38.36l-.18-.06c-2,2.29-4.68,6.66-8.23,6.23-1.72-.21-2.14-1.36-3.21-2.44-2,.88-2.16,2.8-4.54,3a12.93,12.93,0,0,0-2.94.33c-1.92.58-2.64.32-4.48-.34a15,15,0,0,0,2.32,1.32C44.32,48.14,48.61,49.12,53,48c1.72-.44,3.44-1.51,5.28-1.27,1.67.22,3.63.59,4.75-1A5.32,5.32,0,0,0,63.93,43C62.59,41.69,61.24,40.08,61.51,38.36Z"/></g></mask><linearGradient id="linear-gradient-4" x1="50.67" y1="39.12" x2="51.3" y2="51.06" xlink:href="#linear-gradient-3"/><radialGradient id="radial-gradient-11" cx="44.59" cy="21.96" r="4.49" xlink:href="#radial-gradient-2"/><radialGradient id="radial-gradient-12" cx="40.32" cy="24.89" r="3" xlink:href="#radial-gradient-2"/><radialGradient id="radial-gradient-13" cx="51.25" cy="25.87" r="3.87" xlink:href="#radial-gradient-2"/><radialGradient id="radial-gradient-14" cx="38.95" cy="34.54" r="5.27" xlink:href="#radial-gradient-2"/><radialGradient id="radial-gradient-15" cx="38.87" cy="30.5" r="4.01" xlink:href="#radial-gradient-2"/><radialGradient id="radial-gradient-16" cx="43.94" cy="35.2" r="4.32" xlink:href="#radial-gradient-2"/><radialGradient id="radial-gradient-17" cx="45.19" cy="28.39" r="1.03" xlink:href="#radial-gradient-2"/><radialGradient id="radial-gradient-18" cx="49.64" cy="32.52" r="3.52" xlink:href="#radial-gradient-2"/><radialGradient id="radial-gradient-19" cx="48.07" cy="31.77" r="17" xlink:href="#radial-gradient-4"/><radialGradient id="radial-gradient-20" cx="44.91" cy="28.63" r="11.95" xlink:href="#radial-gradient-4"/><radialGradient id="radial-gradient-21" cx="51.1" cy="22.6" r="4.59" gradientTransform="translate(-3.32 -0.04)" gradientUnits="userSpaceOnUse"><stop offset="0" stop-color="#fff539"/><stop offset="0.22" stop-color="#ffe432"/><stop offset="0.49" stop-color="#ffd62b"/><stop offset="0.72" stop-color="#ffd129"/></radialGradient><radialGradient id="radial-gradient-22" cx="54.21" cy="30.51" r="4.85" xlink:href="#radial-gradient-21"/><radialGradient id="radial-gradient-23" cx="54.4" cy="23.42" r="5.3" xlink:href="#radial-gradient-21"/><radialGradient id="radial-gradient-24" cx="51.67" cy="35.54" r="4.39" xlink:href="#radial-gradient-21"/><radialGradient id="radial-gradient-25" cx="42.21" cy="33.6" r="4.67" xlink:href="#radial-gradient-21"/><radialGradient id="radial-gradient-26" cx="44.99" cy="23.73" r="3.97" xlink:href="#radial-gradient-21"/><radialGradient id="radial-gradient-27" cx="43.75" cy="36.88" r="5.34" xlink:href="#radial-gradient-21"/><radialGradient id="radial-gradient-28" cx="42.49" cy="27.38" r="3.7" xlink:href="#radial-gradient-21"/></defs><g id="Capa_2" data-name="Capa 2"><g id="Layer_4" data-name="Layer 4"><path class="cls-7" d="M4.64,24.54c2.75,1.11,8.29,6.37,17.71,5.5,6.72-.61,10.12-.91,14.79-4.51,5.86-4.52,5.14-10,6.92-13.36.87-1.63,2.88-1.25,3-3.63a1,1,0,0,0-.72-1c-1.48-.59-3-.81-4.31-1.8s-2.1-2.1-3.48-2.87C35.72,1.26,32.35,1,29.2.81a31.92,31.92,0,0,0-15,2.67A19,19,0,0,0,6.69,9.71C5,12.12,5,15.07,3.65,17.62,3,19,1.15,20,1,21.58.74,23.73,3.18,23.94,4.64,24.54ZM40.52,5.82a10.82,10.82,0,0,1,2.34,5.54,8,8,0,0,1-1.07,5.26s-.09,0-.08,0A13.21,13.21,0,0,0,40.49,5.84S40.51,5.81,40.52,5.82ZM4.77,18.89c1,2.36,1.81,4.81,3.66,6.62,0,0,0,0,0,0A8.05,8.05,0,0,1,4.76,18.9S4.77,18.89,4.77,18.89Z"/><path class="cls-8" d="M46.31,7.5a21,21,0,0,1-4-1.6h-.14A.17.17,0,0,1,42,5.78s0-.06,0-.09v0a29.38,29.38,0,0,0-3.43-2.84c-.89-.5-2.13-.66-2.44.59-.21.86.37,1.77.24,2.66a15.49,15.49,0,0,0-.47,3.06,8.46,8.46,0,0,1-.66,3.51,9.64,9.64,0,0,1-2,3.82c-1,1-2.27,1.65-2.84,3a7,7,0,0,1-1.4,2.73c-.71.65-1.33.5-2.15.76s-1.52,1.37-2.38,1.89a5.41,5.41,0,0,1-4,.44,6,6,0,0,0-3.06.09c-1,.3-1.62.68-2.62.28-1.71-.68-3.37-1.26-5-2-.8-.34-1.16,0-1.94.07a2.44,2.44,0,0,1-1.92-1.12,5.43,5.43,0,0,0-1.64-1.16c-.6-.36-.46-.52-.79-1-1-1.6-2.24-.18-2.38,1.15-.24,2.15,2.2,2.36,3.66,3,2.75,1.11,8.29,6.37,17.71,5.5L23,30c-.1-.11-.06-.32.11-.31a1.49,1.49,0,0,1,.54.14.11.11,0,0,1,.08.1l1.22-.12a.4.4,0,0,1,0-.11.13.13,0,0,1,.14-.09,1.13,1.13,0,0,1,.26.16l1.47-.17a.28.28,0,0,1,.07-.29A1.42,1.42,0,0,1,27.6,29a1.48,1.48,0,0,0,.7-.34.18.18,0,0,1,.26.23,5.24,5.24,0,0,1-.38.52,20.57,20.57,0,0,0,4.32-1.14.84.84,0,0,1,.4-.63,1.69,1.69,0,0,1,.72-.26c.12,0,.18.17.07.22a1.5,1.5,0,0,0-.38.32c.31-.14.62-.3.94-.47l0,0a.08.08,0,0,1,0-.11.43.43,0,0,1,.35-.06h0a21.8,21.8,0,0,0,2.45-1.64.51.51,0,0,1-.4-.05.37.37,0,0,1-.2-.42.12.12,0,0,1,.09-.05c.21,0,.34.21.56.21a.13.13,0,0,1,.14.16,15.49,15.49,0,0,0,1.56-1.39.41.41,0,0,1-.08-.57c.08-.12.17-.23.26-.34s.32,0,.26.17a.31.31,0,0,0,0,.21s0,0,0,.06a13.44,13.44,0,0,0,2-2.87,3.52,3.52,0,0,1-.74.46c-.12.06-.31,0-.3-.16a1.15,1.15,0,0,1,.51-.93,2.82,2.82,0,0,1,1-.29c1.21-2.86,1.38-5.62,2.44-7.63.51-1,1.42-1.22,2.09-1.76a.48.48,0,0,1-.35,0,.16.16,0,0,1-.06-.21.6.6,0,0,1,.3-.24c.11,0,.23,0,.34-.1a.17.17,0,0,1,.22.11A2.43,2.43,0,0,0,47,8.54,1,1,0,0,0,46.31,7.5ZM32,3.92s0,0,0,0a.1.1,0,0,1,0,0V4a.1.1,0,0,1-.17,0l0-.05a.18.18,0,0,1-.06-.18.38.38,0,0,1,.19-.24C32.08,3.41,32.28,3.79,32,3.92Zm-.82-2.07a.22.22,0,0,1,.32-.21.25.25,0,0,1,.13.12.23.23,0,0,1-.06.32.26.26,0,0,1-.29,0A.24.24,0,0,1,31.19,1.85ZM31.32,3a.71.71,0,0,1,.4-.57.12.12,0,0,1,.16.11.94.94,0,0,1-.22.64.2.2,0,0,1-.24,0A.2.2,0,0,1,31.32,3Zm.2,1.78a.32.32,0,0,1-.1-.31.16.16,0,0,1,.3,0,.54.54,0,0,0,.05.11A.16.16,0,0,1,31.52,4.78Zm.55.93,0,0c-.16.19-.43-.1-.23-.27a.1.1,0,0,0,.05,0C32,5.32,32.19,5.56,32.07,5.71Zm.2-1.06A.31.31,0,0,1,32,4.54c-.12-.17.09-.33.24-.25h0C32.48,4.29,32.5,4.66,32.27,4.65ZM5.79,18.22c.09-.1.19,0,.25.07a.6.6,0,0,1,.08.21.12.12,0,0,0,.08.1.13.13,0,0,1-.09.24.65.65,0,0,1-.34-.22A.38.38,0,0,1,5.79,18.22Zm-3.4,2.42a.65.65,0,0,1-.34.33L2,21l-.05,0v0a.36.36,0,0,1-.56,0,.42.42,0,0,1,0-.42.5.5,0,0,1,0-.12.29.29,0,0,1,.25-.18.66.66,0,0,1,.48-.14.36.36,0,0,1,.33.23A.34.34,0,0,1,2.39,20.64Zm0-1.09a.23.23,0,0,1,0-.14l0,0a.25.25,0,0,1,.08-.18.32.32,0,0,1,.4-.06.29.29,0,0,1,.1.09l0,0a.17.17,0,0,1-.09.31h0l0,.05a.49.49,0,0,1-.17.06l-.09,0A.19.19,0,0,1,2.37,19.55ZM3,21.65c-.14,0-.36,0-.42-.15a.18.18,0,0,1,.07-.21.32.32,0,0,1,.09,0H2.9a.11.11,0,0,1,.11.06.28.28,0,0,1,.09.07A.16.16,0,0,1,3,21.65Zm.6-2.51-.13.06h0l0,.05c-.06.15-.26.14-.37.06a.54.54,0,0,1,.26-1A.43.43,0,0,1,3.64,19.14Zm.06-1A.9.9,0,0,1,4,17.54a.17.17,0,0,1,.3.11c0,.27-.16.65-.47.65A.15.15,0,0,1,3.7,18.16Zm.7,4.52a.41.41,0,0,1-.35-.07.47.47,0,0,1-.18-.28A.16.16,0,0,1,4,22.17a.56.56,0,0,1,.47.34A.11.11,0,0,1,4.4,22.68Zm.74-4.19c0,.11-.07.24-.1.36A.2.2,0,0,1,5,19a.11.11,0,0,1,0,.14c-.07.1-.18.18-.3.1a.28.28,0,0,1-.11-.36.16.16,0,0,1,.1-.1l0-.07.08-.13a.28.28,0,0,1-.14-.3c0-.09,0-.18.05-.26s0-.07,0-.11l0-.1a.36.36,0,0,1,.11-.16.35.35,0,0,1,.58.12.42.42,0,0,1,0,.15.23.23,0,0,1,.11,0,.13.13,0,0,1,0,.24,1.11,1.11,0,0,1-.21.08A.75.75,0,0,1,5.14,18.49Zm1.34,2.42c-.18.08-.43,0-.61-.1a3.38,3.38,0,0,1-.44-.18.21.21,0,0,1-.06-.31c.3-.37,1.29-.21,1.29.34A.27.27,0,0,1,6.48,20.91Zm.39-1.22c-.11.1-.25.2-.41.12a.36.36,0,0,1-.18-.42.19.19,0,0,1,.27-.12.33.33,0,0,1,.16.17C6.85,19.39,7,19.58,6.87,19.69Zm2,3a.68.68,0,0,1-.46-.09c-.22-.1,0-.43.17-.33s.3,0,.37.18A.16.16,0,0,1,8.82,22.7Zm.4-1.45,0,0a.47.47,0,0,1-.73-.05.48.48,0,0,1,.25-.7h0A.46.46,0,0,1,9.22,21.25Zm1,1.07A1.32,1.32,0,0,1,9.44,22c-.1-.07,0-.2.12-.13a2.65,2.65,0,0,0,.4.24,2,2,0,0,1,.33.15A.07.07,0,0,1,10.25,22.32Zm1.63-1a.26.26,0,0,1,.33-.06.16.16,0,0,1,0,.3,1.07,1.07,0,0,1-.19.07A.19.19,0,0,1,11.88,21.36Zm.29,1.46c-.74.34-1.33-.64-1.39-1.24,0-.08.09-.11.14-.07a3.76,3.76,0,0,0,.6.45,1.39,1.39,0,0,0,.61.13.38.38,0,0,1,.29.35A.39.39,0,0,1,12.17,22.82ZM29.37,15a.37.37,0,0,1,0,.14.22.22,0,0,1-.15.22.31.31,0,0,1-.23,0A.19.19,0,0,1,29,15a.33.33,0,0,1,.13-.07A.17.17,0,0,1,29.37,15Zm-2-2.18a.69.69,0,0,0,.75.3.86.86,0,0,0,.32-.1l.2-.1s.2-.1.1,0a.27.27,0,0,1,.41.28.68.68,0,0,1-.44.55,1,1,0,0,1-.71,0,1.1,1.1,0,0,1-.77-.83C27.25,12.81,27.37,12.73,27.41,12.82Zm-.22,1.57c.27-.08.55.26.32.48a.72.72,0,0,1-.19.12.24.24,0,0,1-.14,0h0a.2.2,0,0,1-.25,0,.22.22,0,0,1,0-.16v-.07A.41.41,0,0,1,27.19,14.39Zm0,1.45c.2-.34.45-.79.85-.91a.39.39,0,0,1,.41.62c-.26.28-.66.38-.94.65a3.94,3.94,0,0,0-.66.86.06.06,0,0,1-.12,0A5,5,0,0,1,27.18,15.84Zm.06,2.72a.26.26,0,0,1-.36-.08.49.49,0,0,1-.14-.41.13.13,0,0,1,.1-.09.56.56,0,0,1,.43.16A.27.27,0,0,1,27.24,18.56Zm-2.46-1.1a1.39,1.39,0,0,1,.23.05.9.9,0,0,1,.2.14.52.52,0,0,1,.16.36.28.28,0,0,1,.11.26.55.55,0,0,1-.16.32c-.14.12-.44.17-.54,0a.27.27,0,0,1,0-.34l-.06-.05a.73.73,0,0,1-.2-.4.06.06,0,0,0,0,0C24.5,17.59,24.63,17.41,24.78,17.46Zm-3.4-.18a.43.43,0,0,1,.07-.2.49.49,0,0,1,.5-.24.47.47,0,0,1,.35.42.48.48,0,0,1-.06.33.43.43,0,0,1-.38.25h0a.49.49,0,0,1-.32-.12A.48.48,0,0,1,21.38,17.28Zm-3,2a.57.57,0,0,1,.22.11.9.9,0,0,1,.15.19.17.17,0,1,1-.31.15,1.4,1.4,0,0,0-.1-.16,1,1,0,0,1-.07-.18C18.23,19.37,18.28,19.29,18.35,19.31Zm-.84-.45a.12.12,0,1,1,.11.22c-.1.05-.16.16-.26.2s-.09,0-.1-.07S17.39,18.93,17.51,18.86Zm-2,1.21a.43.43,0,0,1,.26-.19l.11,0a.55.55,0,0,1,.5,0,1.2,1.2,0,0,1,.21.17.15.15,0,0,0,.11,0,.12.12,0,1,1,.15.18l-.13.06a.65.65,0,0,1,0,.44.61.61,0,0,1-.84.42.5.5,0,0,1-.24-.29.4.4,0,0,1-.1-.15.43.43,0,0,1-.09-.1.37.37,0,0,1-.12-.22A.38.38,0,0,1,15.56,20.07ZM14.19,22c-.07-.09,0-.19.12-.18a2,2,0,0,1,.47.16l.11,0L15,21.9a.71.71,0,0,1,.32-.22.31.31,0,0,1,.38.13.5.5,0,0,1,.06.43l-.06.17a.41.41,0,0,1-.13.24.54.54,0,0,1-.26.16.61.61,0,0,1-.42,0,.36.36,0,0,1-.16-.48h0A1,1,0,0,1,14.19,22Zm2.73,2.18a4.94,4.94,0,0,0-2.32-.27s-.07-.08,0-.09c.72-.19,2-.55,2.45.25C17.07,24.09,17,24.16,16.92,24.13Zm.85-1.66a.45.45,0,0,1-.67-.23.58.58,0,0,1,0-.41.4.4,0,0,1,.52-.18.57.57,0,0,1,0-.13.11.11,0,1,1,.22,0,1.53,1.53,0,0,1,0,.3A.45.45,0,0,1,17.77,22.47Zm-.2-1.76a.49.49,0,0,1-.35-.33.47.47,0,0,1,0-.17c0,.08,0,.08,0,0a.73.73,0,0,1,.29-.82.57.57,0,0,1,.65.05.7.7,0,0,1,.06,1A.58.58,0,0,1,17.57,20.71Zm.66.32a.83.83,0,0,1,1.16-.59,0,0,0,0,1,0,0,1,1,0,0,0-.51.19.6.6,0,0,0-.2.47C18.64,21.41,18.17,21.32,18.23,21Zm.4,3.51a3.18,3.18,0,0,1,1.15-.08.1.1,0,0,1,0,.17,1.29,1.29,0,0,1-1.22.2A.15.15,0,0,1,18.63,24.54Zm1.15,4.37a6.38,6.38,0,0,1-.63-.12.18.18,0,0,1,.07-.35,4.49,4.49,0,0,1,.64.1A.19.19,0,0,1,19.78,28.91Zm.15-6.34a.55.55,0,0,1-.4,0,.57.57,0,0,1-.24-.41.19.19,0,0,1,.26-.17,1.14,1.14,0,0,1,.24.25c0,.05.06.1.12.11S20.07,22.54,19.93,22.57Zm.16-2.4h0a.43.43,0,0,1-.42-.29v0a.4.4,0,0,1,.36-.52h0c.24,0,.4.2.44.4v0A.39.39,0,0,1,20.09,20.17Zm.47,2.29a.1.1,0,0,1,0-.15,1.44,1.44,0,0,1,.52-.27l.28-.1.12,0s0,0,0-.07a.2.2,0,0,1,.37.14c-.05.3-.17.59-.5.66A.9.9,0,0,1,20.56,22.46Zm.85-1.54a.27.27,0,0,1,.2-.3c.28-.11.43.36.15.43a.61.61,0,0,1-.17,0A.18.18,0,0,1,21.41,20.92Zm.88,6.85c-.06.21-.2.53-.44.58s-.23,0-.31,0-.05-.17,0-.25.31-.29.45-.46A.18.18,0,0,1,22.29,27.77Zm0-3.14c-.08-.11-.08-.35.11-.34a.08.08,0,0,1,.08.06s0,.1,0,.11A.13.13,0,1,1,22.26,24.63Zm-.37-5.21a3.65,3.65,0,0,0-.69-.27,1.29,1.29,0,0,1-.57-.19c-.05,0,0-.1,0-.13a2.3,2.3,0,0,1,.82-.39,1.38,1.38,0,0,1,.6,0,.33.33,0,0,1,.33,0c.21.11.21.38.24.58C22.7,19.36,22.2,19.54,21.89,19.42ZM22.71,17a.26.26,0,0,1,.44-.2.21.21,0,0,1,0,.38h0A.25.25,0,0,1,22.71,17Zm.64.8a.25.25,0,0,1,.13-.16.42.42,0,0,1,.55.24.18.18,0,0,1-.17.25v0a1.5,1.5,0,0,1,.09.43.22.22,0,0,1-.43.08,2.24,2.24,0,0,0-.27-.34C23.16,18.16,23.1,17.86,23.35,17.79Zm.52,8.33h0a.45.45,0,0,1-.45,0h-.05a.15.15,0,0,1-.14-.1.42.42,0,0,1,0-.27.41.41,0,0,1,.47-.25.38.38,0,0,1,.28.29v0A.2.2,0,0,1,23.87,26.12Zm.05-4.91c0-.05,0-.15,0-.16a1.65,1.65,0,0,0,.56-.17,1.13,1.13,0,0,0,.37-.51c.08-.17.38-.07.32.12a1.41,1.41,0,0,1-.49.79A.61.61,0,0,1,23.92,21.21Zm1.71.95c-.13,0-.28,0-.41-.05L25,22.05,24.88,22a.09.09,0,0,1,0-.16.6.6,0,0,1,.42-.07l.39.13A.15.15,0,0,1,25.63,22.16Zm.41-5.7a.38.38,0,0,1-.35.39.38.38,0,0,1-.4-.36.4.4,0,0,1,.19-.35.39.39,0,0,1-.27-.39.59.59,0,0,1,.09-.34c.18-.43.3-.87.45-1.31a0,0,0,0,1,.08,0,3,3,0,0,1,.28,1.73.44.44,0,0,1-.28.31A.35.35,0,0,1,26,16.46Zm1.75,11.23a1.16,1.16,0,0,1-1.65-.45.22.22,0,0,1,.09-.26,1.66,1.66,0,0,1,1.33-.07c.56.12.87-.31,1.11-.76,0,0,.11,0,.1,0A2.19,2.19,0,0,1,27.79,27.69Zm1.28-8.33a3.29,3.29,0,0,1-1.43,1.73.09.09,0,0,1-.12-.12c.35-.64.94-1.08,1.35-1.68C28.93,19.19,29.11,19.23,29.07,19.36Zm.17-1.07A.27.27,0,0,1,29,18a.18.18,0,0,1,.12-.13.23.23,0,0,1,.41.13C29.49,18.12,29.43,18.28,29.24,18.29ZM30,13a.33.33,0,0,1-.1-.14c0-.12,0-.12,0,0a.43.43,0,0,1,0-.25.56.56,0,0,1,.23-.33.7.7,0,0,1,.46-.12.44.44,0,0,1,.44.3.45.45,0,0,1-.09.43.68.68,0,0,1-.51.29.51.51,0,0,1-.38-.12Q29.9,12.84,30,13Zm.92,2.8c-.05.26-.33.51-.6.38a.13.13,0,0,1-.07-.14.4.4,0,0,1,.16-.22c.06,0,.14-.08.18-.14A.18.18,0,0,1,30.94,15.77Zm.28-2,0,0a.19.19,0,0,1-.2,0h0l-.16,0a.35.35,0,0,1-.11-.1.23.23,0,0,1,0-.39.57.57,0,0,1,.13-.08.3.3,0,0,1,.3.07.24.24,0,0,1,.08.09A.29.29,0,0,1,31.22,13.78ZM35.61,2c0-.1,0-.23.15-.31a.09.09,0,0,1,.1,0,.32.32,0,0,1,0,.49C35.7,2.33,35.55,2.17,35.61,2Zm0,15.21a2.11,2.11,0,0,1,.19-.23.12.12,0,1,1,.18.16c-.07.07-.12.16-.19.24s-.1.14-.2.14a.09.09,0,0,1-.09-.09C35.46,17.37,35.52,17.32,35.58,17.25ZM34.73,2.53c.14-.13.44-.08.44.16a.65.65,0,0,1-.37.59.18.18,0,0,1-.23-.12A.64.64,0,0,1,34.73,2.53Zm-.19.8a.18.18,0,0,1,.09,0h.1l.08,0H35a.72.72,0,0,1,.26.08.42.42,0,0,1-.06.76.71.71,0,0,1-.73-.19.64.64,0,0,1-.14-.22V3.78a.3.3,0,0,1,0-.34A.27.27,0,0,1,34.54,3.33ZM33.88,1.4a.12.12,0,0,1,.1,0l0,0c.1,0,.22.07.16.18s-.24.26-.36.09A.22.22,0,0,1,33.88,1.4Zm-.15,1.31.17-.11,0-.05c-.09-.2.06-.49.29-.46a.14.14,0,0,1,.11.1s0,.05,0,.08h0a.1.1,0,0,1,.12.11.55.55,0,0,1-.18.24l0,0A1.36,1.36,0,0,1,34,3c-.07.13-.29.31-.44.17S33.6,2.78,33.73,2.71Zm-.39,3.11c-.37-.47-.4-.76-.07-.88h0a.46.46,0,0,1,.58.29v0A.45.45,0,0,1,33.34,5.82Zm.73,1.83a.22.22,0,0,1,.16.25.61.61,0,0,1-.39.39.29.29,0,0,1-.25-.51A.57.57,0,0,1,34.07,7.65ZM32.92,3.19a.34.34,0,0,1,.36-.14c.4.1.27.73-.13.63a.4.4,0,0,1-.25-.19A.24.24,0,0,1,32.92,3.19Zm-.24,4.28a.42.42,0,0,1,0-.48.26.26,0,0,1,.19-.07.21.21,0,0,1,.15,0s0,0,0,0a.43.43,0,0,1,.29.22.33.33,0,0,1-.09.43A.41.41,0,0,1,32.68,7.47ZM32,8.87a.46.46,0,0,1,.08-.19.44.44,0,0,1,.67-.12A.65.65,0,0,1,33,9a.58.58,0,0,1-.15.43.49.49,0,0,1-.57.1A.48.48,0,0,1,32,9C32,9.2,32,8.94,32,8.87ZM31.4,12c0-.17.14-.24.27-.34a1.35,1.35,0,0,0,.31-.44,4.37,4.37,0,0,0,.34-1.06c0-.08.12-.06.13,0a2.76,2.76,0,0,1-.15,1.42c-.12.32-.44.88-.84.58A.18.18,0,0,1,31.4,12ZM32,14l.14-.08c.22-.09.41.17.33.36,0,0,0,.07,0,.1a.63.63,0,0,1,0,.52.53.53,0,0,1-.45.29.55.55,0,0,1-.47-.24A.61.61,0,0,1,32,14Zm.54,9.37a1,1,0,0,1-.51.25.7.7,0,0,1-.43,0,.13.13,0,0,1-.07-.24h0a.7.7,0,0,1,.35-.22,1.13,1.13,0,0,1,.57-.09A.18.18,0,0,1,32.57,23.37Zm.88-10.29a.82.82,0,0,1-.67.05c-.22-.09-.1-.33-.07-.48a.17.17,0,0,1,.33,0h.07a.73.73,0,0,1,.33,0,.24.24,0,0,1,.19.24A.3.3,0,0,1,33.45,13.08Zm.19-1.86a.74.74,0,0,1,.12-.43c.11-.24.47,0,.36.18s-.1.21-.15.32S33.65,11.38,33.64,11.22Zm.77,12a.23.23,0,0,1-.45-.1,2.91,2.91,0,0,1,.31-.87.11.11,0,0,1,.21,0A2.25,2.25,0,0,1,34.41,23.24ZM34.2,7.37a.36.36,0,0,1-.34-.23c-.09-.28.09-.59.12-.87l.12-.77c0-.15.27-.17.29,0,.08.36.34.64.36,1S34.65,7.39,34.2,7.37Zm.64,1.36a.09.09,0,0,1-.12-.06.29.29,0,0,1,0-.24c0-.08.09-.16.14-.24a.17.17,0,1,1,.31.16c0,.08-.07.17-.11.25A.3.3,0,0,1,34.84,8.73Zm.43,11.49c-.17.12-.35-.15-.18-.28s.29-.33.5-.38a.09.09,0,0,1,.11.11A.94.94,0,0,1,35.27,20.22Zm.93,4.92c-.06.14-.08.29-.13.44a2.24,2.24,0,0,1-.22.4.13.13,0,0,1-.24-.05,1.37,1.37,0,0,1,0-.57,1,1,0,0,1,.3-.42A.17.17,0,0,1,36.2,25.14Zm1.41-4.93c-.15.24-.35.68-.65.76s-.7.06-.84-.27a.2.2,0,0,1,.08-.21c.33-.29.84-.16,1.17-.45C37.49,19.94,37.71,20.06,37.61,20.21Zm-.89-2a.55.55,0,0,1,.22-.51.09.09,0,0,1,.13.07,2.26,2.26,0,0,1-.07.43C37,18.39,36.71,18.41,36.72,18.22ZM37.85,4.1c-.08.17-.3.21-.47.23a3.77,3.77,0,0,1-.58,0,.14.14,0,0,1,0-.28,2.67,2.67,0,0,1,.62-.21.48.48,0,0,1,.45.06A.15.15,0,0,1,37.85,4.1Zm.36,2.21a.69.69,0,0,1,.31-.53c.11-.09.29.07.21.19s-.08.1-.07.16,0,.08.05.12,0,.11.07.16,0,.1,0,.15a.09.09,0,0,1-.09.12.47.47,0,0,1-.31,0A.42.42,0,0,1,38.21,6.31Zm.8,12a.78.78,0,0,1-.44.45c-.09.05-.14-.06-.12-.13a6.09,6.09,0,0,0,.17-.61,2.45,2.45,0,0,1,.26-.51c0-.08.2-.08.2,0A2.76,2.76,0,0,1,39,18.35Zm.15-11.08-.1.11h0s0,0,0,0a.18.18,0,0,1-.23.16.25.25,0,0,1-.21-.3.65.65,0,0,1,.63-.52c.1,0,.19.09.16.19A.7.7,0,0,1,39.16,7.27Zm.74,8.24a.13.13,0,0,1-.22,0,3.2,3.2,0,0,1-.26-.9c0-.13.15-.23.21-.11A1.54,1.54,0,0,1,39.9,15.51Zm1.89,1.11s-.09,0-.08,0A13.21,13.21,0,0,0,40.49,5.84s0,0,0,0a10.82,10.82,0,0,1,2.34,5.54A8,8,0,0,1,41.79,16.62Zm1.8-8.79a.59.59,0,0,1-.41,0h0a.22.22,0,0,1,0-.43h0a1.78,1.78,0,0,1,.29-.12.78.78,0,0,1,.37,0,.13.13,0,0,1,.1.12A.49.49,0,0,1,43.59,7.83Zm1,1.09a.61.61,0,0,1-.12.05h0a.34.34,0,0,1-.42-.15A.61.61,0,0,1,44,8.35c0-.17.32-.2.36,0a.29.29,0,0,0,.1.18.46.46,0,0,1,.16.2l0,0A.11.11,0,0,1,44.63,8.92Zm1.83.46a.54.54,0,0,1-.22.25c-.16.11-.43-.1-.31-.28a.59.59,0,0,1,.29-.25C46.4,9,46.51,9.23,46.46,9.38Z"/><path class="cls-9" d="M2.32,24.59c3.89.36,8.31,5.74,15.9,6.22C37.33,32,41.46,22.46,42.68,19.54c.92-2.19,1-4.91,2.19-6.92.62-1,1.93-1.45,2.57-2.44,1-1.57.59-2.45-.31-3a17,17,0,0,0-2.82-1.21,10.72,10.72,0,0,1-3-1.72,15.14,15.14,0,0,0-9.36-4c-7-.56-14.12,0-20.13,4C7.63,7,4.67,10.16,3.61,16.11,3.42,17.19,1.15,19.58.55,20.4A2.6,2.6,0,0,0,2.32,24.59ZM1,21.58c.17-1.6,2-2.62,2.67-4,1.3-2.55,1.34-5.5,3-7.91a19,19,0,0,1,7.54-6.23A31.92,31.92,0,0,1,29.2.81c3.15.14,6.52.45,9.32,2,1.38.77,2.25,2,3.48,2.87s2.83,1.21,4.31,1.8a1,1,0,0,1,.72,1c-.09,2.38-2.1,2-3,3.63C42.28,15.54,43,21,37.14,25.53c-4.67,3.6-8.07,3.9-14.79,4.51-9.42.87-15-4.39-17.71-5.5C3.18,23.94.74,23.73,1,21.58Z"/><path class="cls-10" d="M41.71,16.58s.06.08.08,0a8,8,0,0,0,1.07-5.26,10.82,10.82,0,0,0-2.34-5.54s0,0,0,0A13.21,13.21,0,0,1,41.71,16.58Z"/><path class="cls-11" d="M8.4,25.55s0,0,0,0c-1.85-1.81-2.71-4.26-3.66-6.62,0,0,0,0,0,0A8.05,8.05,0,0,0,8.4,25.55Z"/><g class="cls-12"><path class="cls-13" d="M22.39,16.53C14.54,20.24,6.74,20.19,5,16.42s3.13-9.84,11-13.55S31.59-.8,33.37,3,30.24,12.81,22.39,16.53Z"/></g><path class="cls-14" d="M29.33,6.92c-.23.43-.52.82-.78,1.24a8.37,8.37,0,0,0-.8,1.23.13.13,0,0,0,.17.15,3.15,3.15,0,0,0,1.46-2.6S29.35,6.9,29.33,6.92Z"/><path class="cls-14" d="M25.52,11a3,3,0,0,0-.74.5c-.26.25-.55.44-.82.68a.14.14,0,0,0,.08.24A1.08,1.08,0,0,0,25,12c.27-.28.35-.66.63-.94A.05.05,0,0,0,25.52,11Z"/><path class="cls-14" d="M20.88,13.66c-.6.14-1.23.13-1.84.24a.17.17,0,0,0,0,.33,2.11,2.11,0,0,0,1.91-.42C21,13.77,21,13.63,20.88,13.66Z"/><path class="cls-14" d="M14.77,14.61a1.67,1.67,0,0,1-.8-.33c-.21-.14-.38-.3-.64-.27a.15.15,0,0,0-.11.21c.1.26.4.37.63.48a2.17,2.17,0,0,0,.9.16A.13.13,0,1,0,14.77,14.61Z"/><path class="cls-14" d="M10.92,12.55c-.16-.39-.18-.84-.34-1.22a.21.21,0,0,0-.18-.12.21.21,0,0,0-.23.2,1.69,1.69,0,0,0,.65,1.21A.06.06,0,0,0,10.92,12.55Z"/><path class="cls-14" d="M13.09,7.43a1.72,1.72,0,0,0-.94.47,1.05,1.05,0,0,0-.38.86.09.09,0,0,0,.18,0,1.67,1.67,0,0,1,.61-.63,2.05,2.05,0,0,0,.62-.59A.09.09,0,0,0,13.09,7.43Z"/><path class="cls-14" d="M21.4,3.05c-.48-.49-1.26.19-1.67.47-.13.1,0,.27.15.22s.47-.18.71-.27a4.15,4.15,0,0,0,.78-.24A.12.12,0,0,0,21.4,3.05Z"/><path class="cls-14" d="M29.66,4l-.06-.53c0-.17-.09-.32-.11-.49s-.26-.13-.27,0a4.78,4.78,0,0,0-.1,1c0,.28,0,.65.31.8.08,0,.17,0,.22,0A1.1,1.1,0,0,0,29.66,4Z"/><path class="cls-14" d="M31.63,6.81a10.55,10.55,0,0,1-.52,1.74,8.75,8.75,0,0,1-1,1.55.13.13,0,0,0,.17.19c1.34-.58,1.51-2.15,1.66-3.42C31.91,6.71,31.67,6.66,31.63,6.81Z"/><path class="cls-14" d="M28.27,13A9.64,9.64,0,0,0,27,14.43a.1.1,0,0,0,.13.15c.62-.24,1-.92,1.4-1.42C28.58,13,28.38,12.84,28.27,13Z"/><path class="cls-14" d="M23.73,15.4a1.23,1.23,0,0,0-.94.26,3.94,3.94,0,0,0-.73.84.1.1,0,0,0,.1.16,2.83,2.83,0,0,0,.77-.45,2.16,2.16,0,0,1,.82-.49A.16.16,0,0,0,23.73,15.4Z"/><path class="cls-14" d="M19.82,18.2a3.21,3.21,0,0,1-1.57.07c-.09,0-.17.12-.09.19a1.59,1.59,0,0,0,1.83.1A.2.2,0,0,0,19.82,18.2Z"/><path class="cls-14" d="M16.1,17.21c-.68,0-1.07-.84-1.77-.68a.11.11,0,0,0-.07.19,2.42,2.42,0,0,0,1.86.84A.18.18,0,0,0,16.1,17.21Z"/><path class="cls-14" d="M13.48,17.76c-.22.5-1.48.16-1.86.11a.1.1,0,0,0-.08.16c.58.55,2,.85,2.2-.22C13.76,17.65,13.53,17.63,13.48,17.76Z"/><path class="cls-14" d="M9.67,17.07c-.31-.56-.46-1.44-1.06-1.77-.08-.05-.21,0-.18.12a5.27,5.27,0,0,0,1,1.81C9.53,17.36,9.76,17.22,9.67,17.07Z"/><path class="cls-14" d="M7.23,12.78c-.22,0-.42,0-.46.29,0,.1.12.16.19.09l.11-.1a.51.51,0,0,1,.17,0C7.39,13,7.36,12.79,7.23,12.78Z"/><path class="cls-14" d="M11.13,20.33a2,2,0,0,0-.78-.81A6.07,6.07,0,0,0,9.48,19a.08.08,0,0,0-.09.11,2.36,2.36,0,0,0,.62.64,9.8,9.8,0,0,0,1,.74A.11.11,0,0,0,11.13,20.33Z"/><path class="cls-14" d="M15.2,21.55a6.17,6.17,0,0,0-1.76-.4c-.14,0-.19.23,0,.26a6.2,6.2,0,0,0,1.8.28C15.27,21.68,15.26,21.57,15.2,21.55Z"/><path class="cls-14" d="M18.88,19.54a1.62,1.62,0,0,0-.9-.07,7.8,7.8,0,0,0-1.08.15c-.11,0-.08.16,0,.18a4.7,4.7,0,0,0,1,.05,2.26,2.26,0,0,0,1-.13A.1.1,0,0,0,18.88,19.54Z"/><path class="cls-14" d="M22.79,19.8a1.5,1.5,0,0,0-.75.59c-.09.13.11.26.2.13s.44-.37.63-.6C22.91,19.87,22.85,19.78,22.79,19.8Z"/><path class="cls-14" d="M26.57,17.33c-.23.19-.38.45-.62.62s0,.31.18.2a1.35,1.35,0,0,0,.55-.74A.07.07,0,0,0,26.57,17.33Z"/><path class="cls-14" d="M29.23,17.09a.64.64,0,0,1-.22.14c-.07,0-.16-.06-.2-.11s-.38.07-.23.2a.48.48,0,0,0,.46.18c.16,0,.23-.2.29-.34S29.28,17.05,29.23,17.09Z"/><path class="cls-14" d="M32.38,11.42a3.75,3.75,0,0,0-1.94,1.8c0,.09.09.13.14.07a5.44,5.44,0,0,1,1-.91,3.28,3.28,0,0,0,.91-.83A.09.09,0,0,0,32.38,11.42Z"/><path class="cls-14" d="M34.25,8.91c0-.09-.14-.08-.17,0a3.47,3.47,0,0,0-.2,2,.12.12,0,0,0,.24,0C34,10.15,34.32,9.56,34.25,8.91Z"/><path class="cls-14" d="M33.72,6.13c-.15-.42-.08-.92-.3-1.3a.09.09,0,0,0-.18,0,2.92,2.92,0,0,0,.21,1.4C33.52,6.44,33.78,6.31,33.72,6.13Z"/><path class="cls-14" d="M31.19,4.1a.54.54,0,0,0-.48.32s0,.13.08.09.24-.19.38-.2S31.32,4.1,31.19,4.1Z"/><path class="cls-14" d="M25,5.33c0-.09-.15,0-.17,0a4.7,4.7,0,0,1-.13.75,2.28,2.28,0,0,1-.38.68c-.08.1.05.24.16.18A1.26,1.26,0,0,0,25,5.33Z"/><path class="cls-14" d="M21.45,10.54a2.73,2.73,0,0,0-.77.32.08.08,0,0,0,.05.14,2.62,2.62,0,0,0,.81-.21C21.68,10.74,21.6,10.49,21.45,10.54Z"/><path class="cls-14" d="M14.9,10.63a3.54,3.54,0,0,1-.73,0c-.27,0-.41-.21-.58-.4s-.17,0-.16.05c.05.83,1,.65,1.52.55C15.11,10.85,15.06,10.61,14.9,10.63Z"/><path class="cls-14" d="M16.86,5.22a2.61,2.61,0,0,0-1.74.36.13.13,0,0,0,.11.23,11.49,11.49,0,0,1,1.62-.46C16.91,5.33,16.93,5.23,16.86,5.22Z"/><path class="cls-14" d="M20.07,2.4A1.49,1.49,0,0,0,18.65,3c-.1.11.09.24.19.13a2.08,2.08,0,0,1,1.24-.58A.07.07,0,0,0,20.07,2.4Z"/><path class="cls-14" d="M26.79,2a12.44,12.44,0,0,0-1.93.14c-.14,0-.12.22,0,.23a5.11,5.11,0,0,0,1.95-.2C26.91,2.1,26.87,2,26.79,2Z"/><path class="cls-14" d="M28.09,3a1.92,1.92,0,0,1-.68,1.06c-.06,0,0,.13.07.11A1.4,1.4,0,0,0,28,3.77a1.66,1.66,0,0,0,.27-.72C28.33,2.92,28.11,2.88,28.09,3Z"/><path class="cls-14" d="M21.51,5.76a1.82,1.82,0,0,0-.86,1.17c0,.08.09.12.14.08a2.38,2.38,0,0,0,.37-.51A1.8,1.8,0,0,1,21.64,6C21.75,5.87,21.62,5.69,21.51,5.76Z"/><path class="cls-14" d="M18.39,9.4A.43.43,0,0,1,18,9.34C17.91,9.23,18,9,17.9,8.9a.07.07,0,0,0-.13,0,.5.5,0,0,0,.05.62.64.64,0,0,0,.61.11A.11.11,0,1,0,18.39,9.4Z"/><path class="cls-14" d="M27.52,7.35a1.2,1.2,0,0,0-.6.36.42.42,0,0,0-.16.44c.06.15.27,0,.22-.1s.17-.2.22-.24.26-.19.39-.31A.09.09,0,0,0,27.52,7.35Z"/><g class="cls-15"><path class="cls-16" d="M46.31,7.5c-1.48-.59-3-.81-4.31-1.8s-2.1-2.1-3.48-2.87a18.89,18.89,0,0,0-2.81-1.21,18.11,18.11,0,0,0-2-.56,5.41,5.41,0,0,0-1.75,0c-.34,0-1.19-.18-1.45,0-.7.54,2.29,1.49.36,2a2.41,2.41,0,0,1,.47,1.67c-.08.3-.51.54-.41.9s.54.3.65.53c.19.4-.13.74-.21,1.09-.12.55,0,.38,0,.91a2.8,2.8,0,0,1-.75,1.76c-.35.32-1.16.24-1.3.78-.2.81.58.6,0,1.44-.33.5-.52.2-.27.9.11.31.57.52.44.92-.29.93-1.66.12-2.16.53s-.11.83-.1,1.26c0,.77-.14.51-.63,1s-.4.88-1,.74c-.32-.07-.56-.87-1-.55-.22.18.05,1.33-.12,1.68-.86,1.7-2.3-.28-3.33.25-.32.17-.27.69-.51.92-.4.39-.77.26-1.28.18s-.71-.24-1.12,0-.33.64-.93.8a4.5,4.5,0,0,1-2.65-.35c-1-.32-2.25.26-3.14-.12S10.53,18.43,9.43,19c-.36-1,.35-1.87-1.19-1.09-1.08.54-.82.3-1.66-.22-.61-.38-1,.13-1.57,0-.41-.09-.56-.53-1-.57a12.25,12.25,0,0,1-2,2.56c-.94.82-1.24,3.1-.05,3.86a15.89,15.89,0,0,0,2.69,1c2.75,1.11,8.29,6.37,17.71,5.5,6.72-.61,10.12-.91,14.79-4.51,5.86-4.52,5.14-10,6.92-13.36.87-1.63,2.88-1.25,3-3.63A1,1,0,0,0,46.31,7.5Zm-4.52,9.12s-.09,0-.08,0A13.21,13.21,0,0,0,40.49,5.84s0,0,0,0a10.82,10.82,0,0,1,2.34,5.54A8,8,0,0,1,41.79,16.62Z"/></g><path class="cls-17" d="M47.8,26.91c.71-.51,7.32-4.84,7.05-6.35A4.67,4.67,0,0,0,53,18.12c-.94-.73-1.86-1.4-2.92-.52l-.21.19c-.73.73-2.8,5.81-3.52,7.34C45.83,26.27,46.28,28,47.8,26.91Z"/><path class="cls-18" d="M62.61,36.53c0-1.09.3-2.14.28-3.25a22.84,22.84,0,0,0-1-5.92,26,26,0,0,0-3.78-7.85,9,9,0,0,1,.46,3.91A17.73,17.73,0,0,1,56.51,30a31.06,31.06,0,0,1-9.6,10.9c-4.15,2.91-7.9,3.78-11.57,2.26a22.79,22.79,0,0,0,4.91,3.29C44.32,48.14,48.61,49.12,53,48c1.72-.44,3.44-1.51,5.28-1.27,1.67.22,3.63.59,4.75-1a6.2,6.2,0,0,0,.42-5.84A10.65,10.65,0,0,1,62.61,36.53Z"/><path class="cls-19" d="M63.42,39.9a10.65,10.65,0,0,1-.81-3.37c0-1.09.3-2.14.28-3.25a22.84,22.84,0,0,0-1-5.92,26.39,26.39,0,0,0-2.62-6.07,2.35,2.35,0,0,0,.11.77c.12.34.3.66.41,1a5,5,0,0,1,.24,2.21,13,13,0,0,0-.28,3.35,3.82,3.82,0,0,1-.17,2.07c-.26.57-1,.87-1.12,1.5-.08.35-.13.69-.19,1a5.29,5.29,0,0,1-.74,2.1A7.78,7.78,0,0,1,56,37.05a14,14,0,0,0-2,2.27c-1.39,1.67-3.41,2.59-5,4a5.91,5.91,0,0,1-4.23,1.45,6,6,0,0,0-3.06.74,1.9,1.9,0,0,1-1.1.33,11.64,11.64,0,0,1-2.67-.78,15,15,0,0,0,2.32,1.32C44.32,48.14,48.61,49.12,53,48c1.72-.44,3.44-1.51,5.28-1.27,1.67.22,3.63.59,4.75-1A6.2,6.2,0,0,0,63.42,39.9Zm-20.8,5.66c-.21,0-.23-.33,0-.33S42.84,45.56,42.62,45.56ZM45,45.47a2,2,0,0,0-.41-.15c-.06,0-.05-.09,0-.1a.89.89,0,0,1,.48.1C45.18,45.36,45.1,45.53,45,45.47Zm2.31.15a.48.48,0,0,1-.42,0,.05.05,0,0,1,0-.1c.12,0,.24-.06.36-.11S47.43,45.57,47.31,45.62Zm1-.5a.29.29,0,0,1-.37,0s0-.08,0-.1A.19.19,0,0,1,48,45s.07,0,.09,0A.12.12,0,1,1,48.28,45.12ZM49,44a.24.24,0,0,1-.16.18.14.14,0,0,1-.16-.24s0,0,0,0C48.77,43.74,49.09,43.81,49,44Zm1.82.42c-.26.15-.57-.06-.7-.29a.2.2,0,0,1,.16-.3.57.57,0,0,1,.61.44A.15.15,0,0,1,50.86,44.42Zm1.77-1.6s0,0-.07,0a.24.24,0,0,1-.33,0v0a.2.2,0,0,1,0-.24v0a.24.24,0,0,1,.32-.1s.09,0,.12,0A.16.16,0,0,1,52.63,42.82Zm1.15-2.29c-.17,0-.27.18-.41.29a1.56,1.56,0,0,0-.27.4.12.12,0,0,1-.2,0,.79.79,0,0,1,.12-.82.62.62,0,0,1,.78-.09A.12.12,0,0,1,53.78,40.53Zm2.11-1.74c-.16.27-.57.7-.92.48a.18.18,0,0,1-.08-.19c0-.28.4-.47.56-.69a4.78,4.78,0,0,0,.54-.86.07.07,0,0,1,.12,0A2.17,2.17,0,0,1,55.89,38.79Zm1.91-2.73a1.49,1.49,0,0,0-.39.17c-.09.05-.22,0-.16-.15a.7.7,0,0,1,.3-.29c.12,0,.34-.12.43,0S57.91,36,57.8,36.06Zm1.66-2.57c0,.06-.14,0-.12-.05.08-.25.21-.48.29-.74a2.93,2.93,0,0,1,.18-.66A.11.11,0,0,1,60,32C60.47,32.4,59.63,33.15,59.46,33.49Zm1-9.34a.18.18,0,0,1,.08.26s-.1.05-.12,0,0-.05,0-.05A.11.11,0,1,1,60.51,24.15Zm0,.65s-.06-.07-.06-.13,0-.07,0-.11a.16.16,0,0,1,.25-.08.29.29,0,0,1,.12.31C60.78,25,60.55,24.94,60.49,24.8Zm.58,3.33a.26.26,0,0,1-.47,0,.86.86,0,0,1,0-.57.32.32,0,0,1,.62,0A.83.83,0,0,1,61.07,28.13Z"/><g class="cls-20"><path class="cls-21" d="M61.51,38.36l-.18-.06c-2,2.29-4.68,6.66-8.23,6.23-1.72-.21-2.14-1.36-3.21-2.44-2,.88-2.16,2.8-4.54,3a12.93,12.93,0,0,0-2.94.33c-1.92.58-2.64.32-4.48-.34a15,15,0,0,0,2.32,1.32C44.32,48.14,48.61,49.12,53,48c1.72-.44,3.44-1.51,5.28-1.27,1.67.22,3.63.59,4.75-1A5.32,5.32,0,0,0,63.93,43C62.59,41.69,61.24,40.08,61.51,38.36Z"/></g><path class="cls-22" d="M43.11,25a7,7,0,0,1,1.47,1.77c.07.13.39-.17.5-.36a36.39,36.39,0,0,0,3.28-7.79c.12-.41.58-1.18.13-1.46s-1.07.11-1.38.21a11.84,11.84,0,0,0-2.73,1.26,25.2,25.2,0,0,0-2.74,1.84,8.34,8.34,0,0,0-.9.79.82.82,0,0,0-.21.37C40.2,22.8,42.44,24.36,43.11,25Z"/><path class="cls-23" d="M43.63,27.16c.28.08.35-.09.15-.31-.65-.67-3.35-4.06-3.76-4.2-.75-.25-1.51.46-2,1s-1.9,2.06-1.07,2.9S42.55,26.86,43.63,27.16Z"/><path class="cls-24" d="M47,27.93c-1.68,1.58,4.72,1,5.81.74,1.54-.39,2.25-1.67,2.69-3.07.56-1.77,0-3.81-1.7-2.35C53.13,23.84,47.6,27.4,47,27.93Z"/><path class="cls-25" d="M43.85,29.3c-.31-.9-1.57.19-2.08.51-1.54,1-7.31,4.72-7.65,6A3.5,3.5,0,0,0,34.91,39c1.1.92,1.83,1.37,3.34,1,.85-.24,2.07-2.4,2.37-3C41.27,35.62,44.21,30.35,43.85,29.3Z"/><path class="cls-26" d="M36.72,32.62c1.14-.67,6.89-4.18,6.87-4.65s-1.75-.36-2.08-.39c-1.39-.11-3.42-.52-4.82.07a2.38,2.38,0,0,0-.39.2,3.72,3.72,0,0,0-1.41,2.36,15.57,15.57,0,0,0-.73,2.69C34.06,34.6,36.05,33,36.72,32.62Z"/><path class="cls-27" d="M45.29,30.4c-.44-.42-.9,0-1.29.42a10.46,10.46,0,0,0-1.36,3c-.5,1.16-1,2.31-1.51,3.46-.28.62-1,1.78-.66,2.44.43.93,2.45.33,3.26.09a6.77,6.77,0,0,0,3.44-2.62c.89-1.35-.28-3.08-.84-4.32A9.48,9.48,0,0,0,45.29,30.4Z"/><path class="cls-28" d="M43.88,41.83a26.87,26.87,0,0,0,8.48-7,27.06,27.06,0,0,0,4.93-8.21,15.69,15.69,0,0,0,.41-5.49c-.29-3.88-3.37-6-7.09-5.77-4.51.24-8.71,3-11.79,6.14-3.29,3.31-6,7.72-6.51,12.43-.28,2.5-.26,6.25,2,7.87C37,43.67,41.11,43.26,43.88,41.83Zm-9.83-3c-.72-1-1-3.64-.13-4.52a6.46,6.46,0,0,1,.53-5.14,3.76,3.76,0,0,1,1.89-2.1c-1.19-1.82,2.51-5.65,3.6-5.29,0-1.13,3.12-3,3.63-3.34,1.3-.82,4.72-3.39,5.81-1.54,1.5-1.29,3.28,0,4.34,1a7,7,0,0,1,1.61,1.89,3,3,0,0,1,.36,1.1,10.16,10.16,0,0,1-.1,1.1,2.89,2.89,0,0,1,.78,2.77,8.48,8.48,0,0,1-.76,2.15c-.08.16-1.36,1.91-1.47,1.72a2.11,2.11,0,0,1,.12,2.24,12.41,12.41,0,0,1-1.72,2.53c-3,3.32-4.44,3.21-4.44,3.21a7.47,7.47,0,0,1-5.41,4.07,4.11,4.11,0,0,1-3-.58C38.13,41.29,36.14,41.67,34.05,38.85Z"/><path class="cls-29" d="M46.22,28.42c.11-1.18-1.41-1.45-1.95-.39a1.09,1.09,0,0,0-.09.23C43.81,29.67,46.1,29.87,46.22,28.42Z"/><path class="cls-30" d="M46.06,29.7c-.93.88.75,2.95,1.13,3.71.27.53,1.06,2.5,1.94,2.23,2.41-.74,5-5.28,4.21-5.91C52.94,29.42,46.65,29.14,46.06,29.7Z"/><path class="cls-31" d="M64,39.28c-.91-2.28-.31-5.34-.56-7.78A22.45,22.45,0,0,0,56.7,17.1c-7.28-6.68-15.33.4-20.35,6.32a21.67,21.67,0,0,0-4.9,12.87C31.36,40.21,34,42.93,37,45.13a21.19,21.19,0,0,0,15.69,3.73c1.67-.39,3-1.57,4.85-1.42,3.36.27,6.24.59,7-3.35a7.67,7.67,0,0,0-.3-4C64.16,39.85,64.06,39.56,64,39.28ZM34.33,41.77c-2.28-1.62-2.3-5.37-2-7.87.52-4.71,3.22-9.12,6.51-12.43,3.08-3.09,7.28-5.9,11.79-6.14,3.72-.2,6.8,1.89,7.09,5.77a15.69,15.69,0,0,1-.41,5.49,27.06,27.06,0,0,1-4.93,8.21,26.87,26.87,0,0,1-8.48,7C41.11,43.26,37,43.67,34.33,41.77Zm28.67,4c-1.12,1.59-3.08,1.22-4.75,1-1.84-.24-3.56.83-5.28,1.27-4.36,1.11-8.65.13-12.72-1.61a22.79,22.79,0,0,1-4.91-3.29c3.67,1.52,7.42.65,11.57-2.26A31.06,31.06,0,0,0,56.51,30a17.73,17.73,0,0,0,2.08-6.53,9,9,0,0,0-.46-3.91,26,26,0,0,1,3.78,7.85,22.84,22.84,0,0,1,1,5.92c0,1.11-.33,2.16-.28,3.25a10.65,10.65,0,0,0,.81,3.37A6.2,6.2,0,0,1,63,45.74Z"/><path class="cls-32" d="M42.69,40.66a7.47,7.47,0,0,0,5.41-4.07s1.46.11,4.44-3.21a12.41,12.41,0,0,0,1.72-2.53,2.11,2.11,0,0,0-.12-2.24c.11.19,1.39-1.56,1.47-1.72a8.48,8.48,0,0,0,.76-2.15A2.89,2.89,0,0,0,55.59,22a10.16,10.16,0,0,0,.1-1.1,3,3,0,0,0-.36-1.1,7,7,0,0,0-1.61-1.89c-1.06-.94-2.84-2.25-4.34-1-1.09-1.85-4.51.72-5.81,1.54-.51.32-3.67,2.21-3.63,3.34-1.09-.36-4.79,3.47-3.6,5.29a3.76,3.76,0,0,0-1.89,2.1,6.46,6.46,0,0,0-.53,5.14c-.84.88-.59,3.55.13,4.52,2.09,2.82,4.08,2.44,5.66,1.23A4.11,4.11,0,0,0,42.69,40.66Zm4.48-3.51a6.77,6.77,0,0,1-3.44,2.62c-.81.24-2.83.84-3.26-.09-.3-.66.38-1.82.66-2.44.51-1.15,1-2.3,1.51-3.46a10.46,10.46,0,0,1,1.36-3c.39-.45.85-.84,1.29-.42a9.48,9.48,0,0,1,1,2.43C46.89,34.07,48.06,35.8,47.17,37.15Zm-3-8.89a1.09,1.09,0,0,1,.09-.23c.54-1.06,2.06-.79,1.95.39C46.1,29.87,43.81,29.67,44.18,28.26Zm5,7.38c-.88.27-1.67-1.7-1.94-2.23-.38-.76-2.06-2.83-1.13-3.71.59-.56,6.88-.28,7.28,0C54.14,30.36,51.54,34.9,49.13,35.64Zm6.4-10c-.44,1.4-1.15,2.68-2.69,3.07-1.09.27-7.49.84-5.81-.74.57-.53,6.1-4.09,6.8-4.68C55.58,21.79,56.09,23.83,55.53,25.6Zm-5.66-7.81.21-.19c1.06-.88,2-.21,2.92.52a4.67,4.67,0,0,1,1.85,2.44c.27,1.51-6.34,5.84-7.05,6.35-1.52,1.1-2-.64-1.45-1.78C47.07,23.6,49.14,18.52,49.87,17.79Zm-9.34,3.85a.82.82,0,0,1,.21-.37,8.34,8.34,0,0,1,.9-.79,25.2,25.2,0,0,1,2.74-1.84,11.84,11.84,0,0,1,2.73-1.26c.31-.1,1.08-.39,1.38-.21s0,1-.13,1.46a36.39,36.39,0,0,1-3.28,7.79c-.11.19-.43.49-.5.36A7,7,0,0,0,43.11,25C42.44,24.36,40.2,22.8,40.53,21.64Zm-2.46,2c.44-.57,1.2-1.28,2-1,.41.14,3.11,3.53,3.76,4.2.2.22.13.39-.15.31-1.08-.3-5.93.12-6.63-.58S37.54,24.4,38.07,23.68ZM34.16,32.9a15.57,15.57,0,0,1,.73-2.69,3.72,3.72,0,0,1,1.41-2.36,2.38,2.38,0,0,1,.39-.2c1.4-.59,3.43-.18,4.82-.07.33,0,2.06-.06,2.08.39s-5.73,4-6.87,4.65C36.05,33,34.06,34.6,34.16,32.9ZM38.25,40c-1.51.41-2.24,0-3.34-1a3.5,3.5,0,0,1-.79-3.23c.34-1.26,6.11-5,7.65-6,.51-.32,1.77-1.41,2.08-.51S41.27,35.62,40.62,37C40.32,37.58,39.1,39.74,38.25,40Z"/><path class="cls-33" d="M43.12,35.86a12.49,12.49,0,0,0-1.69,4.28,0,0,0,0,0,.08,0,12.44,12.44,0,0,0,1.64-4.3A0,0,0,0,0,43.12,35.86Z"/><path class="cls-33" d="M43.2,30.61A6.76,6.76,0,0,0,39.41,32c-.3.21.08.66.38.44a10.45,10.45,0,0,1,3.42-1.78S43.23,30.62,43.2,30.61Z"/><path class="cls-33" d="M45.62,22.21c-.33,1.31.21,2.62.06,3.95,0,0,0,0,0,0,.33-1.16.06-2.49.66-3.58C46.68,22,45.76,21.65,45.62,22.21Z"/><path class="cls-33" d="M49.32,19.88a.18.18,0,0,0-.24.05.75.75,0,0,0-.16.48,3.21,3.21,0,0,1-.19.8c-.14.46-.34.9-.48,1.36h0a11.43,11.43,0,0,0,1.05-1.43C49.51,20.79,49.72,20.17,49.32,19.88Z"/><path class="cls-33" d="M43.67,22.52a3.1,3.1,0,0,0-.45-1.33,0,0,0,0,0,0,0,4.38,4.38,0,0,0-.1,1.35c.08.59.26,1.17.35,1.76,0,.06.09.05.1,0A10.68,10.68,0,0,0,43.67,22.52Z"/><path class="cls-33" d="M39.14,27.6a.8.8,0,0,0-.56-.18l-.74-.13Z"/><path class="cls-33" d="M47.42,32.69a2.49,2.49,0,0,0-.4-.52,4.76,4.76,0,0,1-.55-.78s0,0,0,0c.12.44.26.89.39,1.33s.18.87.52,1.06a.14.14,0,0,0,.19,0C47.8,33.43,47.56,33,47.42,32.69Z"/><path class="cls-33" d="M55.07,22.84a.19.19,0,0,0-.25-.08,2.06,2.06,0,0,0-.76.68,10.07,10.07,0,0,1-1,.85A26.92,26.92,0,0,1,50.4,25.8s0,0,0,0a25,25,0,0,1,3.17-1.16C54.29,24.42,55.38,23.71,55.07,22.84Z"/><path class="cls-34" d="M45.68,28.24c.34-.12,4-6.6,4.93-8.64.31-.71,1.23-2.9-.3-2.71a10.19,10.19,0,0,0-3,.77A4.43,4.43,0,0,0,45,21.52c-.09,1.13-.11,4.5-.12,5.06a5.07,5.07,0,0,0,0,.87C45,27.78,45.29,28.38,45.68,28.24Z"/><path class="cls-35" d="M54.52,26.27c-.81.16-7.7,2.6-8.63,3.11-.38.21,1.29,1.4,1.4,1.51.82.78,4.45,5.16,6.18,3.61a9.5,9.5,0,0,0,2.91-5.19,6,6,0,0,0-.18-2.86C56,25.9,55,26.18,54.52,26.27Z"/><path class="cls-36" d="M46.45,28.79c2.5-1.05,8.32-3.42,9.29-4.3,1.46-1.34.5-3.07.15-3.89s-2.2-3.24-3.36-2.51c-.74.46-4.91,7.56-6.26,10.1C46,28.64,46.22,28.89,46.45,28.79Z"/><path class="cls-37" d="M50.56,34.67c-1.1-1-2.14-2.13-3.25-3.15-.44-.41-.87-.83-1.3-1.25-.64-.61-.54,1-.54,1.36,0,2.2,0,8,.11,8.44.41,1.89,3.51.08,5-1.38C53,36.24,50.89,35,50.56,34.67Z"/><path class="cls-38" d="M45.13,28.59c-.16-.08-.3,0-.42.13s-.14.39-.16.46c-.11.57.34,1.31.85.6A.86.86,0,0,0,45.13,28.59Z"/><path class="cls-39" d="M43.62,31.28c.24-.28.62-.73.58-1.11s-.29-.8-.68-.8a9.91,9.91,0,0,0-1.78.25,25,25,0,0,0-3.5.8c-1.55.48-4.62.81-4.23,3.15a10.4,10.4,0,0,0,1,3.84C36.05,39.48,43,32,43.62,31.28Z"/><path class="cls-40" d="M40.5,25.25c.8.75,2.61,2.54,3,2.9.14.14.38.38.6.38.9,0,.52-1.71.5-2.17,0-1.06.57-7.17-.35-7.45s-2.67,1.29-3.3,1.88-2.17,1.95-1.89,2.95C39.24,24.41,40.05,24.83,40.5,25.25Z"/><path class="cls-41" d="M40.61,44.17c1.34,0,2.33.32,3.64-.13a17.83,17.83,0,0,0,3.82-1.46,23.45,23.45,0,0,0,6.64-6.38c5.07-7.05,5.37-15.8.5-19.26s-13.27-.5-18.34,6.56a25.75,25.75,0,0,0-3.31,6.89,10.78,10.78,0,0,0-.77,2.52A11.32,11.32,0,0,0,33,35.75c.14.83,0,1.7.15,2.53a8.76,8.76,0,0,0,3.38,4.61A5.93,5.93,0,0,0,40.61,44.17ZM36,40.56c-.23-.57-.8-1.52-.22-1.79-.5.23-1.18-.87-1.44-1.75a31.16,31.16,0,0,1-.59-3.23,3.37,3.37,0,0,1,1.16-3.32c-1-1.45,1.81-6.23,2.6-6.57.07,0,.81-.2.88-.22.77-2.38,2.86-3.66,3.78-4.31s1.8-1.27,2.87-.76a9.78,9.78,0,0,1,5.62-2.13,1.48,1.48,0,0,1,1.52,1,4.75,4.75,0,0,1,3.66,2.26c.69,1.29,2,3.29.34,5.49,1.34,1,1,3.23.59,4.95-.5,2-2.31,5-4.17,5.51.13,3.15-5.48,6.52-6.56,5.65-1.12,1.54-3,1.86-4.73,1.92S36.72,42.42,36,40.56Z"/><path class="cls-42" d="M44.7,41.66c.69-1.15.42-9.14.39-9.78A4.5,4.5,0,0,0,45,31c-.23-1-2.16,2-7.06,6.06a10.35,10.35,0,0,0-1.35,1.38c-1.9,2.32,2.3,4.4,4.27,4.48C41.9,42.94,44.1,42.66,44.7,41.66Z"/><path class="cls-43" d="M36.55,30.28c1.26-.36,8-.88,7-1.7s-1.86-1.68-2.75-2.5c-1.12-1-1.75-1.76-2.46-1.77-1.19,0-2.06,1.74-2.52,2.64C35.25,28.09,34.2,31,36.55,30.28Z"/><path class="cls-44" d="M58.53,20.85a1,1,0,0,0-.07-.15c-.19-.34-.46-.69-.67-1A6.07,6.07,0,0,0,56,17.59a3.87,3.87,0,0,1,1.18,1.68,12.43,12.43,0,0,1,1.49,6.51,18.94,18.94,0,0,1-1.79,6.75A22.74,22.74,0,0,1,48,42.35,10.36,10.36,0,0,1,43.65,44a19.15,19.15,0,0,1-2.93-.11,17.36,17.36,0,0,0-2.91-.39,3.63,3.63,0,0,0,2.26.79,8.39,8.39,0,0,0,3.55.24c2.4-.69,4.55-1.18,6.6-2.71a23.55,23.55,0,0,0,5-5.23,22.22,22.22,0,0,0,1.52-2.41,21.8,21.8,0,0,0,2.32-7.93c.09-1.06.43-3.32-.13-4.24A9.49,9.49,0,0,1,58.53,20.85Z"/><path class="cls-38" d="M41.27,43.23c1.78-.06,3.61-.38,4.73-1.92,1.08.87,6.69-2.5,6.56-5.65,1.86-.54,3.67-3.55,4.17-5.51.44-1.72.75-3.95-.59-4.95,1.63-2.2.35-4.2-.34-5.49a4.75,4.75,0,0,0-3.66-2.26,1.48,1.48,0,0,0-1.52-1A9.78,9.78,0,0,0,45,18.61c-1.07-.51-2,.17-2.87.76s-3,1.93-3.78,4.31c-.07,0-.81.19-.88.22-.79.34-3.61,5.12-2.6,6.57a3.37,3.37,0,0,0-1.16,3.32A31.16,31.16,0,0,0,34.3,37c.26.88.94,2,1.44,1.75-.58.27,0,1.22.22,1.79C36.72,42.42,39.45,43.29,41.27,43.23Zm3.28-14c0-.07.1-.29.16-.46s.26-.21.42-.13a.86.86,0,0,1,.27,1.19C44.89,30.49,44.44,29.75,44.55,29.18Zm6,9.51c-1.46,1.46-4.56,3.27-5,1.38-.1-.49-.09-6.24-.11-8.44,0-.36-.1-2,.54-1.36.43.42.86.84,1.3,1.25,1.11,1,2.15,2.12,3.25,3.15C50.89,35,53,36.24,50.55,38.69ZM56.2,26.45a6,6,0,0,1,.18,2.86,9.5,9.5,0,0,1-2.91,5.19c-1.73,1.55-5.36-2.83-6.18-3.61-.11-.11-1.78-1.3-1.4-1.51.93-.51,7.82-2.95,8.63-3.11C55,26.18,56,25.9,56.2,26.45Zm-3.67-8.36c1.16-.73,3,1.68,3.36,2.51s1.31,2.55-.15,3.89c-1,.88-6.79,3.25-9.29,4.3-.23.1-.43-.15-.18-.6C47.62,25.65,51.79,18.55,52.53,18.09Zm-7.66,8.49c0-.56,0-3.93.12-5.06a4.43,4.43,0,0,1,2.31-3.86,10.19,10.19,0,0,1,3-.77c1.53-.19.61,2,.3,2.71-.88,2-4.59,8.52-4.93,8.64s-.72-.46-.77-.79A5.07,5.07,0,0,1,44.87,26.58Zm-3.93-5.79c.63-.59,2.24-2.21,3.3-1.88s.31,6.39.35,7.45c0,.46.4,2.15-.5,2.17-.22,0-.46-.24-.6-.38-.38-.36-2.19-2.15-3-2.9-.45-.42-1.26-.84-1.45-1.51C38.77,22.74,40.31,21.38,40.94,20.79ZM35.82,27c.46-.9,1.33-2.67,2.52-2.64.71,0,1.34.75,2.46,1.77.89.82,1.81,1.73,2.75,2.5s-5.74,1.34-7,1.7C34.2,31,35.25,28.09,35.82,27ZM35,37.41a10.4,10.4,0,0,1-1-3.84c-.39-2.34,2.68-2.67,4.23-3.15a25,25,0,0,1,3.5-.8,9.91,9.91,0,0,1,1.78-.25c.39,0,.64.43.68.8s-.34.83-.58,1.11C43,32,36.05,39.48,35,37.41Zm1.62,1A10.35,10.35,0,0,1,37.94,37C42.84,33,44.77,30,45,31a4.5,4.5,0,0,1,.09.9c0,.64.3,8.63-.39,9.78s-2.8,1.28-3.84,1.24C38.89,42.82,34.69,40.74,36.59,38.42Z"/><path class="cls-41" d="M41.27,43.23c1.78-.06,3.61-.38,4.73-1.92,1.08.87,6.69-2.5,6.56-5.65,1.86-.54,3.67-3.55,4.17-5.51.44-1.72.75-3.95-.59-4.95,1.63-2.2.35-4.2-.34-5.49a4.75,4.75,0,0,0-3.66-2.26,1.48,1.48,0,0,0-1.52-1A9.78,9.78,0,0,0,45,18.61c-1.07-.51-2,.17-2.87.76s-3,1.93-3.78,4.31c-.07,0-.81.19-.88.22-.79.34-3.61,5.12-2.6,6.57a3.37,3.37,0,0,0-1.16,3.32A31.16,31.16,0,0,0,34.3,37c.26.88.94,2,1.44,1.75-.58.27,0,1.22.22,1.79C36.72,42.42,39.45,43.29,41.27,43.23Zm3.28-14c0-.07.1-.29.16-.46s.26-.21.42-.13a.86.86,0,0,1,.27,1.19C44.89,30.49,44.44,29.75,44.55,29.18Zm6,9.51c-1.46,1.46-4.56,3.27-5,1.38-.1-.49-.09-6.24-.11-8.44,0-.36-.1-2,.54-1.36.43.42.86.84,1.3,1.25,1.11,1,2.15,2.12,3.25,3.15C50.89,35,53,36.24,50.55,38.69ZM56.2,26.45a6,6,0,0,1,.18,2.86,9.5,9.5,0,0,1-2.91,5.19c-1.73,1.55-5.36-2.83-6.18-3.61-.11-.11-1.78-1.3-1.4-1.51.93-.51,7.82-2.95,8.63-3.11C55,26.18,56,25.9,56.2,26.45Zm-3.67-8.36c1.16-.73,3,1.68,3.36,2.51s1.31,2.55-.15,3.89c-1,.88-6.79,3.25-9.29,4.3-.23.1-.43-.15-.18-.6C47.62,25.65,51.79,18.55,52.53,18.09Zm-7.66,8.49c0-.56,0-3.93.12-5.06a4.43,4.43,0,0,1,2.31-3.86,10.19,10.19,0,0,1,3-.77c1.53-.19.61,2,.3,2.71-.88,2-4.59,8.52-4.93,8.64s-.72-.46-.77-.79A5.07,5.07,0,0,1,44.87,26.58Zm-3.93-5.79c.63-.59,2.24-2.21,3.3-1.88s.31,6.39.35,7.45c0,.46.4,2.15-.5,2.17-.22,0-.46-.24-.6-.38-.38-.36-2.19-2.15-3-2.9-.45-.42-1.26-.84-1.45-1.51C38.77,22.74,40.31,21.38,40.94,20.79ZM35.82,27c.46-.9,1.33-2.67,2.52-2.64.71,0,1.34.75,2.46,1.77.89.82,1.81,1.73,2.75,2.5s-5.74,1.34-7,1.7C34.2,31,35.25,28.09,35.82,27ZM35,37.41a10.4,10.4,0,0,1-1-3.84c-.39-2.34,2.68-2.67,4.23-3.15a25,25,0,0,1,3.5-.8,9.91,9.91,0,0,1,1.78-.25c.39,0,.64.43.68.8s-.34.83-.58,1.11C43,32,36.05,39.48,35,37.41Zm1.62,1A10.35,10.35,0,0,1,37.94,37C42.84,33,44.77,30,45,31a4.5,4.5,0,0,1,.09.9c0,.64.3,8.63-.39,9.78s-2.8,1.28-3.84,1.24C38.89,42.82,34.69,40.74,36.59,38.42Z"/><path class="cls-44" d="M33.6,37.73c.77.37,1.75-.71,2.7-1.37s2.93-1.66,3.15-2.78c-1.3,0-3,1.17-4.21.9-2.41-.53-.22-3.38,1.1-3.89,1.84-.71,3.78-.73,5.63-1.57-1.16-.68-2.38-.53-3.67-.62-1.14-.08-2.2-.22-2-1.57A4.17,4.17,0,0,1,38,24.4c1.71-.72,3.6,2.2,5.09,2.85A32.62,32.62,0,0,0,42,23.9c-.4-.94-1-1.73-.64-2.79.31-.8,1.56-2,2.49-1.52,1.29.64,1.18,4.82,1.21,6.08,1.07-1.64,1.2-3.89,1.73-5.73A8.84,8.84,0,0,1,48,17.1c.52-.71,1.4-1,1.86-1.66-3.74-.82-7.95,2.34-10.66,4.6a18.8,18.8,0,0,0-6,10.81c-.37,1.95-1.09,4.11-.27,6A1.49,1.49,0,0,0,33.6,37.73Z"/><path class="cls-45" d="M55.73,17a8.62,8.62,0,0,0-6.07-1.38,18.24,18.24,0,0,1,3.08,7.65c.24,1.26.59,3-.23,4.11-.57.8-1.58.59-2.34.2-1.3-.68-2.46-1.82-3.9-2.22s-2.94.56-2.33,2.17,3.42,4.68,1.19,6.06a.33.33,0,0,1-.38-.05,7.25,7.25,0,0,1-1-1.79c-.13-.31-.35-1-.8-.94a2.72,2.72,0,0,0-1.31.49c-1.42,1-1.21,2.86-2.39,4-.78.76-1.81.55-2.64,1.15s-1.35,1.34-2.09,1.94l-.69.54a9.47,9.47,0,0,0,3.22,4,6,6,0,0,0,4.06,1.28c1.33,0,2.33.31,3.64-.14a18,18,0,0,0,3.82-1.45,23.73,23.73,0,0,0,6.64-6.38C60.3,29.25,60.6,20.51,55.73,17Z"/><g class="cls-46"><path class="cls-41" d="M44.16,32.07a6.76,6.76,0,0,0-2.38,2.87.11.11,0,0,0,.18.12,6,6,0,0,0,2.23-3S44.18,32.05,44.16,32.07Z"/><path class="cls-41" d="M44.55,32.77s-.06,0-.07,0a22.14,22.14,0,0,1-.7,3.21,17.83,17.83,0,0,0-.41,3.33.11.11,0,0,0,.21,0A12.3,12.3,0,0,0,44.34,36,15.45,15.45,0,0,0,44.55,32.77Z"/><path class="cls-41" d="M41.6,35.94c-.23.28-2.63,3.16-2.08,3.44s.81-.4.94-.81A11.56,11.56,0,0,1,41.62,36S41.61,35.93,41.6,35.94Z"/><path class="cls-41" d="M39,37.58l-.69.73a9.06,9.06,0,0,1-.73.66c-.25.21.06.53.31.37a2.73,2.73,0,0,0,.59-.76c.2-.32.37-.65.54-1C39.07,37.59,39.05,37.57,39,37.58Z"/><path class="cls-41" d="M40.29,31a9.78,9.78,0,0,1-3.21.57.52.52,0,1,0,.19,1,19.22,19.22,0,0,0,3-1.53S40.31,31,40.29,31Z"/><path class="cls-41" d="M42.43,31.8c-.55.44-1,1-1.65,1.35s-1.27.34-1.53.93a.25.25,0,0,0,0,.22c.88,1.17,2.69-2,3.16-2.48C42.46,31.81,42.45,31.79,42.43,31.8Z"/><path class="cls-41" d="M37.73,34.27l-1.18.45a11.91,11.91,0,0,1-1.42.38c-.39.08-.38.74,0,.72.95,0,1.87-1,2.58-1.51C37.77,34.29,37.75,34.26,37.73,34.27Z"/><path class="cls-41" d="M36.14,33.49a1.36,1.36,0,0,0-1,.21c-.32.22.14.71.42.37.07-.09.11-.19.18-.27a.7.7,0,0,1,.39-.22C36.2,33.56,36.2,33.49,36.14,33.49Z"/><path class="cls-41" d="M47.65,24.07a.25.25,0,0,0-.17-.05.34.34,0,0,0-.35.23,17.9,17.9,0,0,1-1.34,3.2,0,0,0,0,0,.08,0c.32-.49.66-1,1-1.47a8.77,8.77,0,0,0,.94-1.55A.36.36,0,0,0,47.65,24.07Z"/><path class="cls-41" d="M47.68,20.43a0,0,0,0,0-.09,0A8.71,8.71,0,0,0,46.65,24s0,0,0,0C47,22.79,47.89,21.7,47.68,20.43Z"/><path class="cls-41" d="M47,18.16c-.89.3-1,1.24-1.14,2.07a.1.1,0,0,0,.19.06,4.08,4.08,0,0,0,.58-1,5.31,5.31,0,0,0,.23-.55c.07-.19.07-.39.15-.58C47,18.16,47,18.15,47,18.16Z"/><path class="cls-41" d="M43.2,19.47s0,0,0,0c.58,0,.81,1.87.84,2.31.07.84,0,1.68.09,2.51,0,.05.08,0,.09,0a28.61,28.61,0,0,0,.27-3.58C44.5,20,44.07,18.75,43.2,19.47Z"/><path class="cls-41" d="M43.49,26.27a5.14,5.14,0,0,0-1.21-1.38c-.43-.38-.84-.79-1.28-1.16,0,0,0,0,0,0a7.65,7.65,0,0,1,1.1,1.49,8.85,8.85,0,0,0,.82,1.4.36.36,0,0,0,.56,0A.32.32,0,0,0,43.49,26.27Z"/><path class="cls-41" d="M43.72,25.45s-.07,0-.07,0a6.81,6.81,0,0,0,.36,2.1.1.1,0,0,0,.19,0C44.45,26.88,44,26.09,43.72,25.45Z"/><path class="cls-41" d="M42.79,28.63l-.63-.35a6.21,6.21,0,0,0-.72-.51,2.53,2.53,0,0,0-1.65-.18.09.09,0,0,0,0,.16,6.64,6.64,0,0,0,1.45.69,1.34,1.34,0,0,0,.55.1,5.07,5.07,0,0,1,1,.1S42.8,28.64,42.79,28.63Z"/><path class="cls-41" d="M37.63,25.34s0-.06-.06,0c-.67.91-2.57,2.32-1.13,3.47a.09.09,0,0,0,.14-.09C36.26,27.41,37.2,26.48,37.63,25.34Z"/><path class="cls-41" d="M40.38,29.07a5.36,5.36,0,0,0-1.48-.37,4.94,4.94,0,0,0-1.51.34s0,0,0,0a7.92,7.92,0,0,0,1.27.25c.57,0,1.13-.14,1.7-.14A.05.05,0,0,0,40.38,29.07Z"/><path class="cls-41" d="M39.33,25.67a.41.41,0,0,0-.56-.05.42.42,0,0,0,0,.56.54.54,0,0,0,.36.18.35.35,0,0,0,.37-.33A.53.53,0,0,0,39.33,25.67Z"/><path class="cls-41" d="M47.21,36.26a13.46,13.46,0,0,0-.87-2.39s-.05,0,0,0a15.2,15.2,0,0,1,.1,2.43.43.43,0,0,0,.28.41.37.37,0,0,0,.31,0A.41.41,0,0,0,47.21,36.26Z"/><path class="cls-41" d="M55.17,29.21c-.81,1.5-.63,3.28-1.87,4.59,0,0,0,0,0,0,1.82-.52,2-3,2-4.55A.09.09,0,0,0,55.17,29.21Z"/><path class="cls-41" d="M54.29,27.6c-.3-.55-1.23-.22-1.68-.11a5.73,5.73,0,0,0-2.08,1.07s0,0,0,0a12.78,12.78,0,0,1,2.63-.31C53.38,28.25,54.55,28.08,54.29,27.6Z"/><path class="cls-41" d="M53.61,29.53a17.49,17.49,0,0,0-3.07,0s0,0,0,0a9.85,9.85,0,0,1,2.84.64l.1,0C54,30.35,54.11,29.55,53.61,29.53Z"/><path class="cls-41" d="M51.16,30.9a3.46,3.46,0,0,0-.95-.22,2.51,2.51,0,0,1-1.11-.48s-.06,0,0,0a10.47,10.47,0,0,0,.85.78,3.27,3.27,0,0,0,1,.68C51.41,31.89,51.64,31.12,51.16,30.9Z"/><path class="cls-41" d="M51.44,23.8a5.85,5.85,0,0,0-2,1.56,22.09,22.09,0,0,0-1.77,2.1s0,0,0,0a13.27,13.27,0,0,1,2.36-1.64A3.42,3.42,0,0,0,51.67,24,.17.17,0,0,0,51.44,23.8Z"/><path class="cls-41" d="M54.05,19c-.35.3-.76.43-1.09.75a11.15,11.15,0,0,0-.79.89,9.33,9.33,0,0,0-1.32,2.07c-.05.11.1.18.18.12a11.72,11.72,0,0,0,1.6-1.55c.3-.35.58-.7.86-1.05s.35-.81.61-1.19A0,0,0,0,0,54.05,19Z"/><path class="cls-41" d="M54.69,20.64a.07.07,0,0,0-.08-.05.82.82,0,0,0-.26.06c-.13.05-.22.2-.3.31a1.1,1.1,0,0,0-.33.64.15.15,0,0,0,.21.14,1.3,1.3,0,0,0,.55-.49,1,1,0,0,0,.21-.31A1,1,0,0,0,54.69,20.64Z"/></g><path class="cls-41" d="M45.17,35.68c0-1.06-.27-2.13-.34-3.2a0,0,0,1,0,0,0,22.24,22.24,0,0,1-.26,2.81,9.65,9.65,0,0,0-.28,2.45c0,.19.26.18.36.07A3,3,0,0,0,45.17,35.68Z"/><path class="cls-41" d="M44.31,40.48h0c-.25.25-.49.52-.75.76a4.15,4.15,0,0,0-.77.85.09.09,0,0,0,.07.15,1.45,1.45,0,0,0,1.24-.5A1.12,1.12,0,0,0,44.31,40.48Z"/><path class="cls-41" d="M50.8,35.53c0-.06-.16,0-.15,0a4.26,4.26,0,0,1-.91,3.09s0,0,0,0a2,2,0,0,0,1.33-1.29A1.79,1.79,0,0,0,50.8,35.53Z"/><path class="cls-41" d="M43.73,23.57a.06.06,0,0,0-.12,0c.12,1-.23,2.4.49,3.28a.13.13,0,0,0,.21,0C44.66,25.78,44.09,24.55,43.73,23.57Z"/><path class="cls-41" d="M42.45,28.17A8.19,8.19,0,0,0,41,26.82a12.62,12.62,0,0,0-1.91-.75s-.11.05-.07.1a11.7,11.7,0,0,0,1.42,1.1c.63.39,1.39.5,2,.94C42.43,28.23,42.47,28.2,42.45,28.17Z"/><g class="cls-47"><path class="cls-41" d="M61.17,28.35a0,0,0,0,0-.05,0,5.68,5.68,0,0,0-.11,1c0,.4-.23.74-.31,1.13,0,.1.08.24.19.17C61.72,30.14,61.55,29.1,61.17,28.35Z"/><path class="cls-41" d="M61.83,32.08c0-.07-.11-.07-.13,0a6.52,6.52,0,0,1-.92,1.87.14.14,0,0,0,.14.22C61.84,34.09,61.9,32.75,61.83,32.08Z"/><path class="cls-41" d="M60,33.87c-.56-.23-1,.62-1,1.07a.12.12,0,0,0,.19.1c.34-.28.43-.79.83-1A.09.09,0,0,0,60,33.87Z"/><path class="cls-41" d="M57.78,36.77c-.94.09-1.48,1.32-1.56,2.15a.08.08,0,0,0,.13.07,2.45,2.45,0,0,0,.57-.94c.19-.41.41-1,.88-1.19A0,0,0,1,0,57.78,36.77Z"/><path class="cls-41" d="M55.23,39c-.13.38-.53.59-.83.82s-.66.44-.67.81a.15.15,0,0,0,.17.14c.37,0,.71-.43,1-.68a1.81,1.81,0,0,0,.52-1.06A.08.08,0,0,0,55.23,39Z"/><path class="cls-41" d="M50.15,43.37c-.51,0-1.24.13-1.49.64-.06.12,0,.26.17.2s.38-.24.58-.35a3.76,3.76,0,0,1,.75-.29C50.27,43.54,50.27,43.36,50.15,43.37Z"/><path class="cls-41" d="M46.43,46.54c-.16-.3-.6-.36-.89-.43a1.68,1.68,0,0,0-.83-.06,0,0,0,0,0,0,.05c.14.16.47.21.66.28a3.8,3.8,0,0,0,1,.29A.1.1,0,0,0,46.43,46.54Z"/><path class="cls-41" d="M50.06,46.12a2,2,0,0,0-.82.36c-.25.16-.65.47-1,.44a.09.09,0,0,0,0,.18,1.53,1.53,0,0,0,1-.13c.33-.13.79-.37.89-.74A.08.08,0,0,0,50.06,46.12Z"/><path class="cls-41" d="M51,44.32a1.2,1.2,0,0,0-.8.21,1,1,0,0,0-.54.6c0,.07.08.12.12,0,.27-.43.86-.44,1.24-.71A.09.09,0,0,0,51,44.32Z"/><path class="cls-41" d="M55.92,43.33a.06.06,0,0,0-.1,0,4.28,4.28,0,0,1-.67.6,6.36,6.36,0,0,0-.78.49c-.09.08,0,.21.12.14C54.9,44.21,56,44,55.92,43.33Z"/><path class="cls-41" d="M55.12,41.4A1.31,1.31,0,0,0,54,42c-.06.09.06.21.14.13a1.72,1.72,0,0,1,.48-.31,1.89,1.89,0,0,0,.51-.26A.08.08,0,0,0,55.12,41.4Z"/><path class="cls-41" d="M58.43,40.18c-.25.17-.45.41-.76.43-.15,0-.18.24,0,.24a.9.9,0,0,0,.88-.59A.07.07,0,0,0,58.43,40.18Z"/><path class="cls-41" d="M60.49,36.55a1.52,1.52,0,0,0-.64.85c-.05.15.16.21.23.07s.46-.5.52-.81A.09.09,0,0,0,60.49,36.55Z"/><path class="cls-41" d="M62.59,34.73c-.26.32-.44.69-.72,1-.12.12.05.32.17.2a2.34,2.34,0,0,0,.65-1.14A.06.06,0,0,0,62.59,34.73Z"/></g></g></g></svg>