<svg xmlns="http://www.w3.org/2000/svg" xmlns:xlink="http://www.w3.org/1999/xlink" viewBox="0 0 48.52 54.98"><defs><style>.cls-1{fill:url(#linear-gradient);}.cls-2{fill:url(#linear-gradient-2);}.cls-3{fill:url(#radial-gradient);}.cls-4{fill:url(#radial-gradient-2);}.cls-5{fill:url(#radial-gradient-3);}.cls-6{fill:url(#radial-gradient-4);}.cls-7{fill:url(#radial-gradient-5);}.cls-8{fill:url(#radial-gradient-6);}.cls-9{fill:url(#radial-gradient-7);}.cls-10{fill:url(#radial-gradient-8);}.cls-11{fill:url(#radial-gradient-9);}.cls-12{fill:url(#radial-gradient-10);}.cls-13{fill:url(#radial-gradient-11);}.cls-14{fill:url(#radial-gradient-12);}.cls-15{fill:url(#radial-gradient-13);}.cls-16{fill:url(#radial-gradient-14);}.cls-17{fill:url(#radial-gradient-15);}.cls-18{fill:url(#radial-gradient-16);}.cls-19{fill:url(#radial-gradient-17);}.cls-20{fill:url(#radial-gradient-18);}.cls-21{fill:url(#radial-gradient-19);}.cls-22{fill:url(#radial-gradient-20);}.cls-23{fill:url(#radial-gradient-21);}.cls-24{fill:url(#radial-gradient-22);}.cls-25{fill:url(#radial-gradient-23);}.cls-26{fill:url(#radial-gradient-24);}.cls-27{fill:url(#radial-gradient-25);}.cls-28{fill:url(#radial-gradient-26);}.cls-29{fill:url(#radial-gradient-27);}.cls-30{fill:url(#radial-gradient-28);}.cls-31{fill:url(#radial-gradient-29);}.cls-32{fill:url(#radial-gradient-30);}.cls-33{fill:url(#radial-gradient-31);}.cls-34{fill:url(#radial-gradient-32);}.cls-35{fill:url(#radial-gradient-33);}.cls-36{fill:url(#radial-gradient-34);}.cls-37{fill:url(#radial-gradient-35);}.cls-38{fill:url(#radial-gradient-36);}.cls-39{fill:url(#radial-gradient-37);}.cls-40{fill:url(#radial-gradient-38);}.cls-41{opacity:0.7;}.cls-42{fill:url(#linear-gradient-3);}.cls-43{fill:url(#linear-gradient-4);}.cls-44{fill:url(#linear-gradient-5);}.cls-45{fill:url(#linear-gradient-6);}.cls-46{fill:url(#linear-gradient-7);}.cls-47{fill:url(#linear-gradient-8);}.cls-48{fill:url(#linear-gradient-9);}.cls-49{fill:url(#linear-gradient-10);}.cls-50{fill:url(#linear-gradient-11);}.cls-51{fill:url(#linear-gradient-12);}.cls-52{fill:url(#linear-gradient-13);}.cls-53,.cls-54,.cls-55,.cls-64,.cls-70,.cls-75,.cls-76{opacity:0.6;}.cls-53{fill:url(#linear-gradient-14);}.cls-54{fill:url(#linear-gradient-15);}.cls-55{fill:url(#linear-gradient-16);}.cls-56{fill:url(#linear-gradient-17);}.cls-57{fill:url(#linear-gradient-18);}.cls-58{fill:url(#linear-gradient-19);}.cls-59{fill:url(#linear-gradient-20);}.cls-60{fill:url(#linear-gradient-21);}.cls-61{fill:#ffd129;opacity:0.2;}.cls-62{fill:url(#linear-gradient-22);}.cls-63{fill:url(#linear-gradient-23);}.cls-64{fill:url(#linear-gradient-24);}.cls-65{fill:url(#linear-gradient-25);}.cls-66{fill:url(#linear-gradient-26);}.cls-67{fill:url(#linear-gradient-27);}.cls-68{fill:url(#linear-gradient-28);}.cls-69{fill:url(#linear-gradient-29);}.cls-70{fill:url(#linear-gradient-30);}.cls-71{fill:url(#linear-gradient-31);}.cls-72{fill:url(#linear-gradient-32);}.cls-73{fill:url(#linear-gradient-33);}.cls-74{fill:url(#linear-gradient-34);}.cls-75{fill:url(#linear-gradient-35);}.cls-76{fill:url(#linear-gradient-36);}.cls-77{fill:url(#linear-gradient-37);}.cls-78{fill:url(#linear-gradient-38);}.cls-79{fill:url(#linear-gradient-39);}.cls-80{fill:url(#linear-gradient-40);}.cls-81{fill:url(#linear-gradient-41);}.cls-82{fill:url(#radial-gradient-39);}.cls-83{fill:url(#radial-gradient-40);}.cls-84{fill:url(#radial-gradient-41);}.cls-85{fill:url(#radial-gradient-42);}.cls-86{fill:url(#radial-gradient-43);}.cls-87{fill:url(#radial-gradient-44);}.cls-88{fill:url(#radial-gradient-45);}.cls-89{fill:url(#radial-gradient-46);}.cls-90{fill:url(#radial-gradient-47);}.cls-91{fill:url(#radial-gradient-48);}.cls-92{fill:url(#radial-gradient-49);}.cls-93{fill:url(#radial-gradient-50);}.cls-94{fill:url(#radial-gradient-51);}.cls-95{fill:url(#radial-gradient-52);}.cls-96{fill:url(#radial-gradient-53);}.cls-97{fill:url(#radial-gradient-54);}.cls-98{fill:url(#radial-gradient-55);}.cls-99{fill:url(#radial-gradient-56);}.cls-100{fill:url(#radial-gradient-57);}.cls-101{fill:url(#radial-gradient-58);}.cls-102{fill:url(#radial-gradient-59);}.cls-103{fill:url(#radial-gradient-60);}.cls-104{fill:url(#radial-gradient-61);}.cls-105{fill:url(#radial-gradient-62);}.cls-106{fill:url(#radial-gradient-63);}.cls-107{fill:url(#radial-gradient-64);}.cls-108{fill:url(#radial-gradient-65);}.cls-109{fill:url(#radial-gradient-66);}.cls-110{fill:url(#radial-gradient-67);}.cls-111{fill:url(#radial-gradient-68);}.cls-112{fill:url(#radial-gradient-69);}.cls-113{fill:url(#radial-gradient-70);}.cls-114{fill:url(#radial-gradient-71);}.cls-115{fill:url(#radial-gradient-72);}.cls-116{fill:url(#radial-gradient-73);}.cls-117{fill:url(#radial-gradient-74);}.cls-118{fill:url(#radial-gradient-75);}.cls-119{fill:url(#radial-gradient-76);}.cls-120,.cls-121,.cls-122,.cls-123,.cls-124,.cls-125,.cls-126,.cls-127,.cls-128,.cls-129,.cls-130,.cls-131,.cls-132,.cls-133,.cls-134,.cls-135,.cls-136,.cls-137,.cls-138,.cls-139,.cls-140,.cls-141,.cls-142,.cls-143,.cls-144,.cls-145,.cls-146,.cls-147,.cls-148,.cls-149,.cls-150,.cls-151,.cls-152,.cls-153,.cls-154,.cls-155{opacity:0.5;}.cls-120{fill:url(#radial-gradient-77);}.cls-121{fill:url(#radial-gradient-78);}.cls-122{fill:url(#radial-gradient-79);}.cls-123{fill:url(#radial-gradient-80);}.cls-124{fill:url(#radial-gradient-81);}.cls-125{fill:url(#radial-gradient-82);}.cls-126{fill:url(#radial-gradient-83);}.cls-127{fill:url(#radial-gradient-84);}.cls-128{fill:url(#radial-gradient-85);}.cls-129{fill:url(#radial-gradient-86);}.cls-130{fill:url(#radial-gradient-87);}.cls-131{fill:url(#radial-gradient-88);}.cls-132{fill:url(#radial-gradient-89);}.cls-133{fill:url(#radial-gradient-90);}.cls-134{fill:url(#radial-gradient-91);}.cls-135{fill:url(#radial-gradient-92);}.cls-136{fill:url(#radial-gradient-93);}.cls-137{fill:url(#radial-gradient-94);}.cls-138{fill:url(#radial-gradient-95);}.cls-139{fill:url(#radial-gradient-96);}.cls-140{fill:url(#radial-gradient-97);}.cls-141{fill:url(#radial-gradient-98);}.cls-142{fill:url(#radial-gradient-99);}.cls-143{fill:url(#radial-gradient-100);}.cls-144{fill:url(#radial-gradient-101);}.cls-145{fill:url(#radial-gradient-102);}.cls-146{fill:url(#radial-gradient-103);}.cls-147{fill:url(#radial-gradient-104);}.cls-148{fill:url(#radial-gradient-105);}.cls-149{fill:url(#radial-gradient-106);}.cls-150{fill:url(#radial-gradient-107);}.cls-151{fill:url(#radial-gradient-108);}.cls-152{fill:url(#radial-gradient-109);}.cls-153{fill:url(#radial-gradient-110);}.cls-154{fill:url(#radial-gradient-111);}.cls-155{fill:url(#radial-gradient-112);}.cls-156{fill:url(#radial-gradient-113);}.cls-157{fill:url(#linear-gradient-42);}.cls-158{fill:url(#radial-gradient-114);}.cls-159{fill:url(#radial-gradient-115);}.cls-160{fill:url(#linear-gradient-43);}.cls-161{fill:#4d6834;opacity:0.4;}.cls-162{fill:url(#linear-gradient-44);}</style><linearGradient id="linear-gradient" x1="41.04" y1="32.11" x2="35.91" y2="38.29" gradientUnits="userSpaceOnUse"><stop offset="0" stop-color="#a60c1f"/><stop offset="1" stop-color="#290c03"/></linearGradient><linearGradient id="linear-gradient-2" x1="32.64" y1="39.91" x2="35.01" y2="65.22" xlink:href="#linear-gradient"/><radialGradient id="radial-gradient" cx="42.16" cy="15.8" r="2.44" gradientTransform="translate(-7.25 13.38) scale(1.13 1.12)" gradientUnits="userSpaceOnUse"><stop offset="0" stop-color="#f97964"/><stop offset="1" stop-color="#f22a42"/></radialGradient><radialGradient id="radial-gradient-2" cx="27.4" cy="19.59" r="1.26" xlink:href="#radial-gradient"/><radialGradient id="radial-gradient-3" cx="26.52" cy="22.83" r="1.36" xlink:href="#radial-gradient"/><radialGradient id="radial-gradient-4" cx="23.71" cy="28.92" r="1.45" xlink:href="#radial-gradient"/><radialGradient id="radial-gradient-5" cx="24.39" cy="25.77" r="1.83" xlink:href="#radial-gradient"/><radialGradient id="radial-gradient-6" cx="39.09" cy="15.13" r="2.37" xlink:href="#radial-gradient"/><radialGradient id="radial-gradient-7" cx="24.2" cy="31.95" r="1.83" xlink:href="#radial-gradient"/><radialGradient id="radial-gradient-8" cx="29.9" cy="17.78" r="1.42" xlink:href="#radial-gradient"/><radialGradient id="radial-gradient-9" cx="35.83" cy="15.66" r="2.86" xlink:href="#radial-gradient"/><radialGradient id="radial-gradient-10" cx="31.26" cy="15.13" r="1.46" xlink:href="#radial-gradient"/><radialGradient id="radial-gradient-11" cx="25.31" cy="21.72" r="1.51" xlink:href="#radial-gradient"/><radialGradient id="radial-gradient-12" cx="45.4" cy="28.66" r="2.77" xlink:href="#radial-gradient"/><radialGradient id="radial-gradient-13" cx="43.32" cy="29.94" r="2.56" xlink:href="#radial-gradient"/><radialGradient id="radial-gradient-14" cx="46.34" cy="26.17" r="2.56" xlink:href="#radial-gradient"/><radialGradient id="radial-gradient-15" cx="37.19" cy="35.02" r="1.79" xlink:href="#radial-gradient"/><radialGradient id="radial-gradient-16" cx="30.58" cy="35.46" r="1.56" xlink:href="#radial-gradient"/><radialGradient id="radial-gradient-17" cx="33.39" cy="35.59" r="1.51" xlink:href="#radial-gradient"/><radialGradient id="radial-gradient-18" cx="27.34" cy="33.75" r="1.89" xlink:href="#radial-gradient"/><radialGradient id="radial-gradient-19" cx="40.35" cy="33.33" r="2.22" xlink:href="#radial-gradient"/><radialGradient id="radial-gradient-20" cx="29.05" cy="20.7" r="1.67" xlink:href="#radial-gradient"/><radialGradient id="radial-gradient-21" cx="34.22" cy="24.95" r="2.42" xlink:href="#radial-gradient"/><radialGradient id="radial-gradient-22" cx="44.12" cy="17.01" r="2.56" xlink:href="#radial-gradient"/><radialGradient id="radial-gradient-23" cx="35.57" cy="27.46" r="2.72" xlink:href="#radial-gradient"/><radialGradient id="radial-gradient-24" cx="33.37" cy="21.73" r="2.9" xlink:href="#radial-gradient"/><radialGradient id="radial-gradient-25" cx="30.38" cy="26.39" r="2.02" xlink:href="#radial-gradient"/><radialGradient id="radial-gradient-26" cx="29.15" cy="24.05" r="2.02" xlink:href="#radial-gradient"/><radialGradient id="radial-gradient-27" cx="27.99" cy="32.58" r="1.44" xlink:href="#radial-gradient"/><radialGradient id="radial-gradient-28" cx="45.59" cy="22.68" r="2.4" xlink:href="#radial-gradient"/><radialGradient id="radial-gradient-29" cx="26.57" cy="26.22" r="1.8" xlink:href="#radial-gradient"/><radialGradient id="radial-gradient-30" cx="28.04" cy="28.83" r="2" xlink:href="#radial-gradient"/><radialGradient id="radial-gradient-31" cx="33.85" cy="17.97" r="2.54" xlink:href="#radial-gradient"/><radialGradient id="radial-gradient-32" cx="39.99" cy="22.57" r="4.06" xlink:href="#radial-gradient"/><radialGradient id="radial-gradient-33" cx="35.54" cy="32.69" r="2.2" xlink:href="#radial-gradient"/><radialGradient id="radial-gradient-34" cx="44.83" cy="20" r="2.18" xlink:href="#radial-gradient"/><radialGradient id="radial-gradient-35" cx="39.01" cy="29.4" r="2.65" xlink:href="#radial-gradient"/><radialGradient id="radial-gradient-36" cx="25.58" cy="29.41" r="1.36" xlink:href="#radial-gradient"/><radialGradient id="radial-gradient-37" cx="31.39" cy="33.49" r="1.69" xlink:href="#radial-gradient"/><radialGradient id="radial-gradient-38" cx="32.06" cy="30.34" r="2.53" xlink:href="#radial-gradient"/><linearGradient id="linear-gradient-3" x1="39.48" y1="30.28" x2="49.22" y2="44.81" gradientUnits="userSpaceOnUse"><stop offset="0" stop-color="#ed1c24"/><stop offset="1" stop-color="#55020c"/></linearGradient><linearGradient id="linear-gradient-4" x1="26.13" y1="39.19" x2="35.86" y2="53.7" xlink:href="#linear-gradient-3"/><linearGradient id="linear-gradient-5" x1="23.44" y1="41" x2="33.17" y2="55.51" xlink:href="#linear-gradient-3"/><linearGradient id="linear-gradient-6" x1="18.81" y1="45.19" x2="26.4" y2="56.51" xlink:href="#linear-gradient-3"/><linearGradient id="linear-gradient-7" x1="20.68" y1="43.18" x2="28.36" y2="54.64" xlink:href="#linear-gradient-3"/><linearGradient id="linear-gradient-8" x1="37.81" y1="31.39" x2="47.55" y2="45.92" xlink:href="#linear-gradient-3"/><linearGradient id="linear-gradient-9" x1="18.89" y1="46.78" x2="25.65" y2="56.87" xlink:href="#linear-gradient-3"/><linearGradient id="linear-gradient-10" x1="28.59" y1="37.56" x2="38.34" y2="52.09" xlink:href="#linear-gradient-3"/><linearGradient id="linear-gradient-11" x1="34.51" y1="33.6" x2="44.25" y2="48.14" xlink:href="#linear-gradient-3"/><linearGradient id="linear-gradient-12" x1="31.34" y1="35.72" x2="41.09" y2="50.26" xlink:href="#linear-gradient-3"/><linearGradient id="linear-gradient-13" x1="22.7" y1="40.06" x2="28.46" y2="48.65" xlink:href="#linear-gradient-3"/><linearGradient id="linear-gradient-14" x1="36.53" y1="33.31" x2="45.53" y2="46.74" xlink:href="#linear-gradient-3"/><linearGradient id="linear-gradient-15" x1="33.52" y1="36.09" x2="42.5" y2="49.49" xlink:href="#linear-gradient-3"/><linearGradient id="linear-gradient-16" x1="38.95" y1="30.64" x2="48.69" y2="45.17" xlink:href="#linear-gradient-3"/><linearGradient id="linear-gradient-17" x1="25.5" y1="39.62" x2="35.25" y2="54.16" xlink:href="#linear-gradient-3"/><linearGradient id="linear-gradient-18" x1="20.34" y1="43.07" x2="30.09" y2="57.61" xlink:href="#linear-gradient-3"/><linearGradient id="linear-gradient-19" x1="22.36" y1="41.71" x2="32.11" y2="56.26" xlink:href="#linear-gradient-3"/><linearGradient id="linear-gradient-20" x1="20.19" y1="47.08" x2="27.2" y2="57.53" xlink:href="#linear-gradient-3"/><linearGradient id="linear-gradient-21" x1="28.97" y1="37.29" x2="38.73" y2="51.83" xlink:href="#linear-gradient-3"/><linearGradient id="linear-gradient-22" x1="26.69" y1="38.83" x2="36.43" y2="53.36" xlink:href="#linear-gradient-3"/><linearGradient id="linear-gradient-23" x1="29.07" y1="37.24" x2="38.81" y2="51.78" xlink:href="#linear-gradient-3"/><linearGradient id="linear-gradient-24" x1="41.03" y1="29.25" x2="50.77" y2="43.77" xlink:href="#linear-gradient-3"/><linearGradient id="linear-gradient-25" x1="28.45" y1="37.7" x2="38.12" y2="52.14" xlink:href="#linear-gradient-3"/><linearGradient id="linear-gradient-26" x1="29.53" y1="36.93" x2="39.28" y2="51.48" xlink:href="#linear-gradient-3"/><linearGradient id="linear-gradient-27" x1="24.54" y1="40.27" x2="34.28" y2="54.8" xlink:href="#linear-gradient-3"/><linearGradient id="linear-gradient-28" x1="24.94" y1="40" x2="34.69" y2="54.55" xlink:href="#linear-gradient-3"/><linearGradient id="linear-gradient-29" x1="21.64" y1="44.95" x2="29.17" y2="56.19" xlink:href="#linear-gradient-3"/><linearGradient id="linear-gradient-30" x1="39.95" y1="29.96" x2="49.69" y2="44.5" xlink:href="#linear-gradient-3"/><linearGradient id="linear-gradient-31" x1="21.8" y1="42.1" x2="31.53" y2="56.62" xlink:href="#linear-gradient-3"/><linearGradient id="linear-gradient-32" x1="21.6" y1="42.23" x2="31.35" y2="56.77" xlink:href="#linear-gradient-3"/><linearGradient id="linear-gradient-33" x1="31.67" y1="35.51" x2="41.41" y2="50.05" xlink:href="#linear-gradient-3"/><linearGradient id="linear-gradient-34" x1="25.42" y1="39.69" x2="35.16" y2="54.22" xlink:href="#linear-gradient-3"/><linearGradient id="linear-gradient-35" x1="40.55" y1="29.58" x2="50.28" y2="44.1" xlink:href="#linear-gradient-3"/><linearGradient id="linear-gradient-36" x1="30.62" y1="38.09" x2="39.32" y2="51.07" xlink:href="#linear-gradient-3"/><linearGradient id="linear-gradient-37" x1="20.37" y1="44.51" x2="27.86" y2="55.68" xlink:href="#linear-gradient-3"/><linearGradient id="linear-gradient-38" x1="22.05" y1="41.93" x2="31.8" y2="56.47" xlink:href="#linear-gradient-3"/><linearGradient id="linear-gradient-39" x1="23.89" y1="40.71" x2="33.63" y2="55.24" xlink:href="#linear-gradient-3"/><linearGradient id="linear-gradient-40" x1="40.79" y1="45.29" x2="37.27" y2="37.86" xlink:href="#linear-gradient-3"/><linearGradient id="linear-gradient-41" x1="9.49" y1="23.65" x2="42.86" y2="23.65" xlink:href="#linear-gradient"/><radialGradient id="radial-gradient-39" cx="17.82" cy="2.83" r="2.52" xlink:href="#radial-gradient"/><radialGradient id="radial-gradient-40" cx="21.78" cy="2.13" r="2.45" xlink:href="#radial-gradient"/><radialGradient id="radial-gradient-41" cx="23.57" cy="-2.09" r="1.41" xlink:href="#radial-gradient"/><radialGradient id="radial-gradient-42" cx="15.67" cy="-1.11" r="1.4" xlink:href="#radial-gradient"/><radialGradient id="radial-gradient-43" cx="19.44" cy="-0.78" r="1.24" xlink:href="#radial-gradient"/><radialGradient id="radial-gradient-44" cx="26.19" cy="14.32" r="1.4" xlink:href="#radial-gradient"/><radialGradient id="radial-gradient-45" cx="27.82" cy="10.89" r="1.58" xlink:href="#radial-gradient"/><radialGradient id="radial-gradient-46" cx="26.56" cy="3.06" r="2.5" xlink:href="#radial-gradient"/><radialGradient id="radial-gradient-47" cx="27.7" cy="7.16" r="2.02" xlink:href="#radial-gradient"/><radialGradient id="radial-gradient-48" cx="25.4" cy="-0.05" r="1.92" xlink:href="#radial-gradient"/><radialGradient id="radial-gradient-49" cx="7.73" cy="5.39" r="1.57" xlink:href="#radial-gradient"/><radialGradient id="radial-gradient-50" cx="13.08" cy="16.55" r="1.75" xlink:href="#radial-gradient"/><radialGradient id="radial-gradient-51" cx="11.8" cy="-1.52" r="1.85" xlink:href="#radial-gradient"/><radialGradient id="radial-gradient-52" cx="20.59" cy="16.86" r="1.65" xlink:href="#radial-gradient"/><radialGradient id="radial-gradient-53" cx="11.47" cy="13.55" r="1.31" xlink:href="#radial-gradient"/><radialGradient id="radial-gradient-54" cx="15.4" cy="19.25" r="1.45" xlink:href="#radial-gradient"/><radialGradient id="radial-gradient-55" cx="9.96" cy="13.9" r="1.51" xlink:href="#radial-gradient"/><radialGradient id="radial-gradient-56" cx="9.06" cy="7.93" r="1.52" xlink:href="#radial-gradient"/><radialGradient id="radial-gradient-57" cx="9.81" cy="1.77" r="2.5" xlink:href="#radial-gradient"/><radialGradient id="radial-gradient-58" cx="9.22" cy="11.01" r="1.27" xlink:href="#radial-gradient"/><radialGradient id="radial-gradient-59" cx="24.43" cy="16.55" r="1.54" xlink:href="#radial-gradient"/><radialGradient id="radial-gradient-60" cx="17.63" cy="15.51" r="1.94" xlink:href="#radial-gradient"/><radialGradient id="radial-gradient-61" cx="20.62" cy="7.86" r="2.49" xlink:href="#radial-gradient"/><radialGradient id="radial-gradient-62" cx="23.05" cy="14.79" r="1.86" xlink:href="#radial-gradient"/><radialGradient id="radial-gradient-63" cx="18.01" cy="19.93" r="1.96" xlink:href="#radial-gradient"/><radialGradient id="radial-gradient-64" cx="24.54" cy="11.15" r="2.05" xlink:href="#radial-gradient"/><radialGradient id="radial-gradient-65" cx="11.11" cy="10.23" r="1.68" xlink:href="#radial-gradient"/><radialGradient id="radial-gradient-66" cx="14.34" cy="15.39" r="1.56" xlink:href="#radial-gradient"/><radialGradient id="radial-gradient-67" cx="13.7" cy="12.1" r="1.75" xlink:href="#radial-gradient"/><radialGradient id="radial-gradient-68" cx="10.8" cy="5.06" r="2.39" xlink:href="#radial-gradient"/><radialGradient id="radial-gradient-69" cx="16.64" cy="17.68" r="1.36" xlink:href="#radial-gradient"/><radialGradient id="radial-gradient-70" cx="17.22" cy="8.27" r="2.14" xlink:href="#radial-gradient"/><radialGradient id="radial-gradient-71" cx="16.8" cy="12.18" r="1.9" xlink:href="#radial-gradient"/><radialGradient id="radial-gradient-72" cx="23.95" cy="6.34" r="2.44" xlink:href="#radial-gradient"/><radialGradient id="radial-gradient-73" cx="13.74" cy="6.88" r="2.88" xlink:href="#radial-gradient"/><radialGradient id="radial-gradient-74" cx="13.97" cy="1.38" r="2.26" xlink:href="#radial-gradient"/><radialGradient id="radial-gradient-75" cx="20.9" cy="12.88" r="2.28" xlink:href="#radial-gradient"/><radialGradient id="radial-gradient-76" cx="21.39" cy="18.9" r="1.9" xlink:href="#radial-gradient"/><radialGradient id="radial-gradient-77" cx="13.19" cy="5.73" r="14.93" gradientTransform="translate(-7.25 13.38) scale(1.13 1.12)" xlink:href="#linear-gradient-3"/><radialGradient id="radial-gradient-78" cx="13.19" cy="5.73" r="14.93" gradientTransform="translate(-7.25 13.38) scale(1.13 1.12)" xlink:href="#linear-gradient-3"/><radialGradient id="radial-gradient-79" cx="13.19" cy="5.73" r="14.93" gradientTransform="translate(-7.25 13.38) scale(1.13 1.12)" xlink:href="#linear-gradient-3"/><radialGradient id="radial-gradient-80" cx="13.19" cy="5.74" r="14.93" gradientTransform="translate(-7.25 13.38) scale(1.13 1.12)" xlink:href="#linear-gradient-3"/><radialGradient id="radial-gradient-81" cx="13.19" cy="5.73" r="14.93" gradientTransform="translate(-7.25 13.38) scale(1.13 1.12)" xlink:href="#linear-gradient-3"/><radialGradient id="radial-gradient-82" cx="13.19" cy="5.73" r="14.93" gradientTransform="translate(-7.25 13.38) scale(1.13 1.12)" xlink:href="#linear-gradient-3"/><radialGradient id="radial-gradient-83" cx="13.19" cy="5.73" r="14.93" gradientTransform="translate(-7.25 13.38) scale(1.13 1.12)" xlink:href="#linear-gradient-3"/><radialGradient id="radial-gradient-84" cx="13.2" cy="5.73" r="14.92" gradientTransform="translate(-7.25 13.38) scale(1.13 1.12)" xlink:href="#linear-gradient-3"/><radialGradient id="radial-gradient-85" cx="13.19" cy="5.73" r="14.93" gradientTransform="translate(-7.25 13.38) scale(1.13 1.12)" xlink:href="#linear-gradient-3"/><radialGradient id="radial-gradient-86" cx="13.19" cy="5.73" r="14.93" gradientTransform="translate(-7.25 13.38) scale(1.13 1.12)" xlink:href="#linear-gradient-3"/><radialGradient id="radial-gradient-87" cx="13.19" cy="5.73" r="14.93" gradientTransform="translate(-7.25 13.38) scale(1.13 1.12)" xlink:href="#linear-gradient-3"/><radialGradient id="radial-gradient-88" cx="13.19" cy="5.73" r="14.93" gradientTransform="translate(-7.25 13.38) scale(1.13 1.12)" xlink:href="#linear-gradient-3"/><radialGradient id="radial-gradient-89" cx="13.19" cy="5.73" r="14.93" gradientTransform="translate(-7.25 13.38) scale(1.13 1.12)" xlink:href="#linear-gradient-3"/><radialGradient id="radial-gradient-90" cx="13.19" cy="5.74" r="14.92" gradientTransform="translate(-7.25 13.38) scale(1.13 1.12)" xlink:href="#linear-gradient-3"/><radialGradient id="radial-gradient-91" cx="13.19" cy="5.74" r="14.92" gradientTransform="translate(-7.25 13.38) scale(1.13 1.12)" xlink:href="#linear-gradient-3"/><radialGradient id="radial-gradient-92" cx="13.19" cy="5.73" r="14.92" gradientTransform="translate(-7.25 13.38) scale(1.13 1.12)" xlink:href="#linear-gradient-3"/><radialGradient id="radial-gradient-93" cx="13.19" cy="5.73" r="14.93" gradientTransform="translate(-7.25 13.38) scale(1.13 1.12)" xlink:href="#linear-gradient-3"/><radialGradient id="radial-gradient-94" cx="13.19" cy="5.73" r="14.93" gradientTransform="translate(-7.25 13.38) scale(1.13 1.12)" xlink:href="#linear-gradient-3"/><radialGradient id="radial-gradient-95" cx="13.2" cy="5.74" r="14.92" gradientTransform="translate(-7.25 13.38) scale(1.13 1.12)" xlink:href="#linear-gradient-3"/><radialGradient id="radial-gradient-96" cx="13.19" cy="5.74" r="14.92" gradientTransform="translate(-7.25 13.38) scale(1.13 1.12)" xlink:href="#linear-gradient-3"/><radialGradient id="radial-gradient-97" cx="13.19" cy="5.73" r="14.93" gradientTransform="translate(-7.25 13.38) scale(1.13 1.12)" xlink:href="#linear-gradient-3"/><radialGradient id="radial-gradient-98" cx="13.19" cy="5.74" r="14.93" gradientTransform="translate(-7.25 13.38) scale(1.13 1.12)" xlink:href="#linear-gradient-3"/><radialGradient id="radial-gradient-99" cx="13.19" cy="5.74" r="14.92" gradientTransform="translate(-7.25 13.38) scale(1.13 1.12)" xlink:href="#linear-gradient-3"/><radialGradient id="radial-gradient-100" cx="13.19" cy="5.73" r="14.92" gradientTransform="translate(-7.25 13.38) scale(1.13 1.12)" xlink:href="#linear-gradient-3"/><radialGradient id="radial-gradient-101" cx="13.19" cy="5.73" r="14.93" gradientTransform="translate(-7.25 13.38) scale(1.13 1.12)" xlink:href="#linear-gradient-3"/><radialGradient id="radial-gradient-102" cx="13.19" cy="5.73" r="14.93" gradientTransform="translate(-7.25 13.38) scale(1.13 1.12)" xlink:href="#linear-gradient-3"/><radialGradient id="radial-gradient-103" cx="13.19" cy="5.73" r="14.93" gradientTransform="translate(-7.25 13.38) scale(1.13 1.12)" xlink:href="#linear-gradient-3"/><radialGradient id="radial-gradient-104" cx="13.19" cy="5.73" r="14.93" gradientTransform="translate(-7.25 13.38) scale(1.13 1.12)" xlink:href="#linear-gradient-3"/><radialGradient id="radial-gradient-105" cx="13.19" cy="5.73" r="14.93" gradientTransform="translate(-7.25 13.38) scale(1.13 1.12)" xlink:href="#linear-gradient-3"/><radialGradient id="radial-gradient-106" cx="13.19" cy="5.73" r="14.93" gradientTransform="translate(-7.25 13.38) scale(1.13 1.12)" xlink:href="#linear-gradient-3"/><radialGradient id="radial-gradient-107" cx="13.19" cy="5.74" r="14.92" gradientTransform="translate(-7.25 13.38) scale(1.13 1.12)" xlink:href="#linear-gradient-3"/><radialGradient id="radial-gradient-108" cx="13.19" cy="5.73" r="14.93" gradientTransform="translate(-7.25 13.38) scale(1.13 1.12)" xlink:href="#linear-gradient-3"/><radialGradient id="radial-gradient-109" cx="13.19" cy="5.73" r="14.93" gradientTransform="translate(-7.25 13.38) scale(1.13 1.12)" xlink:href="#linear-gradient-3"/><radialGradient id="radial-gradient-110" cx="13.19" cy="5.73" r="14.93" gradientTransform="translate(-7.25 13.38) scale(1.13 1.12)" xlink:href="#linear-gradient-3"/><radialGradient id="radial-gradient-111" cx="13.19" cy="5.73" r="14.93" gradientTransform="translate(-7.25 13.38) scale(1.13 1.12)" xlink:href="#linear-gradient-3"/><radialGradient id="radial-gradient-112" cx="13.19" cy="5.74" r="14.93" gradientTransform="translate(-7.25 13.38) scale(1.13 1.12)" xlink:href="#linear-gradient-3"/><radialGradient id="radial-gradient-113" cx="21.31" cy="-2.11" r="3.55" gradientTransform="translate(-7.25 13.38) scale(1.13 1.12)" gradientUnits="userSpaceOnUse"><stop offset="0" stop-color="#8dc63f"/><stop offset="1" stop-color="#3a822b"/></radialGradient><linearGradient id="linear-gradient-42" x1="12.41" y1="3.57" x2="16.57" y2="3.57" gradientUnits="userSpaceOnUse"><stop offset="0" stop-color="#4a3b07"/><stop offset="0.56" stop-color="#3a822b"/><stop offset="0.76" stop-color="#3c822a"/><stop offset="0.84" stop-color="#438427"/><stop offset="0.89" stop-color="#4e8622"/><stop offset="0.93" stop-color="#5f8a1b"/><stop offset="0.97" stop-color="#758e12"/><stop offset="1" stop-color="#8d9308"/></linearGradient><radialGradient id="radial-gradient-114" cx="18.86" cy="-2.63" r="3.29" xlink:href="#radial-gradient-113"/><radialGradient id="radial-gradient-115" cx="15.33" cy="-2.4" r="3.33" xlink:href="#radial-gradient-113"/><linearGradient id="linear-gradient-43" x1="7.45" y1="10.18" x2="20.23" y2="10.18" xlink:href="#linear-gradient-42"/><linearGradient id="linear-gradient-44" x1="11.55" y1="5.84" x2="17.33" y2="5.84" xlink:href="#linear-gradient-42"/></defs><g id="Capa_2" data-name="Capa 2"><g id="Layer_4" data-name="Layer 4"><path class="cls-1" d="M35.84,36.1h0c.14,1.08,1.43,1.6,2.41,1.61.07,0,.11-.09,0-.12C37.47,37.18,36.3,37,35.84,36.1Z"/><path class="cls-2" d="M47.18,40.51c1.06-.93.75-3.88-.77-4.11l0-.09a1.93,1.93,0,0,0-.9-2.45c.32-.91-.46-1.55-1-2.46s-.79-2.3-2-2.17a2.08,2.08,0,0,0-.41-.67A2.6,2.6,0,0,0,38.68,28a3,3,0,0,0-3.1-1.19c-.29,0-1.26.48-1.31.88a3.46,3.46,0,0,0-3.7.26,4.41,4.41,0,0,0-.73.76A3.55,3.55,0,0,0,27,29.74c-.5.43-1.71,1.61-1.3,2.37a4,4,0,0,0-.61.56,2.84,2.84,0,0,0-.29.36,4.74,4.74,0,0,0-2.19,2.33,4.94,4.94,0,0,0-2,1.63,4.26,4.26,0,0,0-.95,3.12,3.94,3.94,0,0,0-1,2.22,3.64,3.64,0,0,0,0,1.31,2.24,2.24,0,0,0-.6,2.89c-1,2,1,5.17,3.3,5.42h0a3.44,3.44,0,0,0,4.25,1.83,3.36,3.36,0,0,0,4,.86,5.62,5.62,0,0,0,.53.19A3.21,3.21,0,0,0,33,54.35a4.66,4.66,0,0,0,.93.25,3.7,3.7,0,0,0,3.39-1.37,4.15,4.15,0,0,0,4.07-2.43l.1,0a2.61,2.61,0,0,0,2.94-1.77A2.31,2.31,0,0,0,46.94,48a3.87,3.87,0,0,0,.65-2.72A3.13,3.13,0,0,0,47.18,40.51ZM47,40.4a2.47,2.47,0,0,0-.46-.23,4.37,4.37,0,0,0-3.59.14A3.34,3.34,0,0,0,42,41a5.32,5.32,0,0,1-.85-1.22A1.75,1.75,0,0,1,41.27,38a5.34,5.34,0,0,0,2.61-.1,4,4,0,0,0,2.39-1.23C47.41,37.19,47.21,39.33,47,40.4ZM25.61,51.65a4.45,4.45,0,0,1-2.14-1.27,2.34,2.34,0,0,1-.74-2.13,2,2,0,0,0,2.77.19,3.38,3.38,0,0,0,.28.81A1.85,1.85,0,0,0,25.61,51.65Zm-.16-3.5c-1.44.21-2.72-.08-3.1-1.71s.8-2.31,1.73-3.18a2.73,2.73,0,0,0,.06.84,2.59,2.59,0,0,0,2,1.82l.14,0A2.32,2.32,0,0,0,25.45,48.15Zm-1.26-5.36c0,.08-.05.16-.07.25A3.49,3.49,0,0,0,22,45.22a7.15,7.15,0,0,1-.58-.73,2.6,2.6,0,0,1-.3-1.83,3.65,3.65,0,0,1,1.67-2.26A1.88,1.88,0,0,0,24.19,42.79Zm5-7.44a9.62,9.62,0,0,1,2.68,0c2,.2,2.89,1.78,1.79,3.41a4.52,4.52,0,0,0-.83-.13,6.65,6.65,0,0,0-4.7,1.65c-1.18-.82-2-1.69-1.59-3.25C26.89,35.92,28.22,35.53,29.21,35.35ZM28.29,32c.86-.79,2.24-.62,3.27-.34a4.9,4.9,0,0,1,2.29,1.39c.71.78.42,1.71.13,2.58-1-1.14-3.54-.95-4.87-.78a4.71,4.71,0,0,0-1.37.38A2.49,2.49,0,0,1,28.29,32Zm3,11.38c-1.23.32-2.62.13-3.11-1.25-.75-2.09,3.47-3.08,4.79-2.91C36.44,39.7,33,43,31.26,43.4Zm3.54-2.19a2.11,2.11,0,0,1,.85,2.88,7.13,7.13,0,0,1-1.89,2.61c-1.15,1-2.49.32-3.32-.64a3.38,3.38,0,0,1-.79-2,5.55,5.55,0,0,0,2.58-.4A5.09,5.09,0,0,0,34.8,41.21ZM29.21,44a.77.77,0,0,0-.16.46,5,5,0,0,1-2.54.75,2.09,2.09,0,0,1-1.78-1.5c-.5-1.85,1.61-2.67,3.07-3a2.26,2.26,0,0,0-.34,1.18A2,2,0,0,0,29.21,44Zm-1.29-3.47,0,0c-1.35.17-3,.75-3.6,1.94A1.76,1.76,0,0,1,23.43,40a3.22,3.22,0,0,1,2.47-1.79A2.62,2.62,0,0,0,27.92,40.57Zm-6,5a3.38,3.38,0,0,0,0,1.48,2.22,2.22,0,0,0,.46.85.89.89,0,0,0-.27.4,5.36,5.36,0,0,1-1.24-1.47,3.34,3.34,0,0,1-.12-2.44A2.71,2.71,0,0,0,21.92,45.61Zm8.4,6.44a5.44,5.44,0,0,1-2.88.3,2.12,2.12,0,0,1-1.51-2.84,3.27,3.27,0,0,0,.77.85,3.14,3.14,0,0,0,3.3,0A2.11,2.11,0,0,0,30.32,52.05Zm-.16-2.51a3.72,3.72,0,0,1-2.27.58,2.43,2.43,0,0,1-2-2A2.09,2.09,0,0,1,26.76,46a3.7,3.7,0,0,0,2.31-1.22,5,5,0,0,0,2.75,3A6.09,6.09,0,0,1,30.16,49.54Zm.28.53a3.17,3.17,0,0,0,1.49-2.3,1.6,1.6,0,0,0,1.16,0,2.6,2.6,0,0,0,.45-.26A3,3,0,0,0,34.73,50a1.9,1.9,0,0,0,.4.25,4,4,0,0,1-2.77,2.31C30.94,52.87,30,51.25,30.44,50.07ZM34.23,47A7,7,0,0,0,36.34,43c3.42-.57,3.32,3.84,1.68,5.73a2.54,2.54,0,0,1-2.32,1A2.31,2.31,0,0,1,34.23,47Zm3.53-4.14a3.15,3.15,0,0,1,2.84-1.76s0,0,0,0c-1.28-.81-2.76.45-3,1.76a2.26,2.26,0,0,0-1.3.1A1.78,1.78,0,0,0,34.87,41a1.8,1.8,0,0,0,0-1.4,1.58,1.58,0,0,0-1-.82,2.2,2.2,0,0,0,.3-3,2.12,2.12,0,0,0,.68-1.62,1.37,1.37,0,0,0,1.29-.52,1.76,1.76,0,0,0,1.66-.15,1.7,1.7,0,0,0,1.3,1,.26.26,0,0,0,0,.18,2.43,2.43,0,0,0,1,.82,1.55,1.55,0,0,0,.57,2.07,1.52,1.52,0,0,0,.34.22,1.8,1.8,0,0,0-.46,1.74,2.84,2.84,0,0,0,1.13,1.86,2.19,2.19,0,0,0-.46,1.33l-.32.17a6.62,6.62,0,0,0-.6.51,2.34,2.34,0,0,0-1.11.4A2.57,2.57,0,0,0,37.76,42.82ZM45.47,34a2.08,2.08,0,0,1,.66,1.88c-.19.85-1.35,1.24-2.06,1.48-1.3.45-4.27.28-3.82-1.77a4.66,4.66,0,0,0,5-1.21A1.75,1.75,0,0,0,45.47,34Zm-2.85-4.61c.82.28,1.06,1,1.38,1.79.39,1,1.73,2,.71,3.05-1.19,1.23-3.93,1.89-5,.33a1.27,1.27,0,0,0,.28,0,3.42,3.42,0,0,0,2.53-2.3A4.36,4.36,0,0,0,42.62,29.43ZM42,29.1a3.83,3.83,0,0,1,.15,2.73A3.67,3.67,0,0,1,40.71,34,1.85,1.85,0,0,1,38,33.4a3.55,3.55,0,0,0,.77-.78,4.51,4.51,0,0,0,.11-4.18,2.53,2.53,0,0,0-.16-.33A2.55,2.55,0,0,1,42,29.1Zm-5-1.81a2.71,2.71,0,0,1,1.74,2.22,4.92,4.92,0,0,1,0,2.41c-.31,1.24-1.34,1.5-2.41,1.54a3.22,3.22,0,0,0,.4-1.46,5.07,5.07,0,0,0-2.11-4.14C35.08,27.14,36.83,27.25,37,27.29ZM33.73,28c1.83.6,4.23,5.84,1.09,6.12-.2-1.42-2-2.65-3.47-3a4,4,0,0,0-1.5-.12C29.34,28.65,31.73,27.32,33.73,28Zm-4,.9A2,2,0,0,0,29.45,31a3.74,3.74,0,0,0-1,.4,4.69,4.69,0,0,0-2.26.44C26.29,30.41,28.31,29.16,29.7,28.88Zm-4.69,5c.51-1.47,1.69-1.8,2.94-2.12a2.77,2.77,0,0,0-1.07,2.66,2.76,2.76,0,0,0-2.05.57A2.39,2.39,0,0,1,25,33.84Zm1.93.86a3.69,3.69,0,0,0,.34.81A3.08,3.08,0,0,0,26,37.24a2.55,2.55,0,0,0-.1.72,2.29,2.29,0,0,0-2.07.58c-.53-.47,0-1.76.27-2.18A4.59,4.59,0,0,1,26.94,34.7Zm-3.79.64a6.43,6.43,0,0,1,1.34-1.76,2,2,0,0,0-.19,1.79,4.62,4.62,0,0,0-.95,1.21,1.13,1.13,0,0,0-.06.21,5,5,0,0,0-.63.37A6.23,6.23,0,0,1,23.15,35.34Zm.09,1.75c-.07.62,0,1.53.36,1.68a3.42,3.42,0,0,0-.76,1.46,4.15,4.15,0,0,0-1.17.69,3.51,3.51,0,0,1,1.57-3.83ZM21,37.32a13.76,13.76,0,0,1,1.48-1.61,4.81,4.81,0,0,0-.2,1.75,4.48,4.48,0,0,0-.82.91,2.79,2.79,0,0,0-.36.78A4.4,4.4,0,0,0,20,39.8,6.13,6.13,0,0,1,21,37.32Zm0,2.26a3.52,3.52,0,0,0,.19,1.85,3.19,3.19,0,0,0-.55,1.07,2.66,2.66,0,0,0,0,1.37A2.2,2.2,0,0,0,20,45a4.23,4.23,0,0,1-.83-2.37A4,4,0,0,1,21,39.58Zm-2.28,4.33c0,.14.09.28.14.41A2.8,2.8,0,0,0,20,45.7a4,4,0,0,0,.69,2.08,2.93,2.93,0,0,1-2.16-1.37A2,2,0,0,1,18.72,43.91Zm2.48,7.65a4.76,4.76,0,0,1-2.29-1.8,3.76,3.76,0,0,1-.64-2.84A2.86,2.86,0,0,0,21,48.19a2.87,2.87,0,0,0,.72.59A2.86,2.86,0,0,0,21.2,51.56Zm1.39,1a2.68,2.68,0,0,1-.5-3.6h0a3.25,3.25,0,0,0,.56,1.49,3.4,3.4,0,0,0,1.78,1.39,4.18,4.18,0,0,0,1,1.75A3.58,3.58,0,0,1,22.59,52.54Zm2.46-.62a2.87,2.87,0,0,0,.7-.07,2.92,2.92,0,0,0,.58.63,2.59,2.59,0,0,0,1.33.55,3.92,3.92,0,0,0,1.59,1.43C27.39,54.75,25.91,53.55,25.05,51.92Zm6.72,2.4a3.39,3.39,0,0,1-1.64-.16,7.21,7.21,0,0,1-2-1.1,4,4,0,0,0,2.34-.76,2.37,2.37,0,0,0,.93.76l.28.08a2.14,2.14,0,0,0,.77,1C32.24,54.18,32,54.26,31.77,54.32Zm4.91-.84a3.55,3.55,0,0,1-2,.65,3.17,3.17,0,0,1-2.54-.93,3.53,3.53,0,0,0,2.81-2,2.79,2.79,0,0,0,2.09,1.93A4.33,4.33,0,0,1,36.68,53.48ZM38,52.72a2.35,2.35,0,0,1-2.79-2,3.57,3.57,0,0,0,.1-.35,3,3,0,0,0,2.87-1,4,4,0,0,0,.48-.54,4.15,4.15,0,0,0,2.41,1.89A5.09,5.09,0,0,1,38,52.72Zm3.24-2.67a4.49,4.49,0,0,1-2.31-1.58l0,0a5.51,5.51,0,0,0,.7-3.43,2.94,2.94,0,0,0-.37-1c2.22-.55,4,.59,4.68,2.83C44.49,48.59,43.3,50.56,41.25,50.05Zm5.54-3.33a3.06,3.06,0,0,1-2.24,1.9,2.93,2.93,0,0,0,.07-.41c.19-2-1.84-4.64-3.93-4.78.28-.15.55-.34.82-.5a3.4,3.4,0,0,1,1.59-.45,4.24,4.24,0,0,1,3.17,1.21A3,3,0,0,1,46.79,46.72Zm.76-1.62a3.83,3.83,0,0,0-.25-.82,3.68,3.68,0,0,0-3.4-2.11,5.61,5.61,0,0,0-2.11.32l-.22.1a3.67,3.67,0,0,1,4.15-2.1A3.27,3.27,0,0,1,48,42.19,2.85,2.85,0,0,1,47.55,45.1Z"/><path class="cls-3" d="M39.84,27.88a2.76,2.76,0,0,0-1.08.23,2.53,2.53,0,0,1,.16.33,4.51,4.51,0,0,1-.11,4.18,3.55,3.55,0,0,1-.77.78,2,2,0,0,0,1.62,1A1.85,1.85,0,0,0,40.71,34a3.67,3.67,0,0,0,1.44-2.18A3.83,3.83,0,0,0,42,29.1a2.51,2.51,0,0,0-2.16-1.22Z"/><path class="cls-4" d="M24.49,33.58a6.43,6.43,0,0,0-1.34,1.76,6.23,6.23,0,0,0-.49,1.82,5,5,0,0,1,.63-.37,1.13,1.13,0,0,1,.06-.21,4.62,4.62,0,0,1,.95-1.21,2,2,0,0,1,.19-1.79Z"/><path class="cls-5" d="M23.24,37.09a3.51,3.51,0,0,0-1.57,3.83,4.15,4.15,0,0,1,1.17-.69,3.42,3.42,0,0,1,.76-1.46c-.38-.15-.43-1.06-.36-1.68Z"/><path class="cls-6" d="M18.72,43.91a2,2,0,0,0-.21,2.5,2.93,2.93,0,0,0,2.16,1.37A4,4,0,0,1,20,45.7a2.8,2.8,0,0,1-1.12-1.38c-.05-.13-.1-.27-.14-.41Z"/><path class="cls-7" d="M21,39.58a4,4,0,0,0-1.8,3.08A4.23,4.23,0,0,0,20,45a2.2,2.2,0,0,1,.57-1.16,2.66,2.66,0,0,1,0-1.37,3.19,3.19,0,0,1,.55-1.07A3.52,3.52,0,0,1,21,39.58Z"/><path class="cls-8" d="M36.5,27.26c-.6,0-1.56.1-1.9.6A5.07,5.07,0,0,1,36.71,32a3.22,3.22,0,0,1-.4,1.46c1.07,0,2.1-.3,2.41-1.54a4.92,4.92,0,0,0,0-2.41A2.71,2.71,0,0,0,37,27.29a2.82,2.82,0,0,0-.47,0Z"/><path class="cls-9" d="M18.27,46.92a3.76,3.76,0,0,0,.64,2.84,4.76,4.76,0,0,0,2.29,1.8,2.86,2.86,0,0,1,.52-2.78,2.87,2.87,0,0,1-.72-.59,2,2,0,0,1-.34,0,2.88,2.88,0,0,1-2.39-1.29Z"/><path class="cls-10" d="M28,31.72c-1.25.32-2.43.65-2.94,2.12A2.39,2.39,0,0,0,24.83,35a3,3,0,0,1,1.67-.6,2.43,2.43,0,0,1,.38,0A2.77,2.77,0,0,1,28,31.72Z"/><path class="cls-11" d="M32.67,27.81a2.62,2.62,0,0,0-2.82,3.13l.45,0a3.79,3.79,0,0,1,1.05.14c1.45.39,3.27,1.62,3.47,3,3.14-.28.74-5.52-1.09-6.12a3.46,3.46,0,0,0-1.06-.17Z"/><path class="cls-12" d="M29.7,28.88c-1.39.28-3.41,1.53-3.55,3a4.56,4.56,0,0,1,2.16-.45h.1a3.74,3.74,0,0,1,1-.4,2,2,0,0,1,.25-2.13Z"/><path class="cls-13" d="M22.48,35.71A13.76,13.76,0,0,0,21,37.32a6.13,6.13,0,0,0-1,2.48,4.4,4.4,0,0,1,1.13-.65,2.79,2.79,0,0,1,.36-.78,4.48,4.48,0,0,1,.82-.91,4.81,4.81,0,0,1,.2-1.75Z"/><path class="cls-14" d="M43.31,42.47H43.1a3.4,3.4,0,0,0-1.59.45c-.27.16-.54.35-.82.5,2.09.14,4.12,2.78,3.93,4.78a2.93,2.93,0,0,1-.07.41,3.06,3.06,0,0,0,2.24-1.9,3,3,0,0,0-.52-3,4.3,4.3,0,0,0-3-1.22Z"/><path class="cls-15" d="M40.33,43.84a4.57,4.57,0,0,0-1.08.14,2.94,2.94,0,0,1,.37,1,5.51,5.51,0,0,1-.7,3.43l0,0a4.49,4.49,0,0,0,2.31,1.58,2.37,2.37,0,0,0,.63.08,2.4,2.4,0,0,0,2-3.32,3.78,3.78,0,0,0-3.6-3Z"/><path class="cls-16" d="M44.88,40.4a3.73,3.73,0,0,0-3.31,2.19l.22-.1a5.59,5.59,0,0,1,1.9-.33h.21a3.68,3.68,0,0,1,3.4,2.11,3.83,3.83,0,0,1,.25.82,2.85,2.85,0,0,0,.4-2.91,3.27,3.27,0,0,0-2.23-1.7,4.22,4.22,0,0,0-.84-.09Z"/><path class="cls-17" d="M35,51.25a3.54,3.54,0,0,1-2.79,2h0a3.1,3.1,0,0,0,2.35.93h.19a3.55,3.55,0,0,0,2-.65,4.33,4.33,0,0,0,.37-.3A2.79,2.79,0,0,1,35,51.25Z"/><path class="cls-18" d="M25.75,51.85a2.6,2.6,0,0,1-.61.07h-.09a4.31,4.31,0,0,0,3.65,2.59,3.51,3.51,0,0,0,.55,0A3.92,3.92,0,0,1,27.66,53a2.59,2.59,0,0,1-1.33-.55,2.92,2.92,0,0,1-.58-.63Z"/><path class="cls-19" d="M30.5,52.3a4,4,0,0,1-2.34.76,7.21,7.21,0,0,0,2,1.1,3.82,3.82,0,0,0,1.16.2,2.59,2.59,0,0,0,.48,0c.24-.06.47-.14.71-.22a2.14,2.14,0,0,1-.77-1l-.28-.08a2.37,2.37,0,0,1-.93-.76Z"/><path class="cls-20" d="M22.09,48.94a2.68,2.68,0,0,0,.5,3.6,3.55,3.55,0,0,0,2.56,1h.26a4.18,4.18,0,0,1-1-1.75,3.4,3.4,0,0,1-1.78-1.39,3.25,3.25,0,0,1-.56-1.49Z"/><path class="cls-21" d="M38.67,48.82a4,4,0,0,1-.48.54,3.54,3.54,0,0,1-2.27,1.09,1.8,1.8,0,0,1-.6-.1,3.57,3.57,0,0,1-.1.35,2.31,2.31,0,0,0,2.37,2.06,2,2,0,0,0,.42,0,5.09,5.09,0,0,0,3.07-2,4.15,4.15,0,0,1-2.41-1.89Z"/><path class="cls-22" d="M26.94,34.7a4.59,4.59,0,0,0-2.85,1.66c-.27.42-.8,1.71-.27,2.18a2.31,2.31,0,0,1,1.56-.64,2.35,2.35,0,0,1,.51.06,2.55,2.55,0,0,1,.1-.72,3.08,3.08,0,0,1,1.29-1.73,3.69,3.69,0,0,1-.34-.81Z"/><path class="cls-23" d="M32.6,39.22c-1.58,0-5.14,1-4.45,2.93a2.07,2.07,0,0,0,2.12,1.38,4.2,4.2,0,0,0,1-.13c1.71-.44,5.18-3.7,1.68-4.16l-.34,0Z"/><path class="cls-24" d="M42.62,29.43a4.36,4.36,0,0,1-.13,2.84A3.42,3.42,0,0,1,40,34.57a1.27,1.27,0,0,1-.28,0,2.33,2.33,0,0,0,2,.91,4.48,4.48,0,0,0,3-1.24c1-1.05-.32-2-.71-3.05-.32-.82-.56-1.51-1.38-1.79Z"/><path class="cls-25" d="M34.8,41.21a5.09,5.09,0,0,1-2.57,2.5,5.6,5.6,0,0,1-2.12.42l-.46,0a3.38,3.38,0,0,0,.79,2,2.93,2.93,0,0,0,2.08,1.14,1.85,1.85,0,0,0,1.24-.5,7.13,7.13,0,0,0,1.89-2.61,2.11,2.11,0,0,0-.85-2.88Z"/><path class="cls-26" d="M30.28,35.26a5.52,5.52,0,0,0-1.07.09c-1,.18-2.32.57-2.65,1.69-.45,1.56.41,2.43,1.59,3.25a6.58,6.58,0,0,1,4.43-1.65h.27a4.52,4.52,0,0,1,.83.13c1.1-1.63.2-3.21-1.79-3.41-.53,0-1.07-.1-1.61-.1Z"/><path class="cls-27" d="M27.8,40.73c-1.46.35-3.57,1.17-3.07,3a2.09,2.09,0,0,0,1.78,1.5l.29,0a6.09,6.09,0,0,0,2.25-.77.77.77,0,0,1,.16-.46,2,2,0,0,1-1.75-2.13,2.26,2.26,0,0,1,.34-1.18Z"/><path class="cls-28" d="M25.9,38.21A3.22,3.22,0,0,0,23.43,40a1.76,1.76,0,0,0,.86,2.54c.6-1.19,2.25-1.77,3.6-1.94l0,0a2.62,2.62,0,0,1-2-2.36Z"/><path class="cls-29" d="M22.73,48.25a2.34,2.34,0,0,0,.74,2.13,4.45,4.45,0,0,0,2.14,1.27,1.85,1.85,0,0,1,.17-2.4,3.38,3.38,0,0,1-.28-.81,1.47,1.47,0,0,1-1.12.48,2.66,2.66,0,0,1-1.65-.67Z"/><path class="cls-30" d="M46.27,36.62a4,4,0,0,1-2.39,1.23,7.83,7.83,0,0,1-1.68.23,3.17,3.17,0,0,1-.93-.13,1.75,1.75,0,0,0-.14,1.87A5.32,5.32,0,0,0,42,41a3.34,3.34,0,0,1,1-.73,4.42,4.42,0,0,1,1.95-.46,4.59,4.59,0,0,1,1.64.32,2.47,2.47,0,0,1,.46.23c.2-1.07.4-3.21-.74-3.78Z"/><path class="cls-31" d="M22.81,40.4a3.65,3.65,0,0,0-1.67,2.26,2.6,2.6,0,0,0,.3,1.83,7.15,7.15,0,0,0,.58.73A3.49,3.49,0,0,1,24.12,43c0-.09.05-.17.07-.25a1.88,1.88,0,0,1-1.38-2.39Z"/><path class="cls-32" d="M24.08,43.26c-.93.87-2.07,1.69-1.73,3.18a2.14,2.14,0,0,0,2.33,1.77,5.09,5.09,0,0,0,.77-.06,2.32,2.32,0,0,1,.86-2.21l-.14,0a2.59,2.59,0,0,1-2-1.82,2.73,2.73,0,0,1-.06-.84Z"/><path class="cls-33" d="M30,31.44a2.46,2.46,0,0,0-1.72.58,2.49,2.49,0,0,0-.55,3.23,4.71,4.71,0,0,1,1.37-.38,13.41,13.41,0,0,1,1.83-.13,4.16,4.16,0,0,1,3,.91c.29-.87.58-1.8-.13-2.58a4.9,4.9,0,0,0-2.29-1.39A5.91,5.91,0,0,0,30,31.44Z"/><path class="cls-34" d="M38.24,37.72h0c-1,0-2.27-.53-2.41-1.61h0c.46.89,1.63,1.08,2.44,1.5.07,0,0,.12,0,.12Zm-.46-4.15a2.08,2.08,0,0,1-1,.3,1.51,1.51,0,0,1-.65-.15,1.39,1.39,0,0,1-1.09.53h-.2a2.12,2.12,0,0,1-.68,1.62,2.2,2.2,0,0,1-.3,3,1.58,1.58,0,0,1,1,.82,1.8,1.8,0,0,1,0,1.4,1.78,1.78,0,0,1,1.47,1.85,2.4,2.4,0,0,1,.81-.15,2.63,2.63,0,0,1,.49,0,2.38,2.38,0,0,1,2.12-2,1.56,1.56,0,0,1,.85.26v0h-.17a3.22,3.22,0,0,0-2.67,1.77,2.57,2.57,0,0,1,1.4,1,2.34,2.34,0,0,1,1.11-.4,6.62,6.62,0,0,1,.6-.51l.32-.17a2.19,2.19,0,0,1,.46-1.33,2.84,2.84,0,0,1-1.13-1.86A1.8,1.8,0,0,1,41,37.84a1.52,1.52,0,0,1-.34-.22,1.55,1.55,0,0,1-.57-2.07,2.43,2.43,0,0,1-1-.82.26.26,0,0,1,0-.18,1.7,1.7,0,0,1-1.3-1Z"/><path class="cls-35" d="M33.54,47.53a2.6,2.6,0,0,1-.45.26,1.25,1.25,0,0,1-.51.1,2,2,0,0,1-.65-.12,3.17,3.17,0,0,1-1.49,2.3A1.92,1.92,0,0,0,32,52.61a1.84,1.84,0,0,0,.33,0,4,4,0,0,0,2.77-2.31,1.9,1.9,0,0,1-.4-.25,3,3,0,0,1-1.19-2.49Z"/><path class="cls-36" d="M45.47,34a1.75,1.75,0,0,1-.23.38,4.57,4.57,0,0,1-3.49,1.49,3.92,3.92,0,0,1-1.5-.28c-.32,1.47,1.12,2,2.44,2a4.26,4.26,0,0,0,1.38-.21c.71-.24,1.87-.63,2.06-1.48A2.08,2.08,0,0,0,45.47,34Z"/><path class="cls-37" d="M36.92,43a3,3,0,0,0-.58,0A7,7,0,0,1,34.23,47a2.31,2.31,0,0,0,1.47,2.78,1.47,1.47,0,0,0,.36,0,2.74,2.74,0,0,0,2-1C39.56,47,39.74,43,36.92,43Z"/><path class="cls-38" d="M20.8,44.43a3.34,3.34,0,0,0,.12,2.44,5.36,5.36,0,0,0,1.24,1.47.89.89,0,0,1,.27-.4,2.22,2.22,0,0,1-.46-.85,3.38,3.38,0,0,1,0-1.48,2.71,2.71,0,0,1-1.12-1.18Z"/><path class="cls-39" d="M25.93,49.51a2.12,2.12,0,0,0,1.51,2.84,3.91,3.91,0,0,0,.83.09,6.53,6.53,0,0,0,2.05-.39A2.11,2.11,0,0,1,30,50.34a3.86,3.86,0,0,1-1.81.48,2.46,2.46,0,0,1-1.49-.46,3.27,3.27,0,0,1-.77-.85Z"/><path class="cls-40" d="M29.07,44.74A3.7,3.7,0,0,1,26.76,46a2.09,2.09,0,0,0-.88,2.11,2.43,2.43,0,0,0,2,2h.28a3.73,3.73,0,0,0,2-.59,6.09,6.09,0,0,0,1.66-1.81,5,5,0,0,1-2.75-3Z"/><g class="cls-41"><path class="cls-42" d="M42,29.1a2.5,2.5,0,0,0-1.89-1.2,4.55,4.55,0,0,1-1.41,6.17,1.83,1.83,0,0,0,1,.29A1.85,1.85,0,0,0,40.71,34a3.67,3.67,0,0,0,1.44-2.18A3.83,3.83,0,0,0,42,29.1Z"/><path class="cls-43" d="M24.49,33.58a6.43,6.43,0,0,0-1.34,1.76,6.23,6.23,0,0,0-.49,1.82,5,5,0,0,1,.63-.37,1.13,1.13,0,0,1,.06-.21,4.62,4.62,0,0,1,.95-1.21,2,2,0,0,1,.19-1.79Z"/><path class="cls-44" d="M23.26,38.14a7.31,7.31,0,0,0-1.67,1.66,4.66,4.66,0,0,0,.08,1.12,4.15,4.15,0,0,1,1.17-.69,3.42,3.42,0,0,1,.76-1.46C23.42,38.7,23.31,38.45,23.26,38.14Z"/><path class="cls-45" d="M20.67,47.78A4,4,0,0,1,20,45.7a5,5,0,0,0-.95-.81c-.33,0-.34.46-.34.71a2.65,2.65,0,0,0,.64,1.56C19.62,47.48,20.52,47.55,20.67,47.78Z"/><path class="cls-46" d="M20.6,43.87a2.66,2.66,0,0,1,0-1.37,3.19,3.19,0,0,1,.55-1.07c.31-.41-.66-.54-.89-.42a1.77,1.77,0,0,0-.59,1A3,3,0,0,0,20,45C20.07,44.83,20.62,43.93,20.6,43.87Z"/><path class="cls-47" d="M38.71,29.51a5,5,0,0,0-.34-1c-.89-.77-1.67.18-1.4,1.07a7.94,7.94,0,0,1,.28.95,4,4,0,0,1,.07,1.54,2.87,2.87,0,0,1-.6,1.32,2,2,0,0,0,2-1.51A4.92,4.92,0,0,0,38.71,29.51Z"/><path class="cls-48" d="M21.72,48.78c-.54-.3-2.29-1.3-2.57-.28s1.16,2.87,2,3C21.12,51.3,21.19,48.48,21.72,48.78Z"/><path class="cls-49" d="M27.22,32.56l-1,.35a3.23,3.23,0,0,0-1.36,2,3,3,0,0,1,1.64-.58,2.43,2.43,0,0,1,.38,0A2.68,2.68,0,0,1,27.22,32.56Z"/><path class="cls-50" d="M34.83,29.8c-.73-1-1.67-1.54-2.87-.9a2.63,2.63,0,0,1-.83.28,1.46,1.46,0,0,0-1.33,1.39c0,.12,0,.25.05.37l.45,0a3.79,3.79,0,0,1,1.05.14c1.42.39,3.2,1.58,3.45,3A3.65,3.65,0,0,0,34.83,29.8Z"/><path class="cls-51" d="M29.31,29.7a4.75,4.75,0,0,0-2.7,1.95,5.18,5.18,0,0,1,1.7-.25h.1a3.74,3.74,0,0,1,1-.4A1.64,1.64,0,0,1,29.31,29.7Z"/><path class="cls-52" d="M22.21,37.09c-.26-.22-.74.38-.89.54s-.95,1.07-.8,1.41c.29.65.61-.12.74-.32S22.54,37.36,22.21,37.09Z"/><path class="cls-53" d="M43.31,42.47H43.1a3.4,3.4,0,0,0-1.59.45c-.27.16-.54.35-.82.5a4.55,4.55,0,0,1,3.43,2.64c.21.39.36,1.65.76,1.75.57.15,1.39-1,1.58-1.4,1-2.21-1.1-4-3.15-4Z"/><path class="cls-54" d="M41.88,50.13c3.19,0,1.9-3.78.39-5-.5-.42-2-1.3-2.57-.61-.33.4,0,1.38-.06,1.86a5.3,5.3,0,0,1-.72,2.11l0,0a4.49,4.49,0,0,0,2.31,1.58A2.37,2.37,0,0,0,41.88,50.13Z"/><path class="cls-55" d="M48,42.19a3.27,3.27,0,0,0-2.23-1.7,2.15,2.15,0,0,0-.34-.05,2.65,2.65,0,0,1,.32,2.17,3.34,3.34,0,0,1,1.6,1.67,3.83,3.83,0,0,1,.25.82A2.85,2.85,0,0,0,48,42.19Z"/><path class="cls-56" d="M35,51.25a3.54,3.54,0,0,1-2.79,2h0a3.1,3.1,0,0,0,2.35.93h.19a3.55,3.55,0,0,0,2-.65,4.33,4.33,0,0,0,.37-.3A2.79,2.79,0,0,1,35,51.25Z"/><path class="cls-57" d="M25.75,51.85a2.6,2.6,0,0,1-.61.07h-.09a4.31,4.31,0,0,0,3.65,2.59,3.51,3.51,0,0,0,.55,0A3.92,3.92,0,0,1,27.66,53a2.59,2.59,0,0,1-1.33-.55,2.92,2.92,0,0,1-.58-.63Z"/><path class="cls-58" d="M30.5,52.3a4,4,0,0,1-2.34.76,7.21,7.21,0,0,0,2,1.1,3.82,3.82,0,0,0,1.16.2,2.59,2.59,0,0,0,.48,0c.24-.06.47-.14.71-.22a2.14,2.14,0,0,1-.77-1l-.28-.08a2.37,2.37,0,0,1-.93-.76Z"/><path class="cls-59" d="M25.15,53.58h.26a4.18,4.18,0,0,1-1-1.75c0-.06-.86-.43-1-.52a6.46,6.46,0,0,1-.77-.8c-.13-.15-.29.93-.27,1A3.07,3.07,0,0,0,23,52.83,2.64,2.64,0,0,0,25.15,53.58Z"/><path class="cls-60" d="M38.67,48.82a4,4,0,0,1-.48.54,3.54,3.54,0,0,1-2.27,1.09,1.8,1.8,0,0,1-.6-.1,3.57,3.57,0,0,1-.1.35,2.31,2.31,0,0,0,2.37,2.06,2,2,0,0,0,.42,0,5.09,5.09,0,0,0,3.07-2,4.15,4.15,0,0,1-2.41-1.89Z"/><path class="cls-61" d="M36.53,53a4.07,4.07,0,0,1-4.29.19h-.09a3.1,3.1,0,0,0,2.35.93h.19a3.55,3.55,0,0,0,2-.65,4.33,4.33,0,0,0,.37-.3A2.68,2.68,0,0,1,36.53,53Z"/><path class="cls-61" d="M28.4,53.9a4,4,0,0,1-3-1.4,4,4,0,0,0,3.3,2,3.51,3.51,0,0,0,.55,0A4.31,4.31,0,0,1,28.4,53.9Z"/><path class="cls-61" d="M32.06,53.71a4.06,4.06,0,0,1-3.86-.65h0a7.21,7.21,0,0,0,2,1.1,3.82,3.82,0,0,0,1.16.2,2.59,2.59,0,0,0,.48,0c.24-.06.47-.14.71-.22A2,2,0,0,1,32.06,53.71Z"/><path class="cls-61" d="M40.5,50.47c-.23,1.68-2.76,2.08-4.5,1.72a2.64,2.64,0,0,0,1.59.57,2,2,0,0,0,.42,0,5.09,5.09,0,0,0,3.07-2A4,4,0,0,1,40.5,50.47Z"/><path class="cls-62" d="M23.69,38.36a.59.59,0,0,0,.13.18,2.31,2.31,0,0,1,1.56-.64,2.35,2.35,0,0,1,.51.06,2.55,2.55,0,0,1,.1-.72,3,3,0,0,1,1.2-1.66A7,7,0,0,0,23.69,38.36Z"/><path class="cls-63" d="M34,39.58a5.87,5.87,0,0,0-4.43,1.07c-.7.57-.3,1-.32,1.67,0,1,.74,1,1.45,1.18a3.33,3.33,0,0,0,.55-.1C32.73,43,35.51,40.55,34,39.58Z"/><path class="cls-64" d="M42,33.14c.75.07,1.41.33,1.5,1.27,0,.28-.26.59-.36.83a4.27,4.27,0,0,0,1.54-1c1-1.05-.32-2-.71-3.05-.32-.82-.56-1.51-1.38-1.79a4.36,4.36,0,0,1-.13,2.84A5.14,5.14,0,0,1,42,33.14Z"/><path class="cls-65" d="M32.52,47.2c1.46,0,2.74-2.37,2.81-3.65,0-.44-.08-1.81-.79-1.72-.28,0-.71.79-.93,1a4.83,4.83,0,0,1-1.38.9,5.6,5.6,0,0,1-2.12.42l-.46,0a3.38,3.38,0,0,0,.79,2A2.93,2.93,0,0,0,32.52,47.2Z"/><path class="cls-66" d="M30.88,36.79c-1.1.06-5.53.68-3.57,2.73a.09.09,0,0,1,0,.11,6.33,6.33,0,0,0,.83.66,6.58,6.58,0,0,1,4.43-1.65h.27a4.52,4.52,0,0,1,.83.13,2.62,2.62,0,0,0,.43-1A4,4,0,0,0,30.88,36.79Z"/><path class="cls-67" d="M27.46,41.91c0-.06,0-.11,0-.16a2.93,2.93,0,0,0-2,1.54,1.63,1.63,0,0,0,0,1.51,2.14,2.14,0,0,0,1.07.45l.29,0a6.09,6.09,0,0,0,2.25-.77.77.77,0,0,1,.16-.46A2,2,0,0,1,27.46,41.91Z"/><path class="cls-68" d="M26.26,39.33a2.48,2.48,0,0,0-2.54,1.5,2.51,2.51,0,0,0,.09,1.36,3.72,3.72,0,0,0,.48.35c.6-1.19,2.25-1.77,3.6-1.94l0,0A2.42,2.42,0,0,1,26.26,39.33Z"/><path class="cls-69" d="M25.61,51.65a1.85,1.85,0,0,1,.17-2.4,3.38,3.38,0,0,1-.28-.81c.09.42-1.18.44-1.36.44-.46,0-.64-.17-.72.4a2.43,2.43,0,0,0,.75,1.63C24.46,51.24,25.47,51.4,25.61,51.65Z"/><path class="cls-70" d="M46.27,36.62a4,4,0,0,1-2.39,1.23l-.38.08s.09.09.22.12a2.92,2.92,0,0,1,.71.22c.67.3.53,1.17.1,1.6l.38,0a4.59,4.59,0,0,1,1.64.32,2.47,2.47,0,0,1,.46.23C47.21,39.33,47.41,37.19,46.27,36.62Z"/><path class="cls-71" d="M22,45.22A3.49,3.49,0,0,1,24.12,43c0-.09.05-.17.07-.25-.11.32-1.32-1-1.38-1-.4-.18-.62,0-.87.34a3.19,3.19,0,0,0-.48,1.62,2,2,0,0,0,0,.78C21.53,44.64,22,45.13,22,45.22Z"/><path class="cls-72" d="M24.68,48.21a5.09,5.09,0,0,0,.77-.06,2.32,2.32,0,0,1,.86-2.21l-.14,0c-1.32-.3-1.83-1.75-3-.37S23.08,48.21,24.68,48.21Z"/><path class="cls-73" d="M30,32.72a5.25,5.25,0,0,0-1,.18,2.57,2.57,0,0,0-.8,2.18,4.57,4.57,0,0,1,.92-.21,13.41,13.41,0,0,1,1.83-.13,4.16,4.16,0,0,1,3,.91,7.61,7.61,0,0,0,.28-1C32.93,33.67,31.75,32.58,30,32.72Z"/><path class="cls-74" d="M33.54,47.53a2.6,2.6,0,0,1-.45.26,1.25,1.25,0,0,1-.51.1,2,2,0,0,1-.65-.12,3.17,3.17,0,0,1-1.49,2.3A1.92,1.92,0,0,0,32,52.61a1.84,1.84,0,0,0,.33,0,4,4,0,0,0,2.77-2.31,1.9,1.9,0,0,1-.4-.25,3,3,0,0,1-1.19-2.49Z"/><path class="cls-75" d="M45.47,34a1.75,1.75,0,0,1-.23.38,3.85,3.85,0,0,1-1.75,1.19,1.11,1.11,0,0,1,.61.63,1.09,1.09,0,0,1-.22,1.2l0,0,.22-.07c.71-.24,1.87-.63,2.06-1.48A2.08,2.08,0,0,0,45.47,34Z"/><path class="cls-76" d="M38,48.77a3.75,3.75,0,0,0,.26-4.19c-.54-.79-1.6-1.46-2.16-.53A12.32,12.32,0,0,1,34.23,47a2.31,2.31,0,0,0,1.47,2.78,1.47,1.47,0,0,0,.36,0A2.74,2.74,0,0,0,38,48.77Z"/><path class="cls-77" d="M22.43,47.94a2.22,2.22,0,0,1-.46-.85c-.11-.43.17-1.75-.3-1.94s-.72.68-.7,1.06a3.27,3.27,0,0,0,1.18,2.1A4,4,0,0,1,22.43,47.94Z"/><path class="cls-78" d="M25.93,49.51a2.12,2.12,0,0,0,1.51,2.84,3.91,3.91,0,0,0,.83.09,6.53,6.53,0,0,0,2.05-.39A2.11,2.11,0,0,1,30,50.34a3.86,3.86,0,0,1-1.81.48,2.46,2.46,0,0,1-1.49-.46,3.27,3.27,0,0,1-.77-.85Z"/><path class="cls-79" d="M29.35,45.38c-.13-.2-.27-.4-.41-.59a13.43,13.43,0,0,0-1.73,1.41,3.06,3.06,0,0,0-1,2.07c0,2.23,2.59,2.14,4,1.27a6.09,6.09,0,0,0,1.66-1.81A5.37,5.37,0,0,1,29.35,45.38Z"/></g><path class="cls-80" d="M38.24,37.72h0c-1,0-2.27-.53-2.41-1.61h0c.46.89,1.63,1.08,2.44,1.5.07,0,0,.12,0,.12Zm-.46-4.15a2.08,2.08,0,0,1-1,.3,1.51,1.51,0,0,1-.65-.15,1.39,1.39,0,0,1-1.09.53h-.2a2.12,2.12,0,0,1-.68,1.62,2.2,2.2,0,0,1-.3,3,1.58,1.58,0,0,1,1,.82,1.8,1.8,0,0,1,0,1.4,1.78,1.78,0,0,1,1.47,1.85,2.4,2.4,0,0,1,.81-.15,2.63,2.63,0,0,1,.49,0,2.38,2.38,0,0,1,2.12-2,1.56,1.56,0,0,1,.85.26v0h-.17a3.22,3.22,0,0,0-2.67,1.77,2.57,2.57,0,0,1,1.4,1,2.34,2.34,0,0,1,1.11-.4,6.62,6.62,0,0,1,.6-.51l.32-.17a2.19,2.19,0,0,1,.46-1.33,2.84,2.84,0,0,1-1.13-1.86A1.8,1.8,0,0,1,41,37.84a1.52,1.52,0,0,1-.34-.22,1.55,1.55,0,0,1-.57-2.07,2.43,2.43,0,0,1-1-.82.26.26,0,0,1,0-.18,1.7,1.7,0,0,1-1.3-1Z"/><path class="cls-81" d="M19.94,33.57a3.38,3.38,0,0,0,2.81-3c.15-.11.29-.23.43-.35a3.22,3.22,0,0,0,1.09-2.68,6,6,0,0,0,.69-.66,3.69,3.69,0,0,0,.59-3.6,4.12,4.12,0,0,0,0-4.73l.08-.07a2.93,2.93,0,0,0-.45-4.09l-.2-.12a3.17,3.17,0,0,0-.56-.25c0-1.3-1.12-2.07-2.48-2.37a3.23,3.23,0,0,0-1-1.32,2.53,2.53,0,0,0-2-.66,1.81,1.81,0,0,0-1.62.68,3.9,3.9,0,0,0-.69,1c-.09.18-1.81-.27-2.15-.28a3.22,3.22,0,0,0-2.23.72c-1-.78-2.64-1.72-3.88-1.59l0-.1A4.62,4.62,0,0,0,6.46,10a3.9,3.9,0,0,0-3.4,2.36C1.41,12.79.08,14,.37,15.9a5,5,0,0,0,.27,1,3.57,3.57,0,0,0-.56,3c.11.64.5,2.29,1.36,2.33a4.09,4.09,0,0,0,.15.81,4.31,4.31,0,0,0,.17.44,4.82,4.82,0,0,0,.85,3.08A4.87,4.87,0,0,0,3,29.12a4.32,4.32,0,0,0,2.17,2.44,4,4,0,0,0,1.36,2,3.81,3.81,0,0,0,1.15.65,2.26,2.26,0,0,0,2.17,2c1.22,1.88,4.95,1.8,6.35,0A3.45,3.45,0,0,0,19.94,33.57Zm-1.88-.49a3.69,3.69,0,0,0,.31-.63,3.21,3.21,0,0,0,.83-.16,2.67,2.67,0,0,0,1.17-.86,4,4,0,0,0,2.05-.61C21.7,32.56,19.9,33.19,18.06,33.08ZM6,27.17c-.68.21-1.51-.91-1.72-1.36a4.56,4.56,0,0,1,0-3.29,4,4,0,0,0,.88.13,3,3,0,0,0,.8,2,2.26,2.26,0,0,0,.57.46A2.23,2.23,0,0,0,6,27.17Zm8.28-7.47a4.08,4.08,0,0,0,.6-.77,1.8,1.8,0,0,1,.73.06,3.13,3.13,0,0,0,.82.49,3.25,3.25,0,0,1,.47.5,6.94,6.94,0,0,1,1.25,3c.28,1.51-1,2.29-2.27,2.5a3.36,3.36,0,0,1-2.08-.34,5.57,5.57,0,0,0,1-2.41A5.18,5.18,0,0,0,14.24,19.7ZM14,25.92a5,5,0,0,0,4-.79,6.2,6.2,0,0,1,.69,2.36A3.71,3.71,0,0,1,18,29.72a2.42,2.42,0,0,1-2.8.65,2.12,2.12,0,0,1-1.35-1.84A3.67,3.67,0,0,0,14,25.92Zm3.58,4.94a3.09,3.09,0,0,0,1.7-2.81,2.11,2.11,0,0,0,1.63.6,5.45,5.45,0,0,1-1.24,2.62,2.14,2.14,0,0,1-3.22-.19A3,3,0,0,0,17.58,30.86Zm1.7-3.34a3.17,3.17,0,0,0-1.2-2.46,1.58,1.58,0,0,0,.62-1,3,3,0,0,0,0-.52,3,3,0,0,0,2.75.28,1.89,1.89,0,0,0,.43-.2,3.93,3.93,0,0,1,.53,3.55C21.93,28.55,20.07,28.48,19.28,27.52Zm2.45-4.64a2.33,2.33,0,0,1-3.15-.2,7.83,7.83,0,0,0-1.45-3,2,2,0,0,0,1.43-.52,3.4,3.4,0,0,0,1-1.54,5,5,0,0,1,2.58,2.81A2.55,2.55,0,0,1,21.73,22.88Zm-8,2.93a5,5,0,0,1-.67,2.56,2.08,2.08,0,0,1-2.22.73c-1.84-.52-1.44-2.76-1-4.18a2.31,2.31,0,0,0,.83.9,2,2,0,0,0,2.73-.38A.73.73,0,0,0,13.78,25.81ZM14,23.36c-.36,1.21-1.25,2.3-2.69,2-2.09-.43-.92-4.25-.09-5.46a2.08,2.08,0,0,0,2.47.23l.06,0A5.88,5.88,0,0,1,14,23.36Zm-3.25-3.83a6.66,6.66,0,0,0-1,4.86c-1.31.58-2.51.87-3.61-.33-.79-.86-.43-2.2-.07-3.14a9.68,9.68,0,0,1,1.41-2.27,2.17,2.17,0,0,1,.27-.32,1.94,1.94,0,0,0,1-.09,3,3,0,0,0,1.25-.93l0,.4a3.46,3.46,0,0,0,.82,1.78ZM7.67,17.76C5,17.59,6.61,12,9.09,12.08a1.48,1.48,0,0,1,.8.21,2.44,2.44,0,0,1,.69,2.54,5.17,5.17,0,0,1-.44,1.36A2.63,2.63,0,0,1,7.67,17.76Zm-.53.35a11.32,11.32,0,0,0-1.58,2.65,4.74,4.74,0,0,0-.37,1.36A2.49,2.49,0,0,1,2.7,20c-.23-1.15.63-2.24,1.4-3a5,5,0,0,1,1.75-1A2.87,2.87,0,0,0,7.14,18.11Zm-.38,7.12a2.62,2.62,0,0,0,3.07-.5v0c-.55,1.25-.92,3-.2,4.08A1.78,1.78,0,0,1,7,28.27,3.21,3.21,0,0,1,6.76,25.23Zm3,3.84.17.18a3.45,3.45,0,0,0,.78,2.93,7.16,7.16,0,0,1-.93.12,2.62,2.62,0,0,1-1.72-.7A3.65,3.65,0,0,1,7,29,1.9,1.9,0,0,0,9.8,29.07ZM11,32.47a3.44,3.44,0,0,0,1.3.72,2.06,2.06,0,0,0,1,.05.94.94,0,0,0,.2.44,5.48,5.48,0,0,1-1.9.3,3.4,3.4,0,0,1-2.15-1.17A2.71,2.71,0,0,0,11,32.47Zm.93.06c-1.45-.48-1.56-1.88-1.82-3.13a2.53,2.53,0,0,0,.75.39A2.56,2.56,0,0,0,13.5,29l.09-.1A2.35,2.35,0,0,0,15,30.78C14.47,32.12,13.56,33.05,12,32.53Zm3.35-1.64a3.93,3.93,0,0,0,.84.18,1.85,1.85,0,0,0,2,1.39,4.57,4.57,0,0,1-2.2,1.17,2.32,2.32,0,0,1-2.21-.49C14.73,32.82,15.61,31.93,15.31,30.89ZM23.6,28.6a3.17,3.17,0,0,1-1,1.31,7.09,7.09,0,0,1-2,1.11,3.91,3.91,0,0,0,.56-2.39,2.29,2.29,0,0,0,1.14-.4l.22-.19a2.16,2.16,0,0,0,1.21-.16A4.74,4.74,0,0,1,23.6,28.6ZM25,26a3.14,3.14,0,0,1-2.12,1.68,3.49,3.49,0,0,0-.2-3.4,2.84,2.84,0,0,0,2.74-.78c0,.14.05.29.06.47A3.53,3.53,0,0,1,25,26Zm.52-3.56a2.35,2.35,0,0,1-3.18,1.33l-.24-.27a3,3,0,0,0,.64-3,4,4,0,0,0-.22-.69,4.19,4.19,0,0,0,2.87-1.07A5.08,5.08,0,0,1,25.48,22.45Zm-.6-4.14a4.58,4.58,0,0,1-2.56,1.14h0a5.44,5.44,0,0,0-2.57-2.38l0,0a7.07,7.07,0,0,0,.14-2,4,4,0,0,1,3.69-.69C25.31,14.78,26.38,16.82,24.88,18.31ZM24.13,14a6.06,6.06,0,0,0-2.53-.11,4.67,4.67,0,0,0-1.84.69c0-.19-.06-.37-.1-.53a3.31,3.31,0,0,0-1.13-1.8,7.73,7.73,0,0,1,2.57,0C23.5,12.58,23.56,13,24.13,14Zm-5.19-3.91a5.72,5.72,0,0,0,.59.17,3.24,3.24,0,0,1,1,.5,2.92,2.92,0,0,1,.79.85,5.51,5.51,0,0,0-3.06.44,2.2,2.2,0,0,0-1-.33h0A3.14,3.14,0,0,1,18.94,10.05ZM17,12.45c1.19-.07,2,1.2,2.16,2.31a6.17,6.17,0,0,1,.08,1.62,3,3,0,0,1-2,2.65c-.83.26-1.53-.27-2-1.12a7.25,7.25,0,0,0,.39-2.6,2.7,2.7,0,0,0-.48-1.5A2.24,2.24,0,0,1,17,12.45Zm-.58-.23a1.93,1.93,0,0,0-1.62,1,3,3,0,0,0-2-.71A3.13,3.13,0,0,1,16.45,12.22Zm-3,1.08c1.18.15,1.7,1.53,1.7,2.67a6.12,6.12,0,0,1-.22,1.6,3,3,0,0,1-2.42,2.25c-1.42.16-2.09-1.63-1.94-3.39a6.39,6.39,0,0,0,.7-2.08v0A2.2,2.2,0,0,1,13.4,13.3Zm-2.86-1.79a11.86,11.86,0,0,1,1.56,1.32,3.36,3.36,0,0,0-.89.7,3,3,0,0,0-.07-.32l-.11,0c-.06,0-.34-.69-.44-.8a2.75,2.75,0,0,0-.77-.54,2.85,2.85,0,0,1-1.17-1.09A8.83,8.83,0,0,1,10.54,11.51Zm-6.74.17a4.34,4.34,0,0,1,.64-.49,3.74,3.74,0,0,1,1.42-.52,3.06,3.06,0,0,1,2.58.69c.12.09.23.19.34.29-.43-.41-1.63.8-1.84,1.06a5.05,5.05,0,0,0-3.67-.44C3.41,12.24,3.69,11.78,3.8,11.68ZM2.07,13.24c.85-.72,3.12-.8,4.61-.19a5.19,5.19,0,0,0-.85,2.45,6.28,6.28,0,0,0-2.36,1.37,4.08,4.08,0,0,0-.88,1.21C.36,17.33.47,14.6,2.07,13.24Zm-.63,8.47C.28,20.85.26,18.47.74,17.14a2,2,0,0,0,1.7,1.33,3.68,3.68,0,0,0-.2,1.08A4.68,4.68,0,0,0,1.44,21.71Zm.83-1.61A2.78,2.78,0,0,0,4,22.41a2.74,2.74,0,0,0-.58,2,2.5,2.5,0,0,1-.85-.73C1.56,22.52,1.89,21.34,2.27,20.1ZM2.06,24A2,2,0,0,0,3.5,25.12,4.23,4.23,0,0,0,4,26.55a1,1,0,0,0,.14.17,4.45,4.45,0,0,0,0,.73,6.06,6.06,0,0,1-1.3-1.37A6.48,6.48,0,0,1,2.06,24Zm3,7.08a6.08,6.08,0,0,1-1.59-2.17,13,13,0,0,1-.6-2.09,4.67,4.67,0,0,0,1.38,1.08,4.57,4.57,0,0,0,.36,1.16,2.83,2.83,0,0,0,.48.72A4.4,4.4,0,0,0,5,31.11Zm.13-2a3.71,3.71,0,0,1-.75-2.15c.49.38,1.3.81,1.62.56a3.43,3.43,0,0,0,.86,1.4,4.21,4.21,0,0,0,0,1.37A3.82,3.82,0,0,1,5.17,29.07Zm1.92,4.19a4.06,4.06,0,0,1-1.71-3.14,3.43,3.43,0,0,0,1.69.79,3.25,3.25,0,0,0,.63,1,2.73,2.73,0,0,0,1.15.75,2.24,2.24,0,0,0,.7,1.09A4.35,4.35,0,0,1,7.09,33.26Zm2.85,2.53a2,2,0,0,1-2-1.48,3.34,3.34,0,0,0,.43.1,2.79,2.79,0,0,0,1.75-.24,4.18,4.18,0,0,0,2.15.49A3,3,0,0,1,9.94,35.79ZM13,37.19a3.76,3.76,0,0,1-2.76-.93,2.87,2.87,0,0,0,2.5-1.66,3.06,3.06,0,0,0,.88-.31,2.88,2.88,0,0,0,2.11,1.89A4.76,4.76,0,0,1,13,37.19Zm4.29-1.69A2.69,2.69,0,0,1,14,34.05h0a3.29,3.29,0,0,0,1.56.29,3.32,3.32,0,0,0,2.11-.79,4.23,4.23,0,0,0,2,.08A3.57,3.57,0,0,1,17.31,35.5Z"/><path class="cls-82" d="M13.08,13.28a2.19,2.19,0,0,0-1.86,1v0a6.39,6.39,0,0,1-.7,2.08c-.15,1.68.47,3.4,1.76,3.4h.18a3,3,0,0,0,2.42-2.25A6.12,6.12,0,0,0,15.1,16c0-1.14-.52-2.52-1.7-2.67l-.32,0Z"/><path class="cls-83" d="M17.12,12.45H17a2.24,2.24,0,0,0-1.81,1.36,2.7,2.7,0,0,1,.48,1.5,7.25,7.25,0,0,1-.39,2.6,1.88,1.88,0,0,0,1.56,1.18,1.52,1.52,0,0,0,.42-.06,3,3,0,0,0,2-2.65,6.17,6.17,0,0,0-.08-1.62c-.2-1.08-.93-2.31-2.07-2.31Z"/><path class="cls-84" d="M18.94,10.05a3.14,3.14,0,0,0-1.69,1.63h0a2.2,2.2,0,0,1,1,.33,5,5,0,0,1,2.29-.48,6.74,6.74,0,0,1,.77,0,2.92,2.92,0,0,0-.79-.85,3.24,3.24,0,0,0-1-.5,5.72,5.72,0,0,1-.59-.17Z"/><path class="cls-85" d="M8.65,10.74a2.85,2.85,0,0,0,1.17,1.09,2.75,2.75,0,0,1,.77.54c.1.11.38.78.44.8l.11,0a3,3,0,0,1,.07.32,3.36,3.36,0,0,1,.89-.7,11.86,11.86,0,0,0-1.56-1.32,8.83,8.83,0,0,0-1.89-.77Z"/><path class="cls-86" d="M14.65,11.77a2.65,2.65,0,0,0-1.86.75h.09a3,3,0,0,1,1.95.71,1.93,1.93,0,0,1,1.62-1,4.51,4.51,0,0,0-1.8-.45Z"/><path class="cls-87" d="M23.78,27.88a2,2,0,0,1-.86.18l-.35,0-.22.19a2.29,2.29,0,0,1-1.14.4A3.91,3.91,0,0,1,20.65,31a7.09,7.09,0,0,0,2-1.11,3.17,3.17,0,0,0,1-1.31,4.74,4.74,0,0,0,.18-.72Z"/><path class="cls-88" d="M25.38,23.51a3.17,3.17,0,0,1-2.08.9,1.8,1.8,0,0,1-.66-.12,3.49,3.49,0,0,1,.2,3.4A3.14,3.14,0,0,0,25,26a3.53,3.53,0,0,0,.48-2c0-.18,0-.33-.06-.47Z"/><path class="cls-89" d="M22.23,14.17a3.63,3.63,0,0,0-2.42.85,7.07,7.07,0,0,1-.14,2l0,0a5.44,5.44,0,0,1,2.57,2.38h0a4.58,4.58,0,0,0,2.56-1.14c1.5-1.49.43-3.53-1.38-4a5.81,5.81,0,0,0-1.27-.16Z"/><path class="cls-90" d="M25.35,18.79a4.56,4.56,0,0,1-2.57,1.09,1.51,1.51,0,0,1-.3,0,4,4,0,0,1,.22.69,3,3,0,0,1-.64,3l.24.27a1.73,1.73,0,0,0,.91.25,2.53,2.53,0,0,0,2.27-1.58,5.08,5.08,0,0,0-.13-3.66Z"/><path class="cls-91" d="M19.78,12.11a9.45,9.45,0,0,0-1.25.1A3.31,3.31,0,0,1,19.66,14c0,.16.07.34.1.53a4.67,4.67,0,0,1,1.84-.69,5.34,5.34,0,0,1,1-.09,5.62,5.62,0,0,1,1.52.2c-.57-1-.63-1.38-3-1.74a9.15,9.15,0,0,0-1.32-.11Z"/><path class="cls-92" d="M.74,17.14c-.48,1.33-.46,3.71.7,4.57a4.68,4.68,0,0,1,.8-2.16,3.68,3.68,0,0,1,.2-1.08,2,2,0,0,1-1.7-1.33Z"/><path class="cls-93" d="M5.38,30.12a4.06,4.06,0,0,0,1.71,3.14,4.35,4.35,0,0,0,2.46.52,2.24,2.24,0,0,1-.7-1.09,2.73,2.73,0,0,1-1.15-.75,3.25,3.25,0,0,1-.63-1,3.43,3.43,0,0,1-1.69-.79Z"/><path class="cls-94" d="M6.47,10.63a4.35,4.35,0,0,0-.61,0,3.74,3.74,0,0,0-1.42.52,4.34,4.34,0,0,0-.64.49c-.11.1-.39.56-.53.59a5.79,5.79,0,0,1,1.31-.15,4.6,4.6,0,0,1,2.36.59c.18-.22,1.08-1.14,1.61-1.14a.31.31,0,0,1,.23.08c-.11-.1-.22-.2-.34-.29a2.93,2.93,0,0,0-2-.73Z"/><path class="cls-95" d="M15.31,30.89c.3,1-.58,1.93-1.6,2.25a2.24,2.24,0,0,0,1.49.58,3.22,3.22,0,0,0,.72-.09,4.57,4.57,0,0,0,2.2-1.17,1.85,1.85,0,0,1-2-1.39,3.93,3.93,0,0,1-.84-.18Z"/><path class="cls-96" d="M4.42,26.92a3.71,3.71,0,0,0,.75,2.15,3.82,3.82,0,0,0,1.71,1.18,4.21,4.21,0,0,1,0-1.37A3.43,3.43,0,0,1,6,27.48a.39.39,0,0,1-.25.08,2.84,2.84,0,0,1-1.37-.64Z"/><path class="cls-97" d="M10.09,34.17a2.74,2.74,0,0,1-1.19.28,3.78,3.78,0,0,1-.56,0,3.34,3.34,0,0,1-.43-.1,2,2,0,0,0,2,1.49h0a3,3,0,0,0,2.3-1.13h-.19a4.13,4.13,0,0,1-2-.49Z"/><path class="cls-98" d="M2.85,26.85a13,13,0,0,0,.6,2.09A6.08,6.08,0,0,0,5,31.11a4.4,4.4,0,0,1,0-1.3,2.83,2.83,0,0,1-.48-.72,4.57,4.57,0,0,1-.36-1.16,4.67,4.67,0,0,1-1.38-1.08Z"/><path class="cls-99" d="M2.27,20.1c-.38,1.24-.71,2.42.29,3.62a2.5,2.5,0,0,0,.85.73,2.74,2.74,0,0,1,.58-2A2.78,2.78,0,0,1,2.27,20.1Z"/><path class="cls-100" d="M4.39,12.64a3.8,3.8,0,0,0-2.32.6c-1.6,1.36-1.71,4.09.52,4.84a4.08,4.08,0,0,1,.88-1.21A6.28,6.28,0,0,1,5.83,15.5a5.19,5.19,0,0,1,.85-2.45,6.34,6.34,0,0,0-2.29-.41Z"/><path class="cls-101" d="M2.06,24a6.48,6.48,0,0,0,.82,2,6.06,6.06,0,0,0,1.3,1.37,4.45,4.45,0,0,1,0-.73A1,1,0,0,1,4,26.55a4.23,4.23,0,0,1-.54-1.43A2,2,0,0,1,2.06,24Z"/><path class="cls-102" d="M22.42,30.82a4,4,0,0,1-2.05.61h0a2.67,2.67,0,0,1-1.17.86,3.21,3.21,0,0,1-.83.16,3.69,3.69,0,0,1-.31.63h.42a4,4,0,0,0,3.94-2.27Z"/><path class="cls-103" d="M13.59,28.9l-.09.1a2.81,2.81,0,0,1-2,.9,1.81,1.81,0,0,1-.65-.11,2.53,2.53,0,0,1-.75-.39c.26,1.25.37,2.65,1.82,3.13a2.77,2.77,0,0,0,.85.15c1.09,0,1.77-.82,2.23-1.9a2.35,2.35,0,0,1-1.45-1.88Z"/><path class="cls-104" d="M15,18.91l-.2,0a4.08,4.08,0,0,1-.6.77,5.18,5.18,0,0,1,.52,3,5.57,5.57,0,0,1-1,2.41,3.72,3.72,0,0,0,1.54.38,3.44,3.44,0,0,0,.54,0c1.26-.21,2.55-1,2.27-2.5a6.94,6.94,0,0,0-1.25-3,3.25,3.25,0,0,0-.47-.5,3.13,3.13,0,0,1-.82-.49,1.89,1.89,0,0,0-.53-.08Z"/><path class="cls-105" d="M19.28,28.05a3.09,3.09,0,0,1-1.7,2.81,3,3,0,0,1-1.13.22,2.48,2.48,0,0,0,1.77.84,2,2,0,0,0,1.45-.65,5.45,5.45,0,0,0,1.24-2.62h0a2.13,2.13,0,0,1-1.6-.6Z"/><path class="cls-106" d="M13.64,34.29a3.06,3.06,0,0,1-.88.31,2.87,2.87,0,0,1-2.5,1.66,4,4,0,0,0,2.4,1,2.23,2.23,0,0,0,.36,0,4.76,4.76,0,0,0,2.73-1,2.88,2.88,0,0,1-2.11-1.89Z"/><path class="cls-107" d="M18.71,23.56a3,3,0,0,1,0,.52,1.58,1.58,0,0,1-.62,1,3.17,3.17,0,0,1,1.2,2.46,2.09,2.09,0,0,0,1.58.71,1.58,1.58,0,0,0,1.56-1,3.93,3.93,0,0,0-.53-3.55,1.89,1.89,0,0,1-.43.2,3.91,3.91,0,0,1-1.23.2,2.25,2.25,0,0,1-1.52-.48Z"/><path class="cls-108" d="M4.29,22.52a4.56,4.56,0,0,0,0,3.29c.2.41.91,1.39,1.55,1.39a.47.47,0,0,0,.17,0,2.23,2.23,0,0,1,.58-2.06A2.26,2.26,0,0,1,6,24.65a3,3,0,0,1-.8-2,4,4,0,0,1-.88-.13Z"/><path class="cls-109" d="M7,29A3.65,3.65,0,0,0,8.1,31.6a2.62,2.62,0,0,0,1.72.7h0a7,7,0,0,0,.93-.12A3.45,3.45,0,0,1,10,29.25l-.17-.18a1.78,1.78,0,0,1-1.28.57A2.3,2.3,0,0,1,7,29Z"/><path class="cls-110" d="M9.83,24.73A2.41,2.41,0,0,1,8,25.51a2.77,2.77,0,0,1-1.23-.28,3.21,3.21,0,0,0,.25,3,1.66,1.66,0,0,0,1.44.91,2.71,2.71,0,0,0,1.19-.33c-.72-1.12-.35-2.83.2-4.08v0Z"/><path class="cls-111" d="M5.85,16A5,5,0,0,0,4.1,17c-.77.73-1.63,1.82-1.4,3a2.49,2.49,0,0,0,2.49,2.14,4.74,4.74,0,0,1,.37-1.36,11.32,11.32,0,0,1,1.58-2.65A2.87,2.87,0,0,1,5.85,16Z"/><path class="cls-112" d="M11,32.47a2.79,2.79,0,0,1-1.34.35H9.44A3.4,3.4,0,0,0,11.59,34h.24a6.16,6.16,0,0,0,1.66-.3.94.94,0,0,1-.2-.44,2.69,2.69,0,0,1-.4,0,1.73,1.73,0,0,1-.56-.08,3.44,3.44,0,0,1-1.3-.72Z"/><path class="cls-113" d="M11.21,19.9c-.83,1.21-2,5,.09,5.46a2.69,2.69,0,0,0,.47.05A2.5,2.5,0,0,0,14,23.36a5.88,5.88,0,0,0-.25-3.27l-.06,0a2.08,2.08,0,0,1-1.06.31,2.27,2.27,0,0,1-1.41-.54Z"/><path class="cls-114" d="M9.91,24.92c-.46,1.42-.86,3.66,1,4.18a1.87,1.87,0,0,0,.57.08,2.13,2.13,0,0,0,1.65-.81,5,5,0,0,0,.67-2.56.73.73,0,0,1-.31-.37,2.15,2.15,0,0,1-1.55.75,2.22,2.22,0,0,1-1.18-.37,2.31,2.31,0,0,1-.83-.9Z"/><path class="cls-115" d="M19.52,17.58a3.4,3.4,0,0,1-1,1.54,2,2,0,0,1-1.35.52h-.08a7.83,7.83,0,0,1,1.45,3,2.48,2.48,0,0,0,1.78.72,1.86,1.86,0,0,0,1.37-.52,2.55,2.55,0,0,0,.37-2.49,5,5,0,0,0-2.58-2.81Z"/><path class="cls-116" d="M9.93,17.31a3,3,0,0,1-1.25.93,1.89,1.89,0,0,1-.65.11l-.32,0a2.17,2.17,0,0,0-.27.32A9.68,9.68,0,0,0,6,20.92c-.36.94-.72,2.28.07,3.14a2.28,2.28,0,0,0,1.75.83,4.71,4.71,0,0,0,1.86-.5,6.66,6.66,0,0,1,1-4.86l0,0A3.46,3.46,0,0,1,10,17.71l0-.4Z"/><path class="cls-117" d="M9.05,12.08c-2.46,0-4.05,5.51-1.38,5.68h.15a2.68,2.68,0,0,0,2.32-1.58,5.17,5.17,0,0,0,.44-1.36,2.44,2.44,0,0,0-.69-2.54,1.48,1.48,0,0,0-.8-.21Z"/><path class="cls-118" d="M18,25.13a5.45,5.45,0,0,1-3,.94,2.55,2.55,0,0,1-1-.15,3.67,3.67,0,0,1-.16,2.61,2.12,2.12,0,0,0,1.35,1.84,3.28,3.28,0,0,0,1,.18A2.1,2.1,0,0,0,18,29.72a3.71,3.71,0,0,0,.69-2.23A6.2,6.2,0,0,0,18,25.13Z"/><path class="cls-119" d="M17.65,33.55a3.32,3.32,0,0,1-2.11.79h-.17a3.29,3.29,0,0,1-1.39-.3h0a2.66,2.66,0,0,0,2.42,1.58,3.4,3.4,0,0,0,.92-.13,3.57,3.57,0,0,0,2.35-1.87,5.12,5.12,0,0,1-.87.08,3.83,3.83,0,0,1-1.14-.16Z"/><path class="cls-120" d="M13.4,13.3h-.23c-1,.25-1.26,2.38-1.42,3.18-.23,1.09-.46,2.46.22,3.32a1.55,1.55,0,0,0,.31,0h.18a3,3,0,0,0,2.42-2.25A6.12,6.12,0,0,0,15.1,16C15.1,14.83,14.58,13.45,13.4,13.3Z"/><path class="cls-121" d="M19.19,14.76c-.2-1.08-.93-2.31-2.07-2.31H17a2.24,2.24,0,0,0-1.81,1.36,2.7,2.7,0,0,1,.48,1.5v0h0c.1,1,.17,2.39,1.23,2.85a2.81,2.81,0,0,0,1.49.09,3.3,3.3,0,0,0,.83-1.92A6.17,6.17,0,0,0,19.19,14.76Z"/><path class="cls-122" d="M20.51,10.72a4.38,4.38,0,0,0-.7-.4,3.49,3.49,0,0,0-.48.23,7.29,7.29,0,0,0-1.52,1.25,3.42,3.42,0,0,1,.43.21,5,5,0,0,1,2.29-.48,6.74,6.74,0,0,1,.77,0A2.92,2.92,0,0,0,20.51,10.72Z"/><path class="cls-123" d="M15,11.79l0,0c-.06.06-.6.65-.83.95a1.92,1.92,0,0,1,.72.45,1.93,1.93,0,0,1,1.62-1A5.16,5.16,0,0,0,15,11.79Z"/><path class="cls-124" d="M23.78,27.88a2,2,0,0,1-.86.18l-.35,0-.22.19a2.29,2.29,0,0,1-1.14.4A3.91,3.91,0,0,1,20.65,31a7.09,7.09,0,0,0,2-1.11,3.17,3.17,0,0,0,1-1.31,4.74,4.74,0,0,0,.18-.72Z"/><path class="cls-125" d="M25.38,23.51a3.17,3.17,0,0,1-2.08.9,1.8,1.8,0,0,1-.66-.12,3.49,3.49,0,0,1,.2,3.4A3.14,3.14,0,0,0,25,26a3.53,3.53,0,0,0,.48-2c0-.18,0-.33-.06-.47Z"/><path class="cls-126" d="M22.23,14.17a3.63,3.63,0,0,0-2.42.85,7.07,7.07,0,0,1-.14,2l0,0a5.44,5.44,0,0,1,2.57,2.38h0a4.58,4.58,0,0,0,2.56-1.14c1.5-1.49.43-3.53-1.38-4a5.81,5.81,0,0,0-1.27-.16Z"/><path class="cls-127" d="M25.35,18.79a4.56,4.56,0,0,1-2.57,1.09,1.51,1.51,0,0,1-.3,0,4,4,0,0,1,.22.69,3,3,0,0,1-.64,3l.24.27a1.73,1.73,0,0,0,.91.25,2.53,2.53,0,0,0,2.27-1.58,5.08,5.08,0,0,0-.13-3.66Z"/><path class="cls-128" d="M21.29,12.25a6.24,6.24,0,0,0-1.83,1.18,2.34,2.34,0,0,1,.2.58c0,.16.07.34.1.53a4.67,4.67,0,0,1,1.84-.69,5.34,5.34,0,0,1,1-.09,5.62,5.62,0,0,1,1.52.2C23.58,13,23.5,12.61,21.29,12.25Z"/><path class="cls-129" d="M1.69,18.26a6.36,6.36,0,0,0-.23,3.24,4.91,4.91,0,0,1,.78-1.95,3.68,3.68,0,0,1,.2-1.08A1.68,1.68,0,0,1,1.69,18.26Z"/><path class="cls-130" d="M7.71,32.91a3.62,3.62,0,0,0,1,.85c.28,0,.56,0,.86,0a2.24,2.24,0,0,1-.7-1.09,2.73,2.73,0,0,1-1.15-.75,3.22,3.22,0,0,1-.58-.9A3.82,3.82,0,0,0,7.71,32.91Z"/><path class="cls-131" d="M15.31,30.89c.3,1-.58,1.93-1.6,2.25a2.24,2.24,0,0,0,1.49.58,3.22,3.22,0,0,0,.72-.09,4.57,4.57,0,0,0,2.2-1.17,1.85,1.85,0,0,1-2-1.39,3.93,3.93,0,0,1-.84-.18Z"/><path class="cls-132" d="M5.85,29.05a4,4,0,0,0,.81,1.11l.22.09a4.21,4.21,0,0,1,0-1.37A3.43,3.43,0,0,1,6,27.48a.39.39,0,0,1-.25.08.89.89,0,0,1-.3-.06A6.85,6.85,0,0,0,5.85,29.05Z"/><path class="cls-133" d="M12.05,34.66a4.13,4.13,0,0,1-2-.49,2.86,2.86,0,0,1-.82.25,1.26,1.26,0,0,0,.92,1,5.45,5.45,0,0,0,1,.11,3.62,3.62,0,0,0,1.07-.85Z"/><path class="cls-134" d="M5.07,29.81a2.83,2.83,0,0,1-.48-.72,4.57,4.57,0,0,1-.36-1.16l0,0a4.58,4.58,0,0,0,.16,2.48,7.77,7.77,0,0,0,.69.72A4.4,4.4,0,0,1,5.07,29.81Z"/><path class="cls-135" d="M4,22.41A2.74,2.74,0,0,1,2.9,21.6a2.91,2.91,0,0,0,.37,2.77l.14.08A2.74,2.74,0,0,1,4,22.41Z"/><path class="cls-136" d="M5.82,12.79H5.56l-.32,0c-1,.36-2,.56-2.52,1.6a2.33,2.33,0,0,0,0,2.63h0s0,0,0,.05l.16.18a.08.08,0,0,1,0,.09l0,0a3.8,3.8,0,0,1,.46-.52A6.28,6.28,0,0,1,5.83,15.5a5.19,5.19,0,0,1,.85-2.45A5.4,5.4,0,0,0,5.82,12.79Z"/><path class="cls-137" d="M3.63,26.35a9,9,0,0,0,.54,1c0-.21,0-.43,0-.65A1,1,0,0,1,4,26.55a4.23,4.23,0,0,1-.54-1.43l-.21,0A8.1,8.1,0,0,0,3.63,26.35Z"/><path class="cls-138" d="M22.42,30.82a4,4,0,0,1-2.05.61h0a2.67,2.67,0,0,1-1.17.86,3.21,3.21,0,0,1-.83.16,3.69,3.69,0,0,1-.31.63h.42a4,4,0,0,0,3.94-2.27Z"/><path class="cls-61" d="M23.15,28.05a5.81,5.81,0,0,1-2.32,2.64q-.09.18-.18.33a7.09,7.09,0,0,0,2-1.11,3.17,3.17,0,0,0,1-1.31,4.74,4.74,0,0,0,.18-.72A1.83,1.83,0,0,1,23.15,28.05Z"/><path class="cls-61" d="M25.44,24c0-.18,0-.33-.06-.47a3,3,0,0,1-.69.5c.8.75-.52,2.33-1.63,3.22a2.43,2.43,0,0,1-.22.46A3.14,3.14,0,0,0,25,26,3.53,3.53,0,0,0,25.44,24Z"/><path class="cls-61" d="M23.5,14.33a5.47,5.47,0,0,0-1.1-.15,3,3,0,0,1,2.46,2.07,3.37,3.37,0,0,1-.38,2.39,3,3,0,0,0,.4-.33C26.38,16.82,25.31,14.78,23.5,14.33Z"/><path class="cls-61" d="M25.35,18.79a5.1,5.1,0,0,1-.94.62,2.19,2.19,0,0,1,.85,1.92,4.46,4.46,0,0,1-1,2.46,2.5,2.5,0,0,0,1.26-1.34A5.08,5.08,0,0,0,25.35,18.79Z"/><path class="cls-139" d="M13.89,32l0,0a3.5,3.5,0,0,0,.55-.17,5.1,5.1,0,0,0,.55-1,2.35,2.35,0,0,1-1.45-1.88l-.09.1a3,3,0,0,1-1.45.84,4.21,4.21,0,0,0,.36,1.72C12.8,32.18,13.3,32.1,13.89,32Z"/><path class="cls-140" d="M18.11,22.94a6.94,6.94,0,0,0-1.25-3,3.25,3.25,0,0,0-.47-.5,3.13,3.13,0,0,1-.82-.49,1.89,1.89,0,0,0-.53-.08l-.2,0a3.85,3.85,0,0,1-.38.52l0,.05s0,0,0,0l0,.05a3.18,3.18,0,0,1,.31.48,1.6,1.6,0,0,1,.19.47s0,.12,0,.21a1.82,1.82,0,0,1,.11.38,14.58,14.58,0,0,0,.35,1.77,1.89,1.89,0,0,0,2.37,1.32A1.8,1.8,0,0,0,18.11,22.94Z"/><path class="cls-141" d="M19.28,28.05a3.09,3.09,0,0,1-1.7,2.81,3,3,0,0,1-1.13.22,2.48,2.48,0,0,0,1.77.84,2,2,0,0,0,1.45-.65,5.45,5.45,0,0,0,1.24-2.62h0a2.13,2.13,0,0,1-1.6-.6Z"/><path class="cls-142" d="M14,37a4.53,4.53,0,0,0,1.72-.85,2.88,2.88,0,0,1-2.11-1.89,3.06,3.06,0,0,1-.88.31,2.86,2.86,0,0,1-1.14,1.26A2.83,2.83,0,0,0,14,37Z"/><path class="cls-143" d="M18.71,23.56a3,3,0,0,1,0,.52,1.58,1.58,0,0,1-.62,1,3.17,3.17,0,0,1,1.2,2.46,2.09,2.09,0,0,0,1.58.71,1.58,1.58,0,0,0,1.56-1,3.93,3.93,0,0,0-.53-3.55,1.89,1.89,0,0,1-.43.2,3.91,3.91,0,0,1-1.23.2,2.25,2.25,0,0,1-1.52-.48Z"/><path class="cls-144" d="M6.54,25.11A2.26,2.26,0,0,1,6,24.65a3.28,3.28,0,0,1-.54-.83,2.34,2.34,0,0,0-.55,1.68,3.82,3.82,0,0,0,.78,1.62s0,.05,0,.06l.14,0a.47.47,0,0,0,.17,0A2.23,2.23,0,0,1,6.54,25.11Z"/><path class="cls-145" d="M9.91,32.29a7.71,7.71,0,0,0,.84-.11A3.45,3.45,0,0,1,10,29.25l-.17-.18a1.8,1.8,0,0,1-1.25.57A4,4,0,0,0,9.91,32.29Z"/><path class="cls-146" d="M7.52,27.66a2.26,2.26,0,0,0,1.16,1.1,2.58,2.58,0,0,0,.62.17h.16l.18-.08c-.72-1.12-.35-2.83.2-4.08v0A2.41,2.41,0,0,1,8,25.51H7.72l0,.08A3.17,3.17,0,0,0,7.52,27.66Z"/><path class="cls-147" d="M6.16,17C5,18.43,3.41,20.51,5,22.1l.21,0a4.74,4.74,0,0,1,.37-1.36,11.32,11.32,0,0,1,1.58-2.65A2.5,2.5,0,0,1,6.16,17Z"/><path class="cls-148" d="M11.52,33.62a3.73,3.73,0,0,0,.65.35,8.15,8.15,0,0,0,1.32-.29.94.94,0,0,1-.2-.44,2.69,2.69,0,0,1-.4,0,1.73,1.73,0,0,1-.56-.08,3.44,3.44,0,0,1-1.3-.72l-.18.09A1.69,1.69,0,0,0,11.52,33.62Z"/><path class="cls-149" d="M13.74,20.09l-.06,0a2,2,0,0,1-.84.29s0,.09-.05.08l-.23-.07a1.77,1.77,0,0,1-.46-.07l-.06.09,0,0,.11-.07h0a5.8,5.8,0,0,0-.34,2.52A3.54,3.54,0,0,0,12,24.45a1.31,1.31,0,0,0,.74.71A3,3,0,0,0,14,23.36,5.88,5.88,0,0,0,13.74,20.09Z"/><path class="cls-150" d="M13.47,25.44s0,0,0,0h0a2.12,2.12,0,0,1-1.51.71,2,2,0,0,1-.62-.1,2.69,2.69,0,0,0,.24,3.09,2.17,2.17,0,0,0,1.57-.81,5,5,0,0,0,.67-2.56A.74.74,0,0,1,13.47,25.44Z"/><path class="cls-151" d="M19.39,22.52a2.76,2.76,0,0,0,2.11.55,2.11,2.11,0,0,0,.23-.19,2.55,2.55,0,0,0,.37-2.49,5,5,0,0,0-2.58-2.81,3.4,3.4,0,0,1-1,1.54,2,2,0,0,1-.81.44A6.16,6.16,0,0,0,19.39,22.52Z"/><path class="cls-152" d="M10,17.71l0-.4a3,3,0,0,1-1.21.91A9.21,9.21,0,0,0,7,22.33a1.92,1.92,0,0,0,2.09,2.3l.58-.24a6.66,6.66,0,0,1,1-4.86l0,0A3.46,3.46,0,0,1,10,17.71Z"/><path class="cls-153" d="M9.89,12.29a1.53,1.53,0,0,0-.72-.21c-1,.56-1.39,1.83-1.78,2.85-.27.7-.77,1.88.41,2.2a4.37,4.37,0,0,0,1.31.24,3,3,0,0,0,1-1.18,5.17,5.17,0,0,0,.44-1.36A2.44,2.44,0,0,0,9.89,12.29Z"/><path class="cls-154" d="M18,25.13a5.45,5.45,0,0,1-3,.94,3.59,3.59,0,0,1-.47,0A6.31,6.31,0,0,0,14.66,29a2.76,2.76,0,0,0,1.52,1.57h0A2.1,2.1,0,0,0,18,29.72a3.71,3.71,0,0,0,.69-2.23A6.2,6.2,0,0,0,18,25.13Z"/><path class="cls-155" d="M17.65,33.55a3.32,3.32,0,0,1-2.11.79h-.17a3.29,3.29,0,0,1-1.39-.3h0a2.66,2.66,0,0,0,2.42,1.58,3.4,3.4,0,0,0,.92-.13,3.57,3.57,0,0,0,2.35-1.87,5.12,5.12,0,0,1-.87.08,3.83,3.83,0,0,1-1.14-.16Z"/><path class="cls-156" d="M16.5,12.22a4.92,4.92,0,0,0,2.62-2.94c-.3.17-.61.31-.94.46a10.57,10.57,0,0,0-2.66,1.94,14.93,14.93,0,0,1-1.19,1.06A7.32,7.32,0,0,0,16.5,12.22Z"/><path class="cls-157" d="M15.92,1.65c.93-.92.9-1.54-.32-.53a8.29,8.29,0,0,0-2.75,3.63,10.75,10.75,0,0,0-.44,1.78A14.45,14.45,0,0,1,15.92,1.65Z"/><path class="cls-158" d="M12.57,12.8c.26.31.78,0,1-.26a8.71,8.71,0,0,0,1.19-2.23,4.69,4.69,0,0,0,.41-1c.06-.21.15-1.24.31-1.34-1.1.7-2.41,1.61-2.82,2.81a3.17,3.17,0,0,0-.23,1.91A.38.38,0,0,0,12.57,12.8Z"/><path class="cls-159" d="M11.41,13a1.71,1.71,0,0,0,.58.09,1.93,1.93,0,0,1-.22-.43,6.27,6.27,0,0,0-.95-1.81A14.14,14.14,0,0,0,8,8.24a10,10,0,0,0,1.85,3.52A4.08,4.08,0,0,0,11.41,13Z"/><path class="cls-160" d="M9.91,13.11c.79.76,2.41,1.32,3.1.23a5.38,5.38,0,0,0,4.84-1.26,5.63,5.63,0,0,0,1.57-2c.15-.33.7-2.27.81-2.34a24.37,24.37,0,0,1-2.6,1.51,9.52,9.52,0,0,0-1.91,1.28c-.2.16-.4.33-.59.51.5-.46.58-1.71.66-2.34.09-.78.35-1.54.38-2.33-1.1,1.85-3.66,2.35-4.08,4.71,0,0,0,0,0,0,0,.18,0,.35-.05.53a.05.05,0,0,1-.1,0,6.26,6.26,0,0,1-.2-.88c-.2-.2-.42-.45-.56-.62C10.11,9,8.6,8.45,7.45,7.42c.14.13.66,2.37.84,2.89A6.75,6.75,0,0,0,9.91,13.11Zm5.61-1.43a10.57,10.57,0,0,1,2.66-1.94c.33-.15.64-.29.94-.46a4.92,4.92,0,0,1-2.62,2.94,7.32,7.32,0,0,1-2.17.52A14.93,14.93,0,0,0,15.52,11.68Zm-2.81-.94c.41-1.2,1.72-2.11,2.82-2.81-.16.1-.25,1.13-.31,1.34a4.69,4.69,0,0,1-.41,1,8.71,8.71,0,0,1-1.19,2.23c-.27.27-.79.57-1,.26a.38.38,0,0,1-.09-.15A3.17,3.17,0,0,1,12.71,10.74Zm-1.89.15a6.27,6.27,0,0,1,.95,1.81,1.93,1.93,0,0,0,.22.43,1.71,1.71,0,0,1-.58-.09,4.08,4.08,0,0,1-1.55-1.28A10,10,0,0,1,8,8.24,14.14,14.14,0,0,1,10.82,10.89Z"/><path class="cls-161" d="M17.35,10.53c-.21.1-2,1-2.05.4l-.17.15c.5-.46.58-1.71.66-2.34s.35-1.53.38-2.31a7.09,7.09,0,0,1-1.43,2.73c-.84.95-1.9,1.68-2.67,2.69-.12.15-.35,0-.23-.21l0-.05c-.07-.26-.13-.54-.18-.83s-.42-.45-.56-.62C10.21,9.06,8.89,8.56,7.8,7.71a12.54,12.54,0,0,1,2.69,5.83c.84.49,2,.66,2.52-.2a5.38,5.38,0,0,0,4.84-1.26,5.63,5.63,0,0,0,1.57-2c.09-.19.3-.89.49-1.47A7.08,7.08,0,0,1,17.35,10.53Z"/><path class="cls-162" d="M12,11.63c0-.18,0-.35.05-.53.06-.64.08-1.28.11-1.91s.31-1.5.52-2.25a10.39,10.39,0,0,1,2.78-4.2c.59-.61,1.88-1.55,1.87-2.48A.18.18,0,0,0,17.2.07c-1.15-.49-2.94,1.78-3.51,2.46a10.81,10.81,0,0,0-2,8.23,6.26,6.26,0,0,0,.2.88A.05.05,0,0,0,12,11.63Zm.85-6.88A8.29,8.29,0,0,1,15.6,1.12c1.22-1,1.25-.39.32.53a14.45,14.45,0,0,0-3.51,4.88A10.75,10.75,0,0,1,12.85,4.75Z"/><path class="cls-161" d="M12,11.63c0-.18,0-.35.05-.53.06-.64.08-1.28.11-1.91s.31-1.5.52-2.25a10.39,10.39,0,0,1,2.78-4.2c.59-.61,1.88-1.55,1.87-2.48A.18.18,0,0,0,17.2.07c-1.15-.49-2.94,1.78-3.51,2.46a10.81,10.81,0,0,0-2,8.23,6.26,6.26,0,0,0,.2.88A.05.05,0,0,0,12,11.63Zm.85-6.88A8.29,8.29,0,0,1,15.6,1.12c1.22-1,1.25-.39.32.53a14.45,14.45,0,0,0-3.51,4.88A10.75,10.75,0,0,1,12.85,4.75Z"/></g></g></svg>